<svg width="180" height="139" viewBox="0 0 180 139" fill="none" xmlns="http://www.w3.org/2000/svg">
<path d="M109.4 98.1828C82.65 107.008 61.9 78.9775 61.9 78.9775C61.9 78.9775 53.8 69.7008 52.2 59.2207C50.6 48.6903 52.95 38.16 62.3 30.5381L63.3 31.892L65.15 34.4493C65.15 34.4493 55.3 44.6286 59.7 60.2235C64.1 75.8184 79.8 89.0064 91.95 91.5136C103.65 93.9205 115.6 90.8617 118.95 77.9245C119.1 77.4231 119.2 76.8715 119.3 76.3199C119.55 75.0161 119.7 73.6622 119.75 72.3083C120.25 59.1705 111.8 45.9324 108.45 43.3249C108.45 43.3249 109.1 43.0742 110 42.8235C110.55 42.673 111.15 42.5226 111.75 42.3722C112.45 42.2217 113.1 42.1716 113.65 42.2719C113.65 42.2719 115.6 44.1272 118.05 48.0385L117.6 49.1416C117.45 49.4425 117.4 49.7434 117.35 50.0944C117.15 51.4483 117.7 52.8022 118.8 53.6045L118.9 53.7048C119 53.8051 119.1 53.8552 119.2 53.9053C119.8 54.2564 120.45 54.4569 121.15 54.4569C121.85 54.4569 121.3 54.4569 121.4 54.4569C122.1 56.0616 122.8 57.8166 123.45 59.7722C127.5 71.9072 127.25 92.2658 109.3 98.1327L109.4 98.1828Z" fill="#19252F"/>
<path d="M61.95 78.9774L59.45 80.6322C59.45 80.6322 58.2 78.9774 56.4 80.1307L36.15 94.6224C35.05 95.4247 34.85 97.0293 35.75 98.0824L41.35 104.601C42.45 105.855 44.3 106.055 45.65 105.103L64.6 91.2627C65.5 90.6109 65.7 89.3071 65.05 88.4045L64.85 88.1037L68.1 85.5463L61.95 78.9272V78.9774Z" fill="#19252F"/>
<path d="M109.95 37.0064C109.95 37.0064 108.95 37.0064 107.65 37.0064C106.85 37.0064 105.95 37.0064 105.15 37.0064C104.25 37.0064 103.45 37.1067 102.9 37.2571C102.9 37.2571 95.35 31.992 94.15 31.3401C94.15 31.3401 94.15 30.7885 94 29.9862C93.9 29.4346 93.75 28.7326 93.5 28.0306C93.35 27.6796 93.25 27.2784 93.05 26.9775C93.05 26.9775 101.5 29.7856 109.95 37.0565V37.0064Z" fill="#253D45"/>
<path d="M70.9501 27.0778C71.1501 26.9273 72.2501 26.125 76.6501 24.8213C76.6501 24.8213 76.7001 24.8213 76.7001 24.8714C76.5501 25.5233 75.6001 30.4876 75.0501 30.7383C75.0501 30.7383 72.6501 29.585 70.9501 27.1781C70.9501 27.1781 70.9501 27.1781 70.9501 27.1279V27.0778Z" fill="#253D45"/>
<path d="M119.35 40.0149L119.2 40.2657L118.8 40.9175C99.2501 41.3688 96.9001 49.2415 96.3501 51.4478C96.3001 51.6986 96.2001 51.9994 96.1501 52.3504C96.1001 52.7516 96.0001 53.1527 95.9501 53.6542C95.6001 56.5124 95.6501 61.2761 97.6501 68.196C97.7501 68.547 97.8501 68.898 97.9501 69.249C98.0001 69.4496 98.1001 69.6502 98.1501 69.9009C100.95 78.2249 105.45 84.3926 107.1 86.3483C107.85 87.2508 108.35 87.8526 108.6 88.2537C108.85 88.6047 108.75 89.056 108.4 89.2566C107.55 89.7581 106.65 90.1592 105.9 90.3598C105.35 90.5604 104.85 90.6607 104.45 90.7108C104.2 90.7108 104 90.7609 103.85 90.8111C103.7 90.8111 103.55 90.8111 103.4 90.6607C100 87.4013 92.0001 76.52 92.0001 76.52C92.0001 76.9211 92.0001 77.4727 92.1001 78.1747C92.2001 79.2278 92.3501 80.5817 92.5501 81.9857C92.9501 85.0445 93.5001 88.4543 93.7001 89.7581C93.7001 89.8082 93.7001 89.8584 93.7001 89.9085C93.7001 90.1091 93.5501 90.3096 93.3001 90.2595C91.4501 89.8583 89.8001 89.3569 88.45 88.8053C86.8 88.1534 85.6501 87.5517 85 87.2007C84.65 87.0001 84.4001 86.6491 84.3001 86.248C83.9501 84.6935 83.5501 82.8883 83.0501 80.8825C82.7001 79.5286 82.35 78.0744 81.9 76.52C80 69.5499 77.35 60.4738 73.75 48.8905C69 33.5965 57.6 21.261 53.85 17.5503C53.15 16.8483 52.7 16.4471 52.65 16.397C66 22.0633 71.55 31.1394 76.45 35.9532C79.8 39.2628 81.8501 40.5164 82.8001 40.9677C83.1001 41.1181 83.4501 41.1682 83.8001 41.1181C84.3001 41.068 85.25 41.068 86.2 41.8201C86.35 41.9204 86.5001 42.0207 86.6501 42.121C87.8001 42.7729 88.6501 42.121 88.6501 42.121C90.8001 41.068 96.2501 39.2628 101.65 38.4605C103.05 38.2599 104.5 38.1094 105.8 38.0593C112.25 37.8587 119.2 39.9648 119.2 39.9648L119.35 40.0149Z" fill="#74B804"/>
<path d="M120.6 40.567C120.6 40.567 119.9 40.6673 118.8 40.918C118.8 40.918 118.8 40.918 118.75 40.918C99.1999 41.3693 96.8499 49.242 96.2999 51.4483C96.2499 51.699 96.1499 51.9999 96.0999 52.3509C96.0999 52.4512 96.0999 52.5013 96.0999 52.6016C96.0499 52.9025 95.9999 53.2535 95.9499 53.6547C95.5999 56.5129 95.5999 61.2766 97.6499 68.1965C97.7999 68.7481 97.9999 69.3498 98.1999 69.9014C97.4499 68.7481 95.9499 66.0403 94.5499 61.2265C93.6499 58.1677 93.3999 55.1088 93.6999 52.4011C93.6999 52.05 93.7999 51.6489 93.8499 51.2979C94.3999 48.3895 95.7499 45.9826 97.8999 44.5785C102 41.9209 111.05 38.7618 119.25 40.2661C119.7 40.3664 120.2 40.4667 120.65 40.567H120.6Z" fill="#2E730C"/>
<path d="M50.75 15.0433C56.85 18.6036 61.6 23.969 65.95 29.4347C67.05 30.7886 67.95 32.3431 69 33.7471C72.1 37.9593 75.85 41.7201 80.25 44.5783C78.75 43.7259 77.3 42.723 75.9 41.6198C73.15 39.4135 70.75 36.8561 68.6 33.9979C67.55 32.5938 66.65 31.0895 65.55 29.7356C61.25 24.2197 56.6 18.9044 50.75 14.9932V15.0433Z" fill="#12610E"/>
<path d="M93.8 51.2979C94.65 51.8495 95.4 52.3008 96.05 52.6016C96 52.9025 95.95 53.2535 95.9 53.6547C95.2 53.3036 94.4 52.8524 93.65 52.3509C90.35 50.1446 87.05 46.9855 87.05 46.9855L91.05 60.0731L87.65 64.0345L85 44.5785L86.05 42.7733C86.25 42.5226 86.5 42.322 86.75 42.1215C87.9 42.7733 88.75 42.1215 88.75 42.1215C90.9 41.0684 96.35 39.2632 101.75 38.4609C90.5 41.8206 86.75 45.9826 86.75 45.9826C89.4 48.3394 91.85 50.0944 93.8 51.2979Z" fill="#A6DD09"/>
<path d="M84.4 45.3306H85.75L90.4 59.9727L87.6 63.6332L83.75 60.073L84.4 45.3306Z" fill="#106315"/>
<path d="M92.0001 35.3015C91.3001 38.0092 89.3001 39.7643 85.0001 39.1626C78.9501 38.26 77.0001 31.5406 77.9501 26.9775C78.9001 22.3642 84.0501 22.4645 84.0501 22.4645C84.9501 22.5147 85.8001 22.7153 86.5501 23.0161C90.1501 24.37 92.0001 27.9804 92.2501 31.6911C92.3501 32.9948 92.2501 34.2484 92.0001 35.3516V35.3015Z" fill="url(#paint0_linear_1412_7656)"/>
<path d="M101.8 96.327C89.95 97.4803 78.3 91.5633 67.45 80.9828C56.65 70.4024 53.9 56.5626 55.55 46.283C56.85 38.1596 61.5 33.4461 63.35 31.8916L65.2 34.449C65.2 34.449 55.35 44.6282 59.75 60.2231C64.15 75.818 79.85 89.0059 92 91.5131C103.7 93.92 115.65 90.8612 119 77.924C119.15 77.4226 119.25 76.871 119.35 76.3194C119.6 75.0157 119.75 73.6618 119.8 72.3079C120.4 68.4969 120.75 63.4825 118.5 57.7159C115.35 49.5424 112 44.9793 110 42.823C110.55 42.6726 111.15 42.5222 111.75 42.3717C113.75 44.7285 115.65 47.1856 117.35 50.094C117.15 51.4479 117.7 52.8018 118.8 53.6041L118.9 53.7043C119 53.8046 119.1 53.8548 119.2 53.9049C121.05 58.2675 122.35 63.5828 122.65 70.5528C123.35 86.4485 113.5 95.1235 101.65 96.2768L101.8 96.327Z" fill="url(#paint1_linear_1412_7656)"/>
<path d="M63.9 89.0063L46.15 102.345C45.1 103.147 43.55 102.997 42.7 101.944L38.05 96.528C37.7 96.0767 37.75 95.4248 38.2 95.0738L39.35 94.2214L56.45 81.585C57.25 80.9833 58.35 81.1337 59 81.8357C59.05 81.936 59.15 81.9861 59.2 82.0864C60.75 83.8415 63.2 86.6496 64.05 88.204C64.2 88.4548 64.15 88.8058 63.9 88.9562V89.0063Z" fill="#44525D"/>
<path d="M63.05 80.1807L60.65 81.7853C60.5 81.9357 60.45 82.1864 60.6 82.3369L63.4 85.7968C63.55 85.9473 63.75 85.9974 63.95 85.847L66.4 83.9415L63.1 80.1807H63.05Z" fill="#4E5F67"/>
<path d="M107.7 36.9563C106.9 36.9563 106 36.9563 105.2 36.9563C103.25 35.5021 98.5499 32.1424 94.0499 29.9361C93.9499 29.3845 93.7999 28.6825 93.5499 27.9805C96.2499 29.3845 103 32.9448 107.7 36.9062V36.9563Z" fill="#637074"/>
<path d="M85 44.9291C86.2151 44.9291 87.2 44.076 87.2 43.0236C87.2 41.9713 86.2151 41.1182 85 41.1182C83.785 41.1182 82.8 41.9713 82.8 43.0236C82.8 44.076 83.785 44.9291 85 44.9291Z" fill="#106315"/>
<path d="M91.9999 35.3016C87.7499 38.1598 81.1999 30.8889 81.1499 26.7269C81.0999 22.4145 85.9499 22.8658 86.5499 22.9661C90.1499 24.32 91.9999 27.9304 92.2499 31.641C92.3499 32.9448 92.2499 34.1984 91.9999 35.3016Z" fill="url(#paint2_linear_1412_7656)"/>
<path d="M118.35 43.3247C118.2 43.1241 118.15 42.8232 118.25 42.5725C118.7 41.4192 120.1 37.8589 121.2 36.9563C121.2 36.9563 121.6 36.6555 122.1 36.8561C122.6 37.0566 122.9 37.7085 122.7 38.2601C122.2 39.5639 121.1 42.5224 120.45 43.8763C119.8 45.2302 119.85 44.3777 119.5 44.2273C119.15 44.0768 118.75 43.8261 118.35 43.3247Z" fill="#1C312C"/>
<path d="M119.5 49.9435L125.75 34.8501C126.05 34.1481 126.9 33.7971 127.6 34.0979H127.7C128.75 34.5994 129.5 35.5521 129.7 36.6553L131.1 45.0795C131.3 46.283 130.75 47.4865 129.65 48.0381L122.1 52.2C121.5 52.551 120.75 52.5009 120.2 52.0496L120.1 51.9493C119.45 51.4479 119.2 50.5954 119.55 49.8432L119.5 49.9435Z" fill="url(#paint3_linear_1412_7656)"/>
<path d="M120.65 50.1442L126.65 35.7528C126.65 35.7027 126.75 35.6525 126.8 35.6525L128.05 35.5522C128.15 35.5522 128.25 35.6525 128.2 35.7528L125.95 42.3217C125.9 42.4722 125.95 42.6727 126.15 42.773L130.75 45.0295C130.75 45.0295 131.15 46.233 121.8 51.097C121.6 51.1973 121.4 51.1973 121.2 51.097C121 50.9967 120.95 50.9466 120.85 50.8463C120.65 50.6958 120.6 50.395 120.7 50.1944L120.65 50.1442Z" fill="#5FAF2D"/>
<path d="M143.1 42.1212L136.65 58.3679C136.45 58.9195 135.8 59.1703 135.3 58.8694L125.05 53.4037C124.8 53.2532 124.8 52.9524 125.05 52.8019L125.55 52.5011L131.75 48.7402C132.75 48.1385 133.35 46.935 133.1 45.7316C133.1 45.6313 133.1 45.531 133.05 45.4809C132.7 44.3275 131.8 40.0653 131.35 37.6584C131.3 37.3575 131.25 37.0566 131.2 36.8059C131.15 36.4549 131.5 36.2042 131.8 36.3546L134.5 37.5581L142.25 41.0682L142.95 41.369C143.25 41.5195 143.35 41.8203 143.25 42.1212H143.1Z" fill="#0F7B22"/>
<path d="M108.4 89.2068C107.55 89.7082 106.65 90.1094 105.9 90.31C105.35 90.5105 104.85 90.6108 104.45 90.661L102.05 86.4489C101.85 82.0362 100.4 78.8269 98.8999 75.367C97.6999 72.7093 97.8499 70.152 97.9499 69.1992C97.9999 69.3998 98.0999 69.6004 98.1499 69.8511C100.95 78.175 105.45 84.3428 107.1 86.2984C107.85 87.201 108.35 87.8027 108.6 88.1538C108.85 88.5048 108.75 88.9561 108.4 89.1566V89.2068Z" fill="#2E730C"/>
<path d="M105.9 90.3098C105 90.6107 104.25 90.7109 103.85 90.7611C103.7 90.7611 103.5 90.7611 103.4 90.6106C100 87.3513 92 76.4198 92 76.4198C91.5 75.4671 91.35 75.1662 91.35 75.1662L93.05 74.4141C93.05 74.4141 95.3 79.7294 105.85 90.3098H105.9Z" fill="url(#paint4_linear_1412_7656)"/>
<path d="M97.8499 70.603C97.8499 70.603 95.3999 74.9656 88.7999 77.0215C88.7999 77.0215 87.5499 77.4227 85.7499 77.3725C84.6499 77.3725 83.2999 77.1218 81.9999 76.5702C81.9499 76.3195 81.8499 76.0688 81.7999 75.818C82.9999 76.2192 84.4499 76.5702 85.5999 76.5702H85.6999C88.0999 76.5201 91.1499 75.467 97.7999 70.603H97.8499Z" fill="#A6DD09"/>
<path d="M142.9 41.4692C142.9 41.4692 145.65 44.4778 131.25 37.6081C131.2 37.3072 131.15 37.0063 131.1 36.7556C131.05 36.4046 131.4 36.1539 131.7 36.3043L134.4 37.5078L142.95 41.419L142.9 41.4692Z" fill="#5FAF2D"/>
<path d="M143.1 42.1211L136.65 58.3678C136.45 58.9194 135.8 59.1701 135.3 58.8693L125.05 53.4035C124.8 53.2531 124.8 52.9522 125.05 52.8018L125.55 52.5009C128.8 53.9551 135.2 56.8635 135.2 56.8635L142.15 41.1182L142.85 41.419C143.15 41.5695 143.25 41.8703 143.15 42.1712L143.1 42.1211Z" fill="#1C312C"/>
<path d="M59.1999 82.1362L39.2999 94.2712L56.3999 81.6348C57.1999 81.0331 58.2999 81.1835 58.9499 81.8855C58.9999 81.9858 59.0999 82.0359 59.1499 82.1362H59.1999Z" fill="url(#paint5_linear_1412_7656)"/>
<path d="M93.7501 89.8084C93.7501 90.009 93.6001 90.2096 93.3501 90.1595C91.5001 89.7583 89.8501 89.2569 88.5001 88.7053C86.8501 88.0534 85.7001 87.4517 85.0501 87.1006C84.7001 86.9001 84.4501 86.5491 84.3501 86.1479C84.0001 84.5934 83.6001 82.7882 83.1001 80.7825C82.7501 79.4286 82.4001 77.9744 81.9501 76.4199C84.5501 77.0217 89.3001 78.0747 92.0501 78.0747C92.1501 79.1277 92.3001 80.4816 92.5001 81.8856C92.9001 84.9444 93.4501 88.3543 93.6501 89.658C93.6501 89.7082 93.6501 89.7583 93.6501 89.8084H93.7501Z" fill="url(#paint6_linear_1412_7656)"/>
<path d="M88.5499 88.7551C86.8999 88.1033 85.7499 87.5015 85.0999 87.1004C84.7499 86.8998 84.4999 86.5488 84.3999 86.1476C83.8499 83.5401 83.0499 80.3309 81.9999 76.5199C81.9499 76.2692 81.8499 76.0185 81.7999 75.7678C80.1499 69.7003 77.8999 62.1285 75.0499 52.8017C74.9499 52.5008 74.8499 52.2 74.7499 51.8991C74.4499 50.8962 74.1499 49.8933 73.7999 48.8905C69.0499 33.5965 57.6499 21.261 53.8999 17.5503L55.3499 18.503C55.3499 18.503 62.9999 24.8714 68.1999 33.1953C68.1999 33.1953 73.4999 40.3659 77.3499 49.6928C77.4499 49.8933 77.4999 50.0438 77.5999 50.2443C78.2999 52.0495 78.9499 53.9049 79.4999 55.7602C82.5999 66.3407 84.3999 70.9539 85.5499 76.5701C85.5999 76.8208 85.6499 77.1217 85.6999 77.3724C85.7999 77.8738 85.8999 78.4254 85.9999 78.977C86.7999 83.7407 87.8999 87.1505 88.4999 88.7551H88.5499Z" fill="#1F6716"/>
<path d="M83.1501 47.4868C80.9501 47.888 79.0501 48.9912 77.6001 50.1946C76.4501 51.0972 75.6001 52.1001 75.0501 52.8021C74.9501 52.5013 74.8501 52.2004 74.7501 51.8995C75.7001 50.9969 76.6001 50.2448 77.4001 49.6932C81.2001 46.9353 83.1501 47.537 83.1501 47.537V47.4868Z" fill="#A6DD09"/>
<path d="M41.9501 107.81H45.1501V113.727H51.5501V107.81H54.7501V122.001H51.5501V116.385H45.1501V122.001H41.9501V107.81Z" fill="url(#paint7_linear_1412_7656)"/>
<path d="M58.55 106.757C58.85 107.058 59.05 107.509 59.05 108.011C59.05 108.512 58.9 108.964 58.55 109.265C58.25 109.565 57.8 109.766 57.35 109.766C56.9 109.766 56.45 109.616 56.15 109.265C55.85 108.914 55.65 108.512 55.65 108.011C55.65 107.509 55.8 107.058 56.15 106.757C56.45 106.456 56.85 106.256 57.35 106.256C57.85 106.256 58.25 106.406 58.55 106.757ZM55.75 111.12H58.85V122.051H55.75V111.12Z" fill="url(#paint8_linear_1412_7656)"/>
<path d="M65.6501 111.521C66.2501 111.17 66.9501 110.969 67.8001 110.969V113.928C67.7001 113.928 67.5501 113.928 67.3001 113.928C66.3501 113.928 65.6001 114.178 65.0001 114.73C64.4501 115.231 64.1501 115.934 64.1501 116.786V122.051H61.05V111.12H64.1501V113.075C64.5501 112.423 65.0001 111.872 65.6501 111.521Z" fill="url(#paint9_linear_1412_7656)"/>
<path d="M77.3501 112.524C78.2501 113.527 78.7001 114.931 78.7001 116.786C78.7001 118.642 78.7001 117.338 78.7001 117.538H70.9001C71.1001 118.24 71.4001 118.742 71.9001 119.143C72.4001 119.544 73.0001 119.745 73.7001 119.745C74.4001 119.745 74.7001 119.644 75.2001 119.444C75.7001 119.243 76.1001 118.942 76.4501 118.591L78.1001 120.246C77.5501 120.848 76.9001 121.349 76.1001 121.7C75.3001 122.051 74.4501 122.202 73.4501 122.202C72.4501 122.202 71.3001 121.951 70.4501 121.5C69.6001 121.049 68.9501 120.397 68.4501 119.544C68.0001 118.692 67.7501 117.739 67.7501 116.636C67.7501 115.533 68.0001 114.53 68.4501 113.727C68.9001 112.875 69.6001 112.223 70.4501 111.772C71.3001 111.321 72.2501 111.07 73.3501 111.07C75.1001 111.07 76.4501 111.571 77.3501 112.574V112.524ZM75.8001 115.683C75.8001 114.981 75.5501 114.379 75.1001 113.978C74.6501 113.527 74.1001 113.326 73.4001 113.326C72.7001 113.326 72.1501 113.527 71.7001 113.978C71.2501 114.379 70.9501 114.981 70.8501 115.733H75.8001V115.683Z" fill="url(#paint10_linear_1412_7656)"/>
<path d="M80.0001 107.81H83.2001V113.727H89.6001V107.81H92.8001V122.001H89.6001V116.385H83.2001V122.001H80.0001V107.81Z" fill="url(#paint11_linear_1412_7656)"/>
<path d="M104.6 111.12V122.051H101.5V120.146C100.75 121.499 99.5499 122.202 97.85 122.202C96.15 122.202 95.7 121.851 95 121.098C94.3 120.346 93.95 119.343 93.95 118.04V111.17H97.05V117.137C97.05 117.839 97.25 118.391 97.6 118.742C97.95 119.093 98.4499 119.343 99.0999 119.343C99.8499 119.343 100.45 119.042 100.85 118.541C101.3 118.04 101.5 117.388 101.5 116.535V111.12H104.6Z" fill="url(#paint12_linear_1412_7656)"/>
<path d="M115.35 111.722C116.15 112.173 116.75 112.825 117.15 113.677C117.55 114.53 117.8 115.532 117.8 116.636C117.8 117.739 117.6 118.692 117.15 119.544C116.75 120.396 116.15 120.998 115.4 121.5C114.65 122.001 113.75 122.202 112.75 122.202C111.75 122.202 111.3 122.051 110.75 121.75C110.15 121.45 109.65 121.048 109.25 120.497V122.101H106.15V107.058H109.25V112.825C109.65 112.273 110.15 111.872 110.7 111.571C111.3 111.27 111.95 111.12 112.65 111.12C113.35 111.12 114.55 111.371 115.35 111.822V111.722ZM113.85 118.692C114.35 118.14 114.6 117.388 114.6 116.485C114.6 115.583 114.35 114.881 113.85 114.329C113.35 113.777 112.7 113.477 111.9 113.477C111.1 113.477 110.45 113.777 109.95 114.329C109.45 114.881 109.2 115.633 109.2 116.485C109.2 117.338 109.45 118.14 109.95 118.692C110.45 119.243 111.1 119.544 111.9 119.544C112.7 119.544 113.35 119.243 113.85 118.692Z" fill="url(#paint13_linear_1412_7656)"/>
<path d="M125.05 106.958V117.388C125.05 117.99 124.9 118.441 124.6 118.792C124.3 119.143 123.9 119.294 123.35 119.294C122.8 119.294 122.4 119.143 121.9 118.892C121.35 118.642 120.85 118.24 120.35 117.739L118.85 119.996C120.1 121.45 121.65 122.202 123.5 122.202C125.35 122.202 126.15 121.801 127 120.948C127.85 120.146 128.25 118.993 128.25 117.488V106.958H125.05Z" fill="url(#paint14_linear_1412_7656)"/>
<path d="M141.15 114.229L138.45 107.459H134.4L133.5 109.716L129.6 119.444L129 120.948L128.7 121.7H132.95L134.1 119.544L136.65 118.19L138.65 119.344L139.6 121.65H144.15L141.15 114.179V114.229ZM137.7 114.68L136.8 115.182C136.8 115.182 136.2 114.981 135.25 114.48L136.45 111.421L137.7 114.68Z" fill="#1D6A15"/>
<path d="M144.1 121.7H143.8L143.5 121.55L139.5 119.294L139 118.993L136.8 117.739C136.6 117.839 135.65 118.341 134.5 118.993C134.05 119.243 133.6 119.494 133.15 119.695C131.9 120.347 130.55 121.049 129.65 121.55C129.55 121.55 129.5 121.65 129.4 121.7H128.7L129 120.948L129.6 119.444L130.45 119.143L135.6 116.686L135.45 116.586L134.65 116.034L134.2 115.733C133.25 115.132 132.85 114.329 132.7 113.778C132.55 113.276 132.6 112.925 132.6 112.925C132.7 113.025 132.85 113.076 132.95 113.176C133.8 113.728 134.6 114.179 135.2 114.48C136.15 114.931 136.75 115.182 136.75 115.182L137.65 114.68L136.4 111.421L134.2 110.117L133.45 109.716L134.35 107.459H138.4L141.1 114.229L140.6 114.63L138.55 116.185C138.55 116.185 141.35 118.341 142.3 119.294C142.45 119.444 142.6 119.594 142.75 119.795C143.3 120.497 143.85 121.299 144.1 121.751V121.7Z" fill="#BCDC07"/>
<defs>
<linearGradient id="paint0_linear_1412_7656" x1="81.6501" y1="22.3141" x2="88.6851" y2="40.2018" gradientUnits="userSpaceOnUse">
<stop stop-color="#23780E"/>
<stop offset="1" stop-color="#183E18"/>
</linearGradient>
<linearGradient id="paint1_linear_1412_7656" x1="73.95" y1="26.2253" x2="104.448" y2="96.7645" gradientUnits="userSpaceOnUse">
<stop stop-color="#84949E"/>
<stop offset="1" stop-color="#5F6E74"/>
</linearGradient>
<linearGradient id="paint2_linear_1412_7656" x1="83.3999" y1="22.7655" x2="91.2846" y2="36.937" gradientUnits="userSpaceOnUse">
<stop stop-color="#7ABD05"/>
<stop offset="1" stop-color="#4C9103"/>
</linearGradient>
<linearGradient id="paint3_linear_1412_7656" x1="130.35" y1="36.4547" x2="122.011" y2="54.0368" gradientUnits="userSpaceOnUse">
<stop stop-color="#278A22"/>
<stop offset="1" stop-color="#0C2C1F"/>
</linearGradient>
<linearGradient id="paint4_linear_1412_7656" x1="90.6" y1="74.1132" x2="105.497" y2="90.5178" gradientUnits="userSpaceOnUse">
<stop stop-color="#297107"/>
<stop offset="1" stop-color="#14301B"/>
</linearGradient>
<linearGradient id="paint5_linear_1412_7656" x1="58.9499" y1="81.4844" x2="41.5245" y2="91.6199" gradientUnits="userSpaceOnUse">
<stop stop-color="#8D9A9E"/>
<stop offset="1" stop-color="#44525D"/>
</linearGradient>
<linearGradient id="paint6_linear_1412_7656" x1="89.6501" y1="78.5761" x2="86.032" y2="87.8959" gradientUnits="userSpaceOnUse">
<stop stop-color="#74B804" stop-opacity="0"/>
<stop offset="0.2" stop-color="#5BA009" stop-opacity="0.09"/>
<stop offset="0.4" stop-color="#41870E" stop-opacity="0.36"/>
<stop offset="0.6" stop-color="#2E7512" stop-opacity="0.64"/>
<stop offset="0.8" stop-color="#226A15"/>
<stop offset="1" stop-color="#1F6716"/>
</linearGradient>
<linearGradient id="paint7_linear_1412_7656" x1="41.6001" y1="114.931" x2="116.25" y2="114.931" gradientUnits="userSpaceOnUse">
<stop stop-color="#24303C"/>
<stop offset="1" stop-color="#2A760F"/>
</linearGradient>
<linearGradient id="paint8_linear_1412_7656" x1="41.6" y1="114.129" x2="116.25" y2="114.129" gradientUnits="userSpaceOnUse">
<stop stop-color="#24303C"/>
<stop offset="1" stop-color="#2A760F"/>
</linearGradient>
<linearGradient id="paint9_linear_1412_7656" x1="41.6" y1="116.535" x2="116.25" y2="116.535" gradientUnits="userSpaceOnUse">
<stop stop-color="#24303C"/>
<stop offset="1" stop-color="#2A760F"/>
</linearGradient>
<linearGradient id="paint10_linear_1412_7656" x1="41.6001" y1="116.586" x2="116.25" y2="116.586" gradientUnits="userSpaceOnUse">
<stop stop-color="#24303C"/>
<stop offset="1" stop-color="#2A760F"/>
</linearGradient>
<linearGradient id="paint11_linear_1412_7656" x1="41.6001" y1="-21.6624" x2="116.25" y2="-21.6624" gradientUnits="userSpaceOnUse">
<stop stop-color="#24303C"/>
<stop offset="1" stop-color="#2A760F"/>
</linearGradient>
<linearGradient id="paint12_linear_1412_7656" x1="41.6" y1="116.635" x2="116.25" y2="116.635" gradientUnits="userSpaceOnUse">
<stop stop-color="#24303C"/>
<stop offset="1" stop-color="#2A760F"/>
</linearGradient>
<linearGradient id="paint13_linear_1412_7656" x1="41.6" y1="114.58" x2="116.25" y2="114.58" gradientUnits="userSpaceOnUse">
<stop stop-color="#24303C"/>
<stop offset="1" stop-color="#2A760F"/>
</linearGradient>
<linearGradient id="paint14_linear_1412_7656" x1="123.55" y1="106.808" x2="123.55" y2="122.553" gradientUnits="userSpaceOnUse">
<stop stop-color="#7ABD05"/>
<stop offset="1" stop-color="#105018"/>
</linearGradient>
</defs>
</svg>
