<svg width="105" height="156" viewBox="0 0 105 156" fill="none" xmlns="http://www.w3.org/2000/svg">
<path d="M99.8839 5.3162C104.741 22.8682 100.213 43.6405 91.3942 59.1929C82.9525 74.0794 66.6395 90.6048 47.7964 86.9054C40.9348 85.5581 34.9211 80.1256 37.7016 72.6766C40.2838 65.7588 47.9331 63.2733 54.4869 66.1229C72.1864 73.8182 65.8695 99.9607 58.3663 112.71C53.6221 120.77 46.9648 127.691 39.0773 132.724C31.7589 137.393 22.2636 141.568 13.4199 140.896C12.1505 140.8 12.03 138.682 13.2447 138.385C19.7416 136.801 26.03 135.806 32.1128 132.815C38.4189 129.714 44.1092 125.33 48.8216 120.128C58.1681 109.811 65.7253 93.3854 61.6956 79.2662C59.56 71.7834 49.3596 63.0229 42.3423 70.7555C39.4975 73.8906 39.0178 78.6301 42.479 81.4973C45.6405 84.1161 50.4342 84.627 54.3698 84.3908C70.3803 83.4285 83.0797 69.1869 90.2208 56.0077C94.2593 48.5546 97.031 40.4452 98.4358 32.0867C99.9388 23.1423 99.3101 14.5706 98.3492 5.6329C98.2551 4.75997 99.6437 4.448 99.8839 5.3162Z" fill="url(#paint0_linear_304_7087)"/>
<path d="M98.7439 0.475093C108.555 18.1685 106.29 40.1447 95.69 56.9645C90.5891 65.0584 83.8852 72.0269 76.2988 77.8275C68.5548 83.7485 59.1271 89.8286 49.2691 91.1096C42.3932 92.0028 30.9477 89.1736 31.8166 80.1086C32.5806 72.1332 41.4154 64.4994 49.1913 64.019C57.8989 63.481 64.3891 71.1229 66.0131 79.0334C67.9512 88.4725 64.6847 98.8299 60.6043 107.303C51.674 125.848 34.3434 140.135 14.2903 144.907C12.3787 145.362 11.3305 142.473 13.2645 141.994C27.7842 138.397 40.6745 130.029 49.9864 118.327C54.7327 112.363 58.4897 105.549 60.8811 98.3048C63.6197 90.0079 65.5211 79.6228 59.77 72.1399C53.4233 63.8823 43.097 66.6648 37.4947 74.1673C34.2243 78.5475 33.2519 83.7682 38.7899 86.8302C43.2865 89.3157 49.012 88.6748 53.7177 87.1821C68.7963 82.3979 83.2856 70.3048 92.1076 57.3597C103.169 41.1279 106.573 19.3825 97.0657 1.62072C96.454 0.481856 98.1058 -0.674602 98.7439 0.475093Z" fill="url(#paint1_linear_304_7087)"/>
<path d="M26.5442 128.447C23.3767 131.517 19.3044 133.791 15.7984 136.481C11.7336 139.599 7.72755 142.869 4.15327 146.544C3.82575 145.581 3.49824 144.618 3.17072 143.655C7.83717 144.709 12.5483 145.57 17.2959 146.17C21.9123 146.753 27.0924 146.268 31.5369 147.548C32.8294 147.92 33.3551 150.112 31.7419 150.494C27.451 151.51 22.2486 150.519 17.9131 149.995C12.7005 149.365 7.56515 148.384 2.47103 147.117C0.930881 146.734 0.643286 144.883 1.82614 143.927C5.75229 140.757 9.57153 137.478 13.6425 134.489C17.3034 131.8 21.2762 128.578 25.5617 127.001C26.3703 126.704 27.2088 127.802 26.5442 128.447Z" fill="#3FAE2A"/>
<path d="M30.2786 127.7C21.0858 134.452 11.8578 141.159 2.74277 148.015C2.52758 146.953 2.31307 145.89 2.09788 144.826C7.20012 146.487 12.2963 148.106 17.5075 149.395C22.3025 150.582 27.6422 150.939 32.2004 152.816C33.6411 153.409 33.0808 155.619 31.6279 155.716C26.5385 156.058 20.9735 154.178 16.0857 152.905C10.9733 151.574 5.90223 150.025 0.965777 148.14C-0.30234 147.655 -0.267164 145.789 0.75396 145.099C10.1978 138.717 19.5362 132.178 28.907 125.689C30.2008 124.792 31.5379 126.775 30.2786 127.7Z" fill="#3FAE2A"/>
<defs>
<linearGradient id="paint0_linear_304_7087" x1="15.3798" y1="134.186" x2="113.882" y2="10.7451" gradientUnits="userSpaceOnUse">
<stop offset="0.1875" stop-color="#3FAE2A"/>
<stop offset="0.985577" stop-color="white"/>
</linearGradient>
<linearGradient id="paint1_linear_304_7087" x1="15.3273" y1="137.736" x2="120.768" y2="9.04128" gradientUnits="userSpaceOnUse">
<stop offset="0.1875" stop-color="#3FAE2A"/>
<stop offset="0.985577" stop-color="white"/>
</linearGradient>
</defs>
</svg>
