<svg width="100" height="100" viewBox="0 0 100 100" fill="none" xmlns="http://www.w3.org/2000/svg">
<g clip-path="url(#clip0_584_765)">
<path d="M48.0922 83.3332H9.99868C6.31685 83.3332 3.33228 80.3484 3.33228 76.6668V70H54.4958L48.0922 83.3332Z" fill="#D3DCFB"/>
<path d="M90.0053 29.9998V76.6662H9.99868C6.31685 76.6662 3.33228 73.6814 3.33228 69.9996V29.9998L50.0022 13.333L90.0053 29.9998Z" fill="#EBF5FC"/>
<path d="M15.1051 43.3336H11.5635C11.1491 43.3336 10.7516 43.169 10.4586 42.8759C10.1656 42.5829 10.001 42.1855 10.001 41.7711V38.2295C10.001 37.8151 10.1656 37.4177 10.4586 37.1246C10.7516 36.8316 11.1491 36.667 11.5635 36.667H15.1051C15.5195 36.667 15.9169 36.8316 16.2099 37.1246C16.503 37.4177 16.6676 37.8151 16.6676 38.2295V41.7711C16.6676 42.1855 16.503 42.5829 16.2099 42.8759C15.9169 43.169 15.5195 43.3336 15.1051 43.3336ZM28.4385 43.3336H24.8969C24.4825 43.3336 24.085 43.169 23.792 42.8759C23.499 42.5829 23.3344 42.1855 23.3344 41.7711V38.2295C23.3344 37.8151 23.499 37.4177 23.792 37.1246C24.085 36.8316 24.4825 36.667 24.8969 36.667H28.4385C28.8529 36.667 29.2503 36.8316 29.5433 37.1246C29.8364 37.4177 30.001 37.8151 30.001 38.2295V41.7711C30.001 42.1855 29.8364 42.5829 29.5433 42.8759C29.2503 43.169 28.8529 43.3336 28.4385 43.3336ZM41.7717 43.3336H38.2301C37.8157 43.3336 37.4182 43.169 37.1252 42.8759C36.8322 42.5829 36.6676 42.1855 36.6676 41.7711V38.2295C36.6676 37.8151 36.8322 37.4177 37.1252 37.1246C37.4182 36.8316 37.8157 36.667 38.2301 36.667H41.7717C42.1861 36.667 42.5835 36.8316 42.8765 37.1246C43.1696 37.4177 43.3342 37.8151 43.3342 38.2295V41.7711C43.3342 42.1855 43.1696 42.5829 42.8765 42.8759C42.5835 43.169 42.1861 43.3336 41.7717 43.3336ZM55.1051 43.3336H51.5635C51.1491 43.3336 50.7517 43.169 50.4586 42.8759C50.1656 42.5829 50.001 42.1855 50.001 41.7711V38.2295C50.001 37.8151 50.1656 37.4177 50.4586 37.1246C50.7517 36.8316 51.1491 36.667 51.5635 36.667H55.1051C55.5195 36.667 55.9169 36.8316 56.2099 37.1246C56.503 37.4177 56.6676 37.8151 56.6676 38.2295V41.7711C56.6676 42.1855 56.503 42.5829 56.2099 42.8759C55.9169 43.169 55.5195 43.3336 55.1051 43.3336ZM68.4361 43.3336H64.8945C64.4801 43.3336 64.0827 43.169 63.7897 42.8759C63.4966 42.5829 63.332 42.1855 63.332 41.7711V38.2295C63.332 37.8151 63.4966 37.4177 63.7897 37.1246C64.0827 36.8316 64.4801 36.667 64.8945 36.667H68.4361C68.8505 36.667 69.248 36.8316 69.541 37.1246C69.834 37.4177 69.9986 37.8151 69.9986 38.2295V41.7711C69.9986 42.1855 69.834 42.5829 69.541 42.8759C69.248 43.169 68.8505 43.3336 68.4361 43.3336ZM81.7695 43.3336H78.2279C77.8135 43.3336 77.4161 43.169 77.1231 42.8759C76.83 42.5829 76.6654 42.1855 76.6654 41.7711V38.2295C76.6654 37.8151 76.83 37.4177 77.1231 37.1246C77.4161 36.8316 77.8135 36.667 78.2279 36.667H81.7695C82.1839 36.667 82.5814 36.8316 82.8744 37.1246C83.1674 37.4177 83.332 37.8151 83.332 38.2295V41.7711C83.332 42.1855 83.1674 42.5829 82.8744 42.8759C82.5814 43.169 82.1839 43.3336 81.7695 43.3336ZM15.1051 56.6668H11.5635C11.1491 56.6668 10.7516 56.5022 10.4586 56.2092C10.1656 55.9161 10.001 55.5187 10.001 55.1043V51.5627C10.001 51.1483 10.1656 50.7509 10.4586 50.4578C10.7516 50.1648 11.1491 50.0002 11.5635 50.0002H15.1051C15.5195 50.0002 15.9169 50.1648 16.2099 50.4578C16.503 50.7509 16.6676 51.1483 16.6676 51.5627V55.1043C16.6676 55.5187 16.503 55.9161 16.2099 56.2092C15.9169 56.5022 15.5195 56.6668 15.1051 56.6668ZM28.4385 56.6668H24.8969C24.4825 56.6668 24.085 56.5022 23.792 56.2092C23.499 55.9161 23.3344 55.5187 23.3344 55.1043V51.5627C23.3344 51.1483 23.499 50.7509 23.792 50.4578C24.085 50.1648 24.4825 50.0002 24.8969 50.0002H28.4385C28.8529 50.0002 29.2503 50.1648 29.5433 50.4578C29.8364 50.7509 30.001 51.1483 30.001 51.5627V55.1043C30.001 55.5187 29.8364 55.9161 29.5433 56.2092C29.2503 56.5022 28.8529 56.6668 28.4385 56.6668ZM41.7717 56.6668H38.2301C37.8157 56.6668 37.4182 56.5022 37.1252 56.2092C36.8322 55.9161 36.6676 55.5187 36.6676 55.1043V51.5627C36.6676 51.1483 36.8322 50.7509 37.1252 50.4578C37.4182 50.1648 37.8157 50.0002 38.2301 50.0002H41.7717C42.1861 50.0002 42.5835 50.1648 42.8765 50.4578C43.1696 50.7509 43.3342 51.1483 43.3342 51.5627V55.1043C43.3342 55.5187 43.1696 55.9161 42.8765 56.2092C42.5835 56.5022 42.1861 56.6668 41.7717 56.6668ZM56.6676 56.6668V51.6668C56.6676 51.4479 56.6245 51.2312 56.5407 51.029C56.457 50.8268 56.3342 50.6431 56.1794 50.4883C56.0247 50.3336 55.841 50.2108 55.6388 50.1271C55.4366 50.0433 55.2198 50.0002 55.001 50.0002H51.6676C51.2256 50.0002 50.8017 50.1758 50.4891 50.4883C50.1766 50.8009 50.001 51.2248 50.001 51.6668V55.0002C50.001 55.4422 50.1766 55.8661 50.4891 56.1787C50.8017 56.4912 51.2256 56.6668 51.6676 56.6668H56.6676ZM15.1051 70.0002H11.5635C11.1491 70.0002 10.7516 69.8356 10.4586 69.5425C10.1656 69.2495 10.001 68.8521 10.001 68.4377V64.8961C10.001 64.4817 10.1656 64.0843 10.4586 63.7912C10.7516 63.4982 11.1491 63.3336 11.5635 63.3336H15.1051C15.5195 63.3336 15.9169 63.4982 16.2099 63.7912C16.503 64.0843 16.6676 64.4817 16.6676 64.8961V68.4377C16.6676 68.8521 16.503 69.2495 16.2099 69.5425C15.9169 69.8356 15.5195 70.0002 15.1051 70.0002ZM28.4385 70.0002H24.8969C24.4825 70.0002 24.085 69.8356 23.792 69.5425C23.499 69.2495 23.3344 68.8521 23.3344 68.4377V64.8961C23.3344 64.4817 23.499 64.0843 23.792 63.7912C24.085 63.4982 24.4825 63.3336 24.8969 63.3336H28.4385C28.8529 63.3336 29.2503 63.4982 29.5433 63.7912C29.8364 64.0843 30.001 64.4817 30.001 64.8961V68.4377C30.001 68.8521 29.8364 69.2495 29.5433 69.5425C29.2503 69.8356 28.8529 70.0002 28.4385 70.0002ZM41.7717 70.0002H38.2301C37.8157 70.0002 37.4182 69.8356 37.1252 69.5425C36.8322 69.2495 36.6676 68.8521 36.6676 68.4377V64.8961C36.6676 64.4817 36.8322 64.0843 37.1252 63.7912C37.4182 63.4982 37.8157 63.3336 38.2301 63.3336H41.7717C42.1861 63.3336 42.5835 63.4982 42.8765 63.7912C43.1696 64.0843 43.3342 64.4817 43.3342 64.8961V68.4377C43.3342 68.8521 43.1696 69.2495 42.8765 69.5425C42.5835 69.8356 42.1861 70.0002 41.7717 70.0002Z" fill="#3C58A0"/>
<path d="M81.7225 36.667H78.2752C78.0666 36.667 77.868 36.708 77.685 36.7801C77.9854 36.8984 78.2433 37.1044 78.4251 37.3713C78.6069 37.6382 78.7042 37.9536 78.7043 38.2766V41.7238C78.7043 42.4043 78.2814 42.9848 77.685 43.2203C77.868 43.2926 78.0666 43.3336 78.2752 43.3336H81.7225C82.1494 43.3336 82.5588 43.164 82.8607 42.8622C83.1625 42.5603 83.3322 42.1509 83.3322 41.724V38.2768C83.3322 37.8498 83.1626 37.4404 82.8607 37.1385C82.5588 36.8367 82.1494 36.667 81.7225 36.667ZM68.3891 36.667H64.9418C64.7332 36.667 64.5346 36.708 64.3516 36.7801C64.652 36.8984 64.9099 37.1044 65.0917 37.3713C65.2735 37.6382 65.3708 37.9536 65.3709 38.2766V41.7238C65.3709 42.4043 64.948 42.9848 64.3516 43.2203C64.5346 43.2926 64.7332 43.3336 64.9418 43.3336H68.3891C68.6004 43.3336 68.8098 43.292 69.005 43.2111C69.2003 43.1302 69.3778 43.0117 69.5273 42.8622C69.6767 42.7128 69.7953 42.5353 69.8762 42.34C69.957 42.1447 69.9986 41.9354 69.9986 41.724V38.2768C69.9986 38.0654 69.957 37.856 69.8762 37.6607C69.7953 37.4654 69.6767 37.288 69.5273 37.1385C69.3778 36.989 69.2004 36.8704 69.0051 36.7895C68.8098 36.7086 68.6004 36.667 68.3891 36.667ZM55.058 36.667H51.6107C51.4021 36.667 51.2035 36.708 51.0205 36.7801C51.6172 37.0156 52.04 37.5961 52.04 38.2766V41.7238C52.04 42.4043 51.6172 42.9848 51.0205 43.2203C51.2035 43.2926 51.4021 43.3336 51.6107 43.3336H55.058C55.4849 43.3336 55.8943 43.164 56.1962 42.8622C56.4981 42.5603 56.6677 42.1509 56.6678 41.724V38.2768C56.6677 37.8498 56.4981 37.4404 56.1962 37.1385C55.8943 36.8367 55.4849 36.667 55.058 36.667ZM41.7246 36.667H38.2773C38.0687 36.667 37.8701 36.708 37.6871 36.7801C38.2838 37.0156 38.7066 37.5961 38.7066 38.2766V41.7238C38.7066 42.4043 38.2838 42.9848 37.6871 43.2203C37.8701 43.2926 38.0687 43.3336 38.2773 43.3336H41.7246C42.1515 43.3336 42.5609 43.164 42.8628 42.8622C43.1647 42.5603 43.3343 42.1509 43.3344 41.724V38.2768C43.3343 37.8498 43.1647 37.4404 42.8628 37.1385C42.5609 36.8367 42.1515 36.667 41.7246 36.667ZM28.3912 36.667H24.9439C24.7353 36.667 24.5367 36.708 24.3537 36.7801C24.6542 36.8984 24.9121 37.1044 25.0939 37.3713C25.2757 37.6382 25.373 37.9536 25.373 38.2766V41.7238C25.373 42.4043 24.9502 42.9848 24.3537 43.2203C24.5367 43.2926 24.7353 43.3336 24.9439 43.3336H28.3912C28.8181 43.3336 29.2275 43.164 29.5294 42.8622C29.8313 42.5603 30.0009 42.1509 30.001 41.724V38.2768C30.001 37.8498 29.8314 37.4404 29.5295 37.1385C29.2276 36.8366 28.8181 36.667 28.3912 36.667ZM15.058 36.667H11.6107C11.4021 36.667 11.2035 36.708 11.0205 36.7801C11.6172 37.0156 12.04 37.5961 12.04 38.2766V41.7238C12.04 42.4043 11.6172 42.9848 11.0205 43.2203C11.2035 43.2926 11.4021 43.3336 11.6107 43.3336H15.058C15.4849 43.3336 15.8943 43.164 16.1962 42.8622C16.4981 42.5603 16.6677 42.1509 16.6678 41.724V38.2768C16.6677 37.8498 16.4981 37.4404 16.1962 37.1385C15.8943 36.8367 15.4849 36.667 15.058 36.667ZM15.058 50.0004H11.6107C11.4021 50.0004 11.2035 50.0414 11.0205 50.1135C11.6172 50.349 12.04 50.9295 12.04 51.61V55.0574C12.04 55.7379 11.6172 56.3184 11.0205 56.5539C11.2035 56.6262 11.4021 56.6672 11.6107 56.6672H15.058C15.4849 56.6672 15.8943 56.4976 16.1962 56.1958C16.4981 55.8939 16.6677 55.4845 16.6678 55.0576V51.6102C16.6677 51.1832 16.4981 50.7738 16.1962 50.4719C15.8943 50.1701 15.4849 50.0004 15.058 50.0004ZM15.058 63.3338H11.6107C11.4021 63.3338 11.2035 63.3748 11.0205 63.4469C11.6172 63.6824 12.04 64.2629 12.04 64.9434V68.3908C12.04 69.0713 11.6172 69.6518 11.0205 69.8873C11.2035 69.9596 11.4021 70.0006 11.6107 70.0006H15.058C15.4849 70.0006 15.8943 69.831 16.1962 69.5292C16.4981 69.2273 16.6677 68.8179 16.6678 68.391V64.9436C16.6677 64.5166 16.4981 64.1072 16.1962 63.8053C15.8943 63.5035 15.4849 63.3338 15.058 63.3338ZM28.3912 50.0004H24.9439C24.7353 50.0004 24.5367 50.0414 24.3537 50.1135C24.6542 50.2318 24.9121 50.4378 25.0939 50.7047C25.2757 50.9716 25.373 51.287 25.373 51.61V55.0574C25.373 55.7379 24.9502 56.3184 24.3537 56.5539C24.5367 56.6262 24.7353 56.6672 24.9439 56.6672H28.3912C28.8181 56.6672 29.2275 56.4976 29.5294 56.1958C29.8313 55.8939 30.0009 55.4845 30.001 55.0576V51.6102C30.001 51.1832 29.8314 50.7738 29.5295 50.4719C29.2276 50.17 28.8181 50.0004 28.3912 50.0004ZM28.3912 63.3338H24.9439C24.7353 63.3338 24.5367 63.3748 24.3537 63.4469C24.6542 63.5652 24.9121 63.7712 25.0939 64.0381C25.2757 64.305 25.373 64.6204 25.373 64.9434V68.3908C25.373 69.0713 24.9502 69.6518 24.3537 69.8873C24.5367 69.9596 24.7353 70.0006 24.9439 70.0006H28.3912C28.8181 70.0006 29.2275 69.831 29.5294 69.5292C29.8313 69.2273 30.0009 68.8179 30.001 68.391V64.9436C30.001 64.7322 29.9594 64.5228 29.8785 64.3275C29.7976 64.1322 29.679 63.9547 29.5295 63.8052C29.3801 63.6557 29.2026 63.5372 29.0073 63.4563C28.812 63.3754 28.6026 63.3338 28.3912 63.3338ZM41.7246 50.0004H38.2773C38.0687 50.0004 37.8701 50.0414 37.6871 50.1135C38.2838 50.349 38.7066 50.9295 38.7066 51.61V55.0574C38.7066 55.7379 38.2838 56.3184 37.6871 56.5539C37.8701 56.6262 38.0687 56.6672 38.2773 56.6672H41.7246C42.1515 56.6672 42.5609 56.4976 42.8628 56.1958C43.1647 55.8939 43.3343 55.4845 43.3344 55.0576V51.6102C43.3343 51.1832 43.1647 50.7738 42.8628 50.4719C42.5609 50.1701 42.1515 50.0004 41.7246 50.0004ZM56.6676 56.667V51.61C56.6676 51.3986 56.6259 51.1893 56.545 50.994C56.4641 50.7987 56.3456 50.6212 56.1961 50.4718C56.0466 50.3223 55.8691 50.2037 55.6738 50.1229C55.4785 50.042 55.2692 50.0004 55.0578 50.0004H51.6105C51.4019 50.0004 51.2033 50.0414 51.0203 50.1135C51.617 50.349 52.0398 50.9295 52.0398 51.61V55.0574C52.0398 55.7379 51.617 56.3184 51.0203 56.5539C51.2033 56.6262 51.4019 56.6672 51.6105 56.6672H56.6676V56.667ZM41.7246 63.3338H38.2773C38.0687 63.3338 37.8701 63.3748 37.6871 63.4469C38.2838 63.6824 38.7066 64.2629 38.7066 64.9434V68.3908C38.7066 69.0713 38.2838 69.6518 37.6871 69.8873C37.8701 69.9596 38.0687 70.0006 38.2773 70.0006H41.7246C42.1515 70.0006 42.5609 69.831 42.8628 69.5292C43.1647 69.2273 43.3343 68.8179 43.3344 68.391V64.9436C43.3344 64.7322 43.2927 64.5228 43.2118 64.3275C43.1309 64.1322 43.0124 63.9548 42.8629 63.8053C42.7134 63.6558 42.5359 63.5372 42.3406 63.4563C42.1453 63.3754 41.936 63.3338 41.7246 63.3338Z" fill="#2A428C"/>
<path d="M85.3743 28.0703V76.6664H90.0053V29.9998L85.3743 28.0703Z" fill="#D3DCFB"/>
<path d="M90.0053 30.0002V13.3334C90.0053 9.65156 87.0206 6.66699 83.3389 6.66699H9.99868C6.31685 6.66699 3.33228 9.65156 3.33228 13.3334V30.0002H90.0053Z" fill="#FF4155"/>
<path d="M24.3385 14.8422H19.9992C19.599 14.8422 19.2152 14.6832 18.9322 14.4002C18.6492 14.1172 18.4902 13.7334 18.4902 13.3332C18.4902 12.933 18.6492 12.5492 18.9322 12.2662C19.2152 11.9832 19.599 11.8242 19.9992 11.8242H24.3385C24.7387 11.8242 25.1225 11.9832 25.4055 12.2662C25.6885 12.5492 25.8475 12.933 25.8475 13.3332C25.8475 13.7334 25.6885 14.1172 25.4055 14.4002C25.1225 14.6832 24.7387 14.8422 24.3385 14.8422ZM34.999 14.8422H30.6598C30.2596 14.8422 29.8757 14.6832 29.5928 14.4002C29.3098 14.1172 29.1508 13.7334 29.1508 13.3332C29.1508 12.933 29.3098 12.5492 29.5928 12.2662C29.8757 11.9832 30.2596 11.8242 30.6598 11.8242H34.999C35.8326 11.8242 36.508 12.4998 36.508 13.3332C36.508 14.1666 35.8326 14.8422 34.999 14.8422ZM62.674 14.8422H58.3346C57.9344 14.8422 57.5505 14.6832 57.2676 14.4002C56.9846 14.1172 56.8256 13.7334 56.8256 13.3332C56.8256 12.933 56.9846 12.5492 57.2676 12.2662C57.5505 11.9832 57.9344 11.8242 58.3346 11.8242H62.674C63.5076 11.8242 64.183 12.4998 64.183 13.3332C64.183 14.1666 63.5076 14.8422 62.674 14.8422ZM73.3348 14.8422H68.9953C68.5951 14.8422 68.2113 14.6832 67.9283 14.4002C67.6453 14.1172 67.4863 13.7334 67.4863 13.3332C67.4863 12.933 67.6453 12.5492 67.9283 12.2662C68.2113 11.9832 68.5951 11.8242 68.9953 11.8242H73.3348C73.735 11.8242 74.1188 11.9832 74.4018 12.2662C74.6848 12.5492 74.8438 12.933 74.8438 13.3332C74.8438 13.7334 74.6848 14.1172 74.4018 14.4002C74.1188 14.6832 73.735 14.8422 73.3348 14.8422Z" fill="#E80054"/>
<path d="M31.6655 12.5C31.6655 14.8012 29.8001 16.6666 27.4989 16.6666C25.1977 16.6666 23.3323 14.8012 23.3323 12.5V4.1666C23.3321 1.86543 25.1975 0 27.4987 0C29.7999 0 31.6653 1.86543 31.6653 4.1666V12.5H31.6655ZM70.001 12.5C70.001 14.8012 68.1356 16.6666 65.8344 16.6666C63.5333 16.6666 61.6676 14.8012 61.6676 12.5V4.1666C61.6676 1.86543 63.5331 0 65.8342 0C68.1354 0 70.0008 1.86543 70.0008 4.1666V12.5H70.001Z" fill="#EBF5FC"/>
<path d="M65.8338 0C64.9783 0 64.1838 0.258594 63.5221 0.700781C64.6402 1.44805 65.3771 2.7209 65.3771 4.1668V12.5C65.3771 13.9457 64.6402 15.2188 63.5221 15.966C64.206 16.4238 65.0107 16.6678 65.8338 16.6668C68.135 16.6668 70.0004 14.8014 70.0004 12.5002V4.1666C70.0006 1.86543 68.1352 0 65.8338 0ZM27.4982 0C26.6428 0 25.8482 0.258594 25.1865 0.700781C26.3047 1.44805 27.0416 2.7209 27.0416 4.1668V12.5C27.0416 13.9457 26.3047 15.2188 25.1865 15.966C25.8705 16.4238 26.6752 16.6678 27.4982 16.6668C29.7994 16.6668 31.6648 14.8014 31.6648 12.5002V4.1666C31.665 1.86543 29.7996 0 27.4982 0Z" fill="#D3DCFB"/>
<path d="M83.3385 6.66602H78.709C82.3908 6.66602 85.3754 9.65059 85.3754 13.3324V29.9994H90.0047V13.3326C90.0049 9.65078 87.0201 6.66602 83.3385 6.66602Z" fill="#E80054"/>
<path d="M3.33203 21.8242H90.0053V24.8424H3.33203V21.8242Z" fill="#E80054"/>
<path d="M71.6687 100C85.4758 100 96.6687 88.8071 96.6687 75C96.6687 61.1929 85.4758 50 71.6687 50C57.8616 50 46.6687 61.1929 46.6687 75C46.6687 88.8071 57.8616 100 71.6687 100Z" fill="#4FABF7"/>
<path d="M71.6684 93.3328C81.7936 93.3328 90.0018 85.1247 90.0018 74.9994C90.0018 64.8742 81.7936 56.666 71.6684 56.666C61.5431 56.666 53.335 64.8742 53.335 74.9994C53.335 85.1247 61.5431 93.3328 71.6684 93.3328Z" fill="#EBF5FC"/>
<path d="M71.6691 73.1756C71.471 73.1756 71.2747 73.1366 71.0916 73.0608C70.9086 72.9849 70.7422 72.8738 70.6021 72.7337C70.4619 72.5935 70.3508 72.4272 70.275 72.2441C70.1991 72.061 70.1601 71.8648 70.1602 71.6666V63.3332C70.1602 62.933 70.3191 62.5492 70.6021 62.2662C70.8851 61.9832 71.2689 61.8242 71.6691 61.8242C72.0693 61.8242 72.4532 61.9832 72.7362 62.2662C73.0191 62.5492 73.1781 62.933 73.1781 63.3332V71.6666C73.1781 72.0668 73.0191 72.4506 72.7362 72.7336C72.4532 73.0166 72.0693 73.1756 71.6691 73.1756ZM80.0025 76.509H75.0023C74.6021 76.509 74.2183 76.35 73.9353 76.067C73.6523 75.784 73.4934 75.4002 73.4934 75C73.4934 74.5998 73.6523 74.216 73.9353 73.933C74.2183 73.65 74.6021 73.491 75.0023 73.491H80.0025C80.4027 73.491 80.7866 73.65 81.0696 73.933C81.3525 74.216 81.5115 74.5998 81.5115 75C81.5115 75.4002 81.3525 75.784 81.0696 76.067C80.7866 76.35 80.4027 76.509 80.0025 76.509Z" fill="#3C58A0"/>
<path d="M71.6688 50C70.8885 50 70.117 50.0377 69.3549 50.1076C82.077 51.2754 92.0409 61.9732 92.0409 75C92.0409 88.0268 82.0768 98.7246 69.3547 99.8924C70.1168 99.9623 70.8883 100 71.6686 100C85.4756 100 96.6686 88.807 96.6686 75C96.6686 61.193 85.4758 50 71.6688 50Z" fill="#1886EA"/>
<path d="M71.6687 56.667C70.8855 56.667 70.1139 56.7164 69.3564 56.8117C78.39 57.9486 85.3775 65.6584 85.3775 75.0004C85.3775 84.3424 78.39 92.0522 69.3564 93.1891C70.1139 93.2844 70.8855 93.3338 71.6687 93.3338C81.7939 93.3338 90.0021 85.1256 90.0021 75.0004C90.0021 64.8752 81.7939 56.667 71.6687 56.667Z" fill="#D3DCFB"/>
<path d="M71.6684 78.3328C73.5093 78.3328 75.0018 76.8404 75.0018 74.9994C75.0018 73.1584 73.5093 71.666 71.6684 71.666C69.8274 71.666 68.335 73.1584 68.335 74.9994C68.335 76.8404 69.8274 78.3328 71.6684 78.3328Z" fill="#FFDD40"/>
</g>
<defs>
<clipPath id="clip0_584_765">
<rect width="100" height="100" fill="white"/>
</clipPath>
</defs>
</svg>
