<svg width="54" height="70" viewBox="0 0 54 70" fill="none" xmlns="http://www.w3.org/2000/svg">
<path d="M41.3595 0.09375H29.6562V7.38136H41.3595V0.09375Z" fill="#387395"/>
<path d="M32.2315 3.73828H30.5273V6.94616H32.2315V3.73828Z" fill="#40A6B0"/>
<path d="M32.2315 3.73828H30.5273V3.79595H32.2315V3.73828Z" fill="#68DAC3"/>
<path d="M41.3574 1.35938H33.4883V5.61129H41.3574V1.35938Z" fill="#0E1942"/>
<path d="M41.359 6.94531H24.3828V10.525H41.359V6.94531Z" fill="#1F3A62"/>
<path d="M41.3566 9.61719H18.6836V13.1969H41.3566V9.61719Z" fill="#1F4974"/>
<path d="M41.3566 9.61719H18.6836V9.74421H41.3566V9.61719Z" fill="#1F8198"/>
<path d="M41.359 6.88281H24.3828V7.00984H41.359V6.88281Z" fill="#38D2DE"/>
<path d="M10.616 2.48633H10.1797V13.1968H10.616V2.48633Z" fill="white"/>
<path d="M11.909 4.26172H11.4727V14.9721H11.909V4.26172Z" fill="white"/>
<path d="M10.9359 21.7676H2.09375V66.8405H10.9359V21.7676Z" fill="#1F3462"/>
<path d="M29.7419 26.1172H4.04297V64.976H29.7419V26.1172Z" fill="#0E1942"/>
<path d="M6.6247 26.1172H6.28516V64.976H6.6247V26.1172Z" fill="#387395"/>
<path d="M6.62654 26.1172H6.58984V64.976H6.62654V26.1172Z" fill="#38B1CA"/>
<path d="M9.58563 26.1172H9.24609V64.976H9.58563V26.1172Z" fill="#387395"/>
<path d="M9.58748 26.1172H9.55078V64.976H9.58748V26.1172Z" fill="#38B1CA"/>
<path d="M12.5466 26.1172H12.207V64.976H12.5466V26.1172Z" fill="#387395"/>
<path d="M12.5484 26.1172H12.5117V64.976H12.5484V26.1172Z" fill="#38B1CA"/>
<path d="M15.5075 26.1172H15.168V64.976H15.5075V26.1172Z" fill="#387395"/>
<path d="M15.5094 26.1172H15.4727V64.976H15.5094V26.1172Z" fill="#38B1CA"/>
<path d="M18.4684 26.1172H18.1289V64.976H18.4684V26.1172Z" fill="#387395"/>
<path d="M18.4703 26.1172H18.4336V64.976H18.4703V26.1172Z" fill="#38B1CA"/>
<path d="M21.4294 26.1172H21.0898V64.976H21.4294V26.1172Z" fill="#387395"/>
<path d="M21.4312 26.1172H21.3945V64.976H21.4312V26.1172Z" fill="#38B1CA"/>
<path d="M24.3903 26.1172H24.0508V64.976H24.3903V26.1172Z" fill="#387395"/>
<path d="M24.3922 26.1172H24.3555V64.976H24.3922V26.1172Z" fill="#38B1CA"/>
<path d="M27.3513 26.1172H27.0117V64.976H27.3513V26.1172Z" fill="#387395"/>
<path d="M27.3531 26.1172H27.3164V64.976H27.3531V26.1172Z" fill="#38B1CA"/>
<path d="M4.04297 33.9925V34.332H29.7419V33.9925H4.04297Z" fill="#387395"/>
<path d="M4.04297 33.9906V34.0273H29.7419V33.9906H4.04297Z" fill="#38B1CA"/>
<path d="M4.04297 41.5804V41.9199H29.7419V41.5804H4.04297Z" fill="#387395"/>
<path d="M4.04297 41.5805V41.6172H29.7419V41.5805H4.04297Z" fill="#38B1CA"/>
<path d="M4.04297 49.1741V49.5137H29.7419V49.1741H4.04297Z" fill="#387395"/>
<path d="M4.04297 49.1723V49.209H29.7419V49.1723H4.04297Z" fill="#38B1CA"/>
<path d="M4.04297 56.7601V57.0996H29.7419V56.7601H4.04297Z" fill="#387395"/>
<path d="M4.04297 56.7621V56.7988H29.7419V56.7621H4.04297Z" fill="#38B1CA"/>
<path opacity="0.6" d="M8.14245 21.7676L4.04297 66.8405H8.14245V21.7676Z" fill="#1F3462"/>
<path d="M41.4313 66.8398H50.2734L50.2734 21.7669H41.4313L41.4313 66.8398Z" fill="#1F3462"/>
<path d="M22.6252 64.9766H48.3242L48.3242 26.1178H22.6252L22.6252 64.9766Z" fill="#0E1942"/>
<path d="M45.7425 64.9766H46.082L46.082 26.1178H45.7425L45.7425 64.9766Z" fill="#387395"/>
<path d="M45.7406 64.9766H45.7773L45.7773 26.1178H45.7406L45.7406 64.9766Z" fill="#38B1CA"/>
<path d="M42.7816 64.9766H43.1211L43.1211 26.1178H42.7816L42.7816 64.9766Z" fill="#387395"/>
<path d="M42.7797 64.9766H42.8164L42.8164 26.1178H42.7797L42.7797 64.9766Z" fill="#38B1CA"/>
<path d="M39.8206 64.9766H40.1602L40.1602 26.1178H39.8206L39.8206 64.9766Z" fill="#387395"/>
<path d="M39.8188 64.9766H39.8555L39.8555 26.1178H39.8188L39.8188 64.9766Z" fill="#38B1CA"/>
<path d="M36.8597 64.9766H37.1992L37.1992 26.1178H36.8597L36.8597 64.9766Z" fill="#387395"/>
<path d="M36.8578 64.9766H36.8945L36.8945 26.1178H36.8578L36.8578 64.9766Z" fill="#38B1CA"/>
<path d="M33.8987 64.9766H34.2383L34.2383 26.1178H33.8987L33.8987 64.9766Z" fill="#387395"/>
<path d="M33.8969 64.9766H33.9336L33.9336 26.1178H33.8969L33.8969 64.9766Z" fill="#38B1CA"/>
<path d="M30.9378 64.9766H31.2773L31.2773 26.1178H30.9378L30.9378 64.9766Z" fill="#387395"/>
<path d="M30.936 64.9766H30.9727L30.9727 26.1178H30.936L30.936 64.9766Z" fill="#38B1CA"/>
<path d="M27.9769 64.9766H28.3164L28.3164 26.1178H27.9769L27.9769 64.9766Z" fill="#387395"/>
<path d="M27.975 64.9766H28.0117L28.0117 26.1178H27.975L27.975 64.9766Z" fill="#38B1CA"/>
<path d="M25.0159 64.9766H25.3555L25.3555 26.1178H25.0159L25.0159 64.9766Z" fill="#387395"/>
<path d="M25.0141 64.9766H25.0508L25.0508 26.1178H25.0141L25.0141 64.9766Z" fill="#38B1CA"/>
<path d="M22.625 33.9925V34.332H48.324V33.9925H22.625Z" fill="#387395"/>
<path d="M22.625 33.9906V34.0273H48.324V33.9906H22.625Z" fill="#38B1CA"/>
<path d="M22.625 41.5804V41.9199H48.324V41.5804H22.625Z" fill="#387395"/>
<path d="M22.625 41.5805V41.6172H48.324V41.5805H22.625Z" fill="#38B1CA"/>
<path d="M22.625 49.1741V49.5137H48.324V49.1741H22.625Z" fill="#387395"/>
<path d="M22.625 49.1723V49.209H48.324V49.1723H22.625Z" fill="#38B1CA"/>
<path d="M22.625 56.7601V57.0996H48.324V56.7601H22.625Z" fill="#387395"/>
<path d="M22.625 56.7621V56.7988H48.324V56.7621H22.625Z" fill="#38B1CA"/>
<path opacity="0.6" d="M44.2266 21.7695L48.326 66.8424H44.2266V21.7695Z" fill="#1F3462"/>
<path d="M44.1801 12.6699H8.14453V66.9011H44.1801V12.6699Z" fill="#387395"/>
<path d="M44.1801 12.6699H8.14453V12.7937H44.1801V12.6699Z" fill="#38D2DE"/>
<path d="M44.1804 45.1914H42.6719V45.9661H44.1804V45.1914Z" fill="#388FAF"/>
<path d="M39.7312 13.1973H38.2227V13.9719H39.7312V13.1973Z" fill="#388FAF"/>
<path d="M37.5437 13.1973H36.0352V13.9719H37.5437V13.1973Z" fill="#388FAF"/>
<path d="M15.7234 13.584H14.2148V14.3586H15.7234V13.584Z" fill="#388FAF"/>
<path d="M18.6844 13.584H17.1758V14.3586H18.6844V13.584Z" fill="#388FAF"/>
<path d="M21.6453 13.584H20.1367V14.3586H21.6453V13.584Z" fill="#388FAF"/>
<path d="M24.6062 13.584H23.0977V14.3586H24.6062V13.584Z" fill="#388FAF"/>
<path d="M41.3875 14.4004H39.8789V15.175H41.3875V14.4004Z" fill="#388FAF"/>
<path d="M35.8953 14.4004H34.3867V15.175H35.8953V14.4004Z" fill="#388FAF"/>
<path d="M42.8953 47.4668H41.3867V48.2415H42.8953V47.4668Z" fill="#388FAF"/>
<path d="M44.1804 50.2891H42.6719V51.0637H44.1804V50.2891Z" fill="#388FAF"/>
<path d="M40.1648 55.2578H38.6562V56.0325H40.1648V55.2578Z" fill="#388FAF"/>
<path d="M10.575 54.8691H9.06641V55.6438H10.575V54.8691Z" fill="#388FAF"/>
<path d="M9.6531 51.5996H8.14453V52.3743H9.6531V51.5996Z" fill="#388FAF"/>
<path d="M9.6531 49.9023H8.14453V50.677H9.6531V49.9023Z" fill="#388FAF"/>
<path d="M9.6531 48.2031H8.14453V48.9778H9.6531V48.2031Z" fill="#388FAF"/>
<path d="M9.6531 46.5059H8.14453V47.2805H9.6531V46.5059Z" fill="#388FAF"/>
<path d="M10.9344 42.2148H9.42578V42.9895H10.9344V42.2148Z" fill="#388FAF"/>
<path d="M10.9344 40.8027H9.42578V41.5774H10.9344V40.8027Z" fill="#388FAF"/>
<path d="M10.9344 39.3906H9.42578V40.1653H10.9344V39.3906Z" fill="#388FAF"/>
<path d="M10.9344 37.9805H9.42578V38.7551H10.9344V37.9805Z" fill="#388FAF"/>
<path d="M10.9344 36.5684H9.42578V37.343H10.9344V36.5684Z" fill="#388FAF"/>
<path d="M12.9344 54.8691H11.4258V55.6438H12.9344V54.8691Z" fill="#388FAF"/>
<path d="M15.2898 54.8691H13.7812V55.6438H15.2898V54.8691Z" fill="#388FAF"/>
<path d="M17.6453 54.8691H16.1367V55.6438H17.6453V54.8691Z" fill="#388FAF"/>
<path d="M31.5867 54.4824H30.0781V55.2571H31.5867V54.4824Z" fill="#388FAF"/>
<path d="M35.3367 53.2578H33.8281V54.0325H35.3367V53.2578Z" fill="#388FAF"/>
<path d="M43.5203 55.998H42.0117V56.7727H43.5203V55.998Z" fill="#388FAF"/>
<path d="M44.1804 52.6582H42.6719V53.4329H44.1804V52.6582Z" fill="#388FAF"/>
<path d="M46.0001 56.7734H6.32031V66.9008H46.0001V56.7734Z" fill="#B0BBC4"/>
<path d="M13.1672 58.8008H7.35547V64.6125H13.1672V58.8008Z" fill="#0E1942"/>
<path d="M13.1678 60.5427V59.4922L8.04688 64.6131H9.09735L13.1678 60.5427Z" fill="#0E275D"/>
<path d="M7.35547 60.6303V64.2713L12.826 58.8008H9.18261C8.53983 59.4444 7.85954 60.1255 7.35547 60.6303Z" fill="#0E275D"/>
<path d="M13.1672 61.5466V60.9453L9.5 64.6125H10.1008L13.1672 61.5466Z" fill="#0E275D"/>
<path d="M44.9172 58.8008H39.1055V64.6125H44.9172V58.8008Z" fill="#0E1942"/>
<path d="M44.9178 60.5427V59.4922L39.7969 64.6131H40.8474L44.9178 60.5427Z" fill="#0E275D"/>
<path d="M39.1055 60.6303V64.2713L44.576 58.8008H40.9326C40.2898 59.4444 39.6095 60.1255 39.1055 60.6303Z" fill="#0E275D"/>
<path d="M44.9168 61.5466V60.9453L41.25 64.6125H41.8509L44.9168 61.5466Z" fill="#0E275D"/>
<path d="M38.049 60.832H14.2695V66.901H38.049V60.832Z" fill="#787F8C"/>
<path d="M35.6769 61.8379H17.4297V66.9016H35.6769V61.8379Z" fill="#302A32"/>
<path d="M31.269 62.7793H21.3086V66.9014H31.269V62.7793Z" fill="#0F191F"/>
<path d="M46.0001 56.7734H6.32031V58.8006H46.0001V56.7734Z" fill="#EEEBF3"/>
<path d="M46.0001 56.7734H6.32031V57.0452H46.0001V56.7734Z" fill="#FFFFF3"/>
<path d="M42.1408 14.7871H10.1797V53.6459H42.1408V14.7871Z" fill="#0E1942"/>
<path d="M42.1408 26.9403V20.4141L10.1797 52.3748V53.6454H15.4361L42.1408 26.9403Z" fill="#0E275D"/>
<path d="M42.1402 33.0213V31.5566L20.0508 53.6461H21.5158L42.1402 33.0213Z" fill="#0E275D"/>
<path d="M10.1797 23.3567V45.9651L41.3577 14.7871H18.7093C15.7293 17.776 12.6323 20.8891 10.1797 23.3567Z" fill="#0E275D"/>
<path d="M53.1086 67.9336H0V69.9995H53.1086V67.9336Z" fill="#C25E1F"/>
<path d="M53.1086 66.9004H0V68.9663H53.1086V66.9004Z" fill="#00A6B5"/>
<path d="M53.1086 66.9004H0V67.1762H53.1086V66.9004Z" fill="#00F8F6"/>
<path d="M13.1013 14.7871H12.7617V53.6459H13.1013V14.7871Z" fill="#387395"/>
<path d="M13.1031 14.7871H13.0664V53.6459H13.1031V14.7871Z" fill="#38B1CA"/>
<path d="M16.0622 14.7871H15.7227V53.6459H16.0622V14.7871Z" fill="#387395"/>
<path d="M16.064 14.7871H16.0273V53.6459H16.064V14.7871Z" fill="#38B1CA"/>
<path d="M19.0231 14.7871H18.6836V53.6459H19.0231V14.7871Z" fill="#387395"/>
<path d="M19.025 14.7871H18.9883V53.6459H19.025V14.7871Z" fill="#38B1CA"/>
<path d="M21.9841 14.7871H21.6445V53.6459H21.9841V14.7871Z" fill="#387395"/>
<path d="M21.9859 14.7871H21.9492V53.6459H21.9859V14.7871Z" fill="#38B1CA"/>
<path d="M24.945 14.7871H24.6055V53.6459H24.945V14.7871Z" fill="#387395"/>
<path d="M24.9469 14.7871H24.9102V53.6459H24.9469V14.7871Z" fill="#38B1CA"/>
<path d="M27.9059 14.7871H27.5664V53.6459H27.9059V14.7871Z" fill="#387395"/>
<path d="M27.9078 14.7871H27.8711V53.6459H27.9078V14.7871Z" fill="#38B1CA"/>
<path d="M30.8669 14.7871H30.5273V53.6459H30.8669V14.7871Z" fill="#387395"/>
<path d="M30.8687 14.7871H30.832V53.6459H30.8687V14.7871Z" fill="#38B1CA"/>
<path d="M33.8278 14.7871H33.4883V53.6459H33.8278V14.7871Z" fill="#387395"/>
<path d="M33.8297 14.7871H33.793V53.6459H33.8297V14.7871Z" fill="#38B1CA"/>
<path d="M36.7888 14.7871H36.4492V53.6459H36.7888V14.7871Z" fill="#387395"/>
<path d="M36.7906 14.7871H36.7539V53.6459H36.7906V14.7871Z" fill="#38B1CA"/>
<path d="M39.7497 14.7871H39.4102V53.6459H39.7497V14.7871Z" fill="#387395"/>
<path d="M39.7515 14.7871H39.7148V53.6459H39.7515V14.7871Z" fill="#38B1CA"/>
<path d="M10.1797 22.6624V23.002L42.1408 23.002V22.6624L10.1797 22.6624Z" fill="#387395"/>
<path d="M10.1797 22.6625V22.6992L42.1408 22.6992V22.6625L10.1797 22.6625Z" fill="#38B1CA"/>
<path d="M10.1797 30.2542V30.5938L42.1408 30.5938V30.2542L10.1797 30.2542Z" fill="#387395"/>
<path d="M10.1797 30.2524V30.2891L42.1408 30.2891V30.2524L10.1797 30.2524Z" fill="#38B1CA"/>
<path d="M10.1797 37.8421V38.1816H42.1408V37.8421H10.1797Z" fill="#387395"/>
<path d="M10.1797 37.8422V37.8789H42.1408V37.8422H10.1797Z" fill="#38B1CA"/>
<path d="M10.1797 45.4319V45.7715H42.1408V45.4319H10.1797Z" fill="#387395"/>
<path d="M10.1797 45.4321V45.4688H42.1408V45.4321H10.1797Z" fill="#38B1CA"/>
<path d="M41.3572 0H27.9062V1.36058H41.3572V0Z" fill="white"/>
<path d="M41.3587 7.68359H26.9727V8.73528H41.3587V7.68359Z" fill="#0E1942"/>
<path d="M41.3571 10.3613H20.0508V11.8824H41.3571V10.3613Z" fill="#0E1942"/>
<path d="M15.8927 60.832H15.2891V66.901H15.8927V60.832Z" fill="white"/>
<path d="M17.4943 60.832H16.8906V66.901H17.4943V60.832Z" fill="white"/>
<path d="M19.0998 60.832H18.4961V66.901H19.0998V60.832Z" fill="white"/>
<path d="M20.7013 60.832H20.0977V66.901H20.7013V60.832Z" fill="white"/>
<path d="M32.4826 60.832H31.8789V66.901H32.4826V60.832Z" fill="white"/>
<path d="M34.0841 60.832H33.4805V66.901H34.0841V60.832Z" fill="white"/>
<path d="M35.6861 60.832H35.082V66.901H35.6861V60.832Z" fill="white"/>
<path d="M37.2912 60.832H36.6875V66.901H37.2912V60.832Z" fill="white"/>
<path d="M36.146 57.3223H16.1797V60.2789H36.146V57.3223Z" fill="#FF321A"/>
<path d="M36.146 57.3223H16.1797V57.4162H36.146V57.3223Z" fill="#FF9E41"/>
</svg>
