<svg width="513" height="458" viewBox="0 0 513 458" fill="none" xmlns="http://www.w3.org/2000/svg">
<path d="M209.908 40.6976C185.551 59.0893 155.54 59.5914 132.521 57.2466C92.891 53.2093 36.9159 50.0812 9.09053 100.751C-15.4107 145.369 8.28482 246.015 96.4271 280.348C184.569 314.68 285.198 277.533 341.587 280.348C397.977 283.162 445.377 313.339 489.566 271.403C529.115 233.869 523.257 99.5694 435.873 36.945C362.965 -15.3063 277.572 -10.3931 209.908 40.6976Z" fill="#EAF6EA"/>
<path d="M60.6083 284.073C60.6083 284.073 14.1442 272.947 35.4199 217.783L71.1705 216.735L93.3326 75.4472C94.1919 69.9658 99.2665 65.9203 105.213 65.9752L296.229 67.7373L282.515 267.439L60.6083 284.073Z" fill="#3FAE2A"/>
<path d="M62.0111 275.106L71.1666 216.734L35.416 217.782C20.6151 256.158 38.5974 273.222 50.9128 280.054C55.4401 282.564 61.2498 279.961 62.0111 275.106Z" fill="#3FAE2A"/>
<path d="M50.9145 280.772C50.78 280.772 50.6455 280.739 50.5212 280.671C38.161 273.816 19.6688 256.497 34.6939 217.542C34.8013 217.266 35.0787 217.077 35.3944 217.067L71.145 216.02C71.5615 216.021 71.9249 216.318 71.938 216.714C71.951 217.11 71.6176 217.441 71.1935 217.453L35.9679 218.485C21.635 256.15 39.4052 272.835 51.3096 279.439C51.6748 279.642 51.7944 280.081 51.5767 280.421C51.4319 280.647 51.177 280.772 50.9145 280.772Z" fill="#3FAE2A"/>
<path d="M92.5061 119.508L104.866 292.583L378.046 269.832L358.015 116.087C357.315 110.719 352.406 106.692 346.601 106.727L103.834 108.159C97.2539 108.197 92.0699 113.392 92.5061 119.508Z" fill="#213059"/>
<path d="M102.603 121.045L114.111 278.82C114.161 279.5 114.797 280.01 115.525 279.955L367.587 260.956C368.329 260.901 368.873 260.28 368.782 259.591L350.289 118.125C350.208 117.506 349.641 117.044 348.972 117.051L103.895 119.741C103.143 119.749 102.551 120.345 102.603 121.045Z" fill="#EA8475"/>
<path d="M104.867 292.58V299.125L139.567 367.322C140.181 368.527 141.556 369.227 142.977 369.057L495.998 326.679C497.646 326.482 498.881 325.174 498.881 323.625V320.374C498.881 318.602 497.743 317.003 495.992 316.313L378.048 269.83L104.867 292.58Z" fill="#2178BF"/>
<path d="M139.568 367.325C140.182 368.53 141.557 369.231 142.977 369.06L495.998 326.683C497.646 326.486 498.881 325.178 498.881 323.629V320.378L144.714 363.92C143.333 364.09 141.991 363.418 141.379 362.252L104.867 292.584V299.129L139.568 367.325Z" fill="#213059"/>
<path d="M361.351 276.795L404.184 296.325C404.539 296.486 404.446 296.98 404.054 297.019L163.271 321.107C163.125 321.122 162.982 321.059 162.901 320.945L145.041 295.899C144.876 295.668 145.036 295.356 145.333 295.331L361.143 276.759C361.214 276.753 361.286 276.765 361.351 276.795Z" fill="#255C99"/>
<path d="M345.116 308.599L380.04 328.001C380.654 328.343 380.455 329.214 379.746 329.293L276.313 340.791C276.083 340.816 275.853 340.742 275.691 340.588L252.158 318.368C251.716 317.952 251.99 317.243 252.616 317.184L344.659 308.503C344.817 308.489 344.978 308.522 345.116 308.599Z" fill="#255C99"/>
<path d="M140.367 289.625L142.47 292.446L355.7 274.193L352.714 271.939L140.367 289.625Z" fill="#255C99"/>
<path d="M259.316 311.501L253.168 307.079V306.297L331.585 298.678L337.681 302.865V303.66L259.316 311.501Z" fill="#213059"/>
<path d="M341.312 303.295L334.404 299.233V298.401L350.067 296.879L358.389 300.797V301.587L341.312 303.295Z" fill="#213059"/>
<path d="M353.854 296.512V297.398L362.266 301.2L374.414 299.985V299.201L366.18 295.314L353.854 296.512Z" fill="#213059"/>
<path d="M369.771 294.967V295.833L377.547 299.672L389.545 298.472V297.693L381.814 293.797L369.771 294.967Z" fill="#213059"/>
<path d="M385.322 293.452V294.217L392.796 298.143L403.841 297.039V296.343L395.386 292.475L385.322 293.452Z" fill="#213059"/>
<path d="M254.942 311.935V311.115L249.219 306.678L231.586 308.391V309.307L236.083 313.822L254.942 311.935Z" fill="#213059"/>
<path d="M232.659 314.164V313.337L228.303 308.709L213.689 310.129V311L217.206 315.71L232.659 314.164Z" fill="#213059"/>
<path d="M373.75 289.969V290.554L379.053 294.061L394.306 292.58V292.015L387.012 288.738L373.75 289.969Z" fill="#213059"/>
<path d="M358.574 291.384V292.177L364.131 295.516L376.391 294.325V293.799L370.446 290.281L358.574 291.384Z" fill="#213059"/>
<path d="M361.198 295.799V295.259L355.387 291.676L343.064 292.82V293.518L349.04 296.98L361.198 295.799Z" fill="#213059"/>
<path d="M333.111 298.528L327.719 294.991V294.245L339.087 293.189L344.905 296.767V297.382L333.111 298.528Z" fill="#213059"/>
<path d="M312.883 295.618V296.483L317.354 300.055L330.199 298.807V298.166L324.378 294.551L312.883 295.618Z" fill="#213059"/>
<path d="M296.814 297.112V297.911L300.338 301.711L313.687 300.446V299.617L308.98 295.982L296.814 297.112Z" fill="#213059"/>
<path d="M280.551 298.618V299.471L285.111 303.188L297.219 302.011V301.438L292.748 297.486L280.551 298.618Z" fill="#213059"/>
<path d="M281.753 303.521V302.683L276.96 298.959L264.291 300.135V301.047L268.535 304.806L281.753 303.521Z" fill="#213059"/>
<path d="M264.913 305.152V304.205L260.328 300.498L247.824 301.659V302.522L252.944 306.315L264.913 305.152Z" fill="#213059"/>
<path d="M248.35 306.758V305.916L243.602 302.047L230.555 303.258V304.077L234.776 308.076L248.35 306.758Z" fill="#213059"/>
<path d="M231.585 308.392V307.603L227.599 303.537L212.289 304.958V305.796L216.548 309.853L231.585 308.392Z" fill="#213059"/>
<path d="M217.321 304.488V303.752L213.183 300.006L201.92 301.047V301.578L206.21 305.52L217.321 304.488Z" fill="#213059"/>
<path d="M216.871 299.668V300.342L221.194 304.132L234.157 302.93V302.212L229.811 298.471L216.871 299.668Z" fill="#213059"/>
<path d="M233.305 298.145V298.798L237.767 302.592L250.288 301.43V300.606L246.003 296.971L233.305 298.145Z" fill="#213059"/>
<path d="M249.744 296.628V297.329L254.188 301.071L267.5 299.835V299.16L262.717 295.428L249.744 296.628Z" fill="#213059"/>
<path d="M266.516 295.078V295.889L271.066 299.505L283.143 298.385V297.696L278.798 293.941L266.516 295.078Z" fill="#213059"/>
<path d="M282.449 293.599V294.335L286.859 298.036L299.266 296.884V296.228L294.647 292.471L282.449 293.599Z" fill="#213059"/>
<path d="M298.758 292.09V292.767L302.986 296.538L314.677 295.453V294.777L310.541 291L298.758 292.09Z" fill="#213059"/>
<path d="M314.371 290.648V291.298L318.713 295.08L330.198 294.014V293.378L325.409 289.627L314.371 290.648Z" fill="#213059"/>
<path d="M329.496 289.245V289.938L334.404 293.621L345.506 292.579V291.808L340.486 288.229L329.496 289.245Z" fill="#213059"/>
<path d="M344.627 287.851V288.502L350.047 292.174L360.249 291.227V290.59L354.116 286.973L344.627 287.851Z" fill="#213059"/>
<path d="M358.344 286.578V287.33L365.016 290.781L386.359 288.801V288.421L378.281 284.734L358.344 286.578Z" fill="#213059"/>
<path d="M354.561 283.122V283.653L359.506 286.472L377.406 284.816V284.301L371.523 281.607L354.561 283.122Z" fill="#213059"/>
<path d="M355.168 286.87V286.315L350.928 283.443L340.809 284.347V284.959L345.176 287.795L355.168 286.87Z" fill="#213059"/>
<path d="M341.213 288.161V287.612L337.051 284.682L327.342 285.548V286.151L330.675 289.136L341.213 288.161Z" fill="#213059"/>
<path d="M326.932 289.49V288.84L323.486 285.898L312.883 286.845V287.484L316.018 290.5L326.932 289.49Z" fill="#213059"/>
<path d="M311.758 290.89V290.305L308.398 287.244L297.283 288.236V288.785L300.529 291.929L311.758 290.89Z" fill="#213059"/>
<path d="M296.102 292.338V291.679L292.912 288.625L282.07 289.586V290.277L285.418 293.327L296.102 292.338Z" fill="#213059"/>
<path d="M280.837 293.748V293.079L277.66 289.984L266.516 290.974V291.669L269.684 294.78L280.837 293.748Z" fill="#213059"/>
<path d="M264.685 295.244V294.531L261.878 291.396L250.389 292.448V293.144L253.503 296.279L264.685 295.244Z" fill="#213059"/>
<path d="M248.986 296.697V295.948L245.594 292.85L234.154 293.837V294.523L237.369 297.771L248.986 296.697Z" fill="#213059"/>
<path d="M232.56 298.215V297.442L229.689 294.268L217.199 295.382V296.11L219.829 299.392L232.56 298.215Z" fill="#213059"/>
<path d="M215.994 299.748V298.932L213.526 295.711L202.82 296.666V297.49L205.332 300.734L215.994 299.748Z" fill="#213059"/>
<path d="M204.275 292.94V293.564L206.434 296.344L220.079 295.126V294.467L217.471 291.775L204.275 292.94Z" fill="#213059"/>
<path d="M221.09 291.459V292.131L223.831 294.793L236.025 293.677V293.126L232.796 290.426L221.09 291.459Z" fill="#213059"/>
<path d="M236.395 290.108V290.79L239.64 293.363L251.543 292.341V291.736L248.251 289.062L236.395 290.108Z" fill="#213059"/>
<path d="M252.381 288.693V289.305L255.454 291.979L267.658 290.869V290.336L264.091 287.66L252.381 288.693Z" fill="#213059"/>
<path d="M268.211 287.303V287.939L271.119 290.568L282.966 289.506V288.968L279.885 286.273L268.211 287.303Z" fill="#213059"/>
<path d="M283.547 285.948V286.549L286.575 289.184L298.226 288.148V287.565L294.822 284.953L283.547 285.948Z" fill="#213059"/>
<path d="M298.467 284.63V285.191L301.504 287.853L313.615 286.774V286.241L309.905 283.621L298.467 284.63Z" fill="#213059"/>
<path d="M313.293 283.329V284.028L316.452 286.527L328.048 285.489V284.952L324.109 282.375L313.293 283.329Z" fill="#213059"/>
<path d="M328.049 282.028V282.662L331.538 285.178L341.593 284.281V283.771L337.83 281.166L328.049 282.028Z" fill="#213059"/>
<path d="M341.451 280.844V281.527L344.8 283.993L355.377 283.049V282.508L351.807 279.932L341.451 280.844Z" fill="#213059"/>
<path d="M355.377 279.612V280.376L358.526 282.763L370.62 281.683V281.188L365.265 278.74L355.377 279.612Z" fill="#213059"/>
<path d="M350.701 277.658V278.137L352.778 279.846L364.812 278.784V278.499L361.022 276.77L350.701 277.658Z" fill="#213059"/>
<path d="M335.43 278.97V279.49L337.167 281.219L349.461 280.136V279.724L347.102 277.965L335.43 278.97Z" fill="#213059"/>
<path d="M334.28 281.475V281.063L332.569 279.217L321.01 280.211V280.694L322.694 282.497L334.28 281.475Z" fill="#213059"/>
<path d="M319.684 282.764V282.332L317.795 280.49L306.176 281.49V281.97L308.245 283.773L319.684 282.764Z" fill="#213059"/>
<path d="M304.972 284.055V283.62L302.554 281.795L291.271 282.766V283.238L293.166 285.096L304.972 284.055Z" fill="#213059"/>
<path d="M290.144 285.366V284.866L287.573 283.088L275.586 284.119V284.562L277.787 286.456L290.144 285.366Z" fill="#213059"/>
<path d="M273.937 286.794V286.174L271.444 284.475L260.211 285.441V286.018L261.831 287.861L273.937 286.794Z" fill="#213059"/>
<path d="M258.201 288.184V287.629L256.203 285.789L244.545 286.792V287.368L246.524 289.213L258.201 288.184Z" fill="#213059"/>
<path d="M242.848 289.535V288.901L240.739 287.117L229 288.127V288.695L230.715 290.605L242.848 289.535Z" fill="#213059"/>
<path d="M226.903 290.942V290.319L225.146 288.459L212.268 289.567V290.194L213.791 292.097L226.903 290.942Z" fill="#213059"/>
<path d="M210.098 292.447V291.864L208.34 289.908L198.152 290.785V291.304L199.493 293.361L210.098 292.447Z" fill="#213059"/>
<path d="M213.027 316.128V315.27L208.764 310.607L191.764 312.26V313.244L194.937 317.938L213.027 316.128Z" fill="#213059"/>
<path d="M191.401 318.292V317.429L187.654 312.66L174.176 313.969V314.648L177.914 319.642L191.401 318.292Z" fill="#213059"/>
<path d="M160.133 315.277V316.196L163.678 321.063L175.23 319.908V319.063L171.611 314.217L160.133 315.277Z" fill="#213059"/>
<path d="M210.848 310.408V309.506L207.345 305.418L180.949 307.868V308.711L184.117 313.005L210.848 310.408Z" fill="#213059"/>
<path d="M180.669 313.343V312.665L177.759 308.168L156.457 310.146V310.756L159.832 315.451L180.669 313.343Z" fill="#213059"/>
<path d="M153.668 305.511V306.37L156.456 310.138L173.268 308.577V307.936L170.151 303.943L153.668 305.511Z" fill="#213059"/>
<path d="M173.271 303.702V304.457L175.827 308.345L187.374 307.272V306.546L183.987 302.711L173.271 303.702Z" fill="#213059"/>
<path d="M188.418 302.299V303.029L191.404 306.897L202.645 305.858V305.297L198.554 301.361L188.418 302.299Z" fill="#213059"/>
<path d="M200.988 301.132V300.431L198.48 297.051L187.564 298V298.822L189.872 302.161L200.988 301.132Z" fill="#213059"/>
<path d="M185.565 302.568V301.82L182.848 298.455L172.709 299.36V300.183L174.999 303.547L185.565 302.568Z" fill="#213059"/>
<path d="M171.174 303.945V303.27L168.761 299.707L150.512 301.336V302.164L153.143 305.667L171.174 303.945Z" fill="#213059"/>
<path d="M202.334 296.712V296.12L200.578 293.27L191.061 294.107V294.718L192.633 297.565L202.334 296.712Z" fill="#213059"/>
<path d="M189.553 297.836V297.401L187.762 294.398L177.158 295.302V295.973L178.816 298.816L189.553 297.836Z" fill="#213059"/>
<path d="M175.923 299.066V298.448L174.088 295.6L163.473 296.536V297.184L165.522 299.995L175.923 299.066Z" fill="#213059"/>
<path d="M162.254 300.285V299.705L160.245 296.818L147.658 297.896V298.492L149.767 301.4L162.254 300.285Z" fill="#213059"/>
<path d="M146.031 295.267V295.866L147.273 297.962L158.48 296.969V296.412L156.521 294.363L146.031 295.267Z" fill="#213059"/>
<path d="M159.535 294.11V294.579L161.474 296.716L172.613 295.734V295.264L170.786 293.143L159.535 294.11Z" fill="#213059"/>
<path d="M174.213 292.848V293.364L175.92 295.418L186.361 294.516V294.065L184.52 291.961L174.213 292.848Z" fill="#213059"/>
<path d="M187.375 291.71V292.264L188.933 294.29L197.539 293.533V293.199L195.746 290.99L187.375 291.71Z" fill="#213059"/>
<path d="M158.982 315.689C158.852 315.689 158.741 315.598 158.728 315.475C158.713 315.344 158.816 315.227 158.957 315.213L395.659 292.214C395.799 292.204 395.926 292.295 395.941 292.427C395.955 292.558 395.853 292.676 395.712 292.69L159.009 315.689C159 315.69 158.991 315.689 158.982 315.689Z" fill="#2178BF"/>
<path d="M155.277 310.489C155.147 310.489 155.035 310.397 155.023 310.273C155.008 310.143 155.112 310.025 155.253 310.012L387.439 288.46C387.571 288.446 387.705 288.545 387.719 288.675C387.733 288.806 387.63 288.923 387.488 288.936L155.302 310.488C155.294 310.489 155.285 310.489 155.277 310.489Z" fill="#2178BF"/>
<path d="M152.011 305.91C151.881 305.91 151.77 305.818 151.757 305.695C151.743 305.564 151.846 305.447 151.987 305.434L378.664 284.462C378.802 284.439 378.93 284.546 378.944 284.677C378.958 284.807 378.855 284.925 378.713 284.938L152.037 305.91C152.028 305.91 152.02 305.91 152.011 305.91Z" fill="#2178BF"/>
<path d="M149.018 301.715C148.888 301.715 148.776 301.622 148.763 301.498C148.75 301.367 148.853 301.251 148.994 301.238L371.822 281.345C371.961 281.33 372.087 281.43 372.101 281.561C372.114 281.692 372.012 281.808 371.87 281.821L149.042 301.714C149.034 301.715 149.026 301.715 149.018 301.715Z" fill="#2178BF"/>
<path d="M146.838 298.244C146.707 298.244 146.595 298.152 146.583 298.027C146.57 297.896 146.674 297.779 146.815 297.767L365.55 278.48C365.69 278.464 365.816 278.565 365.83 278.696C365.843 278.827 365.739 278.944 365.598 278.956L146.862 298.243C146.854 298.244 146.847 298.244 146.838 298.244Z" fill="#2178BF"/>
<path d="M324.561 80.8261L351.254 269.64L139.124 286.412L115.721 75.2717C115.13 69.9357 110.303 65.9746 104.545 65.9746L308.857 67.8603C316.826 67.9378 323.521 73.4643 324.561 80.8261Z" fill="white"/>
<path d="M328.115 106.936C327.608 106.936 327.167 106.586 327.099 106.105L323.542 80.9522C322.574 74.1056 316.256 68.8897 308.845 68.8175L105.944 67.0153C105.377 67.0101 104.923 66.5785 104.928 66.0503C104.933 65.5256 105.392 65.1035 105.953 65.1035C105.956 65.1035 105.96 65.1035 105.964 65.1035L308.865 66.9057C317.292 66.9875 324.476 72.9187 325.575 80.7025L329.132 105.855C329.206 106.378 328.811 106.859 328.25 106.927C328.205 106.933 328.16 106.936 328.115 106.936Z" fill="#3FAE2A"/>
<path d="M146.834 156.237L147.363 161.004L314.496 156.248L313.906 151.482L146.834 156.237Z" fill="#FAFAFA"/>
<path d="M148.701 173.052L149.229 177.815L316.437 171.911L315.848 167.15L148.701 173.052Z" fill="#FAFAFA"/>
<path d="M150.562 189.873L151.09 194.635L318.375 187.587L317.785 182.828L150.562 189.873Z" fill="#FAFAFA"/>
<path d="M152.426 206.696L152.954 211.455L320.315 203.268L319.725 198.512L152.426 206.696Z" fill="#FAFAFA"/>
<path d="M225.336 87.293L227.775 109.927L308.686 109.301L306.02 87.7542L225.336 87.293Z" fill="#3FAE2A"/>
<path d="M229.006 121.359L229.52 126.13L310.622 124.94L310.031 120.17L229.006 121.359Z" fill="#FAFAFA"/>
<path d="M230.752 137.574L231.266 142.343L312.558 140.59L311.968 135.822L230.752 137.574Z" fill="#FAFAFA"/>
<path d="M154.295 223.526L154.822 228.284L216.936 224.826L216.391 220.068L154.295 223.526Z" fill="#FAFAFA"/>
<path d="M322.26 218.96L321.671 214.205L243.135 218.579L243.779 223.33L322.26 218.96Z" fill="#FAFAFA"/>
<path d="M324.203 234.659L323.614 229.906L245.332 234.792L245.977 239.542L324.203 234.659Z" fill="#FAFAFA"/>
<path d="M156.162 240.359L156.69 245.116L218.813 241.238L218.27 236.482L156.162 240.359Z" fill="#FAFAFA"/>
<path d="M326.147 250.368L325.559 245.617L247.531 251.011L248.175 255.757L326.147 250.368Z" fill="#FAFAFA"/>
<path d="M158.027 257.196L158.555 261.951L220.689 257.657L220.146 252.902L158.027 257.196Z" fill="#3FAE2A"/>
<path d="M208.539 142.803L192.54 143.143L163.824 109.612L170.346 143.615L154.625 143.949L146.146 86.9258L161.618 87.0911L189.109 117.79L185.073 87.1311L200.183 87.2095L208.539 142.803Z" fill="#3FAE2A"/>
<path d="M405.802 322.183L449.999 317.45L440.359 310.248L393.953 314.738L405.802 322.183Z" fill="#255C99"/>
<path d="M433.246 307.44C433.246 307.44 434.949 310.681 438.093 310.307C441.238 309.933 441.927 306.141 441.927 306.141L441.255 296.17L432.344 298.592L433.246 307.44Z" fill="#FFDDBB"/>
<path d="M441.715 302.99L441.255 296.17L432.344 298.592L432.778 302.853C434.208 303.365 437.792 304.043 441.715 302.99Z" fill="#EA8475"/>
<path d="M442.724 304.359C442.724 304.359 438.668 302.458 436.326 306.074C436.326 306.074 436.042 308.607 433.319 307.053C433.022 306.885 432.633 307.047 432.588 307.369L432.125 310.743C432.068 311.158 432.22 311.575 432.539 311.871L439.079 317.964C439.215 318.091 439.406 318.154 439.598 318.138L449.41 317.258C449.741 317.229 449.994 316.968 449.994 316.659V314.557C449.994 314.207 449.878 313.867 449.664 313.581L442.724 304.359Z" fill="#FF4D4D"/>
<path d="M436.224 306.549L437.49 309.577L435.016 307.548L436.224 306.549Z" fill="#213059"/>
<path d="M439.866 316.438C439.802 316.438 439.742 316.416 439.694 316.377L432.171 310.104C432.066 310.015 432.057 309.865 432.151 309.766C432.248 309.668 432.408 309.662 432.513 309.747L439.952 315.951L449.971 315.072C450.105 315.058 450.237 315.156 450.251 315.288C450.264 315.42 450.161 315.536 450.019 315.548L439.888 316.437C439.882 316.438 439.873 316.438 439.866 316.438Z" fill="#213059"/>
<path d="M395.404 311.519L396.978 301.709L406.446 302.816L405.776 310.249L399.286 314.02L395.404 311.519Z" fill="#FFDDBB"/>
<path d="M396.043 307.548C397.894 307.725 403.269 307.32 406.246 305.055L406.447 302.816L396.98 301.709L396.043 307.548Z" fill="#EA8475"/>
<path d="M394.519 315.533L404.454 321.674C404.666 321.805 404.921 321.861 405.173 321.831L414.298 320.748C414.808 320.687 415.197 320.293 415.222 319.815L415.319 317.864C415.334 317.563 415.236 317.266 415.042 317.025L407.237 307.321C407.032 307.066 406.715 306.917 406.373 306.916C405.488 306.915 403.648 307.075 401.548 308.205C401.3 308.339 401.105 308.555 401.006 308.805C400.596 309.84 399.138 312.557 395.745 310.17C395.381 309.913 394.851 310.084 394.753 310.499L393.903 314.114C393.774 314.661 394.02 315.224 394.519 315.533Z" fill="#FF4D4D"/>
<path d="M400.388 309.926L401.957 313.098L399.221 310.91L400.388 309.926Z" fill="#213059"/>
<path d="M404.976 319.839C404.925 319.839 404.878 319.826 404.836 319.8L394.167 313.302C394.048 313.23 394.015 313.082 394.093 312.972C394.172 312.86 394.331 312.83 394.448 312.903L405.041 319.355L415.294 318.335C415.44 318.325 415.561 318.416 415.576 318.548C415.591 318.678 415.489 318.797 415.347 318.811L405.003 319.839C404.994 319.839 404.985 319.839 404.976 319.839Z" fill="#213059"/>
<path d="M401.912 229.186L401.507 231.457C400.779 235.547 400.916 239.73 401.912 243.772H441.642V229.186H401.912Z" fill="#213059"/>
<path d="M401.909 243.77L395.205 303.328C395.205 303.328 400.524 307.536 407.549 303.795L421.342 246.949L431.736 300.43C431.736 300.43 437.557 302.954 442.475 299.962L441.639 243.77V238.908H401.909V243.77Z" fill="#213059"/>
<path d="M421.344 247.19C421.229 247.19 421.124 247.116 421.095 247.008C421.062 246.88 421.146 246.751 421.285 246.72L425.424 245.784C425.562 245.753 425.7 245.833 425.733 245.961C425.766 246.089 425.682 246.217 425.544 246.249L421.404 247.184C421.384 247.189 421.365 247.19 421.344 247.19Z" fill="#255C99"/>
<path d="M397.764 304.895C397.754 304.895 397.743 304.894 397.732 304.893C397.592 304.878 397.491 304.758 397.51 304.626L407.445 230.462C407.462 230.332 407.578 230.244 407.732 230.255C407.872 230.271 407.972 230.391 407.955 230.522L398.019 304.686C398.002 304.806 397.892 304.895 397.764 304.895Z" fill="#255C99"/>
<path d="M407.573 238.885C406.996 238.885 406.615 238.828 406.572 238.821C406.433 238.799 406.339 238.676 406.363 238.545C406.387 238.415 406.513 238.321 406.658 238.35C406.684 238.352 409.513 238.774 411.613 237.164C413.09 236.031 413.877 234.173 413.95 231.642C413.952 231.51 414.048 231.396 414.213 231.409C414.354 231.413 414.466 231.523 414.462 231.655C414.385 234.332 413.535 236.311 411.935 237.534C410.439 238.68 408.659 238.885 407.573 238.885Z" fill="#255C99"/>
<path d="M433.835 301.31C433.712 301.31 433.604 301.229 433.582 301.113L423.158 246.524C423.133 246.395 423.227 246.27 423.366 246.247C423.5 246.221 423.639 246.31 423.664 246.44L434.088 301.028C434.113 301.158 434.019 301.283 433.88 301.306C433.864 301.309 433.85 301.31 433.835 301.31Z" fill="#255C99"/>
<path d="M441.139 210.67L455.202 219.567C458.59 221.711 463.101 221.474 466.209 218.989L471.623 214.663C473.21 213.394 474.124 211.543 474.124 209.595C474.124 204.169 467.545 201.009 462.8 204.157L461.344 205.123L447.958 197.139L441.139 210.67Z" fill="#FF4D4D"/>
<path d="M433.444 206.338L448.498 216L455.723 198.796L442.48 190.979C438.818 188.818 434.572 187.67 430.237 187.67C428.394 187.67 427.102 189.364 427.708 190.986L433.444 206.338Z" fill="#F5BC54"/>
<path d="M443.078 212.524L448.496 216.001L455.721 198.797L449.998 195.42L443.078 212.524Z" fill="#2178BF"/>
<path d="M448.721 215.827C448.674 215.827 448.626 215.819 448.581 215.803C448.383 215.73 448.285 215.523 448.362 215.338L454.365 201.044C454.444 200.86 454.668 200.769 454.864 200.841C455.061 200.914 455.159 201.121 455.082 201.305L449.079 215.599C449.02 215.74 448.874 215.827 448.721 215.827Z" fill="#213059"/>
<path d="M382.542 178.766C382.651 179.69 379.417 180.776 375.321 181.192C371.225 181.607 367.817 181.194 367.71 180.27C367.602 179.346 370.835 178.261 374.931 177.846C379.027 177.43 382.435 177.842 382.542 178.766Z" fill="#213059"/>
<path d="M380.052 169.925V156.738C380.052 156.347 379.603 156.099 379.235 156.287C378.043 156.896 377.276 158.038 377.21 159.303L376.59 171.068L380.052 169.925Z" fill="#FFDDBB"/>
<path d="M369.21 171.202C373.726 167.151 380.049 169.145 380.049 169.145V181.237C374.562 184.79 370.931 182.362 370.931 182.362L371.87 177.56C371.87 177.56 368.876 175.735 368.574 171.825L369.21 171.202Z" fill="#FFDDBB"/>
<path d="M373.499 171.241L374.341 172.184C374.78 172.677 375.566 172.748 376.099 172.342C376.375 172.133 376.542 171.825 376.56 171.494L376.76 167.704L375.122 166.432C374.731 166.128 374.209 166.014 373.713 166.126C372.921 166.303 372.396 167.004 372.489 167.757L372.707 169.517C372.786 170.151 373.061 170.75 373.499 171.241Z" fill="#FFDDBB"/>
<path d="M372.482 167.485L371.482 167.322C370.796 167.21 370.108 167.51 369.76 168.072C369.422 168.617 369.438 169.292 369.803 169.822L370.965 171.514C371.364 172.097 372.147 172.339 372.841 172.097C373.205 171.97 373.368 171.574 373.19 171.253L372.707 169.521L372.482 167.485Z" fill="#FFDDBB"/>
<path d="M369.58 169.348L368.668 169.539C368.031 169.673 367.594 170.22 367.64 170.828C367.681 171.369 368.002 171.859 368.502 172.138L369.578 172.742C370.05 173.007 370.661 172.888 370.978 172.468C371.228 172.14 371.236 171.703 370.999 171.366L369.58 169.348Z" fill="#FFDDBB"/>
<path d="M380.05 177.216L382.316 175.693C382.951 175.266 383.415 174.656 383.637 173.958C383.918 173.074 383.625 172.12 382.885 171.509L378.493 167.877C378.14 167.585 377.577 167.68 377.376 168.079C376.992 168.84 376.633 170.064 377.473 171.14L379.346 172.886C379.346 172.886 374.514 172.73 375.123 177.217H380.05V177.216Z" fill="#FFDDBB"/>
<path d="M376.559 171.856C376.406 171.856 376.261 171.771 376.201 171.63L374.728 168.182C374.65 167.999 374.746 167.79 374.944 167.717C375.146 167.644 375.366 167.734 375.444 167.918L376.917 171.365C376.995 171.549 376.899 171.758 376.701 171.831C376.654 171.848 376.607 171.856 376.559 171.856Z" fill="#EA8475"/>
<path d="M375.313 172.964C374.841 172.964 374.373 172.776 374.05 172.415L373.209 171.471C372.721 170.925 372.418 170.263 372.331 169.559L372.112 167.799C372.087 167.603 372.238 167.425 372.45 167.402C372.67 167.382 372.852 167.521 372.876 167.717L373.095 169.477C373.165 170.043 373.409 170.574 373.8 171.014L374.642 171.957C374.944 172.296 375.493 172.347 375.861 172.068C376.053 171.922 376.169 171.708 376.18 171.479C376.19 171.282 376.376 171.123 376.582 171.139C376.794 171.149 376.959 171.317 376.95 171.514C376.926 171.945 376.708 172.349 376.348 172.624C376.045 172.852 375.677 172.964 375.313 172.964Z" fill="#EA8475"/>
<path d="M372.298 172.546C371.646 172.546 371.01 172.241 370.642 171.706L369.48 170.012C369.366 169.845 369.419 169.623 369.597 169.517C369.774 169.411 370.013 169.459 370.129 169.626L371.291 171.319C371.59 171.756 372.186 171.941 372.709 171.759C372.903 171.696 373.037 171.595 373.087 171.479C373.104 171.439 373.117 171.38 373.087 171.323C372.99 171.146 373.064 170.931 373.254 170.84C373.442 170.749 373.673 170.818 373.772 170.995C373.899 171.227 373.909 171.494 373.801 171.745C373.668 172.055 373.364 172.305 372.97 172.432C372.751 172.509 372.524 172.546 372.298 172.546Z" fill="#EA8475"/>
<path d="M370.115 173.238C369.863 173.238 369.608 173.177 369.379 173.048L368.303 172.445C368.121 172.343 368.063 172.122 368.172 171.953C368.282 171.783 368.519 171.729 368.699 171.831L369.775 172.434C370.072 172.601 370.464 172.525 370.663 172.26C370.805 172.073 370.694 171.777 370.542 171.562C370.426 171.397 370.475 171.174 370.652 171.066C370.83 170.958 371.068 171.004 371.186 171.169C371.561 171.702 371.601 172.265 371.292 172.674C371.015 173.039 370.569 173.238 370.115 173.238Z" fill="#EA8475"/>
<path d="M375.105 176.273C375.09 176.273 375.075 176.272 375.06 176.27C374.849 176.247 374.698 176.069 374.723 175.872C375.012 173.613 376.975 172.777 378.472 172.577L377.201 171.395C376.435 170.419 376.387 169.204 377.03 167.928C377.175 167.64 377.453 167.436 377.791 167.372C378.13 167.308 378.49 167.395 378.751 167.611L380.163 168.78C380.323 168.911 380.337 169.137 380.195 169.285C380.053 169.433 379.81 169.446 379.652 169.315L378.24 168.146C378.159 168.08 378.052 168.055 377.947 168.073C377.889 168.085 377.783 168.12 377.727 168.232C377.36 168.958 377.074 170.017 377.786 170.929L379.621 172.632C379.732 172.737 379.764 172.893 379.701 173.028C379.637 173.164 379.492 173.24 379.336 173.244C379.197 173.24 375.844 173.173 375.488 175.955C375.463 176.139 375.297 176.273 375.105 176.273Z" fill="#EA8475"/>
<path d="M371.393 180.096L370.934 182.359C370.934 182.359 374.565 184.788 380.052 181.235V178.006C380.052 178.006 377.367 179.769 371.393 180.096Z" fill="#EA8475"/>
<path d="M382.542 178.768C382.65 179.692 379.416 180.777 375.321 181.193C371.225 181.608 367.817 181.195 367.709 180.271L366.134 201.119C365.743 206.306 370.875 210.354 376.301 209.136L399.185 204.004L396.844 189.867L382.542 193.782V178.768Z" fill="#FF4D4D"/>
<path d="M382.543 199.768C382.331 199.768 382.158 199.608 382.158 199.41V193.784C382.158 193.637 382.254 193.505 382.402 193.451C382.544 193.398 382.716 193.43 382.824 193.539C382.891 193.606 384.484 195.207 384.849 197.582C384.879 197.778 384.732 197.96 384.522 197.988C384.314 198.018 384.117 197.88 384.088 197.684C383.906 196.494 383.372 195.508 382.929 194.861V199.409C382.928 199.607 382.755 199.768 382.543 199.768Z" fill="#213059"/>
<path d="M479.777 256.196L481.315 256.204V272.856V307.166C481.315 308.838 479.859 310.193 478.065 310.193H471.279V311.533H478.383C481.11 311.533 483.322 309.474 483.322 306.932V272.856V252.858C483.322 252.424 482.75 252.216 482.435 252.536L479.353 255.175C478.93 255.537 479.203 256.193 479.777 256.196Z" fill="#213059"/>
<path d="M459.695 313.35V311.088H472.918V313.35C472.918 315.32 471.204 316.917 469.089 316.917H466.306H463.524C461.409 316.917 459.695 315.32 459.695 313.35Z" fill="#213059"/>
<path d="M463.854 122.078L457.631 149.38V308.198C457.631 309.994 458.963 311.569 460.846 311.953C464.442 312.686 468.167 312.686 471.763 311.953C473.647 311.569 474.978 309.994 474.978 308.198V149.38L468.754 122.078C468.635 121.553 468.138 121.178 467.563 121.178H465.047C464.471 121.178 463.974 121.553 463.854 122.078Z" fill="#3FAE2A"/>
<path d="M474.978 210.997V194.176C473.712 194.932 469.896 197.5 469.021 201.464C468.032 205.94 469.077 211.32 474.978 210.997Z" fill="#3FAE2A"/>
<path d="M457.631 301.841C457.631 303.637 458.963 305.212 460.846 305.595C464.442 306.328 468.167 306.328 471.763 305.595C473.647 305.212 474.978 303.637 474.978 301.841V296.078C474.978 297.874 473.646 299.449 471.763 299.833C468.167 300.566 464.442 300.566 460.846 299.833C458.962 299.449 457.631 297.874 457.631 296.078V301.841Z" fill="#3FAE2A"/>
<path d="M466.303 122.435C465.878 122.435 465.533 122.114 465.533 121.718V117.604C465.533 117.208 465.878 116.887 466.303 116.887C466.728 116.887 467.072 117.208 467.072 117.604V121.718C467.072 122.114 466.728 122.435 466.303 122.435Z" fill="#213059"/>
<path d="M467.562 121.178H465.046C464.471 121.178 463.974 121.553 463.854 122.078L457.631 149.38C462.742 153.052 469.868 153.052 474.979 149.38L468.755 122.078C468.635 121.553 468.138 121.178 467.562 121.178Z" fill="white"/>
<path d="M465.62 229.904C467.317 229.904 468.693 231.186 468.693 232.767V293.216C468.693 294.798 467.317 296.079 465.62 296.079C463.923 296.079 462.547 294.798 462.547 293.216V232.767C462.547 231.186 463.923 229.904 465.62 229.904Z" fill="#FAFAFA"/>
<path d="M386.518 192.524L388.745 208.736C388.819 209.274 389.371 209.639 389.94 209.525L402.33 207.055L402.732 217.122L400.307 228.739C400.09 229.781 400.796 230.798 401.908 231.031C407.851 232.27 426.084 235.39 442.323 231.083C443.336 230.814 443.959 229.864 443.796 228.895L437.907 193.83C437.309 190.272 434.045 187.634 430.18 187.587L408.074 187.313C404.599 187.271 401.138 187.712 397.803 188.624L387.226 191.515C386.755 191.644 386.455 192.072 386.518 192.524Z" fill="#F5BC54"/>
<path d="M402.332 207.059L409.639 205.448C410.081 205.35 410.375 205.861 410.044 206.151L402.556 212.688L402.332 207.059Z" fill="#EA8475"/>
<path d="M443.798 228.902L442.944 223.818C421.735 230.166 401.337 223.818 401.337 223.818L400.309 228.745C400.091 229.788 400.797 230.805 401.91 231.037C407.852 232.277 426.085 235.397 442.325 231.09C443.337 230.822 443.961 229.871 443.798 228.902Z" fill="#2178BF"/>
<path d="M440.8 211.425C440.614 211.425 440.45 211.298 440.42 211.122L437.448 193.495C437.415 193.3 437.558 193.116 437.767 193.085C437.993 193.051 438.176 193.189 438.207 193.384L441.18 211.009C441.212 211.205 441.069 211.388 440.86 211.419C440.84 211.424 440.82 211.425 440.8 211.425Z" fill="#213059"/>
<path d="M439.664 204.674C439.633 204.674 439.601 204.671 439.569 204.663C439.363 204.614 439.238 204.419 439.292 204.227L441.267 197.052C441.32 196.861 441.527 196.746 441.735 196.794C441.942 196.844 442.066 197.039 442.013 197.23L440.037 204.403C439.992 204.567 439.835 204.674 439.664 204.674Z" fill="#213059"/>
<path d="M392.769 190L387.225 191.516C386.755 191.645 386.455 192.072 386.518 192.524L388.745 208.735C388.819 209.274 389.371 209.638 389.94 209.524L395.747 208.367L392.769 190Z" fill="#2178BF"/>
<path d="M417.381 204.314L434.649 202.9C434.649 202.9 429.146 213.04 417.381 204.314Z" fill="#EA8475"/>
<path d="M402.332 207.418C402.155 207.418 401.997 207.304 401.956 207.137C401.911 206.944 402.041 206.752 402.248 206.709L410.328 205.032C410.547 204.99 410.742 205.112 410.788 205.303C410.834 205.496 410.704 205.689 410.496 205.731L402.416 207.41C402.387 207.415 402.359 207.418 402.332 207.418Z" fill="#213059"/>
<path d="M388.348 206.735C388.155 206.735 387.99 206.602 387.966 206.42L386.138 192.574C386.112 192.378 386.262 192.199 386.472 192.175C386.693 192.15 386.875 192.291 386.901 192.486L388.73 206.332C388.756 206.529 388.605 206.707 388.395 206.731C388.379 206.734 388.363 206.735 388.348 206.735Z" fill="#213059"/>
<path d="M466.302 152.608C463.13 152.608 459.961 151.658 457.315 149.757C457.159 149.645 457.085 149.459 457.126 149.28L463.35 121.977C463.518 121.236 464.231 120.699 465.044 120.699H467.56C468.373 120.699 469.086 121.237 469.254 121.978L475.478 149.281C475.519 149.461 475.446 149.646 475.289 149.758C472.644 151.658 469.472 152.608 466.302 152.608ZM458.199 149.18C463.015 152.477 469.589 152.477 474.406 149.18L468.251 122.176C468.183 121.874 467.892 121.655 467.561 121.655H465.045C464.714 121.655 464.423 121.874 464.355 122.175L458.199 149.18Z" fill="#3FAE2A"/>
<path d="M434.644 185.178C434.896 182.9 433.18 181.253 431.865 180.341C431.106 179.815 430.206 179.501 429.263 179.434L405.457 177.75C404.714 177.697 403.978 177.924 403.425 178.389C402.277 179.354 400.656 181.295 401.397 184.2C401.397 184.2 399.588 186.042 400.119 188.072L421.422 189.78L421.945 189.822L422.489 189.865L435.92 188.342C436.393 186.456 434.644 185.178 434.644 185.178Z" fill="#213059"/>
<path d="M424.116 189.471L422.493 189.703L420.115 189.485C418.563 189.344 417.381 188.128 417.381 186.676V179.516H426.687V186.68C426.686 188.074 425.595 189.259 424.116 189.471Z" fill="#FFDDBB"/>
<path d="M417.381 186.793L426.687 179.516H417.381V186.793Z" fill="#EA8475"/>
<path d="M413.84 189.17C413.84 189.17 419.022 192.158 422.868 191.643C426.716 191.129 429.141 189.109 429.141 189.109L413.84 189.17Z" fill="#FF4D4D"/>
<path d="M420.455 187.661L405.371 178.257C404.769 177.882 403.971 177.929 403.432 178.381C402.284 179.342 400.654 181.286 401.397 184.198C401.397 184.198 399.588 186.04 400.119 188.07L422.489 189.864C422.085 188.943 421.37 188.17 420.455 187.661Z" fill="#FF4D4D"/>
<path d="M431.613 180.171C432.946 181.039 434.914 182.75 434.645 185.178C434.645 185.178 436.393 186.456 435.92 188.342L422.489 189.866L421.422 189.78L429.643 180.433C430.129 179.88 430.986 179.763 431.613 180.171Z" fill="#FF4D4D"/>
<path d="M410.897 187.203C410.861 187.203 410.824 187.199 410.787 187.188L401.289 184.542C401.085 184.485 400.969 184.285 401.03 184.096C401.091 183.907 401.302 183.799 401.509 183.854L411.007 186.501C411.211 186.557 411.327 186.757 411.266 186.947C411.216 187.103 411.062 187.203 410.897 187.203Z" fill="#255C99"/>
<path d="M428.588 187.667C428.433 187.667 428.286 187.579 428.228 187.436C428.153 187.25 428.253 187.043 428.451 186.974L434.512 184.839C434.713 184.77 434.934 184.863 435.008 185.047C435.083 185.232 434.982 185.44 434.784 185.509L428.724 187.644C428.679 187.659 428.634 187.667 428.588 187.667Z" fill="#255C99"/>
<path d="M414.376 170.715C419.069 170.715 422.873 166.946 422.873 162.296C422.873 157.646 419.069 153.877 414.376 153.877C409.683 153.877 405.879 157.646 405.879 162.296C405.879 166.946 409.683 170.715 414.376 170.715Z" fill="#213059"/>
<path d="M408.741 168.95V162.903C408.741 155.667 415.037 149.801 422.805 149.801C430.572 149.801 436.868 155.667 436.868 162.903C436.868 163.813 436.769 164.703 436.579 165.561L434.911 174.901C431.899 180.076 417.732 185.203 410.305 181.089C402.278 176.643 408.741 168.95 408.741 168.95Z" fill="#FFDDBB"/>
<path d="M410.268 156.538L403.633 157.329C403.633 157.329 405.191 152.557 411.275 153.582L410.268 156.538Z" fill="#213059"/>
<path d="M433.979 151.967C433.377 148.039 428.357 148.784 428.357 148.784L428.353 148.781C427.365 144.743 423.275 141.715 418.373 141.715C412.734 141.715 408.164 145.721 408.164 150.663C408.164 152.765 410.542 156.494 410.542 156.494C410.542 156.494 414.1 155.029 418.091 156.221C421.212 157.153 424.204 158.074 425.116 157.37C425.126 157.364 425.147 157.356 425.147 157.356C425.448 161.237 430.484 161.176 430.484 161.176C430.484 161.176 427.923 168.556 433.142 167.11L438.865 163.515C442.513 153.804 433.979 151.967 433.979 151.967Z" fill="#213059"/>
<path d="M433.247 173.498C433.247 173.498 430.918 178.497 426.686 180.661C426.686 180.661 431.868 179.098 433.247 178.203C434.287 177.529 433.568 176.569 433.568 176.569C433.568 176.569 435.366 177.046 435.751 176.426C436.253 175.62 434.935 174.791 434.935 174.791L433.247 173.498Z" fill="#213059"/>
<path d="M433.279 166.875C431.471 169.793 432.06 173.264 434.595 174.628C437.13 175.992 440.651 174.732 442.46 171.813C444.268 168.894 443.679 165.423 441.144 164.06C438.609 162.696 435.087 163.956 433.279 166.875Z" fill="#FFDDBB"/>
<path d="M419.756 166.864C420.546 166.864 421.186 166.267 421.186 165.531C421.186 164.796 420.546 164.199 419.756 164.199C418.966 164.199 418.326 164.796 418.326 165.531C418.326 166.267 418.966 166.864 419.756 166.864Z" fill="#213059"/>
<path d="M409.271 165.793C409.271 165.057 409.886 164.461 410.644 164.461C411.401 164.461 412.016 165.057 412.016 165.793C412.016 166.529 411.401 167.125 410.644 167.125C409.886 167.126 409.271 166.529 409.271 165.793Z" fill="#213059"/>
<path d="M411.251 171.673C410.256 171.673 409.401 171.471 409.147 170.842C408.334 168.828 413.771 166.44 414.87 165.98C415.061 165.9 415.292 165.979 415.378 166.161C415.465 166.342 415.379 166.554 415.185 166.635C412.728 167.661 409.454 169.566 409.867 170.59C410.143 171.27 412.979 170.9 414.919 170.372C415.128 170.317 415.338 170.426 415.398 170.616C415.456 170.806 415.34 171.005 415.136 171.061C414.6 171.206 412.764 171.673 411.251 171.673Z" fill="#EA8475"/>
<path d="M416.367 160.968C416.367 160.968 421.377 158.159 423.14 161.989L422.36 161.767C420.623 161.272 418.82 161.007 417.003 160.978L416.367 160.968Z" fill="#213059"/>
<path d="M412.689 160.951L412.176 161.085C410.96 161.403 409.821 161.94 408.826 162.666C408.826 162.666 408.607 159.23 412.689 160.951Z" fill="#213059"/>
<path d="M428.088 167.62C428.088 168.89 426.983 169.919 425.621 169.919C424.258 169.919 423.154 168.889 423.154 167.62C423.154 166.351 424.259 165.322 425.621 165.322C426.983 165.322 428.088 166.352 428.088 167.62Z" fill="#EA8475"/>
<path d="M423.618 170.715L412.792 172.943C412.591 172.984 412.491 173.196 412.594 173.362C414.528 176.478 419.142 177.307 421.956 174.839C423.016 173.908 423.728 172.588 423.618 170.715Z" fill="white"/>
<path d="M422.366 174.673C422.259 174.673 422.16 174.611 422.123 174.512L420.945 171.288C420.9 171.163 420.972 171.028 421.105 170.985C421.245 170.944 421.385 171.01 421.431 171.134L422.609 174.358C422.655 174.483 422.583 174.618 422.449 174.661C422.421 174.67 422.393 174.673 422.366 174.673Z" fill="#3FAE2A"/>
<path d="M418.328 176.511C418.208 176.511 418.102 176.433 418.076 176.321L417.13 172.046C417.102 171.916 417.191 171.791 417.33 171.764C417.472 171.734 417.606 171.82 417.634 171.95L418.579 176.226C418.607 176.355 418.518 176.481 418.38 176.508C418.361 176.51 418.344 176.511 418.328 176.511Z" fill="#3FAE2A"/>
<path d="M414.373 175.424C414.252 175.424 414.147 175.345 414.121 175.232L413.589 172.771C413.561 172.642 413.652 172.516 413.79 172.49C413.94 172.461 414.064 172.548 414.093 172.677L414.625 175.138C414.653 175.267 414.562 175.393 414.424 175.419C414.406 175.422 414.39 175.424 414.373 175.424Z" fill="#3FAE2A"/>
<path d="M418.013 176.516C417.707 176.516 417.4 176.495 417.091 176.453C415.128 176.185 413.363 175.072 412.372 173.476C412.283 173.331 412.272 173.158 412.345 173.004C412.417 172.849 412.561 172.74 412.736 172.704L423.564 170.477C423.638 170.461 423.714 170.477 423.774 170.519C423.834 170.562 423.871 170.626 423.875 170.697C423.978 172.452 423.392 173.902 422.133 175.008C421.016 175.987 419.551 176.516 418.013 176.516ZM423.373 171.006L412.847 173.171L412.817 173.238C413.729 174.707 415.355 175.733 417.165 175.98C418.872 176.215 420.557 175.733 421.782 174.66C422.858 173.714 423.393 172.487 423.373 171.006Z" fill="#213059"/>
<path d="M434.647 171.569C434.611 171.569 434.576 171.565 434.539 171.554C434.335 171.5 434.218 171.301 434.277 171.111C434.31 171.004 435.118 168.47 437.076 167.57C437.948 167.17 438.9 167.155 439.91 167.523C440.107 167.595 440.205 167.803 440.129 167.988C440.05 168.172 439.826 168.263 439.63 168.19C438.82 167.895 438.097 167.901 437.419 168.212C435.765 168.969 435.023 171.287 435.017 171.311C434.968 171.467 434.815 171.569 434.647 171.569Z" fill="#EA8475"/>
<path d="M437.607 171.999C437.578 171.999 437.549 171.997 437.52 171.99C437.313 171.945 437.185 171.752 437.232 171.559C437.345 171.112 437.297 170.78 437.089 170.577C436.669 170.164 435.652 170.227 435.294 170.286C435.084 170.322 434.885 170.191 434.848 169.997C434.811 169.802 434.949 169.616 435.157 169.581C435.33 169.552 436.864 169.319 437.645 170.082C438.043 170.472 438.157 171.025 437.982 171.724C437.94 171.888 437.783 171.999 437.607 171.999Z" fill="#EA8475"/>
<path d="M471.062 195.928L474.971 192.213L475.883 192.815C476.342 193.119 476.616 193.611 476.616 194.137C476.616 195.062 476.142 195.931 475.341 196.477L471.701 198.959C471.254 199.263 470.621 198.996 470.573 198.483L470.475 197.456C470.422 196.891 470.636 196.332 471.062 195.928Z" fill="#FFDDBB"/>
<path d="M474.977 196.953L475.314 197.194C476.109 197.763 476.448 198.727 476.169 199.625L475.828 200.725C476.433 201.511 476.566 202.53 476.183 203.429L475.888 204.121C476.296 204.883 476.238 205.79 475.735 206.501L475.573 206.73L472.893 208.793C472.615 209.007 472.192 208.869 472.117 208.541L472.018 208.107C471.882 207.508 472.088 206.886 472.565 206.465L474.524 204.729L472.333 206.121C471.816 206.45 471.249 206.246 471.205 205.777C471.205 205.777 470.987 204.483 471.532 203.728L474.624 201.129L470.701 203.551C470.358 203.736 469.922 203.547 469.855 203.182L469.814 202.959C469.629 201.945 470.027 200.916 470.864 200.246L474.977 196.953Z" fill="#FFDDBB"/>
<path d="M470.862 200.484C470.79 200.484 470.718 200.456 470.668 200.4C470.575 200.3 470.587 200.149 470.695 200.063L474.808 196.77C474.916 196.685 475.079 196.696 475.17 196.796C475.262 196.896 475.25 197.047 475.143 197.132L471.029 200.425C470.981 200.464 470.921 200.484 470.862 200.484Z" fill="#EA8475"/>
<path d="M472.563 206.704C472.488 206.704 472.411 206.672 472.361 206.611C472.274 206.507 472.294 206.356 472.405 206.276L475.76 203.858C475.872 203.775 476.033 203.795 476.12 203.9C476.207 204.004 476.186 204.155 476.075 204.235L472.72 206.653C472.673 206.687 472.618 206.704 472.563 206.704Z" fill="#EA8475"/>
<path d="M471.411 204.065C471.338 204.065 471.264 204.037 471.215 203.979C471.123 203.878 471.137 203.727 471.246 203.643L475.579 200.264C475.688 200.178 475.85 200.191 475.94 200.293C476.032 200.394 476.018 200.546 475.908 200.629L471.575 204.009C471.527 204.047 471.469 204.065 471.411 204.065Z" fill="#EA8475"/>
<path d="M146.213 376.794L156.249 393.125L309.465 373.303L293.541 358.094L146.213 376.794Z" fill="#FAFAFA"/>
<path d="M280.829 363.125C280.736 363.125 280.644 363.095 280.57 363.032L277.427 360.369C277.27 360.236 277.258 360.01 277.401 359.864C277.545 359.717 277.788 359.706 277.943 359.839L281.086 362.502C281.243 362.635 281.255 362.862 281.112 363.008C281.037 363.086 280.933 363.125 280.829 363.125Z" fill="#3FAE2A"/>
<path d="M154.443 379.02C154.324 379.02 154.206 378.968 154.132 378.874L152.052 376.223C151.927 376.062 151.965 375.838 152.137 375.722C152.307 375.603 152.548 375.641 152.674 375.799L154.753 378.45C154.878 378.611 154.841 378.834 154.669 378.951C154.601 378.998 154.521 379.02 154.443 379.02Z" fill="#3FAE2A"/>
<path d="M276.815 366.437C276.717 366.437 276.62 366.402 276.544 366.333L270.958 361.187C270.807 361.048 270.806 360.822 270.955 360.681C271.105 360.54 271.349 360.539 271.499 360.678L277.085 365.824C277.237 365.964 277.238 366.191 277.088 366.331C277.013 366.401 276.914 366.437 276.815 366.437Z" fill="#3FAE2A"/>
<path d="M163.677 381.453C163.562 381.453 163.448 381.405 163.372 381.314L158.473 375.418C158.343 375.261 158.373 375.036 158.542 374.915C158.711 374.794 158.952 374.822 159.082 374.979L163.98 380.875C164.11 381.032 164.08 381.257 163.912 381.378C163.841 381.429 163.759 381.453 163.677 381.453Z" fill="#3FAE2A"/>
<path d="M275.762 378.019C275.652 378.019 275.542 377.975 275.467 377.89L269.492 371.236C269.355 371.085 269.378 370.86 269.541 370.732C269.702 370.605 269.946 370.625 270.083 370.778L276.058 377.432C276.194 377.583 276.172 377.809 276.008 377.937C275.937 377.992 275.849 378.019 275.762 378.019Z" fill="#3FAE2A"/>
<path d="M179.991 390.413C179.879 390.413 179.768 390.367 179.692 390.281L174.322 384.104C174.188 383.95 174.214 383.723 174.379 383.6C174.542 383.475 174.786 383.499 174.92 383.652L180.29 389.829C180.423 389.984 180.398 390.209 180.233 390.333C180.162 390.387 180.076 390.413 179.991 390.413Z" fill="#3FAE2A"/>
<path d="M168.55 377.247C168.438 377.247 168.326 377.201 168.251 377.114L165.957 374.475C165.823 374.321 165.848 374.095 166.014 373.971C166.178 373.845 166.42 373.87 166.555 374.023L168.849 376.663C168.982 376.817 168.957 377.043 168.792 377.167C168.721 377.221 168.635 377.247 168.55 377.247Z" fill="#3FAE2A"/>
<path d="M174.622 376.487C174.515 376.487 174.409 376.446 174.333 376.366L171.854 373.743C171.713 373.594 171.729 373.368 171.888 373.238C172.048 373.108 172.291 373.121 172.431 373.269L174.909 375.892C175.05 376.04 175.035 376.267 174.876 376.397C174.803 376.457 174.712 376.487 174.622 376.487Z" fill="#3FAE2A"/>
<path d="M182.24 379.019C182.127 379.019 182.015 378.972 181.939 378.883L176.984 373.07C176.852 372.915 176.88 372.688 177.046 372.566C177.213 372.442 177.456 372.47 177.587 372.623L182.541 378.437C182.673 378.592 182.645 378.818 182.479 378.941C182.408 378.994 182.324 379.019 182.24 379.019Z" fill="#3FAE2A"/>
<path d="M197.359 388.164C197.241 388.164 197.127 388.114 197.051 388.02L191.981 381.701C191.854 381.543 191.888 381.317 192.058 381.199C192.228 381.083 192.47 381.113 192.597 381.272L197.667 387.591C197.794 387.749 197.76 387.974 197.59 388.093C197.52 388.141 197.439 388.164 197.359 388.164Z" fill="#3FAE2A"/>
<path d="M186.764 374.958C186.648 374.958 186.532 374.909 186.456 374.815L184.307 372.135C184.18 371.977 184.215 371.751 184.385 371.633C184.555 371.516 184.796 371.548 184.923 371.706L187.073 374.386C187.2 374.544 187.165 374.769 186.995 374.888C186.925 374.935 186.845 374.958 186.764 374.958Z" fill="#3FAE2A"/>
<path d="M193.02 374.172C192.905 374.172 192.79 374.124 192.715 374.032L190.498 371.354C190.368 371.199 190.399 370.972 190.568 370.852C190.737 370.731 190.978 370.759 191.108 370.918L193.325 373.594C193.454 373.751 193.424 373.977 193.256 374.097C193.185 374.148 193.101 374.172 193.02 374.172Z" fill="#3FAE2A"/>
<path d="M260.222 368.632C260.12 368.632 260.018 368.593 259.942 368.519L254.61 363.244C254.465 363.1 254.472 362.873 254.627 362.737C254.781 362.603 255.025 362.609 255.171 362.753L260.502 368.028C260.648 368.171 260.641 368.398 260.486 368.534C260.412 368.599 260.317 368.632 260.222 368.632Z" fill="#3FAE2A"/>
<path d="M241.036 371.182C240.918 371.182 240.803 371.132 240.727 371.038L236.342 365.529C236.214 365.369 236.251 365.145 236.421 365.027C236.593 364.909 236.833 364.944 236.96 365.101L241.345 370.61C241.472 370.769 241.436 370.994 241.266 371.111C241.196 371.159 241.116 371.182 241.036 371.182Z" fill="#3FAE2A"/>
<path d="M219.939 373.979C219.824 373.979 219.71 373.93 219.634 373.839L215.019 368.237C214.89 368.08 214.921 367.855 215.09 367.734C215.26 367.614 215.501 367.644 215.63 367.8L220.245 373.402C220.374 373.559 220.343 373.784 220.174 373.905C220.104 373.956 220.022 373.979 219.939 373.979Z" fill="#3FAE2A"/>
<path d="M200.631 376.551C200.512 376.551 200.396 376.501 200.321 376.406L195.786 370.681C195.66 370.521 195.696 370.297 195.867 370.179C196.038 370.061 196.278 370.097 196.405 370.255L200.94 375.98C201.066 376.139 201.03 376.364 200.859 376.481C200.791 376.528 200.71 376.551 200.631 376.551Z" fill="#3FAE2A"/>
<path d="M215.707 385.787C215.59 385.787 215.475 385.737 215.4 385.645L210.201 379.235C210.073 379.077 210.106 378.852 210.275 378.733C210.445 378.612 210.686 378.645 210.814 378.802L216.013 385.211C216.141 385.369 216.108 385.595 215.938 385.713C215.869 385.764 215.788 385.787 215.707 385.787Z" fill="#3FAE2A"/>
<path d="M205.052 372.66C204.935 372.66 204.82 372.61 204.745 372.518L202.558 369.822C202.43 369.664 202.464 369.439 202.633 369.32C202.801 369.197 203.043 369.232 203.172 369.389L205.358 372.085C205.486 372.243 205.453 372.468 205.283 372.587C205.215 372.637 205.133 372.66 205.052 372.66Z" fill="#3FAE2A"/>
<path d="M212.046 371.817C211.934 371.817 211.823 371.771 211.747 371.685L209.379 368.963C209.245 368.809 209.27 368.583 209.436 368.459C209.601 368.334 209.843 368.358 209.977 368.511L212.346 371.233C212.48 371.387 212.454 371.614 212.289 371.737C212.217 371.791 212.131 371.817 212.046 371.817Z" fill="#3FAE2A"/>
<path d="M235.445 383.242C235.329 383.242 235.213 383.193 235.137 383.1L229.834 376.591C229.706 376.433 229.739 376.208 229.908 376.089C230.078 375.969 230.319 376 230.447 376.157L235.75 382.666C235.878 382.824 235.845 383.049 235.676 383.169C235.607 383.218 235.525 383.242 235.445 383.242Z" fill="#3FAE2A"/>
<path d="M224.799 370.171C224.683 370.171 224.568 370.122 224.492 370.029L222.279 367.314C222.151 367.156 222.184 366.931 222.353 366.812C222.523 366.692 222.764 366.722 222.892 366.88L225.105 369.595C225.233 369.753 225.2 369.978 225.031 370.097C224.962 370.147 224.88 370.171 224.799 370.171Z" fill="#3FAE2A"/>
<path d="M231.284 369.359C231.168 369.359 231.052 369.31 230.976 369.216L228.777 366.492C228.649 366.333 228.683 366.109 228.853 365.99C229.025 365.871 229.265 365.904 229.392 366.061L231.592 368.786C231.72 368.944 231.685 369.169 231.516 369.288C231.445 369.336 231.365 369.359 231.284 369.359Z" fill="#3FAE2A"/>
<path d="M256.305 380.54C256.195 380.54 256.086 380.497 256.009 380.411L250.165 373.853C250.029 373.701 250.052 373.475 250.215 373.349C250.379 373.221 250.622 373.243 250.757 373.396L256.601 379.954C256.737 380.106 256.714 380.331 256.551 380.458C256.479 380.513 256.392 380.54 256.305 380.54Z" fill="#3FAE2A"/>
<path d="M244.821 367.652C244.711 367.652 244.601 367.608 244.525 367.522L242.108 364.81C241.973 364.658 241.995 364.432 242.158 364.306C242.322 364.178 242.565 364.2 242.7 364.353L245.118 367.065C245.253 367.218 245.231 367.443 245.067 367.569C244.995 367.625 244.908 367.652 244.821 367.652Z" fill="#3FAE2A"/>
<path d="M252.083 366.743C251.983 366.743 251.883 366.707 251.807 366.634L249.03 363.958C248.882 363.816 248.886 363.589 249.039 363.452C249.193 363.315 249.436 363.319 249.583 363.461L252.36 366.137C252.508 366.279 252.504 366.506 252.351 366.643C252.277 366.71 252.18 366.743 252.083 366.743Z" fill="#3FAE2A"/>
<path d="M264.253 365.209C264.143 365.209 264.034 365.166 263.958 365.081L261.506 362.35C261.369 362.199 261.391 361.973 261.553 361.845C261.716 361.718 261.959 361.738 262.095 361.891L264.548 364.622C264.684 364.773 264.662 364.999 264.498 365.127C264.428 365.182 264.34 365.209 264.253 365.209Z" fill="#3FAE2A"/>
<path d="M269.972 364.496C269.865 364.496 269.761 364.456 269.684 364.377L267.084 361.659C266.943 361.51 266.957 361.284 267.114 361.153C267.276 361.022 267.517 361.034 267.658 361.182L270.259 363.899C270.4 364.048 270.386 364.274 270.229 364.406C270.154 364.466 270.063 364.496 269.972 364.496Z" fill="#3FAE2A"/>
<path d="M288.646 358.715L303.683 374.051L309.465 373.303L293.54 358.094L288.646 358.715Z" fill="#3FAE2A"/>
<path d="M332.18 353.35L311.935 364.217C311.379 364.515 311.497 365.292 312.119 365.436L334.288 370.554L483.381 351.259C488.993 350.532 492.511 345.226 490.694 340.226C489.308 336.409 485.212 334.044 480.926 334.584L332.18 353.35Z" fill="#FAFAFA"/>
<path d="M332.676 361.612L337.191 357.903C337.389 357.74 337.386 357.451 337.183 357.292L332.18 353.355L311.935 364.222C311.379 364.521 311.497 365.298 312.119 365.442L334.288 370.559L338.814 365.475C338.995 365.272 338.921 364.965 338.665 364.852L332.778 362.281C332.496 362.157 332.442 361.804 332.676 361.612Z" fill="#3FAE2A"/>
<path d="M317.777 361.082L311.935 364.217C311.379 364.516 311.497 365.293 312.119 365.436L318.246 366.851C320.62 363.615 317.777 361.082 317.777 361.082Z" fill="#3FAE2A"/>
<path d="M484.242 351.111C483.961 351.173 483.677 351.231 483.385 351.269C483.677 351.231 483.962 351.177 484.242 351.111Z" fill="#213059"/>
<path d="M337.334 358.098C337.082 358.098 336.863 357.925 336.827 357.685C336.788 357.424 336.984 357.183 337.266 357.147L476.19 339.442C476.463 339.408 476.729 339.588 476.768 339.851C476.807 340.112 476.611 340.353 476.329 340.388L337.405 358.094C337.382 358.097 337.358 358.098 337.334 358.098Z" fill="#3FAE2A"/>
<path d="M338.909 365.631C338.657 365.631 338.437 365.459 338.401 365.219C338.362 364.958 338.557 364.717 338.84 364.68L477.3 346.766C477.561 346.73 477.839 346.911 477.878 347.175C477.917 347.436 477.722 347.677 477.44 347.713L338.981 365.627C338.957 365.629 338.933 365.631 338.909 365.631Z" fill="#3FAE2A"/>
<path d="M490.696 340.226C489.31 336.409 485.214 334.044 480.928 334.584L476.26 335.174C476.26 335.174 483.367 341.324 479.013 351.825L483.383 351.259C488.995 350.533 492.513 345.227 490.696 340.226Z" fill="#3FAE2A"/>
<path d="M476.258 335.172L478.845 334.846L473.033 335.579C473.033 335.579 480.447 341.216 476.092 352.202L479.011 351.824C483.366 341.323 476.258 335.172 476.258 335.172Z" fill="#3FAE2A"/>
<path d="M128.15 304.753C128.15 297.791 116.348 292.146 101.789 292.146C87.2303 292.146 75.4277 297.791 75.4277 304.753C75.4277 305.173 75.4726 305.589 75.5566 306H75.5557L75.5576 306.007C75.5669 306.051 75.579 306.095 75.5884 306.138L84.9709 345.742C85.9656 349.943 88.9957 353.486 93.1811 355.306C99.9707 358.258 107.823 358.483 114.726 355.93C119.809 354.05 123.276 349.603 123.831 344.534L128.105 305.486H128.101C128.132 305.243 128.15 304.999 128.15 304.753Z" fill="#3FAE2A"/>
<path d="M101.786 315.959C115.338 315.959 126.323 311.019 126.323 304.926C126.323 298.832 115.338 293.893 101.786 293.893C88.2353 293.893 77.25 298.832 77.25 304.926C77.25 311.019 88.2353 315.959 101.786 315.959Z" fill="#3FAE2A"/>
<path d="M106.988 299.861C108.4 295.658 109.236 290.207 107.339 286.725C104.998 282.423 100.85 281.489 101.385 276.627C101.92 271.765 103.995 265.47 99.9801 262.104C95.9656 258.738 95.6312 256.494 95.832 251.943C96.0328 247.393 94.2264 224.455 71.813 229.254C71.813 229.254 59.9376 233.413 62.3119 250.073C63.8839 261.106 75.6931 262.54 77.634 269.646C78.7082 273.581 77.0951 275.598 78.7044 279.369C80.7789 284.231 86.8166 283.826 87.0678 288.345C87.2509 291.65 84.7262 295.451 89.1424 299.066C93.5585 302.681 103.879 308.976 103.879 308.976C103.879 308.976 105.366 304.692 106.988 299.861Z" fill="#FAFAFA"/>
<path d="M103.38 309.034C103.223 309.034 103.074 308.944 103.018 308.798L75.9683 238.98C75.8963 238.795 75.9991 238.589 76.199 238.521C76.3988 238.454 76.6193 238.549 76.6912 238.737L103.741 308.555C103.813 308.74 103.71 308.946 103.51 309.014C103.467 309.028 103.424 309.034 103.38 309.034Z" fill="#3FAE2A"/>
<path d="M84.405 260.053C84.3901 260.053 84.3761 260.052 84.3611 260.051C84.15 260.028 83.9978 259.851 84.0221 259.654L86.3871 240.034C86.4114 239.837 86.6084 239.709 86.8121 239.717C87.0232 239.74 87.1754 239.916 87.1511 240.114L84.7861 259.734C84.7647 259.918 84.5984 260.053 84.405 260.053Z" fill="#3FAE2A"/>
<path d="M86.0527 264.307C85.9873 264.307 85.9201 264.291 85.8593 264.258L70.3178 255.813C70.1347 255.713 70.0721 255.493 70.1795 255.323C70.286 255.151 70.5214 255.094 70.7054 255.193L86.247 263.638C86.43 263.738 86.4926 263.958 86.3852 264.128C86.3142 264.243 86.1844 264.307 86.0527 264.307Z" fill="#3FAE2A"/>
<path d="M103.78 308.969C103.78 308.969 103.178 302.424 98.9626 301.255C94.7472 300.087 93.4928 299.338 92.4392 296.908C91.3856 294.477 88.5751 291.999 84.2094 291.719C79.8436 291.439 78.4388 288.493 78.0372 285.174C77.6355 281.855 74.3244 279.331 70.661 278.396C66.9977 277.461 66.1449 275.357 65.8432 272.505C65.5425 269.654 64.0639 264.45 58.4839 262.828C54.3022 261.612 50.1877 264.231 48.5821 264.511C46.9765 264.791 38.3122 263.389 36.1873 269.373C34.4939 274.144 38.529 276.619 39.9506 279.75C40.8426 281.716 39.1977 287.324 42.961 290.947C46.7541 294.599 52.6461 291.952 55.2045 293.822C57.7637 295.692 59.8214 301.255 62.9822 302.331C66.144 303.407 71.8641 299.572 74.5233 301.068C77.1825 302.564 78.2371 307.099 84.3083 307.94C90.3796 308.782 92.3374 306.257 94.9462 307.613C97.5587 308.969 102.276 309.763 103.78 308.969Z" fill="#FAFAFA"/>
<path d="M103.781 309.328C103.714 309.328 103.646 309.311 103.583 309.276C103.123 309.018 57.3257 283.302 41.5422 273.221C41.3666 273.109 41.3227 272.886 41.4422 272.722C41.5608 272.558 41.8009 272.518 41.9765 272.629C57.7422 282.698 103.52 308.404 103.98 308.662C104.162 308.765 104.221 308.984 104.112 309.154C104.039 309.267 103.912 309.328 103.781 309.328Z" fill="#3FAE2A"/>
<path d="M56.1925 282.04C56.0486 282.04 55.9113 281.965 55.845 281.836L49.8409 270.177C49.7485 269.999 49.8297 269.785 50.0212 269.7C50.2155 269.614 50.4425 269.689 50.534 269.868L56.538 281.526C56.6305 281.705 56.5493 281.919 56.3578 282.004C56.3045 282.028 56.2476 282.04 56.1925 282.04Z" fill="#3FAE2A"/>
<path d="M64.2865 286.784C64.2828 286.784 64.2781 286.784 64.2744 286.784L46.9618 286.254C46.7498 286.247 46.5826 286.082 46.5901 285.883C46.5966 285.687 46.7741 285.543 46.9871 285.537L64.2996 286.067C64.5116 286.074 64.6788 286.239 64.6713 286.438C64.6648 286.631 64.4939 286.784 64.2865 286.784Z" fill="#3FAE2A"/>
<path d="M103.845 308.967C103.845 308.967 107.91 305.367 111.724 305.554C115.538 305.741 119.753 308.406 123.717 305.882C127.681 303.357 124.269 297.794 127.38 294.708C130.492 291.623 138.671 293.259 142.434 287.742C146.198 282.226 143.638 274.372 139.975 270.772C136.312 267.172 138.771 263.105 141.53 260.44C144.29 257.776 141.881 247.771 135.157 244.967C128.433 242.162 116.139 250.39 115.135 255.439C114.131 260.487 118.397 263.012 117.794 266.191C117.192 269.369 109.364 269.182 107.608 275.354C106.288 279.991 111.622 286.2 110.468 289.331C109.313 292.463 105.901 292.604 104.295 295.923C102.691 299.243 103.845 308.967 103.845 308.967Z" fill="#FAFAFA"/>
<path d="M103.845 309.326C103.787 309.326 103.728 309.313 103.672 309.286C103.482 309.197 103.406 308.981 103.503 308.805L131.403 257.662C131.5 257.485 131.73 257.413 131.92 257.505C132.11 257.595 132.185 257.811 132.089 257.986L104.189 309.13C104.121 309.254 103.986 309.326 103.845 309.326Z" fill="#3FAE2A"/>
<path d="M118.448 282.559C118.276 282.559 118.12 282.451 118.076 282.288C118.024 282.096 118.148 281.902 118.355 281.853L133.659 278.235C133.863 278.188 134.075 278.302 134.126 278.495C134.178 278.686 134.054 278.881 133.848 278.93L118.543 282.547C118.512 282.555 118.48 282.559 118.448 282.559Z" fill="#3FAE2A"/>
<path d="M125.585 269.48C125.401 269.48 125.238 269.356 125.206 269.181L123.486 259.772C123.45 259.577 123.591 259.392 123.801 259.359C124.011 259.333 124.209 259.457 124.244 259.653L125.964 269.062C125.999 269.257 125.858 269.442 125.649 269.476C125.628 269.478 125.606 269.48 125.585 269.48Z" fill="#3FAE2A"/>
<path d="M124.825 335.432L126.351 321.488C121.593 325.388 112.377 328.033 101.787 328.033C92.7609 328.033 84.7346 326.112 79.6133 323.131L83.0496 337.635C88.0122 339.645 94.5814 340.869 101.787 340.869C111.34 340.869 119.772 338.716 124.825 335.432Z" fill="#FAFAFA"/>
<path d="M129.326 311.859L156.794 352.705C157.521 353.786 158.858 354.37 160.216 354.202L171.972 352.734L140.789 308.973L130.841 309.225C129.412 309.261 128.566 310.73 129.326 311.859Z" fill="#255C99"/>
<path d="M163.268 342.775L163.264 345.846C163.262 348.542 165.809 350.623 168.676 350.268L232.286 342.393C233.103 342.292 233.828 342.884 233.828 343.652C233.828 344.286 233.325 344.822 232.652 344.909L163.955 353.762C162.314 353.973 160.687 353.286 159.776 351.998L131.292 311.726C130.355 310.402 129.855 308.85 129.855 307.264V296.479C129.855 294.705 131.324 293.233 133.223 293.103L194.32 288.908L233.303 328.27C233.641 328.611 233.829 329.06 233.829 329.524C233.829 330.462 233.074 331.252 232.074 331.36L167.498 338.355C165.089 338.614 163.271 340.515 163.268 342.775Z" fill="#F5BC54"/>
<path d="M159.825 335.472C159.5 335.472 159.181 335.329 158.982 335.062L133.271 300.556C132.948 300.122 133.063 299.527 133.529 299.226C133.994 298.924 134.634 299.032 134.956 299.467L160.667 333.972C160.99 334.406 160.874 335.001 160.409 335.302C160.232 335.417 160.027 335.472 159.825 335.472Z" fill="#EA8475"/>
<path d="M163.265 342.772L163.262 345.844C163.259 348.54 165.805 350.621 168.674 350.266L228.682 342.837L231.268 342.456V331.443L167.495 338.351C165.086 338.612 163.268 340.512 163.265 342.772Z" fill="white"/>
<path d="M175.651 346.859C175.396 346.859 175.175 346.682 175.142 346.439C175.109 346.177 175.309 345.939 175.59 345.907L231.207 339.611C231.495 339.577 231.745 339.766 231.779 340.027C231.813 340.289 231.613 340.528 231.332 340.559L175.714 346.855C175.693 346.858 175.672 346.859 175.651 346.859Z" fill="#3FAE2A"/>
<path d="M188.764 340.557C188.507 340.557 188.285 340.378 188.255 340.133C188.223 339.872 188.424 339.635 188.707 339.604L231.21 335.054C231.491 335.024 231.746 335.211 231.778 335.475C231.811 335.736 231.609 335.974 231.327 336.004L188.823 340.554C188.804 340.556 188.784 340.557 188.764 340.557Z" fill="#3FAE2A"/>
<path d="M409.289 87.2969H373.695C367.265 87.2969 362.053 92.1525 362.053 98.1429V120.86C362.053 126.85 367.265 131.706 373.695 131.706H400.173L408.092 139.517C408.522 139.941 409.289 139.658 409.289 139.073V131.706C415.719 131.706 420.931 126.85 420.931 120.86V98.1429C420.931 92.1525 415.719 87.2969 409.289 87.2969Z" fill="white"/>
<path d="M408.594 140.072C408.304 140.072 408.022 139.962 407.813 139.757L400.007 132.058H373.695C367.063 132.058 361.668 127.032 361.668 120.854H362.438C362.438 126.637 367.487 131.341 373.695 131.341H400.339L408.371 139.264C408.507 139.396 408.663 139.35 408.709 139.334C408.755 139.317 408.904 139.248 408.904 139.067V131.341H409.288C415.496 131.341 420.545 126.637 420.545 120.854H421.315C421.315 126.912 416.127 131.862 409.673 132.053V139.067C409.673 139.482 409.407 139.847 408.994 140C408.864 140.048 408.729 140.072 408.594 140.072Z" fill="#3FAE2A"/>
<path d="M398.626 112.604H384.566V119.897H398.626V112.604Z" fill="#3FAE2A"/>
<path d="M391.596 126.626C387.713 126.626 384.566 123.695 384.566 120.077V119.895H398.626V120.077C398.626 123.694 395.479 126.626 391.596 126.626Z" fill="#255C99"/>
<path d="M398.628 116.967H384.568C384.143 116.967 383.799 116.646 383.799 116.25C383.799 115.854 384.143 115.533 384.568 115.533H398.628C399.053 115.533 399.397 115.854 399.397 116.25C399.397 116.646 399.053 116.967 398.628 116.967Z" fill="#FAFAFA"/>
<path d="M408.459 92.4968C408.459 83.8219 400.91 76.7891 391.599 76.7891C382.287 76.7891 374.738 83.8219 374.738 92.4968C374.738 95.2336 375.492 97.805 376.814 100.046H376.811L384.57 112.599H391.6H398.629L406.388 100.046H406.386C407.705 97.805 408.459 95.2336 408.459 92.4968Z" fill="#F5BC54"/>
<path d="M395.443 112.602H393.903V96.8321H389.322V112.602H387.783V96.8321H385.448C383.901 96.8321 382.546 96.0141 381.914 94.6984C381.281 93.3818 381.529 91.8955 382.56 90.8199C383.642 89.6939 385.318 89.3145 386.831 89.8523C388.345 90.3901 389.324 91.7136 389.324 93.2234V95.398H393.905V93.2234C393.905 91.7136 394.884 90.3901 396.398 89.8523C397.913 89.3145 399.588 89.6939 400.668 90.8199C401.699 91.8955 401.946 93.3818 401.314 94.6975C400.682 96.0141 399.326 96.8312 397.779 96.8312H395.444V112.602H395.443ZM395.443 95.3989H397.777C398.725 95.3989 399.521 94.9185 399.907 94.1127C400.294 93.3078 400.148 92.4333 399.518 91.7754C398.728 90.9514 397.67 90.9322 396.944 91.1924C396.22 91.4508 395.443 92.12 395.443 93.2243V95.3989ZM385.422 91.0453C384.847 91.0453 384.221 91.2403 383.708 91.7754C383.077 92.4342 382.932 93.3078 383.319 94.1127C383.705 94.9177 384.502 95.3989 385.448 95.3989H387.783V93.2243C387.783 92.12 387.007 91.4508 386.281 91.1924C386.027 91.1019 385.732 91.0453 385.422 91.0453Z" fill="white"/>
<path d="M391.602 72.2359C390.752 72.2359 390.062 71.5946 390.062 70.8027V54.5328C390.062 53.7409 390.752 53.0996 391.602 53.0996C392.451 53.0996 393.141 53.7409 393.141 54.5328V70.8018C393.14 71.5937 392.451 72.2359 391.602 72.2359Z" fill="#F5BC54"/>
<path d="M375.466 78.445C375.105 78.445 374.743 78.3275 374.45 78.0873L359.131 65.5314C358.494 65.0084 358.431 64.1025 358.993 63.5082C359.553 62.9147 360.525 62.8547 361.165 63.3794L376.483 75.9353C377.12 76.4583 377.184 77.3642 376.621 77.9585C376.318 78.2805 375.894 78.445 375.466 78.445Z" fill="#F5BC54"/>
<path d="M407.733 78.445C407.306 78.445 406.881 78.2805 406.577 77.9585C406.015 77.3642 406.078 76.4583 406.715 75.9353L422.034 63.3794C422.673 62.8547 423.646 62.9147 424.205 63.5082C424.768 64.1025 424.704 65.0084 424.067 65.5314L408.749 78.0873C408.456 78.3275 408.094 78.445 407.733 78.445Z" fill="#F5BC54"/>
<path d="M400.233 74.0188C399.998 74.0188 399.761 73.9684 399.537 73.8622C398.779 73.5028 398.477 72.6396 398.863 71.9347L403.972 62.5802C404.358 61.8728 405.284 61.5952 406.042 61.9528C406.8 62.3122 407.101 63.1754 406.716 63.8803L401.606 73.2348C401.335 73.7317 400.794 74.0188 400.233 74.0188Z" fill="#F5BC54"/>
<path d="M382.964 74.0187C382.403 74.0187 381.862 73.7324 381.592 73.2346L376.482 63.8801C376.097 63.1744 376.398 62.312 377.156 61.9527C377.915 61.595 378.84 61.8735 379.226 62.5801L384.335 71.9346C384.721 72.6403 384.419 73.5027 383.661 73.862C383.436 73.9682 383.199 74.0187 382.964 74.0187Z" fill="#F5BC54"/>
<path d="M98.956 439.489H100.57L103.797 444.92H103.933L107.161 439.489H108.774L104.57 446.33V451.125H103.161V446.33L98.956 439.489ZM112.726 451.307C111.938 451.307 111.247 451.119 110.652 450.744C110.061 450.369 109.599 449.845 109.266 449.17C108.936 448.496 108.771 447.708 108.771 446.807C108.771 445.898 108.936 445.104 109.266 444.426C109.599 443.748 110.061 443.222 110.652 442.847C111.247 442.472 111.938 442.284 112.726 442.284C113.514 442.284 114.203 442.472 114.794 442.847C115.389 443.222 115.851 443.748 116.18 444.426C116.514 445.104 116.68 445.898 116.68 446.807C116.68 447.708 116.514 448.496 116.18 449.17C115.851 449.845 115.389 450.369 114.794 450.744C114.203 451.119 113.514 451.307 112.726 451.307ZM112.726 450.102C113.324 450.102 113.817 449.949 114.203 449.642C114.589 449.335 114.875 448.932 115.061 448.432C115.247 447.932 115.339 447.39 115.339 446.807C115.339 446.223 115.247 445.68 115.061 445.176C114.875 444.672 114.589 444.265 114.203 443.955C113.817 443.644 113.324 443.489 112.726 443.489C112.127 443.489 111.635 443.644 111.249 443.955C110.862 444.265 110.576 444.672 110.391 445.176C110.205 445.68 110.112 446.223 110.112 446.807C110.112 447.39 110.205 447.932 110.391 448.432C110.576 448.932 110.862 449.335 111.249 449.642C111.635 449.949 112.127 450.102 112.726 450.102ZM124.227 447.557V442.398H125.568V451.125H124.227V449.648H124.136C123.932 450.091 123.614 450.468 123.182 450.778C122.75 451.085 122.205 451.239 121.545 451.239C121 451.239 120.515 451.119 120.091 450.881C119.667 450.638 119.333 450.275 119.091 449.79C118.848 449.301 118.727 448.686 118.727 447.943V442.398H120.068V447.852C120.068 448.489 120.246 448.996 120.602 449.375C120.962 449.754 121.42 449.943 121.977 449.943C122.311 449.943 122.65 449.858 122.994 449.688C123.343 449.517 123.634 449.256 123.869 448.903C124.108 448.551 124.227 448.102 124.227 447.557ZM128.024 451.125V442.398H129.32V443.716H129.411C129.57 443.284 129.857 442.934 130.274 442.665C130.691 442.396 131.161 442.261 131.683 442.261C131.782 442.261 131.905 442.263 132.053 442.267C132.2 442.271 132.312 442.277 132.388 442.284V443.648C132.342 443.636 132.238 443.619 132.075 443.597C131.916 443.57 131.748 443.557 131.57 443.557C131.145 443.557 130.767 443.646 130.433 443.824C130.104 443.998 129.842 444.241 129.649 444.551C129.46 444.858 129.365 445.208 129.365 445.602V451.125H128.024ZM138.477 442.398H139.818V451.761C139.818 452.299 139.725 452.765 139.54 453.159C139.358 453.553 139.081 453.858 138.71 454.074C138.343 454.29 137.879 454.398 137.318 454.398C137.273 454.398 137.227 454.398 137.182 454.398C137.136 454.398 137.091 454.398 137.045 454.398V453.148C137.091 453.148 137.133 453.148 137.17 453.148C137.208 453.148 137.25 453.148 137.295 453.148C137.705 453.148 138.004 453.027 138.193 452.784C138.383 452.545 138.477 452.205 138.477 451.761V442.398ZM139.136 440.943C138.875 440.943 138.65 440.854 138.46 440.676C138.275 440.498 138.182 440.284 138.182 440.034C138.182 439.784 138.275 439.57 138.46 439.392C138.65 439.214 138.875 439.125 139.136 439.125C139.398 439.125 139.621 439.214 139.807 439.392C139.996 439.57 140.091 439.784 140.091 440.034C140.091 440.284 139.996 440.498 139.807 440.676C139.621 440.854 139.398 440.943 139.136 440.943ZM145.82 451.307C145.032 451.307 144.34 451.119 143.746 450.744C143.155 450.369 142.693 449.845 142.359 449.17C142.03 448.496 141.865 447.708 141.865 446.807C141.865 445.898 142.03 445.104 142.359 444.426C142.693 443.748 143.155 443.222 143.746 442.847C144.34 442.472 145.032 442.284 145.82 442.284C146.607 442.284 147.297 442.472 147.888 442.847C148.482 443.222 148.945 443.748 149.274 444.426C149.607 445.104 149.774 445.898 149.774 446.807C149.774 447.708 149.607 448.496 149.274 449.17C148.945 449.845 148.482 450.369 147.888 450.744C147.297 451.119 146.607 451.307 145.82 451.307ZM145.82 450.102C146.418 450.102 146.911 449.949 147.297 449.642C147.683 449.335 147.969 448.932 148.155 448.432C148.34 447.932 148.433 447.39 148.433 446.807C148.433 446.223 148.34 445.68 148.155 445.176C147.969 444.672 147.683 444.265 147.297 443.955C146.911 443.644 146.418 443.489 145.82 443.489C145.221 443.489 144.729 443.644 144.342 443.955C143.956 444.265 143.67 444.672 143.484 445.176C143.299 445.68 143.206 446.223 143.206 446.807C143.206 447.39 143.299 447.932 143.484 448.432C143.67 448.932 143.956 449.335 144.342 449.642C144.729 449.949 145.221 450.102 145.82 450.102ZM152.003 451.125V439.489H153.344V443.784H153.457C153.556 443.633 153.692 443.439 153.866 443.205C154.045 442.966 154.298 442.754 154.628 442.568C154.961 442.379 155.412 442.284 155.98 442.284C156.715 442.284 157.363 442.468 157.923 442.835C158.484 443.203 158.921 443.723 159.236 444.398C159.55 445.072 159.707 445.867 159.707 446.784C159.707 447.708 159.55 448.509 159.236 449.188C158.921 449.862 158.486 450.384 157.929 450.756C157.372 451.123 156.73 451.307 156.003 451.307C155.442 451.307 154.993 451.214 154.656 451.028C154.319 450.839 154.06 450.625 153.878 450.386C153.696 450.144 153.556 449.943 153.457 449.784H153.298V451.125H152.003ZM153.321 446.761C153.321 447.42 153.418 448.002 153.611 448.506C153.804 449.006 154.086 449.398 154.457 449.682C154.829 449.962 155.283 450.102 155.821 450.102C156.382 450.102 156.849 449.955 157.224 449.659C157.603 449.36 157.887 448.958 158.077 448.455C158.27 447.947 158.366 447.383 158.366 446.761C158.366 446.148 158.272 445.595 158.082 445.102C157.897 444.606 157.615 444.214 157.236 443.926C156.861 443.634 156.389 443.489 155.821 443.489C155.276 443.489 154.817 443.627 154.446 443.903C154.075 444.176 153.795 444.559 153.605 445.051C153.416 445.54 153.321 446.11 153.321 446.761ZM167.599 445.875V451.125H166.259V439.489H167.599V443.761H167.713C167.918 443.311 168.224 442.953 168.634 442.688C169.046 442.419 169.596 442.284 170.281 442.284C170.876 442.284 171.397 442.403 171.844 442.642C172.291 442.877 172.637 443.239 172.884 443.727C173.134 444.212 173.259 444.83 173.259 445.58V451.125H171.918V445.67C171.918 444.977 171.738 444.441 171.378 444.062C171.022 443.68 170.527 443.489 169.895 443.489C169.455 443.489 169.062 443.581 168.713 443.767C168.368 443.953 168.096 444.223 167.895 444.58C167.698 444.936 167.599 445.367 167.599 445.875ZM178.28 451.33C177.727 451.33 177.225 451.225 176.774 451.017C176.323 450.805 175.965 450.5 175.7 450.102C175.435 449.701 175.303 449.216 175.303 448.648C175.303 448.148 175.401 447.742 175.598 447.432C175.795 447.117 176.058 446.871 176.388 446.693C176.717 446.515 177.081 446.383 177.479 446.295C177.88 446.205 178.284 446.133 178.689 446.08C179.219 446.011 179.649 445.96 179.979 445.926C180.312 445.888 180.554 445.826 180.706 445.739C180.861 445.652 180.939 445.5 180.939 445.284V445.239C180.939 444.678 180.786 444.242 180.479 443.932C180.176 443.621 179.715 443.466 179.098 443.466C178.458 443.466 177.956 443.606 177.592 443.886C177.229 444.167 176.973 444.466 176.825 444.784L175.553 444.33C175.78 443.799 176.083 443.386 176.462 443.091C176.844 442.792 177.261 442.583 177.712 442.466C178.166 442.345 178.613 442.284 179.053 442.284C179.333 442.284 179.655 442.318 180.018 442.386C180.386 442.451 180.74 442.585 181.081 442.79C181.426 442.994 181.712 443.303 181.939 443.716C182.166 444.129 182.28 444.682 182.28 445.375V451.125H180.939V449.943H180.871C180.78 450.133 180.628 450.335 180.416 450.551C180.204 450.767 179.922 450.951 179.57 451.102C179.217 451.254 178.787 451.33 178.28 451.33ZM178.484 450.125C179.015 450.125 179.462 450.021 179.825 449.812C180.193 449.604 180.469 449.335 180.655 449.006C180.844 448.676 180.939 448.33 180.939 447.966V446.739C180.882 446.807 180.757 446.869 180.564 446.926C180.375 446.979 180.155 447.027 179.905 447.068C179.659 447.106 179.418 447.14 179.183 447.17C178.952 447.197 178.765 447.22 178.621 447.239C178.272 447.284 177.946 447.358 177.643 447.46C177.344 447.559 177.102 447.708 176.916 447.909C176.734 448.106 176.643 448.375 176.643 448.716C176.643 449.182 176.816 449.534 177.161 449.773C177.509 450.008 177.95 450.125 178.484 450.125ZM190.909 444.352L189.705 444.693C189.629 444.492 189.517 444.297 189.369 444.108C189.225 443.915 189.028 443.756 188.778 443.631C188.528 443.506 188.208 443.443 187.818 443.443C187.284 443.443 186.839 443.566 186.483 443.812C186.131 444.055 185.955 444.364 185.955 444.739C185.955 445.072 186.076 445.335 186.318 445.528C186.561 445.722 186.939 445.883 187.455 446.011L188.75 446.33C189.53 446.519 190.112 446.809 190.494 447.199C190.877 447.585 191.068 448.083 191.068 448.693C191.068 449.193 190.924 449.64 190.636 450.034C190.352 450.428 189.955 450.739 189.443 450.966C188.932 451.193 188.337 451.307 187.659 451.307C186.769 451.307 186.032 451.114 185.449 450.727C184.866 450.341 184.496 449.777 184.341 449.034L185.614 448.716C185.735 449.186 185.964 449.538 186.301 449.773C186.642 450.008 187.087 450.125 187.636 450.125C188.261 450.125 188.758 449.992 189.125 449.727C189.496 449.458 189.682 449.136 189.682 448.761C189.682 448.458 189.576 448.205 189.364 448C189.152 447.792 188.826 447.636 188.386 447.534L186.932 447.193C186.133 447.004 185.545 446.71 185.17 446.312C184.799 445.911 184.614 445.409 184.614 444.807C184.614 444.314 184.752 443.879 185.028 443.5C185.309 443.121 185.689 442.824 186.17 442.608C186.655 442.392 187.205 442.284 187.818 442.284C188.682 442.284 189.36 442.473 189.852 442.852C190.348 443.231 190.701 443.731 190.909 444.352ZM197.768 451.125V439.489H199.109V443.784H199.223C199.321 443.633 199.458 443.439 199.632 443.205C199.81 442.966 200.064 442.754 200.393 442.568C200.727 442.379 201.178 442.284 201.746 442.284C202.481 442.284 203.128 442.468 203.689 442.835C204.25 443.203 204.687 443.723 205.001 444.398C205.316 445.072 205.473 445.867 205.473 446.784C205.473 447.708 205.316 448.509 205.001 449.188C204.687 449.862 204.251 450.384 203.695 450.756C203.138 451.123 202.496 451.307 201.768 451.307C201.208 451.307 200.759 451.214 200.422 451.028C200.085 450.839 199.825 450.625 199.643 450.386C199.462 450.144 199.321 449.943 199.223 449.784H199.064V451.125H197.768ZM199.087 446.761C199.087 447.42 199.183 448.002 199.376 448.506C199.57 449.006 199.852 449.398 200.223 449.682C200.594 449.962 201.049 450.102 201.587 450.102C202.147 450.102 202.615 449.955 202.99 449.659C203.369 449.36 203.653 448.958 203.842 448.455C204.036 447.947 204.132 447.383 204.132 446.761C204.132 446.148 204.037 445.595 203.848 445.102C203.662 444.606 203.38 444.214 203.001 443.926C202.626 443.634 202.155 443.489 201.587 443.489C201.041 443.489 200.583 443.627 200.212 443.903C199.84 444.176 199.56 444.559 199.371 445.051C199.181 445.54 199.087 446.11 199.087 446.761ZM211.183 451.307C210.342 451.307 209.617 451.121 209.007 450.75C208.401 450.375 207.933 449.852 207.604 449.182C207.278 448.508 207.115 447.723 207.115 446.83C207.115 445.936 207.278 445.148 207.604 444.466C207.933 443.78 208.392 443.246 208.979 442.864C209.57 442.477 210.259 442.284 211.047 442.284C211.501 442.284 211.95 442.36 212.393 442.511C212.837 442.663 213.24 442.909 213.604 443.25C213.967 443.587 214.257 444.034 214.473 444.591C214.689 445.148 214.797 445.833 214.797 446.648V447.216H208.07V446.057H213.433C213.433 445.564 213.335 445.125 213.138 444.739C212.945 444.352 212.668 444.047 212.308 443.824C211.952 443.6 211.532 443.489 211.047 443.489C210.513 443.489 210.051 443.621 209.661 443.886C209.274 444.148 208.977 444.489 208.768 444.909C208.56 445.33 208.456 445.78 208.456 446.261V447.034C208.456 447.693 208.57 448.252 208.797 448.71C209.028 449.165 209.348 449.511 209.757 449.75C210.166 449.985 210.642 450.102 211.183 450.102C211.536 450.102 211.854 450.053 212.138 449.955C212.426 449.852 212.674 449.701 212.882 449.5C213.09 449.295 213.251 449.042 213.365 448.739L214.661 449.102C214.524 449.542 214.295 449.928 213.973 450.261C213.651 450.591 213.253 450.848 212.78 451.034C212.306 451.216 211.774 451.307 211.183 451.307ZM220.496 451.307C219.655 451.307 218.929 451.121 218.32 450.75C217.714 450.375 217.246 449.852 216.916 449.182C216.59 448.508 216.428 447.723 216.428 446.83C216.428 445.936 216.59 445.148 216.916 444.466C217.246 443.78 217.704 443.246 218.291 442.864C218.882 442.477 219.571 442.284 220.359 442.284C220.814 442.284 221.263 442.36 221.706 442.511C222.149 442.663 222.553 442.909 222.916 443.25C223.28 443.587 223.57 444.034 223.786 444.591C224.001 445.148 224.109 445.833 224.109 446.648V447.216H217.382V446.057H222.746C222.746 445.564 222.647 445.125 222.45 444.739C222.257 444.352 221.981 444.047 221.621 443.824C221.265 443.6 220.844 443.489 220.359 443.489C219.825 443.489 219.363 443.621 218.973 443.886C218.587 444.148 218.289 444.489 218.081 444.909C217.873 445.33 217.768 445.78 217.768 446.261V447.034C217.768 447.693 217.882 448.252 218.109 448.71C218.34 449.165 218.661 449.511 219.07 449.75C219.479 449.985 219.954 450.102 220.496 450.102C220.848 450.102 221.166 450.053 221.45 449.955C221.738 449.852 221.986 449.701 222.195 449.5C222.403 449.295 222.564 449.042 222.678 448.739L223.973 449.102C223.837 449.542 223.607 449.928 223.286 450.261C222.964 450.591 222.566 450.848 222.092 451.034C221.619 451.216 221.087 451.307 220.496 451.307ZM227.49 445.875V451.125H226.149V442.398H227.445V443.761H227.558C227.763 443.318 228.073 442.962 228.49 442.693C228.907 442.42 229.445 442.284 230.104 442.284C230.695 442.284 231.212 442.405 231.655 442.648C232.098 442.886 232.443 443.25 232.689 443.739C232.935 444.223 233.058 444.837 233.058 445.58V451.125H231.717V445.67C231.717 444.985 231.539 444.451 231.183 444.068C230.827 443.682 230.339 443.489 229.717 443.489C229.289 443.489 228.907 443.581 228.57 443.767C228.236 443.953 227.973 444.223 227.78 444.58C227.587 444.936 227.49 445.367 227.49 445.875ZM246.19 444.352L244.986 444.693C244.91 444.492 244.798 444.297 244.651 444.108C244.507 443.915 244.31 443.756 244.06 443.631C243.81 443.506 243.49 443.443 243.099 443.443C242.565 443.443 242.12 443.566 241.764 443.812C241.412 444.055 241.236 444.364 241.236 444.739C241.236 445.072 241.357 445.335 241.599 445.528C241.842 445.722 242.221 445.883 242.736 446.011L244.031 446.33C244.812 446.519 245.393 446.809 245.776 447.199C246.158 447.585 246.349 448.083 246.349 448.693C246.349 449.193 246.205 449.64 245.918 450.034C245.634 450.428 245.236 450.739 244.724 450.966C244.213 451.193 243.618 451.307 242.94 451.307C242.05 451.307 241.313 451.114 240.73 450.727C240.147 450.341 239.777 449.777 239.622 449.034L240.895 448.716C241.016 449.186 241.245 449.538 241.582 449.773C241.923 450.008 242.368 450.125 242.918 450.125C243.543 450.125 244.039 449.992 244.406 449.727C244.777 449.458 244.963 449.136 244.963 448.761C244.963 448.458 244.857 448.205 244.645 448C244.433 447.792 244.107 447.636 243.668 447.534L242.213 447.193C241.414 447.004 240.827 446.71 240.452 446.312C240.08 445.911 239.895 445.409 239.895 444.807C239.895 444.314 240.033 443.879 240.31 443.5C240.59 443.121 240.971 442.824 241.452 442.608C241.937 442.392 242.486 442.284 243.099 442.284C243.963 442.284 244.641 442.473 245.134 442.852C245.63 443.231 245.982 443.731 246.19 444.352ZM253.868 447.557V442.398H255.209V451.125H253.868V449.648H253.777C253.572 450.091 253.254 450.468 252.822 450.778C252.391 451.085 251.845 451.239 251.186 451.239C250.641 451.239 250.156 451.119 249.732 450.881C249.307 450.638 248.974 450.275 248.732 449.79C248.489 449.301 248.368 448.686 248.368 447.943V442.398H249.709V447.852C249.709 448.489 249.887 448.996 250.243 449.375C250.603 449.754 251.061 449.943 251.618 449.943C251.951 449.943 252.29 449.858 252.635 449.688C252.983 449.517 253.275 449.256 253.51 448.903C253.749 448.551 253.868 448.102 253.868 447.557ZM261.21 451.307C260.392 451.307 259.688 451.114 259.097 450.727C258.506 450.341 258.051 449.809 257.733 449.131C257.415 448.453 257.256 447.678 257.256 446.807C257.256 445.92 257.419 445.138 257.744 444.46C258.074 443.778 258.532 443.246 259.119 442.864C259.71 442.477 260.4 442.284 261.188 442.284C261.801 442.284 262.354 442.398 262.847 442.625C263.339 442.852 263.742 443.17 264.057 443.58C264.371 443.989 264.566 444.466 264.642 445.011H263.301C263.199 444.614 262.972 444.261 262.619 443.955C262.271 443.644 261.801 443.489 261.21 443.489C260.688 443.489 260.229 443.625 259.835 443.898C259.445 444.167 259.14 444.547 258.92 445.04C258.705 445.528 258.597 446.102 258.597 446.761C258.597 447.436 258.703 448.023 258.915 448.523C259.131 449.023 259.434 449.411 259.824 449.688C260.218 449.964 260.68 450.102 261.21 450.102C261.559 450.102 261.875 450.042 262.159 449.92C262.443 449.799 262.684 449.625 262.881 449.398C263.078 449.17 263.218 448.898 263.301 448.58H264.642C264.566 449.095 264.379 449.559 264.08 449.972C263.784 450.381 263.392 450.706 262.903 450.949C262.419 451.188 261.854 451.307 261.21 451.307ZM270.148 451.307C269.33 451.307 268.625 451.114 268.034 450.727C267.443 450.341 266.989 449.809 266.67 449.131C266.352 448.453 266.193 447.678 266.193 446.807C266.193 445.92 266.356 445.138 266.682 444.46C267.011 443.778 267.47 443.246 268.057 442.864C268.648 442.477 269.337 442.284 270.125 442.284C270.739 442.284 271.292 442.398 271.784 442.625C272.277 442.852 272.68 443.17 272.994 443.58C273.309 443.989 273.504 444.466 273.58 445.011H272.239C272.136 444.614 271.909 444.261 271.557 443.955C271.208 443.644 270.739 443.489 270.148 443.489C269.625 443.489 269.167 443.625 268.773 443.898C268.383 444.167 268.078 444.547 267.858 445.04C267.642 445.528 267.534 446.102 267.534 446.761C267.534 447.436 267.64 448.023 267.852 448.523C268.068 449.023 268.371 449.411 268.761 449.688C269.155 449.964 269.617 450.102 270.148 450.102C270.496 450.102 270.812 450.042 271.097 449.92C271.381 449.799 271.621 449.625 271.818 449.398C272.015 449.17 272.155 448.898 272.239 448.58H273.58C273.504 449.095 273.316 449.559 273.017 449.972C272.722 450.381 272.33 450.706 271.841 450.949C271.356 451.188 270.792 451.307 270.148 451.307ZM279.199 451.307C278.358 451.307 277.633 451.121 277.023 450.75C276.417 450.375 275.949 449.852 275.619 449.182C275.294 448.508 275.131 447.723 275.131 446.83C275.131 445.936 275.294 445.148 275.619 444.466C275.949 443.78 276.407 443.246 276.994 442.864C277.585 442.477 278.275 442.284 279.062 442.284C279.517 442.284 279.966 442.36 280.409 442.511C280.852 442.663 281.256 442.909 281.619 443.25C281.983 443.587 282.273 444.034 282.489 444.591C282.705 445.148 282.812 445.833 282.812 446.648V447.216H276.085V446.057H281.449C281.449 445.564 281.35 445.125 281.153 444.739C280.96 444.352 280.684 444.047 280.324 443.824C279.968 443.6 279.547 443.489 279.062 443.489C278.528 443.489 278.066 443.621 277.676 443.886C277.29 444.148 276.992 444.489 276.784 444.909C276.576 445.33 276.472 445.78 276.472 446.261V447.034C276.472 447.693 276.585 448.252 276.812 448.71C277.044 449.165 277.364 449.511 277.773 449.75C278.182 449.985 278.657 450.102 279.199 450.102C279.551 450.102 279.869 450.053 280.153 449.955C280.441 449.852 280.689 449.701 280.898 449.5C281.106 449.295 281.267 449.042 281.381 448.739L282.676 449.102C282.54 449.542 282.311 449.928 281.989 450.261C281.667 450.591 281.269 450.848 280.795 451.034C280.322 451.216 279.79 451.307 279.199 451.307ZM291.034 444.352L289.83 444.693C289.754 444.492 289.642 444.297 289.494 444.108C289.35 443.915 289.153 443.756 288.903 443.631C288.653 443.506 288.333 443.443 287.943 443.443C287.409 443.443 286.964 443.566 286.608 443.812C286.256 444.055 286.08 444.364 286.08 444.739C286.08 445.072 286.201 445.335 286.443 445.528C286.686 445.722 287.064 445.883 287.58 446.011L288.875 446.33C289.655 446.519 290.237 446.809 290.619 447.199C291.002 447.585 291.193 448.083 291.193 448.693C291.193 449.193 291.049 449.64 290.761 450.034C290.477 450.428 290.08 450.739 289.568 450.966C289.057 451.193 288.462 451.307 287.784 451.307C286.894 451.307 286.157 451.114 285.574 450.727C284.991 450.341 284.621 449.777 284.466 449.034L285.739 448.716C285.86 449.186 286.089 449.538 286.426 449.773C286.767 450.008 287.212 450.125 287.761 450.125C288.386 450.125 288.883 449.992 289.25 449.727C289.621 449.458 289.807 449.136 289.807 448.761C289.807 448.458 289.701 448.205 289.489 448C289.277 447.792 288.951 447.636 288.511 447.534L287.057 447.193C286.258 447.004 285.67 446.71 285.295 446.312C284.924 445.911 284.739 445.409 284.739 444.807C284.739 444.314 284.877 443.879 285.153 443.5C285.434 443.121 285.814 442.824 286.295 442.608C286.78 442.392 287.33 442.284 287.943 442.284C288.807 442.284 289.485 442.473 289.977 442.852C290.473 443.231 290.826 443.731 291.034 444.352ZM299.393 444.352L298.189 444.693C298.113 444.492 298.001 444.297 297.854 444.108C297.71 443.915 297.513 443.756 297.263 443.631C297.013 443.506 296.693 443.443 296.303 443.443C295.768 443.443 295.323 443.566 294.967 443.812C294.615 444.055 294.439 444.364 294.439 444.739C294.439 445.072 294.56 445.335 294.803 445.528C295.045 445.722 295.424 445.883 295.939 446.011L297.234 446.33C298.015 446.519 298.596 446.809 298.979 447.199C299.361 447.585 299.553 448.083 299.553 448.693C299.553 449.193 299.409 449.64 299.121 450.034C298.837 450.428 298.439 450.739 297.928 450.966C297.416 451.193 296.821 451.307 296.143 451.307C295.253 451.307 294.517 451.114 293.933 450.727C293.35 450.341 292.981 449.777 292.825 449.034L294.098 448.716C294.219 449.186 294.448 449.538 294.786 449.773C295.126 450.008 295.571 450.125 296.121 450.125C296.746 450.125 297.242 449.992 297.609 449.727C297.981 449.458 298.166 449.136 298.166 448.761C298.166 448.458 298.06 448.205 297.848 448C297.636 447.792 297.31 447.636 296.871 447.534L295.416 447.193C294.617 447.004 294.03 446.71 293.655 446.312C293.284 445.911 293.098 445.409 293.098 444.807C293.098 444.314 293.236 443.879 293.513 443.5C293.793 443.121 294.174 442.824 294.655 442.608C295.14 442.392 295.689 442.284 296.303 442.284C297.166 442.284 297.844 442.473 298.337 442.852C298.833 443.231 299.185 443.731 299.393 444.352ZM305.457 442.398V443.534H300.753V442.398H305.457ZM302.162 451.125V441.193C302.162 440.693 302.279 440.277 302.514 439.943C302.749 439.61 303.054 439.36 303.429 439.193C303.804 439.027 304.2 438.943 304.616 438.943C304.946 438.943 305.215 438.97 305.423 439.023C305.632 439.076 305.787 439.125 305.889 439.17L305.503 440.33C305.435 440.307 305.34 440.278 305.219 440.244C305.101 440.21 304.946 440.193 304.753 440.193C304.31 440.193 303.99 440.305 303.793 440.528C303.599 440.752 303.503 441.08 303.503 441.511V451.125H302.162ZM312.837 447.557V442.398H314.178V451.125H312.837V449.648H312.746C312.541 450.091 312.223 450.468 311.791 450.778C311.359 451.085 310.814 451.239 310.155 451.239C309.609 451.239 309.125 451.119 308.7 450.881C308.276 450.638 307.943 450.275 307.7 449.79C307.458 449.301 307.337 448.686 307.337 447.943V442.398H308.678V447.852C308.678 448.489 308.856 448.996 309.212 449.375C309.571 449.754 310.03 449.943 310.587 449.943C310.92 449.943 311.259 449.858 311.604 449.688C311.952 449.517 312.244 449.256 312.479 448.903C312.717 448.551 312.837 448.102 312.837 447.557ZM317.974 439.489V451.125H316.634V439.489H317.974ZM321.771 439.489V451.125H320.43V439.489H321.771ZM325.091 454.398C324.864 454.398 324.661 454.379 324.483 454.341C324.305 454.307 324.182 454.273 324.114 454.239L324.455 453.057C324.78 453.14 325.068 453.17 325.318 453.148C325.568 453.125 325.79 453.013 325.983 452.812C326.18 452.616 326.36 452.295 326.523 451.852L326.773 451.17L323.545 442.398H325L327.409 449.352H327.5L329.909 442.398H331.364L327.659 452.398C327.492 452.848 327.286 453.222 327.04 453.517C326.794 453.816 326.508 454.038 326.182 454.182C325.86 454.326 325.496 454.398 325.091 454.398ZM337.634 454.398V442.398H338.929V443.784H339.088C339.187 443.633 339.323 443.439 339.497 443.205C339.675 442.966 339.929 442.754 340.259 442.568C340.592 442.379 341.043 442.284 341.611 442.284C342.346 442.284 342.993 442.468 343.554 442.835C344.115 443.203 344.552 443.723 344.866 444.398C345.181 445.072 345.338 445.867 345.338 446.784C345.338 447.708 345.181 448.509 344.866 449.188C344.552 449.862 344.116 450.384 343.56 450.756C343.003 451.123 342.361 451.307 341.634 451.307C341.073 451.307 340.624 451.214 340.287 451.028C339.95 450.839 339.69 450.625 339.509 450.386C339.327 450.144 339.187 449.943 339.088 449.784H338.974V454.398H337.634ZM338.952 446.761C338.952 447.42 339.048 448.002 339.241 448.506C339.435 449.006 339.717 449.398 340.088 449.682C340.459 449.962 340.914 450.102 341.452 450.102C342.012 450.102 342.48 449.955 342.855 449.659C343.234 449.36 343.518 448.958 343.707 448.455C343.901 447.947 343.997 447.383 343.997 446.761C343.997 446.148 343.902 445.595 343.713 445.102C343.527 444.606 343.245 444.214 342.866 443.926C342.491 443.634 342.02 443.489 341.452 443.489C340.906 443.489 340.448 443.627 340.077 443.903C339.705 444.176 339.425 444.559 339.236 445.051C339.046 445.54 338.952 446.11 338.952 446.761ZM352.884 447.557V442.398H354.224V451.125H352.884V449.648H352.793C352.588 450.091 352.27 450.468 351.838 450.778C351.406 451.085 350.861 451.239 350.202 451.239C349.656 451.239 349.171 451.119 348.747 450.881C348.323 450.638 347.99 450.275 347.747 449.79C347.505 449.301 347.384 448.686 347.384 447.943V442.398H348.724V447.852C348.724 448.489 348.902 448.996 349.259 449.375C349.618 449.754 350.077 449.943 350.634 449.943C350.967 449.943 351.306 449.858 351.651 449.688C351.999 449.517 352.291 449.256 352.526 448.903C352.764 448.551 352.884 448.102 352.884 447.557ZM356.862 451.125V439.489H358.203V443.784H358.317C358.415 443.633 358.552 443.439 358.726 443.205C358.904 442.966 359.158 442.754 359.487 442.568C359.821 442.379 360.271 442.284 360.839 442.284C361.574 442.284 362.222 442.468 362.783 442.835C363.343 443.203 363.781 443.723 364.095 444.398C364.41 445.072 364.567 445.867 364.567 446.784C364.567 447.708 364.41 448.509 364.095 449.188C363.781 449.862 363.345 450.384 362.788 450.756C362.232 451.123 361.589 451.307 360.862 451.307C360.302 451.307 359.853 451.214 359.516 451.028C359.179 450.839 358.919 450.625 358.737 450.386C358.555 450.144 358.415 449.943 358.317 449.784H358.158V451.125H356.862ZM358.18 446.761C358.18 447.42 358.277 448.002 358.47 448.506C358.663 449.006 358.946 449.398 359.317 449.682C359.688 449.962 360.143 450.102 360.68 450.102C361.241 450.102 361.709 449.955 362.084 449.659C362.463 449.36 362.747 448.958 362.936 448.455C363.129 447.947 363.226 447.383 363.226 446.761C363.226 446.148 363.131 445.595 362.942 445.102C362.756 444.606 362.474 444.214 362.095 443.926C361.72 443.634 361.249 443.489 360.68 443.489C360.135 443.489 359.677 443.627 359.305 443.903C358.934 444.176 358.654 444.559 358.464 445.051C358.275 445.54 358.18 446.11 358.18 446.761ZM367.959 439.489V451.125H366.618V439.489H367.959ZM370.415 451.125V442.398H371.756V451.125H370.415ZM371.097 440.943C370.835 440.943 370.61 440.854 370.42 440.676C370.235 440.498 370.142 440.284 370.142 440.034C370.142 439.784 370.235 439.57 370.42 439.392C370.61 439.214 370.835 439.125 371.097 439.125C371.358 439.125 371.581 439.214 371.767 439.392C371.956 439.57 372.051 439.784 372.051 440.034C372.051 440.284 371.956 440.498 371.767 440.676C371.581 440.854 371.358 440.943 371.097 440.943ZM380.393 444.352L379.189 444.693C379.113 444.492 379.001 444.297 378.854 444.108C378.71 443.915 378.513 443.756 378.263 443.631C378.013 443.506 377.693 443.443 377.303 443.443C376.768 443.443 376.323 443.566 375.967 443.812C375.615 444.055 375.439 444.364 375.439 444.739C375.439 445.072 375.56 445.335 375.803 445.528C376.045 445.722 376.424 445.883 376.939 446.011L378.234 446.33C379.015 446.519 379.596 446.809 379.979 447.199C380.361 447.585 380.553 448.083 380.553 448.693C380.553 449.193 380.409 449.64 380.121 450.034C379.837 450.428 379.439 450.739 378.928 450.966C378.416 451.193 377.821 451.307 377.143 451.307C376.253 451.307 375.517 451.114 374.933 450.727C374.35 450.341 373.981 449.777 373.825 449.034L375.098 448.716C375.219 449.186 375.448 449.538 375.786 449.773C376.126 450.008 376.571 450.125 377.121 450.125C377.746 450.125 378.242 449.992 378.609 449.727C378.981 449.458 379.166 449.136 379.166 448.761C379.166 448.458 379.06 448.205 378.848 448C378.636 447.792 378.31 447.636 377.871 447.534L376.416 447.193C375.617 447.004 375.03 446.71 374.655 446.312C374.284 445.911 374.098 445.409 374.098 444.807C374.098 444.314 374.236 443.879 374.513 443.5C374.793 443.121 375.174 442.824 375.655 442.608C376.14 442.392 376.689 442.284 377.303 442.284C378.166 442.284 378.844 442.473 379.337 442.852C379.833 443.231 380.185 443.731 380.393 444.352ZM383.912 445.875V451.125H382.571V439.489H383.912V443.761H384.026C384.23 443.311 384.537 442.953 384.946 442.688C385.359 442.419 385.908 442.284 386.594 442.284C387.188 442.284 387.709 442.403 388.156 442.642C388.603 442.877 388.95 443.239 389.196 443.727C389.446 444.212 389.571 444.83 389.571 445.58V451.125H388.23V445.67C388.23 444.977 388.05 444.441 387.69 444.062C387.334 443.68 386.84 443.489 386.207 443.489C385.768 443.489 385.374 443.581 385.026 443.767C384.681 443.953 384.408 444.223 384.207 444.58C384.01 444.936 383.912 445.367 383.912 445.875ZM395.683 451.307C394.842 451.307 394.117 451.121 393.507 450.75C392.901 450.375 392.433 449.852 392.104 449.182C391.778 448.508 391.615 447.723 391.615 446.83C391.615 445.936 391.778 445.148 392.104 444.466C392.433 443.78 392.892 443.246 393.479 442.864C394.07 442.477 394.759 442.284 395.547 442.284C396.001 442.284 396.45 442.36 396.893 442.511C397.337 442.663 397.74 442.909 398.104 443.25C398.467 443.587 398.757 444.034 398.973 444.591C399.189 445.148 399.297 445.833 399.297 446.648V447.216H392.57V446.057H397.933C397.933 445.564 397.835 445.125 397.638 444.739C397.445 444.352 397.168 444.047 396.808 443.824C396.452 443.6 396.032 443.489 395.547 443.489C395.013 443.489 394.551 443.621 394.161 443.886C393.774 444.148 393.477 444.489 393.268 444.909C393.06 445.33 392.956 445.78 392.956 446.261V447.034C392.956 447.693 393.07 448.252 393.297 448.71C393.528 449.165 393.848 449.511 394.257 449.75C394.666 449.985 395.142 450.102 395.683 450.102C396.036 450.102 396.354 450.053 396.638 449.955C396.926 449.852 397.174 449.701 397.382 449.5C397.59 449.295 397.751 449.042 397.865 448.739L399.161 449.102C399.024 449.542 398.795 449.928 398.473 450.261C398.151 450.591 397.753 450.848 397.28 451.034C396.806 451.216 396.274 451.307 395.683 451.307ZM404.632 451.307C403.905 451.307 403.263 451.123 402.706 450.756C402.149 450.384 401.714 449.862 401.399 449.188C401.085 448.509 400.928 447.708 400.928 446.784C400.928 445.867 401.085 445.072 401.399 444.398C401.714 443.723 402.151 443.203 402.712 442.835C403.272 442.468 403.92 442.284 404.655 442.284C405.223 442.284 405.672 442.379 406.001 442.568C406.335 442.754 406.589 442.966 406.763 443.205C406.941 443.439 407.079 443.633 407.178 443.784H407.291V439.489H408.632V451.125H407.337V449.784H407.178C407.079 449.943 406.939 450.144 406.757 450.386C406.575 450.625 406.316 450.839 405.979 451.028C405.642 451.214 405.193 451.307 404.632 451.307ZM404.814 450.102C405.352 450.102 405.806 449.962 406.178 449.682C406.549 449.398 406.831 449.006 407.024 448.506C407.217 448.002 407.314 447.42 407.314 446.761C407.314 446.11 407.219 445.54 407.03 445.051C406.84 444.559 406.56 444.176 406.189 443.903C405.818 443.627 405.359 443.489 404.814 443.489C404.246 443.489 403.772 443.634 403.393 443.926C403.018 444.214 402.736 444.606 402.547 445.102C402.361 445.595 402.268 446.148 402.268 446.761C402.268 447.383 402.363 447.947 402.553 448.455C402.746 448.958 403.03 449.36 403.405 449.659C403.784 449.955 404.253 450.102 404.814 450.102ZM412.251 451.216C411.971 451.216 411.731 451.116 411.53 450.915C411.329 450.714 411.229 450.473 411.229 450.193C411.229 449.913 411.329 449.672 411.53 449.472C411.731 449.271 411.971 449.17 412.251 449.17C412.532 449.17 412.772 449.271 412.973 449.472C413.174 449.672 413.274 449.913 413.274 450.193C413.274 450.379 413.227 450.549 413.132 450.705C413.041 450.86 412.918 450.985 412.763 451.08C412.611 451.17 412.441 451.216 412.251 451.216Z" fill="#1A1A1A"/>
</svg>
