<svg width="100" height="100" viewBox="0 0 100 100" fill="none" xmlns="http://www.w3.org/2000/svg">
<path fill-rule="evenodd" clip-rule="evenodd" d="M24.1216 3.16016H68.6985C69.0989 3.16016 69.4437 3.30293 69.7267 3.58613L77.8911 11.7506C78.1741 12.0338 78.3169 12.3783 78.3169 12.7787V73.833C78.3169 74.6338 77.6636 75.2871 76.8628 75.2871H24.1216C23.3206 75.2871 22.6675 74.6338 22.6675 73.833V4.61426C22.6675 3.81328 23.3206 3.16016 24.1216 3.16016Z" fill="#B1B1B5"/>
<path fill-rule="evenodd" clip-rule="evenodd" d="M69.3007 3.28613C69.4596 3.35966 69.6039 3.46122 69.7267 3.58594L77.8912 11.7504C78.0159 11.8732 78.1174 12.0175 78.191 12.1764H70.0277C69.835 12.176 69.6503 12.0993 69.514 11.9631C69.3777 11.8268 69.301 11.6421 69.3005 11.4494V3.28613H69.3007Z" fill="#A79BA7"/>
<path fill-rule="evenodd" clip-rule="evenodd" d="M14.3503 12.9307H58.9273C59.3279 12.9307 59.6724 13.0734 59.9554 13.3566L68.1201 21.5211C68.4033 21.8043 68.5458 22.1488 68.5458 22.5492V83.6035C68.5458 84.4045 67.8925 85.0576 67.0917 85.0576H14.3503C13.5494 85.0576 12.8962 84.4043 12.8962 83.6035V14.3848C12.8962 13.584 13.5494 12.9307 14.3503 12.9307Z" fill="#D1D1D6"/>
<path fill-rule="evenodd" clip-rule="evenodd" d="M59.53 13.0566C59.6888 13.1302 59.8331 13.2317 59.9558 13.3564L68.1205 21.5209C68.2451 21.6437 68.3467 21.7879 68.4203 21.9467H60.257C60.0643 21.9463 59.8796 21.8695 59.7434 21.7333C59.6072 21.5971 59.5304 21.4124 59.53 21.2197V13.0566Z" fill="#A79BA7"/>
<path fill-rule="evenodd" clip-rule="evenodd" d="M4.57983 22.7021H49.1568C49.5572 22.7021 49.9017 22.8449 50.1849 23.1281L58.3496 31.2926C58.6326 31.5758 58.7753 31.9203 58.7753 32.3207V93.375C58.7753 94.176 58.122 94.8291 57.3212 94.8291H4.57983C3.77886 94.8291 3.12573 94.1758 3.12573 93.375V24.1562C3.12573 23.3555 3.77886 22.7021 4.57983 22.7021Z" fill="#ECEFF1"/>
<path fill-rule="evenodd" clip-rule="evenodd" d="M4.57983 22.7021H7.23999V94.8291H4.57983C3.77886 94.8291 3.12573 94.1758 3.12573 93.375V24.1562C3.12573 23.3555 3.77886 22.7021 4.57983 22.7021Z" fill="#D1D1D6"/>
<path fill-rule="evenodd" clip-rule="evenodd" d="M49.7596 22.8281C49.9184 22.9017 50.0627 23.0033 50.1856 23.1279L58.3501 31.2924C58.4748 31.4152 58.5763 31.5595 58.6499 31.7184H50.4866C50.2939 31.7179 50.1092 31.6412 49.9729 31.5049C49.8367 31.3686 49.76 31.1839 49.7596 30.9912V22.8281ZM14.2194 85.8309C13.8001 85.8309 13.398 85.6643 13.1015 85.3678C12.8051 85.0714 12.6385 84.6693 12.6385 84.25C12.6385 83.8307 12.8051 83.4286 13.1015 83.1322C13.398 82.8357 13.8001 82.6691 14.2194 82.6691H47.6825C48.1017 82.6691 48.5038 82.8357 48.8003 83.1322C49.0968 83.4286 49.2633 83.8307 49.2633 84.25C49.2633 84.6693 49.0968 85.0714 48.8003 85.3678C48.5038 85.6643 48.1017 85.8309 47.6825 85.8309H14.2194ZM14.2194 75.9691C13.8001 75.9691 13.398 75.8026 13.1015 75.5061C12.805 75.2096 12.6384 74.8075 12.6384 74.3882C12.6384 73.9689 12.805 73.5668 13.1015 73.2703C13.398 72.9738 13.8001 72.8072 14.2194 72.8072H47.6825C48.1018 72.8072 48.5039 72.9738 48.8004 73.2703C49.0969 73.5668 49.2634 73.9689 49.2634 74.3882C49.2634 74.8075 49.0969 75.2096 48.8004 75.5061C48.5039 75.8026 48.1018 75.9691 47.6825 75.9691H14.2194ZM14.2194 66.1074C13.8001 66.1074 13.398 65.9409 13.1015 65.6444C12.805 65.3479 12.6384 64.9458 12.6384 64.5265C12.6384 64.1072 12.805 63.705 13.1015 63.4086C13.398 63.1121 13.8001 62.9455 14.2194 62.9455H47.6825C48.1018 62.9455 48.5039 63.1121 48.8004 63.4086C49.0969 63.705 49.2634 64.1072 49.2634 64.5265C49.2634 64.9458 49.0969 65.3479 48.8004 65.6444C48.5039 65.9409 48.1018 66.1074 47.6825 66.1074H14.2194Z" fill="#A79BA7"/>
<path fill-rule="evenodd" clip-rule="evenodd" d="M19.7478 30.2188H42.3828C43.457 30.2188 44.3359 31.0977 44.3359 32.1719V54.8068C44.3359 55.8811 43.457 56.76 42.3828 56.76H19.7478C18.6736 56.76 17.7947 55.8811 17.7947 54.8068V32.1719C17.7947 31.0977 18.6736 30.2188 19.7478 30.2188Z" fill="#6CF5C2"/>
<path fill-rule="evenodd" clip-rule="evenodd" d="M39.3875 30.2178H42.3824C43.4566 30.2178 44.3355 31.0967 44.3355 32.1709V54.8059C44.3355 55.8801 43.4566 56.759 42.3824 56.759H39.3875C40.4617 56.759 41.3406 55.8801 41.3406 54.8059V32.1709C41.3406 31.0967 40.4617 30.2178 39.3875 30.2178Z" fill="#00E499"/>
<path fill-rule="evenodd" clip-rule="evenodd" d="M23.1496 51.8244H38.9802C39.0811 51.8249 39.1809 51.8028 39.2721 51.7597C39.3634 51.7167 39.4439 51.6538 39.5077 51.5757C39.5716 51.4975 39.6171 51.4061 39.6411 51.3081C39.6651 51.2101 39.6668 51.108 39.6462 51.0092C38.8324 47.0146 35.2998 44.0088 31.065 44.0088C26.83 44.0088 23.2976 47.0146 22.4835 51.0092C22.463 51.108 22.4648 51.2101 22.4888 51.3081C22.5128 51.4061 22.5583 51.4975 22.6222 51.5756C22.686 51.6537 22.7665 51.7166 22.8577 51.7597C22.949 51.8027 23.0487 51.8248 23.1496 51.8244Z" fill="#8AC9FE"/>
<path fill-rule="evenodd" clip-rule="evenodd" d="M37.432 51.8254H38.9798C39.0807 51.8259 39.1805 51.8038 39.2717 51.7607C39.363 51.7177 39.4435 51.6548 39.5073 51.5767C39.5712 51.4985 39.6167 51.4071 39.6407 51.3091C39.6647 51.2111 39.6664 51.1089 39.6458 51.0102C38.832 47.0156 35.2994 44.0098 31.0646 44.0098C30.8039 44.0098 30.5457 44.0213 30.2908 44.0436C34.1765 44.3838 37.3343 47.2615 38.0982 51.0102C38.1187 51.1089 38.1169 51.2111 38.093 51.3091C38.069 51.4071 38.0234 51.4985 37.9595 51.5767C37.8957 51.6548 37.8152 51.7177 37.7239 51.7607C37.6326 51.8037 37.5329 51.8258 37.432 51.8254Z" fill="#60B7FF"/>
<path d="M31.0654 42.6752C33.5109 42.6752 35.4933 40.6927 35.4933 38.2473C35.4933 35.8018 33.5109 33.8193 31.0654 33.8193C28.6199 33.8193 26.6375 35.8018 26.6375 38.2473C26.6375 40.6927 28.6199 42.6752 31.0654 42.6752Z" fill="#F6DCCD"/>
<path fill-rule="evenodd" clip-rule="evenodd" d="M31.065 33.8193C33.5105 33.8193 35.4929 35.802 35.4929 38.2473C35.4929 40.6928 33.5103 42.6754 31.065 42.6754C30.8556 42.6754 30.6496 42.6605 30.448 42.6324C32.6015 42.3322 34.2591 40.4836 34.2591 38.2473C34.2591 36.0111 32.6015 34.1625 30.448 33.8623C30.6524 33.8337 30.8586 33.8194 31.065 33.8193Z" fill="#F1CBBC"/>
<path fill-rule="evenodd" clip-rule="evenodd" d="M75.7273 72.7354C74.7949 74.065 73.6987 75.2718 72.4646 76.3273L81.3363 85.0238L84.7136 81.5432L75.7273 72.7354Z" fill="#A79BA7"/>
<path fill-rule="evenodd" clip-rule="evenodd" d="M75.7876 72.6758C75.6132 73.248 75.288 73.6828 74.8218 73.9707L83.6349 82.726L84.7142 81.5434L75.7876 72.6758Z" fill="#837683"/>
<path fill-rule="evenodd" clip-rule="evenodd" d="M92.571 96.3117L96.3827 92.3834C97.0523 91.6936 97.0353 90.5816 96.3454 89.9121L85.7878 79.6672C85.0982 78.9977 83.9857 79.0145 83.3163 79.7043L79.5046 83.6326C78.8353 84.3225 78.8519 85.4348 79.5419 86.1041L90.0995 96.3488C90.7896 97.018 91.9017 97.0016 92.571 96.3117Z" fill="#F1BA84"/>
<path fill-rule="evenodd" clip-rule="evenodd" d="M84.2262 79.6669L94.7838 89.9119C95.4734 90.5814 95.4904 91.6933 94.8211 92.3832L91.0094 96.3115C90.8724 96.4529 90.7123 96.5698 90.5359 96.6574C91.1988 96.9869 92.0299 96.8693 92.5713 96.3115L96.383 92.3832C97.0525 91.6931 97.0355 90.5814 96.3457 89.9119L85.7881 79.6671C85.2436 79.1386 84.4355 79.0378 83.79 79.3582C83.9506 79.4378 84.0977 79.542 84.2262 79.6669Z" fill="#E3A76F"/>
<path d="M74.9019 76.6509C82.4098 69.143 82.4098 56.9703 74.9019 49.4624C67.394 41.9545 55.2213 41.9545 47.7134 49.4624C40.2055 56.9703 40.2055 69.143 47.7134 76.6509C55.2213 84.1588 67.394 84.1588 74.9019 76.6509Z" fill="#8AC9FE"/>
<path fill-rule="evenodd" clip-rule="evenodd" d="M61.3209 43.832C71.9387 43.832 80.5461 52.4395 80.5461 63.0574C80.5461 73.6752 71.9387 82.2826 61.3209 82.2826C61.008 82.2826 60.6969 82.2746 60.3877 82.2598C70.5719 81.773 78.6797 73.3623 78.6797 63.0574C78.6797 52.7525 70.5719 44.3418 60.3877 43.8551C60.6985 43.8398 61.0097 43.8321 61.3209 43.832Z" fill="#60B7FF"/>
<path d="M74.7546 66.2637C76.5086 58.8439 71.9156 51.4072 64.4958 49.6532C57.0761 47.8993 49.6394 52.4923 47.8854 59.9121C46.1315 67.3318 50.7245 74.7685 58.1442 76.5225C65.564 78.2764 73.0007 73.6834 74.7546 66.2637Z" fill="#ECEFF1"/>
<path fill-rule="evenodd" clip-rule="evenodd" d="M61.3212 49.252C61.6349 49.252 61.946 49.2635 62.2544 49.284C55.0656 49.7641 49.3828 55.7463 49.3828 63.0568C49.3828 70.3674 55.0656 76.3496 62.2544 76.8295C61.9438 76.8505 61.6326 76.8612 61.3212 76.8615C53.697 76.8615 47.5164 70.6809 47.5164 63.0566C47.5164 55.4326 53.6968 49.252 61.3212 49.252Z" fill="#D1D1D6"/>
</svg>
