<svg width="62" height="70" viewBox="0 0 62 70" fill="none" xmlns="http://www.w3.org/2000/svg">
<path d="M49.9102 53.0715C49.9447 52.9806 49.9789 52.8899 50.0127 52.7988" stroke="white" stroke-width="2.7815" stroke-miterlimit="10"/>
<path d="M50.2101 52.2537C54.519 40.0358 51.7888 25.8897 42.0168 16.1178C32.1711 6.27162 17.8856 3.57421 5.60547 8.02114" stroke="#3FAE2A" stroke-width="2.7815" stroke-miterlimit="10" stroke-dasharray="2.98 2.98"/>
<path d="M5.33515 8.12109C5.24407 8.15488 5.153 8.18926 5.0625 8.22363" stroke="white" stroke-width="2.7815" stroke-miterlimit="10"/>
<path d="M5.56131 14.592C4.17843 14.592 2.87905 14.0538 1.90185 13.0764C0.924647 12.099 0.386525 10.7995 0.386719 9.41717C0.386719 6.56382 2.70777 4.24219 5.56073 4.24219C8.41524 4.24219 10.7369 6.56382 10.7369 9.41717C10.7369 12.2705 8.41543 14.5918 5.56209 14.5918L5.56131 14.592Z" fill="#003A54"/>
<path d="M5.5624 4.63031C5.56279 4.63031 5.56299 4.63031 5.56299 4.63031C8.2066 4.63031 10.35 6.77328 10.35 9.41689C10.35 12.0603 8.20679 14.2031 5.56357 14.2031H5.56299H5.5624C2.91879 14.2031 0.776208 12.0603 0.776597 9.41689C0.776791 6.77347 2.91937 4.63031 5.5624 4.63031ZM5.56299 3.85352H5.5624C2.49525 3.85371 4.88758e-08 6.34934 4.88758e-08 9.41689C-0.000194149 10.9027 0.578321 12.2999 1.62893 13.3506C2.67954 14.4012 4.0764 14.9799 5.5624 14.9799C8.63131 14.9799 11.1269 12.4842 11.1269 9.41689C11.1267 6.34915 8.63092 3.85352 5.56299 3.85352Z" fill="white"/>
<mask id="mask0_709_15153" style="mask-type:luminance" maskUnits="userSpaceOnUse" x="0" y="4" width="11" height="11">
<path d="M10.3505 9.41744C10.3505 12.0611 8.20715 14.204 5.56354 14.2036C2.91993 14.204 0.776955 12.0611 0.777344 9.41744C0.777344 6.77383 2.92032 4.63047 5.56354 4.63086C8.20715 4.63086 10.3505 6.77383 10.3505 9.41744Z" fill="white"/>
</mask>
<g mask="url(#mask0_709_15153)">
<path d="M7.87732 10.0195H3.38281V13.6988H7.87732V10.0195Z" fill="black"/>
<path d="M6.08217 11.7266H5.05078V12.5991H6.08217V11.7266Z" fill="#FCC3A2"/>
<path d="M5.86466 12.0167C5.94234 12.0167 6.01439 12.0254 6.08197 12.0406V11.7266H5.05078V12.577C5.16225 12.2651 5.43316 12.0171 5.86466 12.0167Z" fill="#D1D3D4"/>
<path d="M6.00666 12.4657H5.56486H5.12306C5.12306 12.4657 3.35586 12.3709 3.01562 14.2043H5.56486H8.1137C7.77386 12.3709 6.00666 12.4657 6.00666 12.4657Z" fill="#FCC3A2"/>
<path d="M7.6862 9.22659C7.6862 10.7277 6.80843 11.9442 5.56595 11.9442C4.32309 11.9438 3.44531 10.7274 3.44531 9.22659C3.44531 7.72564 4.32309 6.50977 5.56595 6.50977C6.80862 6.50957 7.6862 7.72564 7.6862 9.22659Z" fill="#FCC3A2"/>
<path d="M7.41422 9.87453C7.36975 10.1113 7.45403 10.3255 7.60278 10.3536C7.75193 10.3814 7.90845 10.2124 7.95292 9.97629C7.99739 9.73956 7.91272 9.52536 7.76358 9.4972C7.61541 9.46905 7.45908 9.63819 7.41422 9.87453Z" fill="#FCC3A2"/>
<path d="M7.68302 9.728C7.68302 9.728 7.69293 9.73285 7.71079 9.73907C7.71914 9.74256 7.73157 9.7447 7.73914 9.75344C7.74711 9.7614 7.75662 9.76489 7.76303 9.77694C7.7706 9.78606 7.77662 9.79733 7.78051 9.81111C7.78692 9.82218 7.78497 9.83985 7.78925 9.85364C7.78847 9.88627 7.78925 9.922 7.77895 9.95754C7.77332 9.99366 7.76031 10.0284 7.74711 10.0599C7.7339 10.0917 7.71681 10.1168 7.69972 10.1362C7.69098 10.1434 7.68185 10.1521 7.67273 10.156C7.6636 10.158 7.65331 10.1647 7.64535 10.1616C7.62942 10.1593 7.61719 10.1585 7.61719 10.1585C7.61719 10.1585 7.6236 10.1657 7.6403 10.1783C7.64826 10.1863 7.66146 10.1855 7.67681 10.1898C7.69195 10.1921 7.70982 10.1875 7.72807 10.1807C7.76148 10.1651 7.7941 10.1356 7.81721 10.0995C7.84149 10.0634 7.85819 10.021 7.86809 9.97618C7.87256 9.95385 7.87528 9.93113 7.87528 9.90744C7.878 9.8851 7.87042 9.8616 7.86809 9.83985C7.85974 9.81791 7.85527 9.79616 7.83993 9.77888C7.83352 9.76975 7.8275 9.76101 7.82051 9.75344C7.81177 9.74781 7.80342 9.74198 7.79507 9.73674C7.78148 9.72392 7.76051 9.72353 7.74652 9.72042C7.73138 9.71654 7.72147 9.72042 7.71196 9.72198C7.69409 9.72489 7.68302 9.728 7.68302 9.728Z" fill="#D1D3D4"/>
<path d="M3.7146 9.87453C3.75908 10.1113 3.67479 10.3255 3.52604 10.3532C3.37728 10.3814 3.22076 10.2124 3.1759 9.97629C3.13143 9.73956 3.2161 9.52536 3.36524 9.4972C3.51361 9.46905 3.67013 9.63819 3.7146 9.87453Z" fill="#FCC3A2"/>
<path d="M3.44674 9.72839C3.44674 9.72839 3.43645 9.73285 3.41936 9.73907C3.41101 9.74256 3.39819 9.7447 3.39062 9.75344C3.38305 9.76179 3.37314 9.76528 3.36712 9.77655C3.35877 9.78606 3.35314 9.79733 3.34926 9.81111C3.34246 9.82218 3.34479 9.83986 3.34052 9.85403C3.34129 9.88627 3.3409 9.922 3.35081 9.95715C3.35683 9.99366 3.36945 10.0284 3.38266 10.0595C3.39625 10.0917 3.41256 10.1168 3.42965 10.1362C3.43878 10.1434 3.44752 10.1521 3.45704 10.156C3.46616 10.158 3.47646 10.1647 3.48442 10.1613C3.50034 10.1593 3.51258 10.1585 3.51258 10.1585C3.51258 10.1585 3.50617 10.1657 3.48947 10.1787C3.4815 10.1863 3.4683 10.1859 3.45296 10.1894C3.43742 10.1921 3.41955 10.1875 3.40208 10.1807C3.3679 10.1651 3.33605 10.1356 3.31294 10.0995C3.28828 10.0638 3.27158 10.021 3.26128 9.97618C3.25721 9.95385 3.25449 9.93113 3.25449 9.90782C3.25177 9.8851 3.25934 9.8616 3.26167 9.83985C3.27002 9.81791 3.27449 9.79616 3.28983 9.77849C3.29624 9.76936 3.30226 9.76101 3.30925 9.75344C3.31799 9.74781 3.32634 9.74198 3.3343 9.73674C3.34867 9.72392 3.36926 9.72353 3.38324 9.72042C3.39839 9.71654 3.40868 9.72042 3.4182 9.72198C3.43606 9.72489 3.44674 9.72839 3.44674 9.72839Z" fill="#D1D3D4"/>
<path d="M3.98828 8.76673C3.98828 8.76673 4.26967 8.25133 4.80158 8.62788" stroke="#3C2415" stroke-width="0.5441" stroke-miterlimit="10" stroke-linecap="round"/>
<path d="M7.07111 8.76673C7.07111 8.76673 6.78972 8.25133 6.25781 8.62788" stroke="#3C2415" stroke-width="0.5441" stroke-miterlimit="10" stroke-linecap="round"/>
<path d="M5.79893 10.1738C5.79893 10.1738 5.81117 10.1828 5.82767 10.203C5.84301 10.2232 5.86826 10.2527 5.88379 10.2979C5.89952 10.3406 5.91118 10.4082 5.87137 10.4731C5.85059 10.5044 5.82359 10.5286 5.79136 10.5451C5.76067 10.5593 5.72785 10.5706 5.69659 10.5766C5.63309 10.5863 5.57288 10.5836 5.51715 10.577C5.46297 10.5673 5.41286 10.5558 5.3715 10.5413C5.28955 10.5096 5.23828 10.4807 5.23828 10.4807C5.23828 10.4807 5.29809 10.4735 5.38238 10.4737C5.42452 10.4727 5.47307 10.471 5.52395 10.4723C5.57405 10.4684 5.62687 10.469 5.67523 10.4595C5.69892 10.4562 5.72086 10.4492 5.74048 10.442C5.75873 10.4329 5.77504 10.4249 5.78592 10.4125C5.80864 10.3892 5.81699 10.3492 5.81699 10.3107C5.8166 10.2727 5.81291 10.2366 5.8067 10.2129C5.80204 10.188 5.79893 10.1738 5.79893 10.1738Z" fill="#CDA187"/>
<path d="M5.05469 10.877C5.16014 11.0989 5.3487 11.2471 5.56446 11.2471C5.77982 11.2471 5.96839 11.0987 6.07423 10.877H5.05469Z" fill="white"/>
<path d="M5.05469 10.8773C5.08459 10.9241 5.11605 10.9703 5.1514 11.0109C5.18791 11.0515 5.22869 11.0872 5.27161 11.1185C5.3153 11.1494 5.36268 11.1729 5.41201 11.19C5.46192 11.2055 5.51319 11.2113 5.56446 11.2109L5.6433 11.2022C5.6668 11.1946 5.6903 11.19 5.7136 11.1814C5.76079 11.1618 5.80565 11.1364 5.84585 11.1043C5.88605 11.0717 5.92159 11.0336 5.95324 10.9923C5.98489 10.9509 6.01228 10.9062 6.03713 10.8594L6.07423 10.9187C5.9043 10.9154 5.73438 10.9165 5.56446 10.9074C5.39453 10.9016 5.22461 10.8925 5.05469 10.8773ZM5.05469 10.8773C5.22461 10.8622 5.39453 10.853 5.56446 10.8472C5.73438 10.8381 5.9043 10.8392 6.07423 10.8359C6.09675 10.8356 6.11539 10.8534 6.11598 10.8759C6.11598 10.8827 6.11442 10.8893 6.11151 10.8952C6.08549 10.9472 6.05772 10.9983 6.0216 11.0449C5.98489 11.0905 5.94334 11.1325 5.89653 11.1688C5.84915 11.2047 5.79633 11.2331 5.74059 11.2541C5.71185 11.264 5.68078 11.2698 5.65068 11.2772L5.56465 11.2836C5.50464 11.2795 5.44658 11.2675 5.39162 11.2455C5.33783 11.222 5.28772 11.1917 5.24364 11.1546C5.19956 11.1171 5.16363 11.0727 5.13139 11.0263C5.09916 10.9787 5.07527 10.929 5.05469 10.8773Z" fill="#DA9285"/>
<path d="M4.67484 9.27804C4.67445 9.41806 4.57696 9.53108 4.45675 9.53108C4.33616 9.53069 4.23828 9.41806 4.23828 9.27804C4.23828 9.13841 4.33577 9.02539 4.45675 9.02539C4.57696 9.02539 4.67484 9.13861 4.67484 9.27804Z" fill="#3C2415"/>
<path d="M4.39102 9.17617C4.39102 9.2323 4.34558 9.27813 4.28906 9.27813C4.23333 9.27774 4.1875 9.2323 4.1875 9.17617C4.1875 9.12005 4.23333 9.07441 4.28945 9.07422C4.34558 9.07403 4.39102 9.12005 4.39102 9.17617Z" fill="white"/>
<path d="M4.38538 9.32355C4.38538 9.35054 4.36383 9.3721 4.33722 9.3721C4.31062 9.3721 4.28906 9.35054 4.28906 9.32355C4.28906 9.29656 4.31062 9.27539 4.33722 9.27539C4.36383 9.27539 4.38538 9.29656 4.38538 9.32355Z" fill="white"/>
<path d="M6.39062 9.27843C6.39062 9.41806 6.48811 9.53108 6.60871 9.53108C6.72892 9.53108 6.82679 9.41806 6.82679 9.27804C6.82679 9.13841 6.72892 9.025 6.60832 9.02539C6.48811 9.0252 6.39062 9.13861 6.39062 9.27843Z" fill="#3C2415"/>
<path d="M6.67578 9.17617C6.67578 9.2323 6.72122 9.27774 6.77735 9.27813C6.83347 9.27813 6.87891 9.2323 6.87891 9.17617C6.87891 9.12005 6.83347 9.07422 6.77735 9.07422C6.72122 9.07441 6.67578 9.12005 6.67578 9.17617Z" fill="white"/>
<path d="M6.67969 9.32355C6.6793 9.35054 6.70086 9.3721 6.72746 9.3721C6.75446 9.3721 6.77601 9.35054 6.77601 9.32355C6.77601 9.29656 6.75446 9.27539 6.72746 9.27539C6.70086 9.27539 6.67969 9.29656 6.67969 9.32355Z" fill="white"/>
<path d="M7.32877 14.2054H3.9375C4.53039 13.7473 4.09674 12.6939 4.09674 12.6939C4.21889 12.6343 4.34027 12.59 4.45484 12.5574C4.45484 12.5574 5.56274 13.9156 6.66229 12.5547C6.80871 12.5964 6.96757 12.657 7.12545 12.7454C7.12545 12.7454 6.52285 13.7504 7.32877 14.2054Z" fill="#6C0341"/>
<path d="M3.61202 10.3058C3.61202 10.3854 3.54755 10.4503 3.46831 10.4503C3.38869 10.4503 3.32422 10.3858 3.32422 10.3062C3.32422 10.227 3.38869 10.1625 3.46831 10.1621C3.54755 10.1625 3.61163 10.2266 3.61202 10.3058Z" fill="#DCDDDE"/>
<path d="M3.5992 10.3544C3.57842 10.3755 3.54871 10.3874 3.5188 10.3874C3.4889 10.3874 3.45958 10.3755 3.43841 10.3544C3.41724 10.3332 3.40501 10.3035 3.40501 10.274V10.2724C3.40501 10.2421 3.41724 10.2132 3.43841 10.192C3.45161 10.1788 3.46793 10.1689 3.48579 10.1637C3.48016 10.1629 3.47433 10.1625 3.46831 10.1621C3.38869 10.1625 3.32422 10.227 3.32422 10.3062C3.32422 10.3858 3.38869 10.4503 3.46831 10.4503C3.53356 10.4503 3.58852 10.4066 3.60639 10.3468C3.60406 10.3495 3.60192 10.3518 3.5992 10.3544Z" fill="#E6E7E8"/>
<path d="M3.57439 10.2636C3.57439 10.2927 3.55051 10.316 3.52138 10.3162C3.49264 10.3162 3.46894 10.2927 3.46875 10.2636C3.46914 10.2344 3.49264 10.2109 3.52138 10.2109C3.55089 10.2109 3.57439 10.2344 3.57439 10.2636Z" fill="white"/>
<path d="M7.76007 10.3058C7.76007 10.3854 7.69598 10.4499 7.61597 10.4499C7.53674 10.4495 7.47266 10.3854 7.47266 10.3058C7.47266 10.2262 7.53674 10.1621 7.61636 10.1621C7.69598 10.1621 7.76007 10.2262 7.76007 10.3058Z" fill="#DCDDDE"/>
<path d="M7.74764 10.3541C7.72647 10.3752 7.69715 10.3871 7.66724 10.3871C7.63695 10.3871 7.60762 10.3752 7.58684 10.3537C7.56568 10.3329 7.55305 10.3036 7.55305 10.2737V10.2721C7.55305 10.2422 7.56548 10.2129 7.58684 10.1917C7.60005 10.1785 7.61636 10.1686 7.63423 10.1634C7.62821 10.1626 7.62238 10.1618 7.61636 10.1622C7.53674 10.1622 7.47266 10.2263 7.47266 10.3059C7.47266 10.3855 7.53674 10.4496 7.61597 10.45C7.682 10.45 7.73696 10.4063 7.75444 10.3465C7.75269 10.3492 7.74997 10.3519 7.74764 10.3541Z" fill="#E6E7E8"/>
<path d="M7.72245 10.2636C7.72245 10.2931 7.69895 10.3164 7.66982 10.3164C7.64069 10.3164 7.6168 10.2933 7.61719 10.264C7.61719 10.2344 7.64069 10.2113 7.66982 10.2109C7.69895 10.2113 7.72245 10.2344 7.72245 10.2636Z" fill="white"/>
<path d="M5.38714 6.82698C5.38714 6.82698 5.70679 7.97663 7.44408 8.62817C7.44408 8.62817 7.66527 8.8045 7.63556 9.57876C7.63556 9.57876 7.72955 9.39486 7.89015 9.57876C7.89015 9.57876 8.23116 7.7968 7.61925 6.82698C7.61925 6.82698 6.8778 5.79424 5.63066 5.95193C5.63066 5.95193 5.22149 6.16807 5.38714 6.82698Z" fill="black"/>
<path d="M5.76147 6.82725C5.76147 6.82725 5.44182 7.9769 3.70453 8.62804C3.70453 8.62804 3.48334 8.80515 3.51305 9.57883C3.51305 9.57883 3.41906 9.39493 3.25865 9.57883C3.25865 9.57883 2.91803 7.79688 3.52956 6.82705C3.52956 6.82705 4.271 5.79392 5.51814 5.952C5.51814 5.952 5.92712 6.16872 5.76147 6.82725Z" fill="black"/>
</g>
<path d="M48.1094 54.0176C48.2379 54.2551 48.4686 54.4139 48.7322 54.4139C48.9957 54.4139 49.2268 54.2551 49.3553 54.0176H48.1094Z" fill="white"/>
<path d="M47.8619 52.2921C47.8623 52.4317 47.7645 52.5448 47.6443 52.5448C47.5233 52.5451 47.4258 52.4317 47.4258 52.2921C47.4258 52.1525 47.5237 52.0391 47.6439 52.0391C47.7645 52.0391 47.8623 52.1525 47.8619 52.2921Z" fill="#3C2415"/>
<path d="M47.5781 52.1914C47.5781 52.2475 47.5329 52.293 47.4766 52.293C47.4208 52.293 47.375 52.2475 47.375 52.1914C47.375 52.1353 47.4208 52.0898 47.4766 52.0898C47.5329 52.0897 47.5783 52.1349 47.5781 52.1914Z" fill="white"/>
<path d="M47.5733 52.3392C47.5733 52.3658 47.5517 52.3873 47.5247 52.3877C47.4985 52.3877 47.477 52.3658 47.4766 52.3392C47.4766 52.3122 47.4985 52.291 47.5251 52.291C47.5517 52.291 47.5733 52.3128 47.5733 52.3392Z" fill="white"/>
<path d="M49.8633 52.1914C49.8633 52.2471 49.9087 52.293 49.9648 52.293C50.021 52.293 50.066 52.2475 50.066 52.1914C50.066 52.1349 50.021 52.0898 49.9648 52.0898C49.9087 52.0897 49.8633 52.1353 49.8633 52.1914Z" fill="white"/>
<path d="M49.8672 52.3396C49.8672 52.3662 49.8891 52.3881 49.9154 52.3881C49.9423 52.3881 49.9639 52.3662 49.9639 52.3396C49.9639 52.313 49.9423 52.2914 49.9157 52.291C49.8893 52.291 49.8672 52.3132 49.8672 52.3396Z" fill="white"/>
<path d="M36.9679 17.4144C34.1144 17.4144 31.793 15.0928 31.793 12.2394C31.793 9.38589 34.1146 7.06445 36.9679 7.06445C39.8215 7.06445 42.1431 9.38609 42.1431 12.2398C42.1431 15.0932 39.8215 17.4144 36.9679 17.4144Z" fill="#003A54"/>
<path d="M36.9696 7.45257C39.6128 7.45257 41.7564 9.59593 41.7564 12.2395C41.7564 14.8828 39.613 17.0257 36.9696 17.0257C34.326 17.0257 32.183 14.8828 32.183 12.2392C32.183 9.59593 34.3264 7.45257 36.9696 7.45257ZM36.9696 6.67578C33.9019 6.67578 31.4062 9.17142 31.4062 12.2392C31.4062 15.3069 33.9021 17.8025 36.9696 17.8025C40.0372 17.8025 42.5332 15.3069 42.5332 12.2395C42.5332 9.17161 40.0374 6.67578 36.9696 6.67578Z" fill="white"/>
<mask id="mask1_709_15153" style="mask-type:luminance" maskUnits="userSpaceOnUse" x="32" y="7" width="10" height="11">
<path d="M41.757 12.2401C41.757 14.8833 39.6136 17.0263 36.9702 17.0263C34.3266 17.0263 32.1836 14.8833 32.1836 12.2397C32.1836 9.59649 34.327 7.45312 36.9702 7.45312C39.6134 7.45312 41.757 9.59648 41.757 12.2401Z" fill="white"/>
</mask>
<g mask="url(#mask1_709_15153)">
<path d="M37.485 15.2871L36.9696 15.2875L36.4539 15.2871C36.4539 15.2871 33.7935 15.6493 33.6562 16.7949V17.0265H36.9696H40.2829V16.7945C40.1458 15.6493 37.485 15.2871 37.485 15.2871Z" fill="#FCC3A2"/>
<path d="M38.9259 12.5578C38.8816 12.7942 38.9657 13.0087 39.1148 13.0369C39.2636 13.0647 39.4197 12.8953 39.4646 12.6596C39.509 12.4228 39.4244 12.2083 39.2756 12.1809C39.1269 12.1523 38.9705 12.3215 38.9259 12.5578Z" fill="#FCC3A2"/>
<path d="M39.1945 12.4116C39.1945 12.4116 39.2044 12.4165 39.2219 12.4231C39.2303 12.4262 39.2427 12.4283 39.2507 12.4367C39.2582 12.4454 39.2681 12.4485 39.2738 12.4609C39.2821 12.4697 39.2878 12.4807 39.2916 12.4943C39.298 12.5054 39.2965 12.5235 39.3004 12.5376C39.3 12.5699 39.3004 12.6052 39.2905 12.6408C39.2845 12.6773 39.2714 12.7124 39.2582 12.7435C39.245 12.7753 39.2283 12.8004 39.2112 12.8202C39.2021 12.8266 39.1934 12.8357 39.1846 12.8396C39.1747 12.8412 39.1644 12.848 39.1569 12.8449C39.1406 12.8433 39.1289 12.8421 39.1289 12.8421C39.1289 12.8421 39.1353 12.8493 39.152 12.8623C39.16 12.8695 39.1732 12.8691 39.1885 12.8734C39.2041 12.8753 39.2215 12.8707 39.2394 12.8643C39.2732 12.8487 39.3054 12.8196 39.3281 12.7827C39.3528 12.7474 39.3695 12.7043 39.3794 12.6602C39.3839 12.6378 39.3866 12.6147 39.387 12.5914C39.3889 12.5691 39.3821 12.5452 39.3794 12.5235C39.3711 12.5011 39.367 12.4798 39.3518 12.4621C39.345 12.4537 39.339 12.4446 39.332 12.437C39.3233 12.4314 39.3149 12.4256 39.307 12.42C39.293 12.4077 39.272 12.4067 39.258 12.404C39.2433 12.4001 39.233 12.404 39.2235 12.4052C39.2052 12.4089 39.1945 12.4116 39.1945 12.4116Z" fill="#D1D3D4"/>
<path d="M35.0896 12.5581C35.1341 12.7944 35.0494 13.009 34.901 13.0367C34.7519 13.0649 34.5954 12.8956 34.5509 12.6594C34.5064 12.4233 34.5911 12.2085 34.7399 12.1807C34.8886 12.153 35.0453 12.3217 35.0896 12.5581Z" fill="#FCC3A2"/>
<path d="M34.8215 12.4117C34.8215 12.4117 34.8113 12.417 34.7938 12.4232C34.7854 12.4267 34.7734 12.428 34.7654 12.4368C34.7579 12.4451 34.7479 12.4486 34.7415 12.4607C34.7336 12.4698 34.7279 12.4809 34.7241 12.4944C34.7173 12.5055 34.72 12.5236 34.7153 12.5378C34.7157 12.57 34.7153 12.6057 34.7256 12.6409C34.7312 12.6776 34.7443 12.7125 34.7571 12.7436C34.7707 12.7755 34.7874 12.8005 34.8045 12.8199C34.8136 12.8267 34.8223 12.8358 34.8315 12.8395C34.841 12.8411 34.8513 12.8479 34.8592 12.8448C34.8748 12.8428 34.8874 12.8424 34.8874 12.8424C34.8874 12.8424 34.881 12.8492 34.8643 12.8619C34.8559 12.8694 34.8435 12.8691 34.8276 12.8733C34.8128 12.8753 34.7946 12.871 34.7767 12.8642C34.7429 12.8487 34.7107 12.8195 34.6876 12.7826C34.6633 12.7471 34.6466 12.7042 34.6367 12.6597C34.6318 12.6374 34.6295 12.6147 34.6295 12.5914C34.6268 12.569 34.6343 12.5451 34.6367 12.5234C34.645 12.5011 34.6495 12.4801 34.6644 12.4624C34.6712 12.4533 34.6769 12.4449 34.6839 12.437C34.693 12.4313 34.7013 12.4251 34.7093 12.4199C34.7233 12.4076 34.7446 12.4067 34.7582 12.404C34.7734 12.4001 34.7833 12.4043 34.7928 12.4051C34.8111 12.4086 34.8215 12.4117 34.8215 12.4117Z" fill="#D1D3D4"/>
<path d="M37.4843 14.6074H36.4531V15.4798H37.4843V14.6074Z" fill="#FCC3A2"/>
<path d="M37.4843 14.6977V14.6074H36.4531V15.2776C36.6244 14.9086 37.0685 14.7119 37.4843 14.6977Z" fill="#D1D3D4"/>
<path d="M39.1863 11.897C39.1863 13.4407 38.2498 14.6927 36.9716 14.6927C35.6934 14.6923 34.7817 13.3951 34.7817 11.851C34.7589 9.7997 35.6934 9.10117 36.9716 9.10156C38.2496 9.10176 39.2985 9.72979 39.1863 11.897Z" fill="#FCC3A2"/>
<path d="M37.6295 15.3109C37.5301 15.5517 37.3105 15.7391 36.9702 15.7388C36.63 15.7391 36.4108 15.5521 36.3113 15.3105C35.759 15.4049 33.7745 15.81 33.6562 16.7954V17.0271H40.2829V16.795C40.1652 15.811 38.183 15.4051 37.6295 15.3109Z" fill="#B73A44"/>
<path d="M37.6285 15.3109C37.5291 15.5517 37.3094 15.7391 36.9692 15.7388C36.629 15.7391 36.4097 15.5521 36.3103 15.3105C36.253 15.3205 36.179 15.3337 36.0938 15.3507C36.2037 15.7248 36.5534 16.0046 36.9593 16.005L36.9692 16.0046C37.3758 16.0046 37.7262 15.7244 37.8355 15.3488C37.7543 15.3331 37.6838 15.3201 37.6285 15.3109Z" fill="#7E232A"/>
<path d="M35.4258 11.4503C35.4258 11.4503 35.7076 10.9349 36.2393 11.3115" stroke="#3C2415" stroke-width="0.5441" stroke-miterlimit="10" stroke-linecap="round"/>
<path d="M38.5127 11.4505C38.5127 11.4505 38.2309 10.9347 37.6992 11.3116" stroke="#3C2415" stroke-width="0.5441" stroke-miterlimit="10" stroke-linecap="round"/>
<path d="M37.2403 12.8574C37.2403 12.8574 37.2526 12.8664 37.2691 12.8866C37.2846 12.9067 37.3097 12.9363 37.3252 12.9813C37.3411 13.0242 37.3528 13.0918 37.3128 13.1567C37.292 13.1879 37.265 13.2122 37.2328 13.2287C37.2021 13.2429 37.1695 13.2542 37.1382 13.2602C37.0747 13.2701 37.0143 13.2674 36.9588 13.2608C36.9044 13.2509 36.8543 13.2396 36.8129 13.225C36.731 13.1934 36.6797 13.1646 36.6797 13.1646C36.6797 13.1646 36.7395 13.1573 36.8238 13.1577C36.8659 13.1565 36.9145 13.1547 36.9652 13.1561C37.0153 13.1522 37.0683 13.1528 37.1164 13.1431C37.1403 13.1398 37.1623 13.1328 37.1819 13.1256C37.1999 13.1165 37.2165 13.1085 37.2273 13.0961C37.25 13.0728 37.2582 13.0326 37.2582 12.9943C37.258 12.9563 37.2539 12.9201 37.2479 12.8965C37.2434 12.8716 37.2403 12.8574 37.2403 12.8574Z" fill="#CDA187"/>
<path d="M36.3633 13.6855C36.4926 13.9231 36.7233 14.0815 36.9868 14.0819C37.2504 14.0819 37.4807 13.9231 37.61 13.6855H36.3633Z" fill="white"/>
<path d="M36.3633 13.6853C36.4008 13.7383 36.4413 13.7892 36.4856 13.8338C36.5316 13.8779 36.5825 13.9152 36.6354 13.9482C36.6895 13.9797 36.7464 14.0034 36.8057 14.0209L36.896 14.0377L36.987 14.0409L37.0803 14.0313L37.1645 14.0098C37.2212 13.9892 37.275 13.9626 37.3259 13.93C37.3754 13.8952 37.4207 13.8554 37.4617 13.8107C37.5011 13.7643 37.5364 13.7152 37.5673 13.6624L37.61 13.734C37.1944 13.7303 36.7791 13.7195 36.3633 13.6853ZM36.3633 13.6853C36.7791 13.6511 37.1942 13.6404 37.61 13.6367C37.6366 13.6361 37.6586 13.6571 37.659 13.6837C37.6592 13.6925 37.6566 13.7014 37.6528 13.7086C37.6188 13.7678 37.5811 13.8249 37.5353 13.8762C37.4883 13.9265 37.436 13.9711 37.3787 14.0098L37.2884 14.0601L37.1911 14.096L37.0867 14.1174L36.9867 14.1224L36.8845 14.1108L36.7859 14.0842C36.7222 14.0601 36.6622 14.0292 36.6068 13.9911C36.553 13.9509 36.5062 13.9034 36.4643 13.8525L36.4078 13.7715L36.3633 13.6853Z" fill="#DEAD91"/>
<path d="M36.1159 11.9616C36.1159 12.1013 36.018 12.2147 35.8974 12.2147C35.7772 12.2147 35.6793 12.1013 35.6797 11.9616C35.6797 11.8216 35.7772 11.7086 35.8974 11.709C36.018 11.7088 36.1155 11.8218 36.1159 11.9616Z" fill="#3C2415"/>
<path d="M35.832 11.8594C35.832 11.9159 35.7866 11.9613 35.7305 11.9609C35.6743 11.9609 35.6289 11.9155 35.6289 11.8594C35.6289 11.8033 35.6743 11.7578 35.7305 11.7578C35.7866 11.7576 35.832 11.8033 35.832 11.8594Z" fill="white"/>
<path d="M35.8272 12.0071C35.8268 12.0341 35.8052 12.0557 35.7786 12.0553C35.7516 12.0553 35.7305 12.0341 35.7305 12.0071C35.7305 11.9805 35.752 11.959 35.7786 11.959C35.8052 11.959 35.8272 11.9805 35.8272 12.0071Z" fill="white"/>
<path d="M37.832 11.9616C37.832 12.1017 37.9299 12.2147 38.0501 12.2147C38.1711 12.2147 38.2682 12.1017 38.2682 11.9616C38.2682 11.8216 38.1711 11.7086 38.0501 11.709C37.9299 11.7088 37.832 11.8222 37.832 11.9616Z" fill="#3C2415"/>
<path d="M38.1172 11.8594C38.1172 11.9155 38.163 11.9609 38.2188 11.9613C38.2749 11.9609 38.3203 11.9155 38.3203 11.8594C38.3203 11.8033 38.2749 11.7578 38.2188 11.7578C38.163 11.7576 38.1172 11.8033 38.1172 11.8594Z" fill="white"/>
<path d="M38.1211 12.0071C38.1207 12.0341 38.1423 12.0553 38.1693 12.0553C38.1963 12.0553 38.2174 12.0341 38.2174 12.0071C38.2174 11.9805 38.1963 11.959 38.1693 11.959C38.1423 11.959 38.1211 11.9805 38.1211 12.0071Z" fill="white"/>
<path d="M38.7879 8.79787C38.7879 8.79787 39.1831 9.14645 39.5942 8.62484C39.5942 8.62484 39.5468 9.12626 39.2543 9.31055C39.2543 9.31055 39.5309 9.5832 39.8628 9.30181C39.8628 9.30181 39.9575 9.65234 39.5783 9.98422C39.5783 9.98422 39.642 10.9525 39.3841 11.8967L39.2726 12.1808L39.1703 12.215L39.1153 12.6082L39.0091 12.6086L39.1252 11.3129C39.1252 11.3129 39.231 9.77876 37.8319 9.73118C37.8319 9.73118 37.2063 9.61933 37.096 10.0786C37.096 10.0786 37.0749 9.60495 36.2404 9.73118C36.2404 9.73118 35.8338 9.10121 36.4532 8.54561C36.4529 8.54561 37.444 7.78493 38.7879 8.79787Z" fill="#56362B"/>
<path d="M35.2103 8.79732C36.5538 7.78419 37.8893 8.33921 37.8893 8.33921C38.509 8.89403 37.7584 9.73083 37.7584 9.73083C37.1698 9.6683 37.0981 10.0782 37.0981 10.0782C37.0905 9.58091 36.1666 9.73083 36.1666 9.73083C35.0041 9.78618 34.9647 11.3126 34.9647 11.3126L34.9889 12.6079H34.8827L34.8281 12.2146L34.7258 12.1801C34.7258 12.1801 34.0335 9.69743 35.2103 8.79732Z" fill="#56362B"/>
</g>
<path d="M47.5937 28.0377C44.7402 28.0377 42.4184 25.7162 42.418 22.8627C42.4184 20.0089 44.7402 17.6875 47.5937 17.6875C50.4471 17.6875 52.7685 20.0091 52.7685 22.8625C52.7679 25.7162 50.4467 28.0377 47.5937 28.0377Z" fill="#003A54"/>
<path d="M47.5954 18.0756C50.2386 18.0756 52.3818 20.2186 52.3818 22.8622C52.3814 25.5058 50.2392 27.6488 47.5954 27.6488C44.9518 27.6488 42.8084 25.5054 42.808 22.8622C42.8082 20.2186 44.9512 18.0756 47.5954 18.0756ZM47.5954 17.2988C44.5277 17.2988 42.0316 19.7947 42.0312 22.8622C42.0316 25.9299 44.5277 28.4258 47.5954 28.4258C50.6624 28.4258 53.158 25.9299 53.1586 22.8624C53.1584 19.7945 50.6629 17.2988 47.5954 17.2988Z" fill="white"/>
<mask id="mask2_709_15153" style="mask-type:luminance" maskUnits="userSpaceOnUse" x="42" y="18" width="11" height="10">
<path d="M52.3823 22.8628C52.382 25.5064 50.2398 27.6493 47.596 27.6493C44.9523 27.6493 42.809 25.506 42.8086 22.8628C42.809 20.2191 44.9519 18.0762 47.596 18.0762C50.2394 18.0762 52.3823 20.2191 52.3823 22.8628Z" fill="white"/>
</mask>
<g mask="url(#mask2_709_15153)">
<path d="M48.114 25.1582H47.0781V26.0348H48.114V25.1582Z" fill="#FCC3A2"/>
<path d="M47.8951 25.4499C47.9736 25.4499 48.046 25.4586 48.114 25.4738V25.1582H47.0781V26.0123C47.1904 25.699 47.4622 25.4499 47.8951 25.4499Z" fill="#D1D3D4"/>
<path d="M48.038 25.9032H47.5943L47.1509 25.9036C47.1509 25.9036 45.3766 25.808 45.0352 27.649H47.5947H50.1538C49.8128 25.808 48.038 25.9032 48.038 25.9032Z" fill="#FCC3A2"/>
<path d="M49.7224 22.6502C49.7224 24.1567 48.8414 25.3784 47.5938 25.3784C46.3459 25.3784 45.4648 24.1571 45.4648 22.6502C45.4648 21.1436 46.3459 19.9219 47.5938 19.9219C48.841 19.9219 49.7224 21.1432 49.7224 22.6502Z" fill="#FCC3A2"/>
<path d="M49.4532 23.2996C49.4089 23.5371 49.4934 23.7525 49.6429 23.7806C49.7924 23.8088 49.9493 23.6389 49.9942 23.4017C50.0385 23.1642 49.954 22.9493 49.8045 22.9211C49.6549 22.8926 49.4976 23.0625 49.4532 23.2996Z" fill="#FCC3A2"/>
<path d="M49.7223 23.152C49.7223 23.152 49.7322 23.1569 49.7497 23.1635C49.758 23.1666 49.7704 23.1683 49.7778 23.1771C49.7866 23.1858 49.7961 23.1889 49.8025 23.201C49.8104 23.2101 49.8157 23.2214 49.82 23.2351C49.8268 23.2462 49.8244 23.2643 49.8287 23.2785C49.8283 23.3111 49.8283 23.3468 49.8184 23.3823C49.8128 23.4189 49.7994 23.4536 49.7866 23.4851C49.7734 23.5169 49.7563 23.5424 49.7388 23.562C49.73 23.5688 49.7213 23.5775 49.7118 23.5818C49.7027 23.5833 49.692 23.5901 49.6844 23.587C49.6681 23.5847 49.6562 23.5839 49.6562 23.5839C49.6562 23.5839 49.6627 23.5915 49.679 23.6041C49.6873 23.6117 49.7005 23.6113 49.7161 23.6156C49.7308 23.6175 49.7491 23.6129 49.7669 23.6061C49.8007 23.5905 49.8334 23.561 49.8565 23.5245C49.8811 23.4884 49.8978 23.4457 49.9077 23.4008C49.9122 23.3785 49.9153 23.3557 49.9153 23.3321C49.9173 23.3097 49.9105 23.2858 49.9074 23.2641C49.8998 23.2418 49.8951 23.2204 49.8796 23.2027C49.8728 23.1936 49.8672 23.1849 49.8602 23.1773C49.851 23.1716 49.8431 23.1658 49.8351 23.1602C49.8207 23.1478 49.7994 23.147 49.7854 23.1443C49.7706 23.1404 49.7603 23.1443 49.7508 23.1454C49.7326 23.1487 49.7223 23.152 49.7223 23.152Z" fill="#D1D3D4"/>
<path d="M45.7362 23.2996C45.7811 23.5371 45.696 23.7525 45.5467 23.7806C45.3976 23.8088 45.2403 23.6389 45.1954 23.4014C45.1509 23.1642 45.236 22.9493 45.3851 22.9211C45.5345 22.8926 45.6916 23.0625 45.7362 23.2996Z" fill="#FCC3A2"/>
<path d="M45.467 23.152C45.467 23.152 45.4568 23.1569 45.4397 23.1635C45.4313 23.1666 45.4185 23.1683 45.4109 23.1771C45.403 23.1858 45.3931 23.1889 45.387 23.201C45.3787 23.2101 45.3734 23.2214 45.3692 23.2351C45.3628 23.2462 45.3647 23.2643 45.3604 23.2785C45.3608 23.3111 45.3604 23.3468 45.3707 23.3823C45.3767 23.4189 45.3898 23.454 45.4026 23.4851C45.4162 23.5169 45.4329 23.5424 45.45 23.562C45.4595 23.5684 45.4678 23.5775 45.4773 23.5818C45.4865 23.5833 45.4971 23.5901 45.5047 23.587C45.5206 23.5847 45.5333 23.5839 45.5333 23.5839C45.5333 23.5839 45.5269 23.5915 45.5098 23.6041C45.5022 23.6117 45.489 23.6113 45.4733 23.6156C45.4577 23.6175 45.4399 23.6129 45.422 23.6061C45.3882 23.5905 45.3556 23.561 45.3325 23.5245C45.3078 23.4884 45.2911 23.4457 45.2812 23.4008C45.2767 23.3785 45.2736 23.3557 45.274 23.3321C45.2713 23.3093 45.2789 23.2858 45.2816 23.2641C45.2896 23.2418 45.2944 23.22 45.3094 23.2027C45.3162 23.1936 45.3222 23.1849 45.3288 23.1773C45.3379 23.1716 45.3459 23.1658 45.3542 23.1602C45.3686 23.1478 45.3896 23.147 45.4035 23.1443C45.4187 23.1404 45.4286 23.1443 45.4385 23.1454C45.456 23.1487 45.467 23.152 45.467 23.152Z" fill="#D1D3D4"/>
<path d="M46.0117 22.188C46.0117 22.188 46.2943 21.6702 46.8279 22.0483" stroke="#3C2415" stroke-width="0.5463" stroke-miterlimit="10" stroke-linecap="round"/>
<path d="M49.1057 22.188C49.1057 22.188 48.8231 21.6702 48.2891 22.0483" stroke="#3C2415" stroke-width="0.5463" stroke-miterlimit="10" stroke-linecap="round"/>
<path d="M47.8288 23.5996C47.8288 23.5996 47.8408 23.6087 47.8575 23.6287C47.8731 23.6495 47.8985 23.6788 47.9139 23.7243C47.9298 23.7672 47.9414 23.835 47.9012 23.9002C47.8805 23.9315 47.8531 23.956 47.8208 23.9725C47.7902 23.9866 47.7571 23.9981 47.7257 24.0041C47.662 24.014 47.6016 24.0113 47.5457 24.0047C47.4911 23.9948 47.4408 23.9833 47.3992 23.9688C47.3169 23.9369 47.2656 23.908 47.2656 23.908C47.2656 23.908 47.3256 23.9006 47.4103 23.901C47.4526 23.8998 47.5014 23.8981 47.5523 23.8995C47.6028 23.8956 47.6558 23.8961 47.7043 23.8866C47.7282 23.8831 47.7502 23.8761 47.77 23.869C47.7882 23.8596 47.8047 23.8517 47.8158 23.8393C47.8385 23.8159 47.8469 23.7756 47.8469 23.7371C47.8465 23.6988 47.8426 23.6627 47.8366 23.6388C47.8319 23.614 47.8288 23.5996 47.8288 23.5996Z" fill="#CDA187"/>
<path d="M47.082 24.3066C47.1883 24.5296 47.3772 24.6783 47.5941 24.6783C47.8107 24.6787 47.9996 24.5296 48.1058 24.3066H47.082Z" fill="white"/>
<path d="M47.082 24.3072C47.1121 24.3542 47.1438 24.4006 47.1793 24.4414C47.2156 24.4822 47.2568 24.5181 47.3001 24.5495C47.3438 24.5804 47.3912 24.6041 47.4409 24.6212C47.491 24.6367 47.5425 24.6426 47.5941 24.6424L47.6734 24.6336C47.6969 24.6261 47.7204 24.6214 47.7439 24.6129C47.7914 24.5932 47.8363 24.5678 47.8767 24.5354C47.9169 24.5026 47.9526 24.4645 47.9845 24.4229C48.0163 24.3812 48.0437 24.3363 48.0684 24.2893L48.1058 24.3487C47.9351 24.3454 47.7644 24.3466 47.5939 24.3375C47.4234 24.3315 47.2527 24.3223 47.082 24.3072ZM47.082 24.3072C47.2527 24.292 47.4234 24.2829 47.5939 24.2769C47.7644 24.2678 47.9351 24.2689 48.1058 24.2656C48.1284 24.2652 48.1472 24.2833 48.1476 24.3058C48.1478 24.3126 48.146 24.3192 48.1435 24.3251C48.1173 24.3775 48.0893 24.4286 48.0532 24.4756C48.0163 24.5214 47.9748 24.5637 47.9274 24.6C47.88 24.6362 47.8272 24.6647 47.7708 24.6857C47.7423 24.6956 47.7107 24.7016 47.6807 24.7088L47.5941 24.7152C47.5339 24.7111 47.4757 24.6991 47.4205 24.6769C47.3663 24.6534 47.3162 24.623 47.2718 24.5857C47.2277 24.548 47.1914 24.5033 47.1591 24.4567C47.1269 24.409 47.1028 24.359 47.082 24.3072Z" fill="#DA9285"/>
<path d="M46.6998 22.7015C46.6998 22.8419 46.6016 22.9553 46.4806 22.9553C46.3596 22.9553 46.2617 22.8419 46.2617 22.7015C46.2617 22.5611 46.3596 22.4477 46.481 22.4473C46.6016 22.4477 46.6998 22.5611 46.6998 22.7015Z" fill="#3C2415"/>
<path d="M46.4152 22.6C46.4152 22.6565 46.3694 22.702 46.3133 22.702C46.2564 22.702 46.2109 22.6565 46.2109 22.6C46.2109 22.5435 46.2568 22.498 46.3133 22.498C46.3692 22.4979 46.4152 22.5435 46.4152 22.6Z" fill="white"/>
<path d="M46.4096 22.7478C46.4096 22.7744 46.388 22.7959 46.3614 22.7959C46.3344 22.7963 46.3129 22.7744 46.3125 22.7478C46.3129 22.7208 46.3344 22.6992 46.361 22.6992C46.388 22.6992 46.4096 22.721 46.4096 22.7478Z" fill="white"/>
<path d="M48.4258 22.7015C48.4254 22.8419 48.5237 22.9553 48.645 22.9557C48.7656 22.9553 48.8639 22.8419 48.8639 22.7015C48.8639 22.5611 48.766 22.4477 48.645 22.4473C48.5237 22.4477 48.4258 22.5611 48.4258 22.7015Z" fill="#3C2415"/>
<path d="M48.7109 22.6C48.7106 22.6565 48.7568 22.702 48.8133 22.702C48.8694 22.702 48.9148 22.6565 48.9152 22.6C48.9152 22.5435 48.8694 22.498 48.8129 22.498C48.7568 22.4979 48.7109 22.5435 48.7109 22.6Z" fill="white"/>
<path d="M48.7148 22.7478C48.7148 22.7744 48.7364 22.7959 48.763 22.7959C48.79 22.7963 48.8119 22.7744 48.8119 22.7478C48.8119 22.7208 48.79 22.6992 48.763 22.6992C48.7366 22.6992 48.7148 22.721 48.7148 22.7478Z" fill="white"/>
<path d="M48.6966 25.9915C48.8442 26.0333 49.0034 26.0942 49.1617 26.183C49.1617 26.183 48.5568 27.1918 49.3658 27.6486H45.9609C46.5567 27.1885 46.1206 26.1311 46.1206 26.1311C46.1206 26.1311 46.6678 25.8781 47.0752 25.902L47.5736 26.4535L48.1049 25.902C48.1049 25.902 48.4774 25.902 48.6966 25.9915Z" fill="#7AD0E2"/>
<path d="M45.6331 23.7339C45.6331 23.8139 45.5686 23.8788 45.4886 23.8788C45.4086 23.8788 45.3438 23.8139 45.3438 23.7339C45.3441 23.6547 45.4086 23.5898 45.4882 23.5898C45.5686 23.5898 45.6331 23.6547 45.6331 23.7339Z" fill="#DCDDDE"/>
<path d="M45.6203 23.7825C45.5991 23.8037 45.5694 23.8159 45.5399 23.8159C45.5096 23.8159 45.4799 23.8037 45.4587 23.7825C45.4379 23.7613 45.4253 23.732 45.4253 23.7017V23.7001C45.4253 23.6702 45.4377 23.6405 45.4587 23.6194C45.4723 23.6062 45.4886 23.5963 45.5065 23.591C45.5005 23.5902 45.4943 23.5898 45.4882 23.5898C45.4086 23.5898 45.3441 23.6547 45.3438 23.7339C45.3438 23.8139 45.4086 23.8788 45.4886 23.8788C45.5543 23.8788 45.6092 23.8347 45.6271 23.7753C45.6251 23.7776 45.6224 23.7804 45.6203 23.7825Z" fill="#E6E7E8"/>
<path d="M45.5941 23.6917C45.5941 23.7208 45.5706 23.7447 45.5407 23.7447C45.5122 23.7447 45.4883 23.7208 45.4883 23.6917C45.4883 23.6626 45.5118 23.6391 45.5407 23.6387C45.5706 23.6385 45.5941 23.6624 45.5941 23.6917Z" fill="white"/>
<path d="M49.8007 23.7339C49.8007 23.8139 49.7358 23.8788 49.6566 23.8788C49.5766 23.8788 49.5117 23.8139 49.5117 23.7343C49.5121 23.6543 49.5766 23.5898 49.6566 23.5898C49.7362 23.5898 49.8007 23.6543 49.8007 23.7339Z" fill="#DCDDDE"/>
<path d="M49.7879 23.7825C49.7671 23.804 49.7374 23.8159 49.7075 23.8159C49.6776 23.8159 49.6478 23.804 49.6267 23.7825C49.6055 23.7613 49.5929 23.732 49.5929 23.7017V23.7001C49.5929 23.6702 49.6053 23.6405 49.6267 23.6194C49.6399 23.6062 49.6562 23.5963 49.6741 23.591C49.6684 23.5902 49.6622 23.5898 49.6566 23.5898C49.5766 23.5898 49.5121 23.6543 49.5117 23.7343C49.5117 23.8139 49.5766 23.8788 49.6566 23.8788C49.7222 23.8788 49.7772 23.8347 49.7951 23.7753C49.7931 23.778 49.79 23.7804 49.7879 23.7825Z" fill="#E6E7E8"/>
<path d="M49.7621 23.6917C49.7621 23.7208 49.7382 23.7443 49.7091 23.7447C49.6796 23.7443 49.6561 23.7208 49.6563 23.6917C49.6563 23.6626 49.6797 23.6391 49.7091 23.6387C49.7382 23.6385 49.7621 23.6624 49.7621 23.6917Z" fill="white"/>
<path d="M48.0783 19.2115C49.5372 19.4987 49.9005 20.7449 49.9005 20.7449C50.1401 21.7007 49.7931 23.0453 49.7931 23.0453L49.7242 23.4273H49.6426C49.8121 22.6843 49.5133 21.7273 49.5133 21.7273C49.1078 20.5367 47.6608 20.6255 47.6608 20.6255C46.2871 20.6453 45.8824 21.491 45.8824 21.491C45.4011 22.0382 45.5346 23.4273 45.5346 23.4273H45.4681L45.4006 23.0518C45.1949 22.3159 45.2087 21.392 45.2087 21.392C45.1469 19.6803 46.8279 19.2509 46.8279 19.2509C46.8279 19.2509 47.7871 19.1542 48.0783 19.2115Z" fill="#2D1307"/>
<path d="M48.8719 19.3827C48.8719 19.8109 48.3252 20.1579 47.6506 20.1579C46.9765 20.1579 46.4293 19.8109 46.4297 19.3827C46.4297 18.9545 46.9765 18.6074 47.6506 18.6074C48.3254 18.6074 48.8719 18.9545 48.8719 19.3827Z" fill="#2D1307"/>
<path d="M46.7969 26.7832C46.7969 26.7832 47.0499 26.4692 47.5764 26.4613C47.5764 26.4613 46.9794 26.1768 46.7969 26.7832Z" fill="#D1D3D4"/>
<path d="M47.0777 25.9092L47.5764 26.4603C47.5764 26.4603 47.0117 26.3306 46.7969 26.7823L46.8072 25.9319C46.8072 25.9319 46.9893 25.8803 47.0777 25.9092Z" fill="#2BA3BC"/>
<path d="M48.3378 26.813C48.3378 26.813 48.0993 26.4875 47.5742 26.4557C47.5742 26.4557 48.1834 26.1987 48.3378 26.813Z" fill="#D1D3D4"/>
<path d="M48.1052 25.9082L47.5742 26.4566C47.5742 26.4566 48.1444 26.3531 48.3378 26.8139L48.3765 25.9253C48.3765 25.9253 48.1947 25.8835 48.1052 25.9082Z" fill="#2BA3BC"/>
</g>
<path d="M19.6008 10.7386C16.7472 10.7386 14.4258 8.41719 14.4258 5.56404C14.4258 2.71089 16.7472 0.38906 19.6008 0.388672C22.4543 0.388672 24.7759 2.7103 24.7759 5.56404C24.7757 8.41739 22.4543 10.7386 19.6008 10.7386Z" fill="#003A54"/>
<path d="M19.6024 0.776791C22.246 0.776791 24.389 2.92015 24.389 5.56376C24.389 8.20699 22.246 10.35 19.6024 10.35C16.9588 10.35 14.8159 8.20699 14.8159 5.56376C14.8157 2.92015 16.9592 0.776985 19.6024 0.776791ZM19.6024 0C16.5347 0.000388395 14.0391 2.49641 14.0391 5.56376C14.0391 8.63131 16.5349 11.1267 19.6024 11.1267C22.67 11.1267 25.1658 8.63111 25.1658 5.56376C25.1658 2.49583 22.6702 0 19.6024 0Z" fill="white"/>
<mask id="mask3_709_15153" style="mask-type:luminance" maskUnits="userSpaceOnUse" x="14" y="0" width="11" height="11">
<path d="M24.3896 5.56432C24.3896 8.20754 22.2466 10.3505 19.603 10.3505C16.9594 10.3505 14.8164 8.20754 14.8164 5.56432C14.8164 2.9207 16.9598 0.777732 19.603 0.777344C22.2466 0.777344 24.3896 2.9207 24.3896 5.56432Z" fill="white"/>
</mask>
<g mask="url(#mask3_709_15153)">
<path d="M20.1179 8.61133H19.6021L19.0863 8.61172C19.0863 8.61172 16.426 8.9739 16.2891 10.1187V10.3508H19.6023H22.9159V10.1191C22.7782 8.97409 20.1179 8.61133 20.1179 8.61133Z" fill="#FCC3A2"/>
<path d="M21.5549 5.88031C21.5102 6.11665 21.5947 6.33085 21.7435 6.35901C21.8922 6.38717 22.0488 6.21822 22.0932 5.98207C22.1377 5.74534 22.0534 5.53114 21.9043 5.50298C21.7557 5.47521 21.599 5.64436 21.5549 5.88031Z" fill="#FCC3A2"/>
<path d="M21.8236 5.73387C21.8236 5.73387 21.8335 5.73872 21.851 5.74494C21.8594 5.74843 21.8718 5.75057 21.8794 5.75931C21.8877 5.76766 21.8972 5.77096 21.9033 5.78281C21.9112 5.79155 21.9172 5.803 21.9211 5.8166C21.9275 5.82767 21.9252 5.84573 21.9299 5.86029C21.9291 5.89214 21.9299 5.92787 21.9196 5.96341C21.9136 5.99953 21.9005 6.03429 21.8873 6.06575C21.8741 6.09799 21.8578 6.12304 21.8403 6.14246C21.8316 6.14887 21.8229 6.158 21.8134 6.16227C21.8042 6.16382 21.7935 6.17023 21.786 6.16751C21.7697 6.16518 21.7578 6.16479 21.7578 6.16479C21.7578 6.16479 21.7642 6.17198 21.7809 6.18421C21.7889 6.19179 21.8017 6.19179 21.8174 6.19567C21.8326 6.19761 21.8508 6.19295 21.8683 6.18693C21.9021 6.17101 21.9347 6.14188 21.9574 6.10537C21.9821 6.06925 21.9988 6.02691 22.0083 5.98205C22.0132 5.96011 22.0159 5.937 22.0159 5.91408C22.0182 5.89136 22.011 5.86787 22.0083 5.84612C22 5.82378 21.9959 5.80242 21.9806 5.78436C21.9738 5.77562 21.9681 5.76688 21.9607 5.75931C21.9524 5.75368 21.9437 5.74746 21.9361 5.74222C21.9217 5.72999 21.9007 5.72901 21.8868 5.7263C21.872 5.72241 21.8617 5.7263 21.8526 5.72746C21.8343 5.73076 21.8236 5.73387 21.8236 5.73387Z" fill="#D1D3D4"/>
<path d="M17.7185 5.88039C17.7632 6.11673 17.6787 6.33132 17.53 6.35947C17.3808 6.38763 17.2247 6.21829 17.1798 5.98176C17.1353 5.74542 17.22 5.53083 17.3688 5.50306C17.5175 5.4749 17.6738 5.64405 17.7185 5.88039Z" fill="#FCC3A2"/>
<path d="M17.4501 5.73387C17.4501 5.73387 17.4406 5.73873 17.4231 5.74533C17.4147 5.74882 17.4023 5.75018 17.3947 5.75931C17.3868 5.76766 17.3773 5.77096 17.3705 5.78281C17.3629 5.79155 17.3573 5.803 17.353 5.8166C17.3466 5.82767 17.3485 5.84573 17.3446 5.86029C17.3446 5.89214 17.3446 5.92787 17.3545 5.96341C17.3606 5.99992 17.3732 6.03429 17.3864 6.06614C17.3996 6.0976 17.4163 6.12304 17.4334 6.14207C17.4425 6.14926 17.4513 6.158 17.4608 6.16188C17.4699 6.16382 17.4802 6.17023 17.4882 6.16751C17.5041 6.16518 17.5165 6.16479 17.5165 6.16479C17.5165 6.16479 17.5097 6.17159 17.493 6.18421C17.485 6.19179 17.4718 6.1914 17.4565 6.19567C17.4413 6.19761 17.4231 6.19295 17.4056 6.18654C17.3718 6.17101 17.3392 6.14149 17.3165 6.10537C17.2918 6.06925 17.2751 6.02691 17.2652 5.98205C17.2607 5.96011 17.258 5.937 17.2584 5.91408C17.2557 5.89136 17.2629 5.86748 17.2656 5.84573C17.2736 5.82378 17.278 5.80203 17.2934 5.78436C17.3002 5.77562 17.3058 5.76727 17.3128 5.75931C17.3215 5.75368 17.3299 5.74746 17.3378 5.74261C17.3522 5.72999 17.3732 5.7294 17.3872 5.7263C17.4019 5.72241 17.4118 5.7263 17.4213 5.72746C17.4398 5.73076 17.4501 5.73387 17.4501 5.73387Z" fill="#D1D3D4"/>
<path d="M20.1177 7.93164H19.0859V8.80417H20.1177V7.93164Z" fill="#FCC3A2"/>
<path d="M20.1177 8.02194V7.93164H19.0859V8.60182C19.2574 8.23284 19.7017 8.03612 20.1177 8.02194Z" fill="#D1D3D4"/>
<path d="M21.8187 5.21969C21.8187 6.76337 20.8823 8.01497 19.6041 8.01497C18.3259 8.01497 17.4141 6.71773 17.4145 5.17367C17.391 3.12275 18.3259 2.42383 19.6041 2.42383C20.8827 2.42422 21.931 3.05225 21.8187 5.21969Z" fill="#FCC3A2"/>
<path d="M20.2614 8.63477C20.8152 8.72953 22.7974 9.13463 22.9157 10.1196V10.3513H16.2891V10.1192C16.4073 9.13424 18.3914 8.72876 18.9441 8.63496L19.6023 9.49292L20.2614 8.63477Z" fill="#3B4652"/>
<path d="M18.0586 4.77471C18.0586 4.77471 18.34 4.25892 18.8719 4.63586" stroke="#3C2415" stroke-width="0.5441" stroke-miterlimit="10" stroke-linecap="round"/>
<path d="M21.1453 4.77486C21.1453 4.77486 20.8636 4.25907 20.332 4.63562" stroke="#3C2415" stroke-width="0.5441" stroke-miterlimit="10" stroke-linecap="round"/>
<path d="M19.8694 6.17969C19.8694 6.17969 19.8817 6.18862 19.8982 6.20862C19.9137 6.22901 19.9388 6.25853 19.9543 6.30359C19.9702 6.34631 19.9819 6.41408 19.9417 6.47895C19.9209 6.51021 19.8939 6.53429 19.8617 6.5508C19.831 6.56497 19.7982 6.57624 19.7669 6.58226C19.7034 6.59216 19.6432 6.58944 19.5875 6.58284C19.5333 6.57294 19.4832 6.56148 19.4418 6.54711C19.3599 6.51526 19.3086 6.48652 19.3086 6.48652C19.3086 6.48652 19.3684 6.47914 19.4527 6.47953C19.4948 6.47836 19.5434 6.47661 19.5943 6.47797C19.6444 6.47448 19.6972 6.47467 19.7455 6.46535C19.7694 6.46186 19.7912 6.45487 19.811 6.44768C19.829 6.43855 19.8456 6.43059 19.8564 6.41836C19.8791 6.39505 19.8873 6.35485 19.8873 6.3166C19.8871 6.27853 19.8832 6.24241 19.877 6.21872C19.8723 6.19386 19.8694 6.17969 19.8694 6.17969Z" fill="#CDA187"/>
<path d="M18.9961 7.00977C19.1254 7.24766 19.3561 7.40573 19.6197 7.40573C19.8832 7.40573 20.1139 7.24708 20.2428 7.00977H18.9961Z" fill="white"/>
<path d="M18.9961 7.0095C19.0336 7.06251 19.0742 7.11339 19.1182 7.15806C19.1643 7.20234 19.2152 7.23943 19.268 7.27244C19.322 7.3039 19.3791 7.3276 19.4381 7.34488L19.5282 7.36158L19.6195 7.36469L19.7129 7.35517L19.7972 7.33381C19.8541 7.31322 19.9079 7.28662 19.9587 7.25419C20.0084 7.21943 20.0535 7.17962 20.0945 7.13495C20.1339 7.08873 20.1694 7.0396 20.2001 6.98658L20.2428 7.05824C19.8271 7.05455 19.4117 7.04368 18.9961 7.0095ZM18.9961 7.0095C19.4119 6.97532 19.8271 6.96444 20.2428 6.96095C20.2694 6.96037 20.2914 6.98134 20.2918 7.00795C20.292 7.01668 20.2895 7.02562 20.2856 7.03261C20.2516 7.09223 20.2141 7.14932 20.1683 7.2004C20.1213 7.25069 20.0688 7.29536 20.0116 7.334L19.9211 7.38411L19.8238 7.42003L19.7195 7.44139L19.6195 7.44625L19.5173 7.43479L19.4187 7.40838C19.355 7.3843 19.295 7.35342 19.2396 7.31536C19.1858 7.27516 19.1392 7.22778 19.0971 7.1767L19.0406 7.09572L18.9961 7.0095Z" fill="#DEAD91"/>
<path d="M18.7487 5.28429C18.7487 5.42431 18.6512 5.53733 18.531 5.53733C18.41 5.53733 18.3125 5.42431 18.3125 5.28429C18.3125 5.14466 18.4104 5.03125 18.531 5.03125C18.6512 5.03125 18.7487 5.14466 18.7487 5.28429Z" fill="#3C2415"/>
<path d="M18.4649 5.18203C18.4649 5.23777 18.4194 5.28321 18.3637 5.28321C18.3072 5.28321 18.2617 5.23777 18.2617 5.18203C18.2617 5.12552 18.3072 5.08008 18.3637 5.08008C18.4192 5.08008 18.4649 5.12552 18.4649 5.18203Z" fill="white"/>
<path d="M18.4592 5.32941C18.4592 5.3564 18.4381 5.37796 18.4111 5.37796C18.3845 5.37796 18.3629 5.3564 18.3633 5.32941C18.3629 5.30319 18.3845 5.28164 18.4111 5.28125C18.4381 5.28125 18.4596 5.30281 18.4592 5.32941Z" fill="white"/>
<path d="M20.4648 5.28585C20.4645 5.42548 20.5623 5.53928 20.6825 5.53889C20.8031 5.53928 20.901 5.42587 20.901 5.28585C20.901 5.14623 20.8031 5.0332 20.6825 5.0332C20.5623 5.0332 20.4648 5.14623 20.4648 5.28585Z" fill="#3C2415"/>
<path d="M20.75 5.1836C20.75 5.23972 20.7954 5.28536 20.852 5.28555C20.9081 5.28516 20.9531 5.23972 20.9535 5.18399C20.9535 5.12747 20.9077 5.08203 20.8516 5.08203C20.7958 5.08203 20.75 5.12747 20.75 5.1836Z" fill="white"/>
<path d="M20.7539 5.33136C20.7539 5.35836 20.7755 5.37991 20.8021 5.37991C20.8287 5.37991 20.8502 5.35836 20.8502 5.33136C20.8502 5.30515 20.8287 5.2832 20.8021 5.2832C20.7755 5.2832 20.7539 5.30515 20.7539 5.33136Z" fill="white"/>
<path d="M17.9023 3.79131C17.9023 3.79131 19.4814 4.42207 21.0608 3.25649C21.0608 3.25649 18.3206 2.34396 17.9023 3.79131Z" fill="#A7A9AC"/>
<path d="M20.8588 3.39469C20.7829 3.43761 17.768 4.43016 17.1898 3.07466C17.1898 3.07466 17.304 3.18127 17.5464 3.10573C17.5464 3.10573 17.0947 3.04728 17.1834 2.61072C17.1834 2.61072 17.3557 2.74491 17.546 2.76122C17.546 2.76122 17.2638 2.63266 17.3097 2.24077C17.3097 2.24077 17.5975 2.52022 17.9268 2.4171C17.9268 2.4171 19.2889 1.3263 20.6157 2.10872C20.6157 2.10872 21.9352 2.78491 20.8588 3.39469Z" fill="#4A1512"/>
<path d="M18.7382 3.37466C18.7382 3.37466 18.1222 3.28824 17.996 4.32972C17.996 4.32972 18.0051 4.76977 17.7664 5.03291C17.7664 5.03291 17.5336 5.18419 17.6728 5.93263L17.5153 5.50442C17.5153 5.50442 17.3147 5.08263 17.4072 3.9623C17.4072 3.9623 17.5957 2.42892 18.57 2.39648L18.7382 3.37466Z" fill="#4A1512"/>
<path d="M20.6836 3.37485C20.6836 3.37485 21.2996 3.28843 21.4262 4.32992C21.4262 4.32992 21.4167 4.76997 21.6554 5.03311C21.6554 5.03311 21.8886 5.18478 21.749 5.93282L21.9065 5.50462C21.9065 5.50462 22.1071 5.08282 22.015 3.96249C22.015 3.96249 21.8261 2.4293 20.8518 2.39648L20.6836 3.37485Z" fill="#4A1512"/>
</g>
<path d="M52.566 43.7035C49.7123 43.7035 47.3906 41.3818 47.3906 38.5285C47.3906 35.675 49.7123 33.3535 52.5656 33.3535C55.4193 33.3535 57.741 35.6751 57.741 38.5285C57.741 41.382 55.4195 43.7035 52.566 43.7035Z" fill="#003A54"/>
<path d="M52.5673 33.7416C55.2109 33.7416 57.3542 35.8846 57.3542 38.5282C57.3542 41.1718 55.2113 43.3148 52.5677 43.3148C49.9241 43.3148 47.7807 41.1718 47.7807 38.5282C47.7805 35.8848 49.9237 33.7416 52.5673 33.7416ZM52.5673 32.9648C49.4995 32.9648 47.0039 35.4607 47.0039 38.5282C47.0039 41.596 49.4999 44.0916 52.5677 44.0916C55.6354 44.0916 58.131 41.5958 58.131 38.5282C58.131 35.4607 55.6352 32.9648 52.5673 32.9648Z" fill="white"/>
<mask id="mask4_709_15153" style="mask-type:luminance" maskUnits="userSpaceOnUse" x="47" y="33" width="11" height="11">
<path d="M57.3548 38.5288C57.3548 41.1724 55.2118 43.3154 52.5682 43.3154C49.9246 43.3154 47.7812 41.1724 47.7812 38.5288C47.7812 35.8852 49.9242 33.7422 52.5678 33.7422C55.2114 33.742 57.3548 35.8852 57.3548 38.5288Z" fill="white"/>
</mask>
<g mask="url(#mask4_709_15153)">
<path d="M54.4085 39.1309H50.5898V41.5671H54.4085V39.1309Z" fill="black"/>
<path d="M52.9415 40.8379H51.9102V41.7106H52.9415V40.8379Z" fill="#FCC3A2"/>
<path d="M52.7238 41.128C52.8019 41.128 52.874 41.1368 52.9419 41.1519L52.9415 40.8379H51.9102V41.6883C52.0222 41.3764 52.2931 41.1284 52.7238 41.128Z" fill="#D1D3D4"/>
<path d="M52.8699 41.577H52.4281H51.9863C51.9863 41.577 50.2188 41.4826 49.8789 43.3156H52.4281H54.9774C54.6369 41.4826 52.8699 41.577 52.8699 41.577Z" fill="#FCC3A2"/>
<path d="M54.5487 38.3383C54.5491 39.8393 53.6713 41.0555 52.4288 41.0555C51.1864 41.0555 50.3086 39.8391 50.3086 38.3383C50.3086 36.8377 51.1864 35.6211 52.4288 35.6211C53.6715 35.6209 54.5491 36.8377 54.5487 38.3383Z" fill="#FCC3A2"/>
<path d="M54.2776 38.9855C54.2329 39.2222 54.3174 39.4364 54.4665 39.4646C54.6153 39.4923 54.7718 39.3234 54.8159 39.0872C54.8606 38.8505 54.7761 38.6363 54.6277 38.6085C54.4791 38.5804 54.3224 38.7491 54.2776 38.9855Z" fill="#FCC3A2"/>
<path d="M54.5463 38.8393C54.5463 38.8393 54.5558 38.8438 54.5733 38.8504C54.5816 38.8535 54.5943 38.8557 54.6018 38.8644C54.6102 38.8727 54.6197 38.8762 54.6261 38.8879C54.6341 38.897 54.6397 38.9083 54.6436 38.9221C54.6504 38.9331 54.6477 38.9508 54.6523 38.965C54.6519 38.9976 54.6523 39.0333 54.642 39.0685C54.636 39.105 54.6234 39.1398 54.6106 39.1708C54.597 39.2027 54.5803 39.2281 54.5628 39.2472C54.5541 39.2543 54.5453 39.2631 54.5358 39.2673C54.5271 39.2685 54.5164 39.2757 54.5088 39.2726C54.4925 39.2706 54.4805 39.2695 54.4805 39.2695C54.4805 39.2695 54.4869 39.2771 54.504 39.2897C54.5115 39.2973 54.5247 39.2969 54.5405 39.3008C54.5552 39.3031 54.5735 39.2984 54.5914 39.2916C54.6248 39.2761 54.6574 39.247 54.6805 39.2104C54.7048 39.1743 54.7219 39.132 54.7318 39.0875C54.7362 39.0648 54.7386 39.0421 54.739 39.0188C54.7413 38.9961 54.7337 38.9729 54.731 38.9512C54.723 38.9289 54.7184 38.9075 54.7036 38.8898C54.6968 38.8811 54.6908 38.872 54.6838 38.8648C54.6751 38.8588 54.6667 38.8529 54.6587 38.8473C54.6444 38.8351 54.6238 38.8345 54.6098 38.8318C54.595 38.8279 54.5848 38.8318 54.5752 38.8329C54.5574 38.8358 54.5463 38.8393 54.5463 38.8393Z" fill="#D1D3D4"/>
<path d="M50.5775 38.9855C50.6221 39.2222 50.5377 39.4364 50.3889 39.4642C50.2398 39.4925 50.0836 39.3234 50.0391 39.0872C49.9949 38.8505 50.079 38.6363 50.2281 38.6085C50.3765 38.5804 50.5336 38.7491 50.5775 38.9855Z" fill="#FCC3A2"/>
<path d="M50.31 38.839C50.31 38.839 50.3001 38.8443 50.2826 38.8505C50.2746 38.854 50.2618 38.8557 50.2541 38.8645C50.2461 38.8728 50.2362 38.8763 50.2298 38.888C50.2222 38.8971 50.2166 38.9084 50.2123 38.9222C50.2059 38.9332 50.208 38.9509 50.204 38.9651C50.2043 38.9977 50.204 39.0334 50.2142 39.0686C50.2199 39.1051 50.2325 39.1398 50.2457 39.1709C50.2593 39.2028 50.2756 39.2278 50.2927 39.2472C50.3022 39.2544 50.311 39.2632 50.3203 39.2674C50.3286 39.2686 50.3393 39.2758 50.3473 39.2727C50.3632 39.2707 50.3758 39.2696 50.3758 39.2696C50.3758 39.2696 50.369 39.2771 50.3523 39.2898C50.3444 39.2973 50.3312 39.297 50.3156 39.3008C50.3012 39.3032 50.2826 39.2985 50.2647 39.2917C50.2313 39.2762 50.1987 39.247 50.176 39.2105C50.1513 39.1748 50.1342 39.1321 50.1243 39.0876C50.1203 39.0649 50.1179 39.0426 50.1179 39.0189C50.1148 38.9965 50.1224 38.973 50.1247 38.9513C50.1331 38.9289 50.1375 38.9076 50.1529 38.8899C50.1593 38.8808 50.1653 38.872 50.1727 38.8649C50.1807 38.8588 50.1894 38.853 50.1977 38.8478C50.2117 38.8353 50.2327 38.8346 50.2463 38.8319C50.2614 38.8278 50.2713 38.8318 50.2812 38.833C50.2993 38.8359 50.31 38.839 50.31 38.839Z" fill="#D1D3D4"/>
<path d="M53.9461 38.0172C53.9461 38.0172 53.8607 37.4641 53.1328 37.8788" stroke="#3C2415" stroke-width="0.5441" stroke-miterlimit="10" stroke-linecap="round"/>
<path d="M50.9727 38.0177C50.9727 38.0177 51.0575 37.4642 51.7854 37.8784" stroke="#3C2415" stroke-width="0.5441" stroke-miterlimit="10" stroke-linecap="round"/>
<path d="M52.0977 39.5909C52.2464 39.5977 52.3992 39.6028 52.5264 39.5573C52.5892 39.5342 52.6366 39.4942 52.6571 39.441C52.6686 39.4144 52.6715 39.3843 52.6725 39.3534C52.6729 39.3235 52.6678 39.2882 52.6597 39.2625L52.6577 39.2569L52.6571 39.2509C52.643 39.135 52.6399 39.0181 52.6773 38.8965C52.7403 39.007 52.7626 39.1221 52.7735 39.2383L52.7709 39.2266C52.7838 39.2725 52.7876 39.3119 52.7867 39.3562C52.7853 39.3995 52.7758 39.4441 52.7558 39.4853C52.7171 39.5709 52.6313 39.6247 52.5521 39.6416C52.4717 39.6624 52.3924 39.6574 52.3169 39.6473C52.2418 39.6344 52.1678 39.6172 52.0977 39.5909Z" fill="#CDA187"/>
<path d="M51.918 39.9883C52.023 40.2102 52.2124 40.3588 52.4277 40.3588C52.6435 40.3588 52.8321 40.2101 52.9375 39.9883H51.918Z" fill="white"/>
<path d="M51.918 39.9886C51.9479 40.0354 51.9793 40.0819 52.0147 40.1224C52.051 40.163 52.092 40.1988 52.1349 40.23C52.1786 40.2609 52.226 40.2846 52.2753 40.3015C52.3254 40.3172 52.3767 40.323 52.4277 40.3227L52.5068 40.3139C52.5301 40.3063 52.5536 40.3017 52.5771 40.2931C52.6243 40.2735 52.6689 40.2481 52.7093 40.2158C52.7493 40.1832 52.7851 40.1454 52.8165 40.1038C52.8484 40.0622 52.8756 40.0178 52.9004 39.971L52.9375 40.03C52.7676 40.0267 52.5977 40.0279 52.4277 40.0187C52.2578 40.0129 52.0879 40.0038 51.918 39.9886ZM51.918 39.9886C52.0879 39.9735 52.2578 39.9644 52.4277 39.9585C52.5977 39.9494 52.7676 39.9506 52.9375 39.9473C52.96 39.9469 52.9787 39.9648 52.9793 39.9873C52.9793 39.9941 52.9777 40.0007 52.9748 40.0065C52.949 40.0585 52.921 40.1096 52.8851 40.1562C52.8484 40.2021 52.8068 40.2442 52.7596 40.2803C52.7124 40.3161 52.6598 40.3448 52.6037 40.3658C52.5751 40.3757 52.5437 40.3815 52.514 40.3889L52.4277 40.3953C52.3677 40.3912 52.3097 40.3792 52.2547 40.3572C52.2009 40.3337 52.1508 40.3032 52.1067 40.2661C52.0626 40.2287 52.0267 40.184 51.9945 40.1376C51.9624 40.09 51.9386 40.0405 51.918 39.9886Z" fill="#DA9285"/>
<path d="M51.5385 38.3898C51.5381 38.5294 51.4402 38.6428 51.32 38.6428C51.199 38.6428 51.1016 38.5294 51.1016 38.3894C51.1016 38.2497 51.199 38.1367 51.32 38.1367C51.4402 38.1367 51.5385 38.2499 51.5385 38.3898Z" fill="#3C2415"/>
<path d="M51.2539 38.2875C51.2539 38.3436 51.2081 38.3887 51.1523 38.3887C51.0958 38.3891 51.0508 38.3436 51.0508 38.2875C51.0508 38.231 51.0962 38.1855 51.1523 38.1855C51.2081 38.1854 51.2539 38.231 51.2539 38.2875Z" fill="white"/>
<path d="M51.2487 38.4349C51.2487 38.4615 51.2275 38.4834 51.2005 38.483C51.1739 38.483 51.1523 38.4611 51.1523 38.4345C51.1523 38.4079 51.1739 38.3867 51.2005 38.3867C51.2271 38.3867 51.2487 38.4083 51.2487 38.4349Z" fill="white"/>
<path d="M53.2539 38.3898C53.2539 38.5294 53.3518 38.6428 53.472 38.6428C53.5926 38.6428 53.6901 38.5294 53.6901 38.3898C53.6901 38.2497 53.5926 38.1367 53.472 38.1367C53.3518 38.1367 53.2539 38.2501 53.2539 38.3898Z" fill="#3C2415"/>
<path d="M53.5391 38.2871C53.5391 38.3432 53.5841 38.3883 53.6406 38.3883C53.6967 38.3883 53.7422 38.3432 53.7422 38.2867C53.7422 38.2306 53.6967 38.1852 53.6406 38.1856C53.5845 38.185 53.5391 38.2306 53.5391 38.2871Z" fill="white"/>
<path d="M53.543 38.4345C53.543 38.4611 53.5645 38.483 53.5915 38.483C53.6181 38.483 53.6397 38.4611 53.6397 38.4345C53.6397 38.4079 53.6181 38.3867 53.5915 38.3867C53.5647 38.3867 53.543 38.4079 53.543 38.4345Z" fill="white"/>
<path d="M53.6684 41.7093C53.5909 41.6779 53.6122 41.6889 53.539 41.668C53.539 41.668 53.6808 42.9462 52.4591 42.984C52.4492 42.984 52.4391 42.984 52.4292 42.984C52.4197 42.984 52.4094 42.984 52.3997 42.984C51.1776 42.9462 51.3197 41.668 51.3197 41.668C51.2465 41.6891 51.2673 41.6779 51.1896 41.7093C51.1896 41.7093 51.5753 42.656 50.5391 43.3155H52.3319H52.5265L54.3189 43.3159C53.2827 42.656 53.6684 41.7093 53.6684 41.7093Z" fill="#EC524F"/>
<path d="M50.3739 36.4004C49.4666 38.1367 50.0261 40.6925 50.0261 40.6925C50.2446 42.0917 51.5622 41.5721 51.5622 41.5721C49.9171 39.9886 50.6974 37.1533 50.6974 37.1533L50.3739 36.4004Z" fill="#2D1307"/>
<path d="M50.6959 37.1527C50.6959 37.1527 51.0497 35.9887 51.6608 36.1309C51.6608 36.1309 51.6911 35.4739 51.2542 35.6211C51.2542 35.6211 50.5533 35.7607 50.2812 36.588L50.6959 37.1527Z" fill="#2D1307"/>
<path d="M54.6949 36.0215C55.6022 37.7574 55.1865 40.6535 55.1865 40.6535C55.0855 42.0566 53.2695 41.5635 53.2695 41.5635C54.9146 39.9804 54.1343 37.1455 54.1343 37.1455L54.6949 36.0215Z" fill="#2D1307"/>
<path d="M54.1365 37.1456C54.1365 37.1456 53.7827 35.9816 53.1724 36.1233C53.1724 36.1233 53.1413 35.4664 53.5786 35.6132C53.5786 35.6132 54.2793 35.7532 54.5512 36.5803L54.1365 37.1456Z" fill="#2D1307"/>
<path d="M54.6949 36.0203L54.2302 37.61C54.2302 37.61 50.9489 37.5129 51.318 35.6048C51.318 35.6048 51.3229 34.8818 52.2401 34.8188C52.2401 34.8188 53.6898 34.4235 54.6949 36.0203Z" fill="#2D1307"/>
</g>
<path d="M18.8581 56.9297H16.793V60.4891H18.8581V56.9297Z" fill="#BCBEC0"/>
<path d="M13.2734 56.0407C13.2734 56.6728 13.5838 57.1851 13.9663 57.1851H21.6859C22.0685 57.1851 22.3788 56.6728 22.3788 56.0407C22.3788 55.4088 22.0685 54.8965 21.6859 54.8965H13.9663C13.5838 54.8963 13.2734 55.4086 13.2734 56.0407Z" fill="#241F29"/>
<path d="M16.6836 64.8213V60.4896C16.6836 60.1068 17.1957 59.7969 17.8278 59.7969C18.4595 59.7969 18.9722 60.107 18.9722 60.4896V64.8213H16.6836Z" fill="#241F29"/>
<path d="M10.3086 54.8964C10.3086 55.5283 10.8207 56.0406 11.4528 56.0406H24.2029C24.835 56.0406 25.3473 55.5283 25.3473 54.8964C25.3473 54.2644 24.835 53.752 24.2029 53.752H11.4528C10.8207 53.752 10.3086 54.2644 10.3086 54.8964Z" fill="#2D2932"/>
<path d="M7.80078 52.697C7.80078 53.8544 8.59078 54.516 9.54701 54.516H22.7781C23.7339 54.516 23.6485 53.4347 23.6485 52.2775L23.5481 34.8395C23.5481 33.6821 21.7539 32.7441 20.7977 32.7441H9.54681C8.59058 32.7441 7.81554 33.6821 7.81554 34.8395C7.81554 34.8395 9.11822 38.2394 9.11822 44.2638C9.11822 50.2882 7.80078 52.697 7.80078 52.697Z" fill="#07587E"/>
<path d="M9.45332 52.5707C9.45332 53.6452 10.173 54.516 11.0603 54.516H23.3443C24.2318 54.516 23.2322 52.8364 23.6505 52.2775C24.1242 48.8394 24.3687 45.8534 24.4875 43.4382C24.699 39.1278 23.5499 36.6352 23.5499 36.6352C23.5499 35.5607 23.2707 34.3027 22.383 34.3027H11.0601C10.1726 34.3027 9.45312 35.1735 9.45312 36.2482C9.45312 36.2482 11.0525 39.7228 10.8766 44.575C10.7007 49.427 9.45332 52.5707 9.45332 52.5707Z" fill="#003D5B"/>
<path d="M8.75025 52.2773H21.0412V54.5159H8.75025C8.07891 54.5159 7.53516 54.0146 7.53516 53.3967C7.53516 52.7788 8.07891 52.2773 8.75025 52.2773Z" fill="#07587E"/>
<path d="M14.1016 53.3967C14.1016 54.0146 14.2647 54.5159 14.4663 54.5159H27.9469C28.1481 54.5159 28.3112 54.0146 28.3112 53.3967C28.3112 52.7786 28.1481 52.2773 27.9469 52.2773H14.4663C14.2647 52.2771 14.1016 52.7786 14.1016 53.3967Z" fill="#003D5B"/>
<path d="M16.6822 63.9961H18.8589L24.7222 66.7399H23.329L18.4711 65.0496H17.1261L12.8493 66.7399H11.4688L16.6822 63.9961Z" fill="#BCBEC0"/>
<path d="M23 67.7652C23 68.3315 23.4589 68.7904 24.0248 68.7904C24.5911 68.7904 25.05 68.3315 25.05 67.7652C25.05 67.1991 24.5911 66.7402 24.0248 66.7402C23.4589 66.7402 23 67.1991 23 67.7652Z" fill="#241F29"/>
<path d="M25.4501 67.9555C25.4501 67.169 24.8123 66.5312 24.0256 66.5312C23.2391 66.5312 22.6016 67.169 22.6016 67.9555H25.4501Z" fill="#BCBEC0"/>
<path d="M16.8008 67.7652C16.8008 68.3315 17.2599 68.7904 17.8258 68.7904C18.392 68.7904 18.8509 68.3315 18.8509 67.7652C18.8509 67.1991 18.392 66.7402 17.8258 66.7402C17.2599 66.7402 16.8008 67.1991 16.8008 67.7652Z" fill="#241F29"/>
<path d="M19.2506 67.9555C19.2506 67.169 18.6129 66.5312 17.8266 66.5312C17.0399 66.5312 16.4023 67.169 16.4023 67.9555H19.2506Z" fill="#BCBEC0"/>
<path d="M11.1328 67.7652C11.1328 68.3315 11.5919 68.7904 12.158 68.7904C12.7243 68.7904 13.1832 68.3315 13.1832 67.7652C13.1832 67.1991 12.7243 66.7402 12.158 66.7402C11.5919 66.7402 11.1328 67.1991 11.1328 67.7652Z" fill="#241F29"/>
<path d="M13.5827 67.9555C13.5827 67.169 12.9449 66.5312 12.1586 66.5312C11.3723 66.5312 10.7344 67.169 10.7344 67.9555H13.5827Z" fill="#BCBEC0"/>
<path d="M16.6836 64.1074H18.8604L18.5207 67.0109H17.1347L16.6836 64.1074Z" fill="#BCBEC0"/>
<path d="M36.66 67.3196H34.8467C34.8467 67.3196 31.5961 66.9257 31.0461 66.8065C29.9817 66.5754 30.4649 65.6866 30.4649 65.1492C30.4649 64.6124 30.4649 64.4336 30.4649 64.4336L32.1307 64.8138C32.1307 64.8138 35.7639 66.2903 36.48 66.6034C37.1962 66.9172 36.66 67.3196 36.66 67.3196Z" fill="#241F29"/>
<path d="M20.1172 46.9277C20.1172 46.9277 20.5485 46.9285 21.3032 46.9299C22.051 46.9363 23.1154 46.9506 24.3998 46.9961C25.0422 47.019 25.7394 47.0499 26.4824 47.0953C27.226 47.1414 28.0131 47.2002 28.8499 47.2944C29.2686 47.3416 29.7001 47.3985 30.156 47.476C30.3836 47.5144 30.6196 47.5599 30.8689 47.6162C31.1196 47.6737 31.3807 47.7393 31.69 47.8445C31.8426 47.8964 32.0165 47.9636 32.2159 48.0587L32.3763 48.1413C32.4291 48.1692 32.4998 48.2124 32.5594 48.2494C32.5922 48.2702 32.6173 48.2852 32.6556 48.312L32.7672 48.3933L32.876 48.4786C32.9177 48.5139 32.9645 48.5565 33.0069 48.5969C33.05 48.638 33.0919 48.6806 33.1325 48.7239C33.1329 48.7231 33.2601 48.8699 33.2081 48.8105L33.2139 48.8183L33.2255 48.8338L33.2989 48.9297C33.3259 48.9666 33.3519 49.0043 33.3772 49.0425C33.4075 49.0886 33.4112 49.0969 33.4269 49.1228L33.4654 49.1896C33.5582 49.3585 33.6145 49.4976 33.6557 49.6123C33.739 49.8469 33.7765 50.0186 33.8099 50.1819C33.8714 50.5014 33.8973 50.7633 33.9171 51.0168C33.9359 51.2686 33.9454 51.5069 33.9503 51.74C33.9678 52.6669 33.9281 53.5301 33.8794 54.3797C33.8289 55.2266 33.7629 56.0494 33.6918 56.8425C33.5489 58.4281 33.3852 59.8945 33.2368 61.15C33.088 62.4051 32.9531 63.4481 32.856 64.1785C32.7562 64.911 32.6993 65.3295 32.6993 65.3295L30.2225 65.1048C30.2225 65.1048 30.2362 64.6908 30.2607 63.9662C30.2829 63.2392 30.311 62.1996 30.3314 60.9539C30.3514 59.7085 30.3648 58.2555 30.3467 56.7101C30.3374 55.9377 30.3199 55.1421 30.2862 54.3441C30.2516 53.5491 30.203 52.7399 30.1118 51.999C30.0888 51.8151 30.0626 51.637 30.0329 51.4745C30.0038 51.3135 29.9683 51.1624 29.9372 51.076C29.9234 51.0368 29.9067 51.0072 29.9156 51.0478C29.9205 51.0655 29.9333 51.11 29.9754 51.1886L29.9941 51.222L30.0232 51.2692C30.0409 51.2968 30.0597 51.3238 30.0793 51.35L30.1304 51.4143L30.1172 51.3999L30.1106 51.3927C30.0543 51.3283 30.1778 51.4698 30.1733 51.4648C30.1951 51.4904 30.2182 51.5151 30.2425 51.5386C30.2658 51.5615 30.2941 51.5858 30.3163 51.6042C30.331 51.6178 30.3464 51.631 30.3623 51.6436L30.4415 51.7011L30.5116 51.7466C30.5229 51.7574 30.5037 51.7514 30.4596 51.7431C30.3763 51.7256 30.2372 51.7005 30.0877 51.6809C29.9366 51.6607 29.7717 51.6427 29.5999 51.6287C29.2565 51.6001 28.8949 51.5821 28.5324 51.5718C27.8064 51.551 27.0796 51.5562 26.3874 51.5714C25.6945 51.5865 25.0339 51.6124 24.4229 51.6413C23.2005 51.6998 22.1768 51.771 21.463 51.8244C20.7567 51.8819 20.3529 51.9149 20.3529 51.9149L20.1172 46.9277Z" fill="#050009"/>
<path d="M27.7188 42.8498C27.7188 43.5498 28.729 44.1175 29.9751 44.1175C31.2213 44.1175 32.2319 43.5498 32.2319 42.8498C32.2319 42.1497 31.2215 41.582 29.9751 41.582C28.729 41.5818 27.7188 42.1495 27.7188 42.8498Z" fill="#FBB688"/>
<path d="M23.1686 30.4199C22.4967 38.7681 23.5308 40.9942 28.4778 42.8493" stroke="#1B1620" stroke-width="12.7371" stroke-miterlimit="10"/>
<path d="M21.7617 23.3414L24.6646 22.633C24.6646 22.633 25.9047 17.6522 25.4103 16.7247C24.9155 15.7972 21.7617 16.7247 21.7617 16.7247V23.3414Z" fill="#533639"/>
<path d="M13.3499 48.4144C13.3633 49.0013 14.008 52.351 16.5885 52.351C21.6561 52.351 24.296 51.2142 24.505 49.4097C24.7807 47.0267 24.505 44.7383 24.505 44.7383H13.3499C13.3499 44.7383 13.3009 46.286 13.3499 48.4144Z" fill="#1B1620"/>
<path d="M32.3593 68.5364H30.5462C30.5462 68.5364 27.2956 68.1425 26.7456 68.0231C25.681 67.792 26.164 66.9034 26.164 66.366C26.164 65.8292 26.164 65.6504 26.164 65.6504L27.83 66.0308C27.83 66.0308 31.4631 67.5071 32.1793 67.8204C32.8955 68.134 32.3593 68.5364 32.3593 68.5364Z" fill="#241F29"/>
<path d="M16.4873 47.2539C16.4873 47.2539 16.9109 47.2925 17.6519 47.3599C18.3858 47.4316 19.43 47.5392 20.6876 47.6959C21.3166 47.7746 21.999 47.8656 22.7253 47.9753C23.4526 48.0862 24.2209 48.2123 25.0376 48.3799C25.4468 48.4641 25.8671 48.5583 26.3149 48.6789C26.5394 48.7397 26.7693 48.8059 27.0181 48.8898C27.2688 48.9757 27.5282 49.0681 27.8638 49.2345C28.0265 49.3165 28.2231 49.4219 28.4724 49.6119C28.5412 49.667 28.5909 49.7035 28.6757 49.7843C28.7144 49.8206 28.7521 49.8579 28.789 49.896L28.8163 49.9245C28.8527 49.9653 28.7738 49.8742 28.9043 50.0232L28.9158 50.0385L29.0092 50.1614C29.0356 50.1979 29.061 50.235 29.0855 50.2727L29.1306 50.3467C29.1855 50.4393 29.2214 50.5125 29.2576 50.5889C29.3826 50.8675 29.4327 51.0627 29.4751 51.2361C29.5151 51.4082 29.5401 51.5573 29.5605 51.6985C29.6357 52.2533 29.6467 52.7089 29.6541 53.1661C29.6619 54.0687 29.6209 54.9195 29.5704 55.7551C29.5186 56.5888 29.4523 57.3994 29.3815 58.181C29.2387 59.7435 29.0772 61.1893 28.9303 62.4272C28.7833 63.6646 28.6501 64.6927 28.5544 65.4129C28.4561 66.1352 28.3998 66.5478 28.3998 66.5478L25.923 66.3231C25.923 66.3231 25.9366 65.9149 25.9607 65.2007C25.9824 64.4839 26.0104 63.4589 26.0308 62.2306C26.051 61.0025 26.0646 59.5701 26.0484 58.0459C26.0399 57.284 26.024 56.4993 25.9925 55.711C25.9605 54.9251 25.9154 54.1271 25.8321 53.3845C25.7906 53.0196 25.7358 52.6524 25.6692 52.3986C25.6529 52.338 25.636 52.2865 25.6239 52.2607C25.6138 52.2364 25.6002 52.2364 25.6385 52.33C25.6513 52.3609 25.6647 52.3881 25.6925 52.4376L25.7177 52.479C25.7348 52.5062 25.7531 52.5328 25.7723 52.5588C25.7913 52.5848 25.8113 52.6103 25.8323 52.6347L25.8195 52.6209L25.8067 52.6068L25.8944 52.7078C25.9129 52.7281 25.9323 52.7478 25.9525 52.7666C26.0024 52.8103 26.0086 52.8194 26.038 52.8425C26.1234 52.912 26.1422 52.9163 26.1209 52.9142C26.0896 52.9074 25.9655 52.8691 25.8317 52.839C25.6956 52.807 25.5375 52.7757 25.375 52.7468C25.0481 52.6889 24.6959 52.6404 24.343 52.5992C23.6355 52.5165 22.9211 52.4607 22.241 52.4165C21.5598 52.3728 20.9088 52.3423 20.3064 52.3192C19.1008 52.2735 18.0891 52.2564 17.3833 52.2485C16.6844 52.245 16.2852 52.243 16.2852 52.243L16.4873 47.2539Z" fill="#1B1620"/>
<path d="M14.6787 29.6841C15.9103 28.2278 18.76 28.1284 19.6925 28.1363C20.5837 28.1241 22.7572 27.9266 24.0047 29.4012C25.3338 30.9724 24.6477 47.025 24.6477 47.025H19.7378H19.6846H13.2539C13.2539 47.025 13.3495 31.2554 14.6787 29.6841Z" fill="#2D2932"/>
<path d="M19.0391 28.8769C19.0391 28.8769 21.3894 29.2177 22.5583 28.6823C23.0281 28.4671 21.7617 41.7392 21.7617 41.7392L19.0391 28.8769Z" fill="white"/>
<path d="M14.9472 34.5991C14.6349 35.3767 14.537 36.1816 14.4761 37.0132C14.3935 38.1339 13.9422 39.6585 14.6404 40.6507C15.0845 41.283 17.3993 41.9141 17.1506 42.8432C16.9909 43.4384 16.8604 43.981 16.512 44.495C16.2611 44.8655 13.7894 44.0177 13.3008 45.1219C13.3767 41.3533 13.5719 35.2467 14.0648 31.9176C14.5543 31.9331 15.0637 31.8696 15.5292 31.8555C15.4086 32.8296 15.3309 33.6434 14.9472 34.5991Z" fill="#D1D3D4"/>
<path d="M22.3991 28.3725L21.251 28.9961L17.3711 28.3725C17.7925 27.4783 17.6535 26.1084 17.7274 26.2459C18.33 27.372 23.8876 25.606 22.6527 26.435C21.6143 27.1326 22.3991 28.3725 22.3991 28.3725Z" fill="#F9A77A"/>
<path d="M22.5591 28.6811C22.5591 28.6811 21.8189 29.4012 19.7555 29.4012C17.8384 29.4012 17.1094 28.5446 17.1094 28.5446L17.3989 27.1328C17.3989 27.1328 18.6703 27.9065 20.4356 27.9974C20.9104 28.0217 21.3299 28.6811 21.3299 28.6811C21.3299 28.6811 21.5784 27.9562 21.7625 27.7793C21.9463 27.6022 22.3636 27.4309 22.3636 27.4309L22.5591 28.6811Z" fill="white"/>
<path d="M21.761 41.7393C21.761 41.7393 19.8821 32.7481 18.7921 30.4212C18.1443 29.0374 16.7383 28.5008 16.7383 28.5008V27.3809C16.7383 27.3809 18.3 27.5492 19.5079 29.3972C19.9472 30.0695 20.3721 31.1862 20.5086 32.2032C20.536 32.4049 20.2465 32.8897 20.2636 33.0477C20.2997 33.3837 20.7811 33.5927 20.7811 33.5927L21.761 41.7393Z" fill="#18131D"/>
<path d="M21.7617 41.739C21.7617 41.739 23.1563 31.3928 23.6441 28.8699C23.7606 28.2679 22.4121 27.748 22.4121 27.748L22.5583 28.6821C22.5583 28.6821 22.5583 31.1768 22.3078 33.7923C22.1317 35.629 21.7617 41.739 21.7617 41.739Z" fill="#18131D"/>
<path d="M15.4133 20.5027C15.4133 20.5027 15.1855 18.8852 14.1613 19.2431C13.1369 19.6004 14.3872 22.3598 14.8969 22.5798C15.3325 22.7686 15.5852 22.3891 15.5852 22.3891" fill="#FBB688"/>
<path d="M15.4742 23.1621C15.6299 25.1806 18.1269 27.1323 19.5949 27.1323C24.2481 27.1323 24.2739 25.8554 24.5945 23.1621C24.7615 21.7614 24.8305 19.4329 24.8237 18.1118C24.8048 14.5019 23.2211 13.9766 20.1847 13.9766C16.9204 13.9766 15.2371 14.4116 15.1703 18.1118C15.1429 19.6215 15.3655 21.7511 15.4742 23.1621Z" fill="#FBB688"/>
<path d="M15.144 20.2466C15.109 19.6807 14.7356 19.1915 14.2792 19.1915C14.0044 17.6443 14.5126 13.7212 17.7099 12.8593C26.1165 10.5923 25.5178 17.7201 25.5178 17.7201C25.5178 17.7201 23.122 17.7172 21.7587 16.4821C19.5711 20.0058 16.2457 19.3805 16.0437 20.2375C15.9289 20.7261 15.7602 21.2838 15.7266 21.5246C15.6965 21.7433 15.3951 21.6005 15.3491 21.4656C15.1986 21.0282 15.144 20.2466 15.144 20.2466Z" fill="#533639"/>
<path d="M16.2148 43.8691C16.2148 44.5692 17.2253 45.1368 18.4718 45.1368C19.7178 45.1368 20.0751 45.0013 20.0751 44.3012C20.0751 43.6011 19.7178 42.6016 18.4718 42.6016C17.2253 42.6014 16.2148 43.169 16.2148 43.8691Z" fill="#FBB688"/>
<path d="M15.5851 30.5762C11.9177 32.4387 11.5662 38.7752 11.8235 39.598C12.0812 40.4208 14.6417 42.6015 16.7381 43.7265" stroke="#2D2932" stroke-width="12.7371" stroke-miterlimit="10"/>
<path d="M23.1523 20.7261C23.1523 20.938 23.3246 21.11 23.5367 21.11C23.7487 21.11 23.9208 20.938 23.9208 20.7261C23.9208 20.5141 23.7487 20.3418 23.5367 20.3418C23.3246 20.3418 23.1523 20.5141 23.1523 20.7261Z" fill="#533639"/>
<path d="M23.2578 20.7457C23.2578 20.9314 23.7252 20.4102 23.5586 20.4102C23.3926 20.4102 23.2578 20.5607 23.2578 20.7457Z" fill="white"/>
<path d="M24.361 18.8745C24.0517 18.5034 23.325 18.5189 23.0469 18.7972" stroke="#533639" stroke-width="1.2737" stroke-miterlimit="10" stroke-linecap="round" stroke-linejoin="round"/>
<path d="M19.5156 20.7261C19.5156 20.938 19.6877 21.11 19.8996 21.11C20.1118 21.11 20.2837 20.938 20.2837 20.7261C20.2837 20.5141 20.1118 20.3418 19.8996 20.3418C19.6877 20.3418 19.5156 20.5141 19.5156 20.7261Z" fill="#533639"/>
<path d="M19.6211 20.7457C19.6211 20.9314 20.0887 20.4102 19.9225 20.4102C19.7563 20.4102 19.6211 20.5607 19.6211 20.7457Z" fill="white"/>
<path d="M20.5561 18.8745C20.2472 18.5034 19.5205 18.5189 19.2422 18.7972" stroke="#533639" stroke-width="1.2737" stroke-miterlimit="10" stroke-linecap="round" stroke-linejoin="round"/>
<path d="M22.8456 22.8484L21.9805 23.3813V20.1914L22.8456 22.8484Z" fill="#E19870"/>
<path d="M20.3398 24.0059C20.3398 24.0059 20.5366 25.1809 21.605 25.1809C22.6735 25.1809 22.87 24.0059 22.87 24.0059H20.3398Z" fill="white"/>
<path d="M22.0597 29.2332C22.0597 29.5919 21.9548 30.2685 21.5235 30.2685C21.092 30.2685 20.65 29.6038 20.8506 29.3062C20.9395 29.1746 22.0597 29.0536 22.0597 29.2332Z" fill="#EE332A"/>
<path d="M21.0319 35.6952C21.0319 35.6952 20.922 31.7256 21.1376 30.1085C21.1766 29.8147 21.7798 29.7721 21.8328 30.0506C22.1344 31.6372 22.1728 35.4266 22.1728 35.4266L21.759 41.739L21.0319 35.6952Z" fill="#EE332A"/>
<path d="M12.1602 67.9072V46.6328H13.9705V67.9072C13.9705 68.6214 13.5652 69.2007 13.0653 69.2007C12.5653 69.2005 12.1602 68.6214 12.1602 67.9072Z" fill="#D1D3D4"/>
<path d="M46.9766 67.9072V46.6328H48.7865V67.9072C48.7865 68.6214 48.3812 69.2007 47.8817 69.2007C47.3818 69.2005 46.9766 68.6214 46.9766 67.9072Z" fill="#D1D3D4"/>
<path d="M40.0508 67.9072V46.6328H41.8609V67.9072C41.8609 68.6214 41.4556 69.2007 40.9557 69.2007C40.4561 69.2005 40.0508 68.6214 40.0508 67.9072Z" fill="#BCBEC0"/>
<path d="M5.23047 67.9072V46.6328H7.04039V67.9072C7.04039 68.6214 6.6351 69.2007 6.13524 69.2007C5.63557 69.2005 5.23047 68.6214 5.23047 67.9072Z" fill="#B6B8BA"/>
<path d="M1.1044 45.0215H12.2712V47.1415H1.1044C0.494427 47.1415 0 46.6669 0 46.0816C0 45.4961 0.494621 45.0215 1.1044 45.0215Z" fill="#C9CACC"/>
<path d="M9.11719 46.0814C9.11719 46.6667 9.61142 47.1413 10.2216 47.1413H51.0823C51.6923 47.1413 52.1865 46.6667 52.1865 46.0814C52.1865 45.4959 51.6923 45.0215 51.0823 45.0215H10.2216C9.61142 45.0215 9.11719 45.4961 9.11719 46.0814Z" fill="white"/>
<path d="M40.9564 57.1871H47.8841V54.8984H40.9564C40.9564 54.8984 40.582 55.1255 40.582 56.0426C40.582 56.96 40.9564 57.1871 40.9564 57.1871Z" fill="#D1D3D4"/>
<path d="M6.34316 57.1871H13.271V54.8984H6.34316C6.34316 54.8984 5.96875 55.1255 5.96875 56.0426C5.96875 56.96 6.34316 57.1871 6.34316 57.1871Z" fill="#D1D3D4"/>
<path d="M19.2891 45.0226V44.4219C19.2891 43.8793 19.6099 43.4395 20.0055 43.4395H31.1528C31.5488 43.4395 31.8692 43.8793 31.8692 44.4219V45.0226H19.2891Z" fill="#2D2932"/>
<path d="M24.9688 42.7045C24.9688 43.11 25.2975 43.4388 25.703 43.4388H36.4697C36.8748 43.4388 37.2038 43.11 37.2038 42.7045L38.427 35.486C38.427 35.0805 38.0985 34.752 37.693 34.752H26.9263C26.5208 34.752 26.1922 35.0805 26.1922 35.486L24.9688 42.7045Z" fill="#2D2932"/>
<path d="M25.5781 42.7045C25.5781 43.11 25.9067 43.4388 26.3124 43.4388H37.0789C37.4846 43.4388 37.813 43.11 37.813 42.7045L39.0366 35.486C39.0366 35.0805 38.708 34.752 38.3025 34.752H27.5356C27.1303 34.752 26.8016 35.0805 26.8016 35.486L25.5781 42.7045Z" fill="#3D3843"/>
<path d="M24.9688 45.0226V44.4219C24.9688 43.8793 25.2898 43.4395 25.6853 43.4395H36.8329C37.2286 43.4395 37.5493 43.8793 37.5493 44.4219V45.0226H24.9688Z" fill="#504A57"/>
</svg>
