<svg width="100" height="100" viewBox="0 0 100 100" fill="none" xmlns="http://www.w3.org/2000/svg">
<g clip-path="url(#clip0_584_636)">
<path d="M6.99274 0C3.13078 0 0 3.13078 0 6.99275V15.4775C0 16.9629 1.20412 18.1671 2.68961 18.1671C4.1751 18.1671 5.37922 16.9629 5.37922 15.4775V6.98922C5.37922 6.56217 5.54886 6.15261 5.85083 5.85064C6.1528 5.54867 6.56236 5.37902 6.98941 5.37902H15.4812C16.9667 5.37902 18.1708 4.1749 18.1708 2.68941C18.1706 1.20412 16.9665 0 15.481 0H6.99274Z" fill="url(#paint0_linear_584_636)"/>
<path d="M93.0073 100C96.8692 100 100 96.8693 100 93.0073V84.5226C100 83.0371 98.7959 81.833 97.3104 81.833C95.8249 81.833 94.6208 83.0371 94.6208 84.5226V93.0109C94.6208 93.4379 94.4511 93.8475 94.1492 94.1494C93.8472 94.4514 93.4376 94.621 93.0106 94.621H84.5188C83.0333 94.621 81.8292 95.8252 81.8292 97.3107C81.8292 98.7961 83.0333 100 84.5188 100H93.0073V100Z" fill="url(#paint1_linear_584_636)"/>
<path d="M99.9999 6.99274C99.9999 3.13078 96.8692 0 93.0072 0H84.5225C83.037 0 81.8329 1.20412 81.8329 2.68961C81.8329 4.1751 83.037 5.37922 84.5225 5.37922H93.0107C93.4378 5.37922 93.8473 5.54886 94.1493 5.85083C94.4513 6.1528 94.6209 6.56236 94.6209 6.98941V15.4812C94.6209 16.9667 95.825 18.1708 97.3105 18.1708C98.796 18.1708 100 16.9667 100 15.4812V6.99274H99.9999Z" fill="url(#paint2_linear_584_636)"/>
<path d="M0 93.0071C0 96.8691 3.13078 99.9999 6.99275 99.9999H15.4775C16.9629 99.9999 18.1671 98.7958 18.1671 97.3103C18.1671 95.8248 16.9629 94.6207 15.4775 94.6207H6.98922C6.56217 94.6207 6.15261 94.451 5.85064 94.1491C5.54867 93.8471 5.37902 93.4375 5.37902 93.0105V84.5187C5.37902 83.0332 4.1749 81.8291 2.68941 81.8291C1.20412 81.8293 0 83.0334 0 84.5189V93.0071Z" fill="url(#paint3_linear_584_636)"/>
<path d="M12.4709 54.698C12.4709 49.7886 15.8788 45.6753 20.458 44.5943C21.6819 44.3053 22.8521 45.2519 22.8521 46.5096V62.8864C22.8521 64.1441 21.6821 65.0907 20.458 64.8017C15.8788 63.7207 12.4709 59.6074 12.4709 54.698Z" fill="url(#paint4_linear_584_636)"/>
<path d="M87.529 54.698C87.529 49.7886 84.1212 45.6753 79.5419 44.5943C78.318 44.3053 77.1478 45.2519 77.1478 46.5096V62.8864C77.1478 64.1441 78.3178 65.0907 79.5419 64.8017C84.1212 63.7207 87.529 59.6074 87.529 54.698Z" fill="url(#paint5_linear_584_636)"/>
<path d="M87.529 54.698C87.529 49.7886 84.1212 45.6753 79.5419 44.5943C78.318 44.3053 77.1478 45.2519 77.1478 46.5096V62.8864C77.1478 64.1441 78.3178 65.0907 79.5419 64.8017C84.1212 63.7207 87.529 59.6074 87.529 54.698Z" fill="url(#paint6_linear_584_636)"/>
<path d="M49.9999 92.9397C33.4156 92.9397 19.9713 79.4956 19.9713 62.9112V47.5118C19.9713 30.9275 33.4156 17.4834 49.9997 17.4834C66.5841 17.4834 80.0282 30.9277 80.0282 47.5118V62.911C80.0284 79.4956 66.5843 92.9397 49.9999 92.9397Z" fill="url(#paint7_linear_584_636)"/>
<path d="M51.6588 74.8229H48.3411C45.576 74.8229 43.4827 72.3243 43.967 69.6019L45.5258 60.8392C45.622 60.2985 45.9054 59.8088 46.3264 59.4561C46.7473 59.1034 47.279 58.9101 47.8282 58.9102H52.1719C53.3054 58.9102 54.2758 59.7231 54.4743 60.8392L56.0331 69.6019C56.5172 72.3243 54.4239 74.8229 51.6588 74.8229Z" fill="url(#paint8_linear_584_636)"/>
<path d="M51.6588 74.8229H48.3411C45.576 74.8229 43.4827 72.3243 43.967 69.6019L45.5258 60.8392C45.622 60.2985 45.9054 59.8088 46.3264 59.4561C46.7473 59.1034 47.279 58.9101 47.8282 58.9102H52.1719C53.3054 58.9102 54.2758 59.7231 54.4743 60.8392L56.0331 69.6019C56.5172 72.3243 54.4239 74.8229 51.6588 74.8229Z" fill="url(#paint9_linear_584_636)"/>
<path d="M48.3411 74.8229H51.659C54.4241 74.8229 56.5174 72.3243 56.0331 69.6019L54.4743 60.8392C54.3781 60.2985 54.0947 59.8088 53.6737 59.4561C53.2528 59.1034 52.7211 58.9101 52.1719 58.9102H47.8282C47.279 58.9101 46.7473 59.1034 46.3264 59.4561C45.9054 59.8088 45.622 60.2985 45.5258 60.8392L43.967 69.6019C43.4827 72.3243 45.576 74.8229 48.3411 74.8229Z" fill="url(#paint10_linear_584_636)"/>
<path d="M36.6886 65.5165C34.2784 65.5165 32.3247 63.5627 32.3247 61.1525V58.9147C32.3247 56.5045 34.2784 54.5508 36.6886 54.5508C39.0988 54.5508 41.0525 56.5045 41.0525 58.9147V61.1525C41.0525 63.5627 39.0988 65.5165 36.6886 65.5165Z" fill="url(#paint11_linear_584_636)"/>
<path d="M63.3114 65.5165C60.9012 65.5165 58.9475 63.5627 58.9475 61.1525V58.9147C58.9475 56.5045 60.9012 54.5508 63.3114 54.5508C65.7216 54.5508 67.6754 56.5045 67.6754 58.9147V61.1525C67.6754 63.5627 65.7216 65.5165 63.3114 65.5165Z" fill="url(#paint12_linear_584_636)"/>
<path d="M90.8825 38.4912C90.8825 44.5092 89.2031 48.4457 86.8939 51.0139C82.538 55.8584 74.6086 54.1357 72.3023 48.0428C69.5904 40.8781 63.1835 35.8445 55.7141 35.8445C55.5082 35.8445 55.3023 35.8479 55.0964 35.8577C56.2629 26.1433 63.7947 18.6475 72.9111 18.6475C82.8378 18.6473 90.8825 27.5318 90.8825 38.4912Z" fill="url(#paint13_linear_584_636)"/>
<path d="M79.5732 22.0166C79.2828 17.9827 77.104 14.2943 73.7445 12.0423C69.6792 9.31702 62.7226 7.06055 50.8324 7.06055C43.2414 7.06055 37.6618 7.98035 33.5614 9.35466C30.7869 10.2847 27.9873 11.1419 25.1389 11.8113C15.94 13.9727 9.11768 21.8927 9.11768 31.3341C9.11768 42.4394 18.5561 51.4421 30.199 51.4421C38.7628 51.4421 53.5524 36.0782 66.7292 36.0782C68.3655 36.0782 69.6718 34.6506 71.1673 33.9864C74.43 32.5374 80.0759 29.0021 79.5732 22.0166Z" fill="url(#paint14_linear_584_636)"/>
<path d="M76.0568 88.6901V89.1175C76.0568 89.2826 76.0243 89.446 75.9612 89.5985C75.898 89.751 75.8054 89.8895 75.6887 90.0063C75.572 90.123 75.4334 90.2155 75.2809 90.2787C75.1285 90.3419 74.965 90.3744 74.8 90.3744H72.6058C68.4353 90.3744 64.6353 87.7567 63.149 83.8587L62.7376 82.7781C62.3711 81.8156 63.0821 80.7842 64.1121 80.7842C64.4102 80.7842 64.7012 80.8747 64.9466 81.0439C65.1921 81.213 65.3803 81.4527 65.4864 81.7312L65.8982 82.8116C66.9511 85.5763 69.6472 87.4332 72.606 87.4332H74.8002C75.1335 87.4333 75.4531 87.5657 75.6888 87.8014C75.9244 88.0371 76.0568 88.3568 76.0568 88.6901Z" fill="url(#paint15_linear_584_636)"/>
<path d="M79.149 87.4844H85.0221C85.3657 87.4844 85.6952 87.6209 85.9382 87.8638C86.1811 88.1068 86.3176 88.4363 86.3176 88.7799C86.3176 89.1234 86.1811 89.453 85.9382 89.6959C85.6952 89.9389 85.3657 90.0754 85.0221 90.0754H79.149C78.8054 90.0754 78.4759 89.9389 78.233 89.6959C77.99 89.453 77.8535 89.1234 77.8535 88.7799C77.8535 88.4363 77.99 88.1068 78.233 87.8638C78.4759 87.6209 78.8054 87.4844 79.149 87.4844Z" fill="url(#paint16_linear_584_636)"/>
<path d="M89.5135 87.4844H90.9817C91.3253 87.4844 91.6548 87.6209 91.8978 87.8638C92.1407 88.1068 92.2772 88.4363 92.2772 88.7799C92.2772 89.1234 92.1407 89.453 91.8978 89.6959C91.6548 89.9389 91.3253 90.0754 90.9817 90.0754H89.5135C89.1699 90.0754 88.8404 89.9389 88.5975 89.6959C88.3545 89.453 88.218 89.1234 88.218 88.7799C88.218 88.4363 88.3545 88.1068 88.5975 87.8638C88.8404 87.6209 89.1699 87.4844 89.5135 87.4844Z" fill="url(#paint17_linear_584_636)"/>
<path d="M90.7218 41.5684H12.0508C13.2184 43.448 14.6965 45.1313 16.4198 46.5521C14.0153 48.4535 12.4712 51.3946 12.4712 54.698C12.4712 59.4513 15.6661 63.4584 20.0255 64.6895C20.2571 68.6544 21.2586 72.4123 22.8816 75.8168H77.1188C78.7418 72.4123 79.7431 68.6544 79.9749 64.6895C84.3343 63.4586 87.5292 59.4515 87.5292 54.698C87.53 53.4497 87.3051 52.2115 86.8653 51.0433C86.8747 51.0329 86.8847 51.0237 86.8941 51.0133C88.7835 48.9117 90.2508 45.8931 90.7218 41.5684Z" fill="url(#paint18_linear_584_636)"/>
<path d="M2.24588 43.5406H97.7539C98.9943 43.5406 99.9998 42.5351 99.9998 41.2947C99.9998 40.0543 98.9943 39.0488 97.7539 39.0488H2.24588C1.00549 39.0486 0 40.0541 0 41.2945C0 42.5349 1.00549 43.5406 2.24588 43.5406Z" fill="url(#paint19_linear_584_636)"/>
<path d="M33.9498 62.7783H34.3745C34.7082 62.7783 35.0282 62.9109 35.2642 63.1468C35.5002 63.3828 35.6327 63.7028 35.6327 64.0366V66.2295C35.6327 70.4007 33.0135 74.2013 29.1153 75.6864L21.7986 78.474C21.4868 78.5928 21.1405 78.5829 20.836 78.4464C20.5315 78.3099 20.2937 78.058 20.1749 77.7462L20.0237 77.3491C19.9049 77.0373 19.9149 76.691 20.0514 76.3865C20.1879 76.082 20.4397 75.8442 20.7516 75.7254L28.0682 72.9377C30.8335 71.8842 32.6916 69.1883 32.6916 66.2293V64.0364C32.6917 63.7027 32.8243 63.3827 33.0602 63.1468C33.2962 62.9109 33.6161 62.7784 33.9498 62.7783Z" fill="url(#paint20_linear_584_636)"/>
<path d="M18.1284 72.689C18.1284 72.3455 17.9919 72.0159 17.749 71.773C17.506 71.53 17.1765 71.3936 16.8329 71.3936H1.29549C0.951905 71.3936 0.622392 71.53 0.37944 71.773C0.136489 72.0159 0 72.3455 0 72.689C0 73.0326 0.136489 73.3621 0.37944 73.6051C0.622392 73.848 0.951905 73.9845 1.29549 73.9845H16.8327C17.0029 73.9846 17.1714 73.9511 17.3286 73.886C17.4858 73.8209 17.6286 73.7255 17.7489 73.6052C17.8692 73.4849 17.9647 73.342 18.0298 73.1849C18.0949 73.0277 18.1284 72.8592 18.1284 72.689Z" fill="url(#paint21_linear_584_636)"/>
<path d="M16.8327 76.6221H10.9596C10.616 76.6221 10.2865 76.7586 10.0435 77.0015C9.80055 77.2445 9.66406 77.574 9.66406 77.9176C9.66406 78.2611 9.80055 78.5907 10.0435 78.8336C10.2865 79.0766 10.616 79.213 10.9596 79.213H16.8327C17.1763 79.213 17.5058 79.0766 17.7487 78.8336C17.9917 78.5907 18.1282 78.2611 18.1282 77.9176C18.1282 77.574 17.9917 77.2445 17.7487 77.0015C17.5058 76.7586 17.1763 76.6221 16.8327 76.6221Z" fill="url(#paint22_linear_584_636)"/>
<path d="M6.46819 76.6221H4.99996C4.65637 76.6221 4.32686 76.7586 4.08391 77.0015C3.84096 77.2445 3.70447 77.574 3.70447 77.9176C3.70447 78.2611 3.84096 78.5907 4.08391 78.8336C4.32686 79.0766 4.65637 79.213 4.99996 79.213H6.46819C6.81178 79.213 7.14129 79.0766 7.38424 78.8336C7.6272 78.5907 7.76368 78.2611 7.76368 77.9176C7.76368 77.574 7.6272 77.2445 7.38424 77.0015C7.14129 76.7586 6.81178 76.6221 6.46819 76.6221Z" fill="url(#paint23_linear_584_636)"/>
<path d="M79.7133 84.9973C80.7405 84.9973 81.5733 84.1646 81.5733 83.1373C81.5733 82.1101 80.7405 81.2773 79.7133 81.2773C78.686 81.2773 77.8533 82.1101 77.8533 83.1373C77.8533 84.1646 78.686 84.9973 79.7133 84.9973Z" fill="url(#paint24_linear_584_636)"/>
<path d="M84.8114 84.9973C85.8387 84.9973 86.6714 84.1646 86.6714 83.1373C86.6714 82.1101 85.8387 81.2773 84.8114 81.2773C83.7842 81.2773 82.9514 82.1101 82.9514 83.1373C82.9514 84.1646 83.7842 84.9973 84.8114 84.9973Z" fill="url(#paint25_linear_584_636)"/>
<path d="M89.9094 84.9973C90.9367 84.9973 91.7694 84.1646 91.7694 83.1373C91.7694 82.1101 90.9367 81.2773 89.9094 81.2773C88.8822 81.2773 88.0494 82.1101 88.0494 83.1373C88.0494 84.1646 88.8822 84.9973 89.9094 84.9973Z" fill="url(#paint26_linear_584_636)"/>
</g>
<defs>
<linearGradient id="paint0_linear_584_636" x1="-3.97686" y1="-3.97863" x2="17.361" y2="17.3592" gradientUnits="userSpaceOnUse">
<stop stop-color="#017297"/>
<stop offset="1" stop-color="#024C67"/>
</linearGradient>
<linearGradient id="paint1_linear_584_636" x1="103.977" y1="103.979" x2="82.639" y2="82.6409" gradientUnits="userSpaceOnUse">
<stop stop-color="#017297"/>
<stop offset="1" stop-color="#024C67"/>
</linearGradient>
<linearGradient id="paint2_linear_584_636" x1="103.979" y1="-3.97686" x2="82.6407" y2="17.361" gradientUnits="userSpaceOnUse">
<stop stop-color="#017297"/>
<stop offset="1" stop-color="#024C67"/>
</linearGradient>
<linearGradient id="paint3_linear_584_636" x1="-3.97863" y1="103.977" x2="17.3592" y2="82.6389" gradientUnits="userSpaceOnUse">
<stop stop-color="#017297"/>
<stop offset="1" stop-color="#024C67"/>
</linearGradient>
<linearGradient id="paint4_linear_584_636" x1="15.5257" y1="50.2098" x2="23.8755" y2="58.5596" gradientUnits="userSpaceOnUse">
<stop stop-color="#FFDFCF"/>
<stop offset="1" stop-color="#FFA78F"/>
</linearGradient>
<linearGradient id="paint5_linear_584_636" x1="73.9117" y1="48.6237" x2="85.5959" y2="60.3078" gradientUnits="userSpaceOnUse">
<stop stop-color="#FFDFCF"/>
<stop offset="1" stop-color="#FFA78F"/>
</linearGradient>
<linearGradient id="paint6_linear_584_636" x1="84.7914" y1="55.7723" x2="78.1143" y2="54.5125" gradientUnits="userSpaceOnUse">
<stop stop-color="#F89580" stop-opacity="0"/>
<stop offset="0.997" stop-color="#C5715A"/>
</linearGradient>
<linearGradient id="paint7_linear_584_636" x1="29.8403" y1="41.6589" x2="69.8968" y2="68.5877" gradientUnits="userSpaceOnUse">
<stop stop-color="#FFDFCF"/>
<stop offset="1" stop-color="#FFA78F"/>
</linearGradient>
<linearGradient id="paint8_linear_584_636" x1="50" y1="66.0266" x2="50" y2="76.4627" gradientUnits="userSpaceOnUse">
<stop stop-color="#F89580" stop-opacity="0"/>
<stop offset="0.262" stop-color="#F1907B" stop-opacity="0.262"/>
<stop offset="0.636" stop-color="#DE826C" stop-opacity="0.638"/>
<stop offset="0.997" stop-color="#C5715A"/>
</linearGradient>
<linearGradient id="paint9_linear_584_636" x1="51.8009" y1="67.2737" x2="57.9588" y2="68.7715" gradientUnits="userSpaceOnUse">
<stop stop-color="#F89580" stop-opacity="0"/>
<stop offset="0.262" stop-color="#F1907B" stop-opacity="0.262"/>
<stop offset="0.636" stop-color="#DE826C" stop-opacity="0.638"/>
<stop offset="0.997" stop-color="#C5715A"/>
</linearGradient>
<linearGradient id="paint10_linear_584_636" x1="48.199" y1="67.2737" x2="42.0413" y2="68.7715" gradientUnits="userSpaceOnUse">
<stop stop-color="#FFDDCD" stop-opacity="0"/>
<stop offset="0.997" stop-color="#FFDDCD"/>
</linearGradient>
<linearGradient id="paint11_linear_584_636" x1="33.8426" y1="57.9384" x2="39.9014" y2="62.3986" gradientUnits="userSpaceOnUse">
<stop stop-color="#5A5A5A"/>
<stop offset="1" stop-color="#444444"/>
</linearGradient>
<linearGradient id="paint12_linear_584_636" x1="60.1697" y1="57.6773" x2="65.5556" y2="61.7167" gradientUnits="userSpaceOnUse">
<stop stop-color="#5A5A5A"/>
<stop offset="1" stop-color="#444444"/>
</linearGradient>
<linearGradient id="paint13_linear_584_636" x1="68.5913" y1="28.3755" x2="81.9443" y2="41.7284" gradientUnits="userSpaceOnUse">
<stop stop-color="#5A5A5A"/>
<stop offset="1" stop-color="#444444"/>
</linearGradient>
<linearGradient id="paint14_linear_584_636" x1="31.0612" y1="15.1668" x2="51.1383" y2="35.2439" gradientUnits="userSpaceOnUse">
<stop stop-color="#5A5A5A"/>
<stop offset="1" stop-color="#444444"/>
</linearGradient>
<linearGradient id="paint15_linear_584_636" x1="59.1715" y1="76.3497" x2="83.9602" y2="100.816" gradientUnits="userSpaceOnUse">
<stop stop-color="#EAF9FA"/>
<stop offset="1" stop-color="#B3DAFE"/>
</linearGradient>
<linearGradient id="paint16_linear_584_636" x1="77.3753" y1="80.8358" x2="90.5125" y2="102.993" gradientUnits="userSpaceOnUse">
<stop stop-color="#AEFFD1"/>
<stop offset="0.12" stop-color="#A3F9CB"/>
<stop offset="0.329" stop-color="#87EAB9"/>
<stop offset="0.601" stop-color="#59D19D"/>
<stop offset="0.923" stop-color="#19AF77"/>
<stop offset="1" stop-color="#09A76D"/>
</linearGradient>
<linearGradient id="paint17_linear_584_636" x1="83.4143" y1="77.2552" x2="96.5515" y2="99.412" gradientUnits="userSpaceOnUse">
<stop stop-color="#AEFFD1"/>
<stop offset="0.12" stop-color="#A3F9CB"/>
<stop offset="0.329" stop-color="#87EAB9"/>
<stop offset="0.601" stop-color="#59D19D"/>
<stop offset="0.923" stop-color="#19AF77"/>
<stop offset="1" stop-color="#09A76D"/>
</linearGradient>
<linearGradient id="paint18_linear_584_636" x1="51.3863" y1="55.1631" x2="51.3863" y2="40.508" gradientUnits="userSpaceOnUse">
<stop stop-color="#0593FC" stop-opacity="0"/>
<stop offset="0.683" stop-color="#0389FC" stop-opacity="0.683"/>
<stop offset="1" stop-color="#0182FC"/>
</linearGradient>
<linearGradient id="paint19_linear_584_636" x1="50" y1="38.6277" x2="50" y2="43.592" gradientUnits="userSpaceOnUse">
<stop stop-color="#62DBFB"/>
<stop offset="0.191" stop-color="#57D5FA"/>
<stop offset="0.523" stop-color="#3BC5F7"/>
<stop offset="0.954" stop-color="#0DABF2"/>
<stop offset="1" stop-color="#08A9F1"/>
</linearGradient>
<linearGradient id="paint20_linear_584_636" x1="27.2904" y1="70.0954" x2="33.0071" y2="75.812" gradientUnits="userSpaceOnUse">
<stop stop-color="#EAF9FA"/>
<stop offset="1" stop-color="#B3DAFE"/>
</linearGradient>
<linearGradient id="paint21_linear_584_636" x1="3.4349" y1="59.6902" x2="14.2192" y2="84.5922" gradientUnits="userSpaceOnUse">
<stop stop-color="#AEFFD1"/>
<stop offset="0.12" stop-color="#A3F9CB"/>
<stop offset="0.329" stop-color="#87EAB9"/>
<stop offset="0.601" stop-color="#59D19D"/>
<stop offset="0.923" stop-color="#19AF77"/>
<stop offset="1" stop-color="#09A76D"/>
</linearGradient>
<linearGradient id="paint22_linear_584_636" x1="5.59681" y1="58.7538" x2="16.3811" y2="83.6558" gradientUnits="userSpaceOnUse">
<stop stop-color="#AEFFD1"/>
<stop offset="0.12" stop-color="#A3F9CB"/>
<stop offset="0.329" stop-color="#87EAB9"/>
<stop offset="0.601" stop-color="#59D19D"/>
<stop offset="0.923" stop-color="#19AF77"/>
<stop offset="1" stop-color="#09A76D"/>
</linearGradient>
<linearGradient id="paint23_linear_584_636" x1="-1.27612" y1="61.7303" x2="9.50818" y2="86.6323" gradientUnits="userSpaceOnUse">
<stop stop-color="#AEFFD1"/>
<stop offset="0.12" stop-color="#A3F9CB"/>
<stop offset="0.329" stop-color="#87EAB9"/>
<stop offset="0.601" stop-color="#59D19D"/>
<stop offset="0.923" stop-color="#19AF77"/>
<stop offset="1" stop-color="#09A76D"/>
</linearGradient>
<linearGradient id="paint24_linear_584_636" x1="77.7321" y1="81.1562" x2="81.3327" y2="84.7568" gradientUnits="userSpaceOnUse">
<stop stop-color="#FE0364"/>
<stop offset="0.257" stop-color="#F3035F"/>
<stop offset="0.701" stop-color="#D70252"/>
<stop offset="1" stop-color="#C00148"/>
</linearGradient>
<linearGradient id="paint25_linear_584_636" x1="82.8302" y1="81.1562" x2="86.4308" y2="84.7568" gradientUnits="userSpaceOnUse">
<stop stop-color="#FEE45A"/>
<stop offset="1" stop-color="#FEA613"/>
</linearGradient>
<linearGradient id="paint26_linear_584_636" x1="87.9283" y1="81.1562" x2="91.5288" y2="84.7568" gradientUnits="userSpaceOnUse">
<stop stop-color="#AEFFD1"/>
<stop offset="0.12" stop-color="#A3F9CB"/>
<stop offset="0.329" stop-color="#87EAB9"/>
<stop offset="0.601" stop-color="#59D19D"/>
<stop offset="0.923" stop-color="#19AF77"/>
<stop offset="1" stop-color="#09A76D"/>
</linearGradient>
<clipPath id="clip0_584_636">
<rect width="100" height="100" fill="white"/>
</clipPath>
</defs>
</svg>
