<svg width="66" height="66" viewBox="0 0 66 66" fill="none" xmlns="http://www.w3.org/2000/svg">
<path d="M57.3338 43.1895H46.1758V54.8209H57.3338V43.1895Z" fill="#261E28"/>
<path d="M43.8789 43.1895L47.716 45.1252L50.1856 48.4985V54.8209H43.8789V43.1895Z" fill="#3C313F"/>
<path d="M39.1336 32.916C37.6952 33.647 36.8549 35.2155 37.1069 36.8092C37.2238 37.5483 37.5696 38.2363 38.3489 38.6254C40.6455 39.7722 45.123 35.8226 45.123 35.8226L47.236 21.8307C47.236 21.8307 45.2317 21.0662 43.646 25.0303C42.338 28.3003 40.8305 32.0538 40.8305 32.0538L39.1336 32.916Z" fill="#261E28"/>
<path d="M39.1687 38.0335C39.9888 38.0335 40.6537 37.2381 40.6537 36.257C40.6537 35.2758 39.9888 34.4805 39.1687 34.4805C38.3485 34.4805 37.6836 35.2758 37.6836 36.257C37.6836 37.2381 38.3485 38.0335 39.1687 38.0335Z" fill="white"/>
<path d="M55.5568 21.2103C55.5568 21.6958 55.2327 22.1695 54.7296 22.5765C53.835 23.3003 52.3727 23.8151 51.1546 23.8151C49.2509 23.8151 45.582 23.2901 45.582 23.2901C46.6095 20.2453 49.2509 18.9355 51.1546 18.9355C51.4069 18.9355 51.6702 18.9583 51.9364 19.0008C53.6773 19.2765 55.5568 20.3736 55.5568 21.2103Z" fill="#5C4A60"/>
<path d="M55.5541 21.2095C55.5541 21.695 55.2299 22.1687 54.7269 22.5757C54.5003 22.432 53.3123 22.2765 53.2756 22.1394C53.2382 21.9993 52.8349 21.3393 52.8349 21.3393C52.4146 20.3273 52.0641 19.5441 51.9336 19C53.6745 19.2757 55.5541 20.3728 55.5541 21.2095Z" fill="#3C313F"/>
<path d="M54.2883 22.0674C52.6691 26.0254 45.0248 27.636 47.826 20.5439L48.8302 20.5047C50.5838 20.4713 52.967 20.3563 54.3108 20.7466C54.6253 20.838 54.4124 21.7642 54.2883 22.0674Z" fill="white"/>
<path d="M53.6336 16.6394C55.1399 16.6394 55.2829 15.0759 55.2829 13.3618C55.2829 11.9897 55.5211 10.9459 54.4288 10.2654C53.4377 6.25353 45.1029 7.28782 46.2915 12.6801C46.7974 14.9748 52.0366 16.6394 53.6336 16.6394Z" fill="#231D1A"/>
<path d="M53.3799 15.9122L53.3506 19.3068L53.3337 21.3212L49.9318 20.7008L49.7338 20.6649L49.2109 20.5696V18.5712L49.2505 15.877L53.3799 15.9122Z" fill="#FFC48F"/>
<path d="M53.3506 19.3418L53.3337 21.3566L49.9318 20.7998L49.8497 20.665C49.8467 20.6577 49.8365 20.6556 49.8313 20.6624L49.7338 20.7676L49.2109 20.682V19.4354C49.2131 19.4368 49.2153 19.4404 49.2153 19.4441V19.4478C49.2044 19.4392 49.2902 19.6326 49.4735 19.9101C49.7669 20.3541 50.4466 20.1273 50.6102 20.0817L53.3506 19.3418Z" fill="#ED985F"/>
<path d="M53.3534 20.327L53.3913 15.9124L48.793 15.873C49.0262 17.3518 48.8992 18.8831 49.2801 18.9382C50.6734 19.1398 51.8101 19.3598 52.1767 20.0932C52.5434 20.8265 53.3534 20.327 53.3534 20.327Z" fill="#ED985F"/>
<path d="M46.9103 15.4935C46.8929 17.5317 48.1308 18.9635 50.0824 18.9802L50.1539 18.9808C52.1056 18.9975 54.032 17.5928 54.0494 15.5547L54.0753 12.9988C54.0928 10.9607 52.5248 9.29485 50.5731 9.27806L50.5018 9.27747C48.5501 9.26075 46.9538 10.8995 46.9363 12.9376L46.9103 15.4935Z" fill="#ED985F"/>
<path d="M46.2541 15.488C46.2366 17.5262 47.6808 18.9598 49.4775 18.9752L49.5432 18.9757C51.3399 18.9911 52.8084 17.5826 52.826 15.5443L52.8519 12.9885C52.8693 10.9504 51.427 9.28555 49.6304 9.27015L49.5647 9.26964C47.768 9.25424 46.2975 10.894 46.2799 12.9322L46.2541 15.488Z" fill="#FFC48F"/>
<path d="M53.0724 14.1146C52.8705 14.7939 53.0629 15.5457 53.5021 15.7938C53.9413 16.0419 54.4611 15.6923 54.663 15.013C54.8649 14.3336 54.6725 13.5818 54.2333 13.3337C53.7941 13.0856 53.2743 13.4352 53.0724 14.1146Z" fill="#ED985F"/>
<path d="M56.2886 22.4186C56.2886 22.4186 57.4337 25.818 55.4476 39.3127L44.1969 43.0842V30.3448C44.1518 28.5668 44.3921 26.1194 44.6098 24.3259C44.8303 22.5095 46.1318 21.0003 47.9033 20.5424C48.0145 20.5137 48.1274 20.4873 48.2419 20.4635C48.7176 20.365 49.5225 20.8889 50.0516 20.8591C52.7848 20.7052 55.7305 21.0089 56.2886 22.4186Z" fill="#3C313F"/>
<path d="M53.7431 21.6192C53.6477 21.8604 53.5481 22.2366 53.4476 22.7324C52.7619 26.1226 52.0484 35.0978 52.4085 44.6576H46.1766C46.1766 44.6576 46.1363 43.7284 46.1055 42.2236C46.1253 42.5654 46.1487 42.8873 46.1766 43.188H46.9114C46.3922 40.2979 47.8427 38.4726 48.3003 35.1917C47.4665 33.9531 46.7991 32.7497 46.2822 31.6372C46.2433 32.2943 46.2073 32.9587 46.1759 33.6209C46.2023 32.958 46.2345 32.2884 46.2741 31.6196C46.3145 30.9296 46.3629 30.2395 46.4201 29.559C46.5755 27.7102 46.7955 25.9268 47.1035 24.3684C47.1043 24.367 47.1043 24.3655 47.1043 24.364C47.3345 23.198 47.6147 22.1582 47.9535 21.3126C48.0239 21.1359 48.0972 20.9672 48.1735 20.8081L48.2292 20.8125L48.5673 20.8404C50.1659 20.6013 52.1532 20.7832 53.4285 20.9804C53.727 21.0266 53.8546 21.3383 53.7431 21.6192Z" fill="#8CDDF9"/>
<path opacity="0.78" d="M54.1779 20.9672L53.3851 20.0293L49.8527 20.624L48.6735 20.187L48.5114 20.1268L47.781 21.042L47.5052 20.9188C47.1649 21.6764 46.7286 25.302 46.4191 29.559C46.37 30.2388 46.3238 30.934 46.2812 31.6372C46.6052 32.3342 46.9881 33.0669 47.434 33.8215L47.2342 34.9867L48.3559 36.5822L50.3721 35.2205L50.1282 22.8861L50.2807 22.7214L50.5375 23.1174C50.6555 23.3007 50.8858 23.3762 51.0904 23.3L53.4466 22.7324L54.0282 22.5923C54.6171 22.4368 54.5709 21.4329 54.1779 20.9672ZM49.4405 22.1138L47.816 31.5929C46.8928 26.7035 47.4118 23.4448 47.924 22.0262L48.1089 22.3518C48.2629 22.6239 48.6369 22.6686 48.8517 22.4413L49.5917 21.6588L49.9803 22.258L49.4405 22.1138Z" fill="#829FAF"/>
<path d="M57.9376 24.0788V46.5181H51.738C50.03 46.5181 48.6346 45.1519 48.6015 43.4439C48.5868 42.6651 48.5802 41.6414 48.592 40.4563C48.6396 35.5694 51.2789 27.6692 52.9941 23.5193L54.9176 20.7949L56.1372 21.3273C57.2307 21.8047 57.9376 22.8849 57.9376 24.0788Z" fill="#3C313F"/>
<path d="M49.8049 22.7257L49.8503 34.9519L48.1138 36.2547L46.9922 34.6591L49.2176 22.5938L49.8049 22.7257Z" fill="#261E28"/>
<path d="M47.4112 10.261C48.7757 12.3576 52.1596 8.1992 52.4399 11.9368C52.4399 11.9368 52.5045 13.1945 52.5737 14.4743C52.5856 14.6954 52.9585 14.8144 52.9926 14.4458C53.0449 13.8831 53.5145 12.9443 54.6756 13.3342C54.6756 13.3342 54.948 8.9362 50.5435 8.82862C47.7879 8.7613 46.49 8.84571 47.4112 10.261Z" fill="#231D1A"/>
<path d="M52.8983 35.6084C52.8983 38.5038 51.0821 40.851 48.8417 40.851C46.6013 40.851 44.7852 38.5038 44.7852 35.6084C44.7852 33.9404 45.3879 32.4544 46.3272 31.4941L48.314 35.2113L51.39 31.529C51.39 31.529 52.8983 33.9604 52.8983 35.6084Z" fill="#3C313F"/>
<path opacity="0.49" d="M57.9375 34.752V43.1186L57.9339 43.1208L45.125 39.9918L50.0628 36.5697L57.9375 34.752Z" fill="#261E28"/>
<path d="M49.2202 22.5723L49.8074 22.7043L49.8064 23.2019C49.7374 23.2377 49.6634 23.2332 49.5894 23.2157L49.3195 23.1517C49.2453 23.1341 49.1823 23.0881 49.1367 23.0249L49.2202 22.5723Z" fill="#231D1A"/>
<path d="M49.8969 22.763L50.5219 22.1439C50.653 22.014 50.6825 21.8015 50.5908 21.6462L50.2042 20.9913C50.158 20.913 50.0858 20.8584 50.0021 20.8386L49.8521 20.8031C49.7684 20.7833 49.6795 20.7997 49.603 20.849L48.9638 21.2609C48.8122 21.3586 48.7432 21.5618 48.8023 21.7367L49.0833 22.5702C49.1218 22.6845 49.2093 22.7679 49.3175 22.7935L49.5874 22.8573C49.6958 22.8831 49.8113 22.8478 49.8969 22.763Z" fill="#261E28"/>
<path d="M48.9638 21.261L49.603 20.849C49.6795 20.7997 49.7684 20.7833 49.8521 20.8032L50.0021 20.8386C50.0393 20.8474 50.1128 20.8488 50.1869 20.8544C50.2716 20.8609 50.2951 20.9744 50.2203 21.0146L50.2186 21.0156L48.9911 22.2968L48.8023 21.7367C48.7432 21.5619 48.8122 21.3587 48.9638 21.261Z" fill="#261E28"/>
<path d="M47.6758 20.8742L48.5713 20.0291C48.5715 20.0289 48.5718 20.0288 48.5721 20.0285L49.1955 19.6402C49.2027 19.6357 49.2121 19.6409 49.2121 19.6495V19.6535C49.2008 19.6446 49.2871 19.8393 49.4707 20.1204C49.764 20.5696 50.4437 20.3555 50.6074 20.3129L53.3612 19.6211C53.3654 19.6224 53.3686 19.6235 53.3729 19.6248L54.3072 20.7465C54.622 21.1041 54.7449 21.5866 54.286 21.7146L51.1308 22.6729C51.0276 22.7042 50.9164 22.6615 50.8608 22.5691L49.8467 20.8826C49.8438 20.8748 49.8335 20.8731 49.8283 20.8795L48.7007 22.0695C48.5933 22.1829 48.4068 22.1605 48.3294 22.0247C48.0944 21.6125 47.6757 20.8777 47.6758 20.8742Z" fill="#8CDDF9"/>
<path opacity="0.78" d="M54.3068 20.7465L53.3724 19.6248C53.3682 19.6235 53.365 19.6224 53.3608 19.6211L52.1016 19.9463C52.925 21.9725 52.8516 22.1501 52.8516 22.1501L54.3017 21.963C54.7606 21.835 54.6216 21.1041 54.3068 20.7465Z" fill="#829FAF"/>
<path d="M49.2129 19.6309C49.0179 19.8017 48.8383 19.9887 48.6733 20.1882C48.5112 20.384 48.3631 20.593 48.2281 20.8137C48.1291 20.9743 48.0375 21.1415 47.9524 21.3139C47.5079 22.2115 47.2425 23.2579 47.1032 24.3653C47.1032 24.3667 47.1032 24.3682 47.1025 24.3697C46.5246 28.9941 48.1584 34.6906 48.3015 35.1775C48.3081 35.1995 48.3117 35.2113 48.3117 35.2113C48.3073 35.2054 48.3037 35.1988 48.2993 35.1929C47.4655 33.9543 46.7981 32.7509 46.2812 31.6385C46.2783 31.6326 46.2761 31.6267 46.2731 31.6209C45.1196 29.1327 44.7163 27.0999 44.8718 26.1333C44.9069 25.9155 44.9642 25.7036 45.1299 25.5584L46.4587 24.5009L45.6895 23.5777C45.5831 23.4457 45.5487 23.266 45.6103 23.1091C45.9565 22.2247 46.5431 21.3865 47.1099 20.7639C48.1503 19.6199 49.2129 19.6309 49.2129 19.6309Z" fill="#5C4A60"/>
<path opacity="0.49" d="M53.9779 20.2441C53.9779 20.2441 54.1586 20.6849 53.8392 21.5647C53.0434 23.757 50.0385 31.1509 48.3125 35.2104V35.5467C48.3125 35.5467 53.577 30.8411 54.8647 27.332C54.9151 27.1946 54.8909 27.0418 54.813 26.9179L53.6904 25.1345L55.4571 24.3947C55.6084 24.3313 55.7226 24.2034 55.7676 24.0457C55.8806 23.6493 56.0358 22.786 55.8328 21.3983C55.8328 21.3983 54.7478 20.6455 53.9779 20.2441Z" fill="#261E28"/>
<path d="M55.4896 23.8571C55.4442 24.0147 55.3304 24.1423 55.1787 24.2054L53.4121 24.9453L54.5348 26.7288C54.6126 26.8527 54.6324 27.0038 54.5869 27.1431C53.7634 29.6643 48.3968 35.124 48.3125 35.2098C50.6262 28.7939 52.3546 24.5684 53.2764 22.1396C53.382 21.8617 53.4766 21.6072 53.561 21.3762C53.8807 20.4962 53.6784 19.8164 53.6784 19.8164C54.2995 20.1398 55.0951 20.6597 55.379 20.8475C55.4472 20.8929 55.486 20.9193 55.486 20.9193C55.896 21.9423 55.6026 23.4603 55.4896 23.8571Z" fill="#5C4A60"/>
<path d="M53.3796 37.5723L49.8075 38.2697L48.8829 38.4501L48.6145 38.5432L47.8796 38.7977L45.5345 39.6095L45.0908 37.3655L44.7812 35.8013C44.7812 35.8013 46.3513 35.4493 47.8225 36.1943C47.9104 36.2391 48.005 36.2743 48.1062 36.3021C48.2302 36.3359 48.3621 36.3579 48.5015 36.3703H48.5029C50.1588 36.5104 52.7797 35.2109 52.7797 35.2109C52.7797 35.2109 53.3414 36.2677 53.3796 37.5723Z" fill="#FFC48F"/>
<path d="M46.7041 41.0536L46.7025 41.0552C46.6588 41.1003 46.5966 41.1225 46.5342 41.1152L39.638 40.3062C39.5619 40.2972 39.4975 40.246 39.4717 40.1738L36.0625 30.6366C36.0367 30.5643 36.0542 30.4836 36.1076 30.4285L36.1094 30.4266C36.1519 30.3827 36.212 30.3605 36.2728 30.3661L43.3215 31.0189C43.401 31.0262 43.4686 31.0798 43.4941 31.1554L46.7504 40.8491C46.7744 40.9206 46.7565 40.9995 46.7041 41.0536Z" fill="#7C7E93"/>
<path d="M46.4648 41.1129L39.4268 40.4612C39.3838 40.4572 39.3472 40.4282 39.3334 40.3872L36.0722 30.6792C36.0471 30.6044 36.1072 30.5284 36.1858 30.5356L43.2237 31.1874C43.2668 31.1914 43.3034 31.2204 43.3172 31.2613L46.5784 40.9694C46.6035 41.0443 46.5434 41.1203 46.4648 41.1129Z" fill="#50525B"/>
<path d="M40.0694 35.8083C38.9615 35.5877 38.511 35.3086 38.511 35.3086C38.511 35.3086 40.5114 35.8375 40.618 35.0065C40.7055 34.3249 37.1624 33.8614 37.1624 33.8614L36.9745 33.3594C36.9745 33.3594 36.9738 33.36 36.9727 33.361L38.3247 37.3859C38.9573 37.5078 39.4163 37.0488 39.4673 36.8874C40.1871 37.127 41.235 36.0405 40.0694 35.8083Z" fill="#393C44"/>
<path d="M42.9771 40.0728C42.9771 40.0728 42.2979 39.8694 42.5079 39.1572C42.5079 39.1572 41.7092 38.3476 42.6977 38.2013C42.6977 38.2013 44.485 38.6036 45.7337 37.7148L46.3246 40.9598C46.2853 40.9807 46.2486 40.9992 46.2169 41.0133C46.1349 41.05 46.0161 41.0765 45.8735 41.093L43.0586 40.3003C43.0162 40.2293 42.9873 40.1538 42.9771 40.0728Z" fill="#303238"/>
<path d="M48.8828 38.3235C48.8828 38.3235 48.7816 38.4079 48.6181 38.5428C48.4267 38.6997 48.1494 38.9256 47.8496 39.1647C47.2659 39.6296 46.5941 40.1437 46.2942 40.2977C45.7083 40.5991 43.1797 40.4773 43.0075 39.5365C43.0075 39.5365 42.3181 39.3707 42.489 38.6484C42.489 38.6484 41.6471 37.8835 42.6261 37.6833C42.6261 37.6833 43.9593 37.9077 45.0945 37.3651C45.4787 37.1817 45.8395 36.9104 46.119 36.5137L47.9802 37.7325L48.8828 38.3235Z" fill="#FFC48F"/>
<path d="M49.8092 38.2691L48.8846 38.4495L48.6162 38.5426C48.4248 38.6996 48.1475 38.9254 47.8477 39.1645L47.8814 38.7971L47.9782 37.7323L48.1079 36.3016L48.1124 36.2539L48.5033 36.3698H48.5046L49.6707 36.7152L49.8092 38.2691Z" fill="#ED985F"/>
<path d="M48.9129 36.0204L48.2539 36.1523L48.8673 39.216L49.5263 39.0841L48.9129 36.0204Z" fill="white"/>
<path d="M54.6002 33.7208L48.6055 35.5843L49.5243 39.742L56.9892 37.5577C58.5141 37.0161 59.5205 35.9589 59.4866 34.341C59.4118 30.7737 59.2906 26.3629 59.2252 24.5133C59.1563 22.5642 56.7109 21.6602 56.7109 21.6602C56.7109 21.6602 55.1097 23.0568 55.1097 28.9952V32.9919C55.1049 33.3162 54.9031 33.6048 54.6002 33.7208Z" fill="#4B4051"/>
<path d="M41.6795 35.5489C41.7985 35.8974 41.6479 36.1799 41.3432 36.1799C41.0384 36.1799 40.6948 35.8974 40.5759 35.5489C40.4569 35.2004 40.6075 34.918 40.9122 34.918C41.217 34.918 41.5606 35.2004 41.6795 35.5489Z" fill="white"/>
<path d="M54.6016 33.7219L56.8433 34.9122L55.1407 33.2656L54.6016 33.7219Z" fill="#3C313F"/>
<path d="M49.6295 14.3526C49.7838 14.0773 50.3079 13.3571 51.3276 13.9461C51.3929 13.9838 51.3906 14.0844 51.3224 14.1154C51.0765 14.2272 50.5312 14.423 49.6833 14.4488C49.6362 14.4502 49.6054 14.3955 49.6295 14.3526Z" fill="white"/>
<path d="M50.2451 13.9551C50.0306 13.9588 49.8597 14.1357 49.8633 14.3502C49.8641 14.3936 49.8722 14.4351 49.8861 14.4739C50.1775 14.4553 50.4284 14.4185 50.6389 14.3743C50.6399 14.362 50.6404 14.3495 50.6402 14.3369C50.6365 14.1223 50.4596 13.9515 50.2451 13.9551Z" fill="#231D1A"/>
<path d="M48.3863 14.431C48.2842 14.2055 47.823 13.3765 46.771 13.965C46.7284 13.9888 46.7269 14.0541 46.7693 14.0774C46.9694 14.1871 47.4922 14.4241 48.3545 14.4816C48.3794 14.4833 48.3972 14.4551 48.3863 14.431Z" fill="white"/>
<path d="M47.4881 13.8711C47.6853 13.9123 47.8118 14.1057 47.7706 14.3029C47.7623 14.3429 47.7474 14.3797 47.7279 14.4131C47.4623 14.3446 47.2371 14.2662 47.0508 14.1884C47.0521 14.1769 47.0538 14.1652 47.0562 14.1536C47.0974 13.9564 47.2908 13.8299 47.4881 13.8711Z" fill="#231D1A"/>
<path d="M51.4672 13.998C51.4672 13.998 50.8013 14.6053 49.5781 14.4445" stroke="#FFC48F" stroke-width="1.8167" stroke-miterlimit="10"/>
<path d="M46.6914 13.9922C46.6914 13.9922 47.1569 14.5008 48.4104 14.4608" stroke="#FFC48F" stroke-width="1.8167" stroke-miterlimit="10"/>
<path d="M48.1655 12.6661C47.8458 12.2268 47.0623 12.2908 46.7111 12.6591C46.5632 12.8142 46.7983 13.0501 46.9466 12.8946C47.133 12.6991 47.6874 12.5722 47.878 12.8341C48.0028 13.0058 48.2919 12.8398 48.1655 12.6661Z" fill="#231D1A"/>
<path d="M49.9626 12.7662C50.2696 12.5824 50.754 12.6187 51.027 12.8403C51.192 12.9742 51.4291 12.74 51.2625 12.6048C50.8714 12.2873 50.2394 12.2124 49.7945 12.4787C49.6107 12.5886 49.778 12.8767 49.9626 12.7662Z" fill="#231D1A"/>
<path d="M41.2194 48.0523L35.0475 50.8038C35.4834 49.0602 30.5057 41.5798 29.1197 39.6946C28.4374 38.7665 27.2636 37.6424 26.8391 37.3631C25.6484 36.5795 24.5131 36.1507 23.3449 35.7419C21.6926 35.1636 19.0847 35.9005 17.4514 36.9601C16.6077 37.5074 16.0997 38.483 16.0352 39.4866L16.0674 55.8269H28.3906V47.1674L32.7603 52.0556C33.0628 52.472 33.5464 52.7184 34.0611 52.7184H41.4593L41.2194 48.0523Z" fill="#392D3B"/>
<path d="M23.378 54.9295C23.378 54.9295 22.8144 35.3297 23.3568 35.4124C23.3898 35.4174 23.4228 35.4222 23.4554 35.4278C27.7495 36.1728 27.9751 40.2163 28.0829 41.4903L27.0494 42.4033L28.0409 43.4416C27.859 49.4355 23.378 54.9295 23.378 54.9295Z" fill="#4B4051"/>
<path d="M22.8332 35.4083C22.8332 35.4083 20.5633 35.2779 18.1079 37.0762C18.1079 37.0762 16.9791 42.508 22.4562 53.0168C21.5189 40.4809 18.8293 37.7333 19.7109 36.9031C20.4572 36.2002 22.8332 35.4083 22.8332 35.4083Z" fill="#392D3B"/>
<path d="M19.6094 37.9699C19.6094 37.9699 22.5767 50.1672 22.6397 55.7537L24.3749 51.2356C25.037 49.5802 25.2443 47.7872 25.5108 46.3591C26.5249 40.9235 25.8734 38.3266 25.8734 38.3266C25.8734 38.3266 24.3653 35.3794 19.6094 37.9699Z" fill="#FFFFF3"/>
<path d="M23.9026 55.8311C25.0159 55.8311 25.9184 55.0189 25.9184 54.0171C25.9184 53.0153 25.0159 52.2031 23.9026 52.2031C22.7893 52.2031 21.8867 53.0153 21.8867 54.0171C21.8867 55.0189 22.7893 55.8311 23.9026 55.8311Z" fill="#4B4051"/>
<path d="M21.6974 36.5859C21.6974 36.5859 21.6355 37.7541 23.7313 38.3276H25.8749C26.3735 40.0696 25.298 41.1294 25.298 41.1294L23.7545 39.0927L22.5024 41.5994C22.5024 41.5994 19.4925 40.6658 19.6632 37.6341L21.6974 36.5859Z" fill="#C0A2AC"/>
<path d="M24.1894 53.0977L24.015 54.0288C23.8765 54.1453 23.6377 54.1498 23.4935 54.0385L22.3404 53.1498C22.2709 53.0962 22.234 53.023 22.2387 52.9478L23.0048 40.479C23.0136 40.336 23.1671 40.2222 23.3557 40.2187L23.4526 40.2169C23.6412 40.2134 23.8003 40.3213 23.8163 40.4637L24.2807 52.892C24.2893 52.9671 24.2561 53.0415 24.1894 53.0977Z" fill="#C0A2AC"/>
<path d="M24.5883 39.8068L24.1252 40.7552C23.9918 41.0281 23.669 41.016 23.4766 40.731L22.8079 39.7405C22.6281 39.4741 22.6531 39.1005 22.8603 38.9573L23.3855 38.5945C23.4951 38.5188 23.6054 38.242 23.7319 38.3264L24.6411 38.7992C24.8806 38.9591 24.7129 39.5517 24.5883 39.8068Z" fill="#F21C3B"/>
<path d="M21.7641 35.3125C21.7641 35.3125 21.6338 37.754 23.7296 38.3276L22.3413 40.8522C22.3413 40.8522 19.6094 39.5671 19.6094 37.0308C19.6094 36.7943 19.6405 36.5943 19.8297 36.3508C20.0357 36.0857 20.3168 35.9245 20.6298 35.803L21.7641 35.3125Z" fill="#FFFFF3"/>
<path d="M20.5388 38.4296C20.2584 37.2219 20.8886 35.9846 22.033 35.5078C22.0378 35.5058 22.0424 35.5039 22.0471 35.5019C22.0289 35.3365 22.0236 35.2016 22.0226 35.1113C21.8733 35.1342 21.7153 35.1613 21.5509 35.1932L20.8289 35.5055C20.4992 35.6335 20.203 35.8032 19.9859 36.0826C19.7865 36.3392 19.6871 37.0409 19.6785 37.2899C19.632 38.6384 20.187 39.7718 21.2559 40.3455C21.1283 39.7361 20.6425 38.8768 20.5388 38.4296Z" fill="#C0A2AC"/>
<path d="M23.7305 38.326L25.4136 40.3452C25.4136 40.3452 26.8432 38.4246 24.8837 36.7852L23.7305 38.326Z" fill="#FFFFF3"/>
<path d="M24.3985 52.7996C24.2554 53.085 24.0716 52.9193 23.9455 52.8131L22.9377 50.2882C22.877 50.237 22.8444 50.1667 22.8479 50.0939L23.4278 40.7138C23.4345 40.5758 23.567 40.4646 23.7309 40.4597L23.8151 40.4572C23.979 40.4523 24.118 40.5553 24.1329 40.6927L25.2079 48.1161C25.2078 48.1161 24.9439 51.7428 24.3985 52.7996Z" fill="#F21C3B"/>
<path d="M14.7031 55.0562V43.0449L17.3429 43.0855V47.9587C17.3429 48.5671 17.7729 49.0906 18.3696 49.2088L20.8612 49.7026L24.2811 54.8687L14.7031 55.0562Z" fill="#272028"/>
<path d="M22.336 52.8243C22.3416 52.8353 22.3528 52.8422 22.3651 52.8422L23.3187 52.7537C23.3187 52.7537 19.4031 37.3128 19.2839 37.008C19.2802 36.9984 19.2813 36.9881 19.2865 36.9793C19.9633 35.8525 21.7647 35.3125 21.7647 35.3125C21.7647 35.3125 21.5707 35.4739 20.4227 35.7249C18.0764 36.238 16.5756 38.5458 17.0711 40.8959C17.1838 41.4305 17.3571 42.0231 17.6096 42.6765C17.6132 42.6858 17.6209 42.6931 17.6304 42.6961L19.2493 43.2097C19.2699 43.2162 19.2785 43.2406 19.2667 43.2588L18.2745 44.7706C18.2682 44.7803 18.2674 44.7928 18.2727 44.8032L22.336 52.8243Z" fill="#272028"/>
<path d="M23.4354 53.2403H24.1682C22.9091 46.3284 20.7124 40.7657 20.1579 38.3768C19.8919 37.2306 20.4899 36.0563 21.5761 35.6037C22.2794 35.3108 22.8894 35.1074 22.8894 35.1074C22.8894 35.1074 22.0084 35.1074 20.8606 35.3583C18.514 35.8713 17.013 38.1795 17.5087 40.5298C17.6223 41.0684 17.7972 41.6658 18.0529 42.3248L19.7279 42.8562L18.7017 44.4199L23.4354 53.2403Z" fill="#4B4051"/>
<path d="M28.3867 43.1895V47.1684L31.0932 52.0566C31.3574 52.4204 33.4231 52.6542 33.8637 52.7076L33.2565 50.0874L31.5831 48.7443L28.3867 43.1895Z" fill="#272028"/>
<path d="M32.8548 49.7681C31.5837 49.817 29.8725 51.3815 30.5081 53.5325C31.1437 55.6836 35.397 53.777 35.4948 53.9236C35.5925 54.0703 35.2504 50.697 35.1525 50.5503C35.0548 50.4036 34.1259 49.7192 32.8548 49.7681Z" fill="#392D3B"/>
<path d="M31.4681 50.4104C30.3669 50.4527 28.8845 51.808 29.4351 53.6716C29.9857 55.5351 33.6705 53.8834 33.7552 54.0104C33.8399 54.1375 34.8988 53.1209 33.4587 51.088C33.3704 50.9634 32.5692 50.368 31.4681 50.4104Z" fill="#272028"/>
<path d="M33.5151 53.8846C33.4176 54.3671 33.1368 54.5849 33.095 54.5219C33.0099 54.395 29.3256 56.0465 28.7749 54.1831C28.7287 54.0291 28.6972 53.878 28.6788 53.7306C28.5768 52.9503 28.8306 52.2815 29.2332 51.7924C29.2332 51.7917 29.2332 51.7917 29.234 51.7917C29.671 51.2607 30.2827 50.9417 30.8077 50.9219C31.9092 50.8794 32.5604 51.1852 32.9454 51.5152C34.1021 52.5067 33.6046 53.4475 33.5151 53.8846Z" fill="#FFFFF3"/>
<path d="M32.9525 53.7436C32.9466 53.7949 32.9385 53.8426 32.9297 53.8866L28.0934 53.7326L27.7891 53.723L27.9783 53.0938C28.1117 52.5226 28.2643 52.0606 28.6478 51.7944C28.6478 51.7936 28.6478 51.7936 28.6485 51.7936C29.0035 51.5472 29.5557 51.4688 30.4716 51.6272C30.6395 51.6565 30.7921 51.6807 30.9314 51.7034C31.6911 51.8259 32.0689 51.8838 32.4883 52.2138C32.9349 52.5658 33.0075 53.2845 32.9525 53.7436Z" fill="#FFA87D"/>
<path d="M32.9508 53.7433C32.1544 53.8635 30.9825 53.9479 30.9466 53.4052C30.8916 52.5802 31.2399 52.6352 31.5882 52.5435C31.9366 52.4519 31.9182 51.9752 31.0932 51.7552C31.0302 51.7383 30.9759 51.7215 30.9297 51.7031C31.6894 51.8256 32.0672 51.8835 32.4866 52.2135C32.9332 52.5655 33.0058 53.2842 32.9508 53.7433Z" fill="#FF855A"/>
<path d="M18.5043 51.8948L20.3744 52.3927L23.2774 51.3749C23.4472 51.2797 23.6278 51.352 23.8171 51.3974C24.6283 51.5922 25.8122 52.0153 26.7688 52.348C27.2992 52.5324 27.8331 53.3124 28.1214 53.3868C28.9299 53.5955 29.4781 53.8268 29.4781 53.8268C29.5015 54.0403 26.7585 54.3558 26.5448 54.3768L24.6381 53.4235L23.1591 54.6346C22.4163 54.9617 21.5825 55.0185 20.8022 54.7951L18.0078 53.9953L18.5043 51.8948Z" fill="#FFA87D"/>
<path d="M24.4926 52.9836C24.4926 52.9836 23.0852 54.6619 22.0476 54.7167C21.2627 54.7581 19.2365 53.2333 18.2965 52.4883L18.1172 53.2468L18.3604 54.1446L20.7283 54.8224C21.5086 55.0458 22.3424 54.9889 23.0852 54.6619L24.5292 53.7536L25.8126 54.3402C25.9562 54.3261 27.1148 53.4 27.1692 53.2769C26.0692 53.2402 24.4926 52.9836 24.4926 52.9836Z" fill="#FF855A"/>
<path d="M21.4886 54.8676L19.2695 54.7094L19.7653 51.9199L20.7494 52.0781L21.0119 52.1033C21.7086 52.7999 21.8673 54.7799 21.0486 54.8502L21.4886 54.8676Z" fill="#FFFFF3"/>
<path d="M19.1415 56.2098L20.0288 55.5059C20.8967 54.9216 20.8964 53.4017 20.471 51.8802C20.4421 51.7766 20.3577 51.6978 20.2524 51.676L15.3282 51.2598C15.172 51.2274 15.072 51.0742 15.1052 50.9182L17.4753 42.9552C17.4912 42.8802 17.476 42.8021 17.434 42.738C17.1889 42.3646 16.3648 40.9489 16.5869 39.091C16.7651 37.6007 17.7425 36.8187 18.7402 36.3492L19.254 36.0684C17.9217 36.4629 15.6188 37.3012 14.5199 38.6271C13.6107 39.7242 10.8369 47.9214 9.90319 51.1311C9.31652 53.1478 9.82986 54.1378 10.7099 54.5411C11.892 55.083 19.1415 56.2098 19.1415 56.2098Z" fill="#392D3B"/>
<path d="M15.8163 50.7539C15.8163 50.7539 15.8092 50.7625 15.796 50.7786C15.7821 50.7936 15.7631 50.8179 15.7364 50.8441C15.6843 50.8993 15.6075 50.973 15.5108 51.052C15.4143 51.1314 15.2978 51.2163 15.1687 51.298C15.1042 51.3391 15.0366 51.3797 14.9666 51.4182C14.8971 51.4578 14.8245 51.4938 14.7522 51.5304C14.6788 51.5648 14.6058 51.5998 14.5317 51.6299C14.4585 51.6618 14.3845 51.6892 14.3126 51.7149C14.1686 51.7661 14.0299 51.8052 13.9078 51.8321C13.7858 51.8593 13.6803 51.8741 13.6048 51.8807C13.5677 51.8855 13.5367 51.8855 13.5163 51.8871C13.4954 51.8875 13.4844 51.8877 13.4844 51.8877C13.4844 51.8877 13.4914 51.8791 13.5046 51.8629C13.5185 51.8479 13.5375 51.8235 13.5643 51.7973C13.6162 51.742 13.693 51.6682 13.7897 51.589C13.8862 51.5096 14.0025 51.4247 14.1318 51.343C14.1965 51.3023 14.2638 51.2611 14.334 51.2232C14.4034 51.1836 14.4761 51.1478 14.5484 51.1112C14.6219 51.0769 14.6951 51.0422 14.7692 51.012C14.8426 50.9806 14.9163 50.9526 14.9884 50.9273C15.1325 50.8762 15.2711 50.8371 15.3932 50.8102C15.5151 50.7829 15.6206 50.7681 15.696 50.7612C15.7331 50.7563 15.7642 50.7563 15.7844 50.7546C15.8052 50.7542 15.8163 50.7539 15.8163 50.7539Z" fill="#272028"/>
<path d="M25.8288 25.3652C25.8288 25.3652 28.5548 26.2215 27.6851 30.2498L23.4061 29.9296L22.5039 26.7242C22.5039 26.7242 25.226 26.9101 25.8288 25.3652Z" fill="#54261F"/>
<path d="M28.4854 31.8029C28.9018 33.7387 27.4722 35.6881 25.2923 36.157L25.2126 36.1742C23.0327 36.6431 20.7146 34.4124 20.5115 33.5181L19.9041 30.6942C19.4877 28.7584 20.9173 26.8089 23.0972 26.3401L23.1769 26.3229C25.3568 25.854 27.4615 27.0432 27.878 28.979L28.4854 31.8029Z" fill="#FF855A"/>
<path d="M21.7909 33.936C21.6819 34.7862 21.573 35.6364 21.4641 36.4867C21.3426 37.4346 22.2412 38.5947 23.7294 38.3269C24.76 38.1414 24.8584 37.0046 24.8584 37.0046C24.8584 37.0046 25.1791 34.7863 25.2881 33.9361C25.4095 32.9882 24.4008 32.1875 23.5395 32.1875C23.0776 32.1875 22.6295 32.3732 22.3031 32.6997C21.9432 33.0594 21.853 33.4516 21.7909 33.936Z" fill="#FF855A"/>
<path d="M28.4214 31.5141C28.8188 33.3613 28.0644 34.8098 26.2915 35.3341C24.1616 35.9639 22.062 34.8147 21.6646 32.9675L21.085 30.273C20.6877 28.4258 21.863 26.6062 23.7102 26.2089L23.7777 26.1944C25.6515 25.8251 27.3857 26.2218 27.8418 28.8196L28.4214 31.5141Z" fill="#FFA87D"/>
<path d="M27.0508 24.1934C27.0508 24.1934 27.0471 24.1978 27.0391 24.2066C27.0419 24.1992 27.0456 24.1948 27.0508 24.1934Z" fill="#723529"/>
<path d="M27.075 24.7636C27.075 24.7636 26.1847 26.4298 23.9591 26.7202C21.1863 27.0817 21.8853 29.7774 22.1074 31.3981C22.1279 31.5492 22.1367 31.687 22.1353 31.8124C22.1265 32.845 21.4548 33.0459 21.4548 33.0459C21.523 33.2248 21.5707 33.4192 21.6044 33.6157C21.7371 34.3952 21.6411 35.2056 21.6411 35.2056C21.6411 35.2056 21.1717 34.6394 19.9411 33.3466C18.6387 31.9789 18.3711 30.1844 19.2503 28.8358C19.3163 25.6664 21.6337 24.1938 24.9249 24.7636C25.425 24.8502 25.942 24.9917 26.374 24.7248C26.7832 24.4718 26.9899 24.2606 27.0399 24.207C27.0017 24.2943 27.0691 24.7673 27.0677 24.768L27.075 24.7636Z" fill="#723529"/>
<path d="M21.454 33.046C21.5222 33.225 21.5698 33.4193 21.6036 33.6158C21.0873 33.7522 20.4544 33.4332 20.0958 32.818C19.6829 32.111 19.7886 31.2816 20.3304 30.9648C20.8731 30.648 21.6475 30.9641 22.0604 31.671C22.0875 31.718 22.1124 31.7649 22.1344 31.8126C22.1257 32.8451 21.454 33.046 21.454 33.046Z" fill="#54261F"/>
<path d="M22.0217 31.4119C22.377 32.1492 22.2883 32.9284 21.8236 33.1524C21.3589 33.3764 20.6942 32.9603 20.3389 32.223C19.9836 31.4857 20.0723 30.7064 20.537 30.4825C21.0016 30.2585 21.6664 30.6746 22.0217 31.4119Z" fill="#FFA87D"/>
<path d="M21.7909 33.9648C21.6819 34.8151 21.573 35.6653 21.4641 36.5156C21.3426 37.4635 22.2412 38.6236 23.7294 38.3557L21.7909 33.9648Z" fill="#FFA87D"/>
<path d="M36.9071 33.084C36.9071 33.084 35.5653 34.2371 37.1433 36.3006C38.2908 37.8012 39.3221 36.8586 39.3999 36.612C40.1197 36.8516 41.1676 35.7651 40.002 35.533C38.8941 35.3124 38.4435 35.0333 38.4435 35.0333C38.4435 35.0333 40.4439 35.5622 40.5506 34.7312C40.6381 34.0496 37.095 33.5861 37.095 33.5861L36.9071 33.084Z" fill="#FFC48F"/>
<path d="M22.1308 31.6323C22.1308 31.6323 21.1348 28.9116 22.5053 27.0422C23.9507 25.0705 26.7882 25.9496 27.0515 24.1953C27.0515 24.1953 28.7846 25.4737 27.6604 27.5816C27.6604 27.5816 27.0752 26.2221 25.8302 26.3892C24.5895 26.5556 21.2163 26.6108 22.1308 31.6323Z" fill="#54261F"/>
<path d="M47.8438 53.926C47.8438 54.4569 47.4134 54.8873 46.8825 54.8873H27.887C27.3561 54.8873 26.9258 54.4569 26.9258 53.926V53.9066C26.9258 53.3756 27.3562 52.9453 27.887 52.9453H46.8825C47.4134 52.9453 47.8438 53.3757 47.8438 53.9066V53.926Z" fill="#79698E"/>
<path d="M26.9258 53.916V53.9257C26.9258 54.4566 27.3562 54.8869 27.887 54.8869H46.8825C47.4134 54.8869 47.8437 54.4566 47.8437 53.9257V53.916H26.9258Z" fill="#615B6B"/>
<path d="M34.4112 53.926C34.4112 54.4569 33.9808 54.8873 33.4499 54.8873H25.7347C25.2038 54.8873 24.7734 54.4569 24.7734 53.926V53.9066C24.7734 53.3756 25.2038 52.9453 25.7347 52.9453H33.4499C33.9809 52.9453 34.4112 53.3757 34.4112 53.9066V53.926Z" fill="#DCD4E8"/>
<path d="M33.586 53.8418C31.1832 53.8418 28.7805 53.8418 26.3778 53.8418C26.0414 53.8418 25.705 53.8418 25.3686 53.8418C25.2731 53.8418 25.2729 53.9902 25.3686 53.9902C27.7713 53.9902 30.174 53.9902 32.5768 53.9902C32.9132 53.9902 33.2496 53.9902 33.5859 53.9902C33.6816 53.9902 33.6817 53.8418 33.586 53.8418Z" fill="#CEBFE0"/>
<path d="M49.9436 39.7734H37.1693C36.9067 39.7734 36.6791 39.9552 36.6209 40.2112L33.8853 52.2587C33.8054 52.6105 34.0729 52.9456 34.4337 52.9456H47.208C47.4706 52.9456 47.6982 52.7639 47.7564 52.5078L50.492 40.4604C50.5719 40.1084 50.3044 39.7734 49.9436 39.7734Z" fill="#DCD4E8"/>
<path d="M50.4866 39.7734H37.7123C37.4497 39.7734 37.222 39.9552 37.1639 40.2112L34.4283 52.2587C34.3483 52.6105 34.6159 52.9456 34.9767 52.9456H47.751C48.0136 52.9456 48.2412 52.7639 48.2993 52.5078L51.035 40.4604C51.1149 40.1084 50.8475 39.7734 50.4866 39.7734Z" fill="#9791A8"/>
<path d="M44.1571 47.9038C44.7133 47.3892 44.8071 46.5861 44.3665 46.1099C43.926 45.6338 43.118 45.665 42.5618 46.1796C42.0056 46.6942 41.9118 47.4973 42.3523 47.9735C42.7929 48.4496 43.6009 48.4184 44.1571 47.9038Z" fill="white"/>
<path d="M32.6174 53.9162C32.6174 54.023 32.5308 54.1097 32.4239 54.1097H31.1623C31.0554 54.1097 30.9688 54.0231 30.9688 53.9162C30.9688 53.8093 31.0554 53.7227 31.1623 53.7227H32.4239C32.5308 53.7227 32.6174 53.8093 32.6174 53.9162Z" fill="#9B8AAD"/>
<path d="M32.1838 53.9162C32.1838 54.023 32.0972 54.1097 31.9903 54.1097H30.7287C30.6218 54.1097 30.5352 54.0231 30.5352 53.9162C30.5352 53.8093 30.6218 53.7227 30.7287 53.7227H31.9903C32.0972 53.7227 32.1838 53.8093 32.1838 53.9162Z" fill="white"/>
<path d="M29.8284 53.9162C29.8284 54.023 29.7418 54.1097 29.6348 54.1097H28.3732C28.2664 54.1097 28.1797 54.0231 28.1797 53.9162C28.1797 53.8093 28.2663 53.7227 28.3732 53.7227H29.6348C29.7418 53.7227 29.8284 53.8093 29.8284 53.9162Z" fill="#9B8AAD"/>
<path d="M29.3987 53.9162C29.3987 54.023 29.3121 54.1097 29.2052 54.1097H27.9435C27.8367 54.1097 27.75 54.0231 27.75 53.9162C27.75 53.8093 27.8366 53.7227 27.9435 53.7227H29.2052C29.312 53.7227 29.3987 53.8093 29.3987 53.9162Z" fill="#B3A3C1"/>
<path d="M61.2474 54.7773H5.03516V56.2236H61.2474V54.7773Z" fill="#B36849"/>
<path d="M61.248 54.7773H18.2188V56.2236H61.248V54.7773Z" fill="#E68F4C"/>
<path d="M26.084 32.5249C26.4733 32.4844 26.8085 32.2333 26.8974 31.8401C26.9992 31.3902 26.706 31.0239 26.32 30.8347C26.1717 30.7621 26.041 30.9842 26.19 31.0571C26.4704 31.1946 26.7168 31.4317 26.6491 31.7716C26.5943 32.0463 26.3572 32.2388 26.0841 32.2672C25.9208 32.2844 25.919 32.5421 26.084 32.5249Z" fill="#FF855A"/>
<path d="M23.4842 29.354C23.9335 29.0416 24.4062 28.9902 24.924 29.1683C25.0811 29.2223 25.1486 28.9736 24.9925 28.9199C24.4193 28.7228 23.8542 28.7839 23.3542 29.1316C23.219 29.2256 23.3477 29.449 23.4842 29.354Z" fill="#723529"/>
<path d="M26.359 28.8965C26.6641 28.6824 26.9733 28.6428 27.2958 28.8564C27.4344 28.9483 27.5635 28.7253 27.4258 28.634C27.0356 28.3755 26.6057 28.4099 26.2289 28.6741C26.0942 28.7685 26.2228 28.992 26.359 28.8965Z" fill="#723529"/>
<path d="M26.2924 28.9139C26.4581 28.9139 26.4584 28.6562 26.2924 28.6562C26.1266 28.6562 26.1264 28.9139 26.2924 28.9139Z" fill="#723529"/>
<path d="M25.0094 30.4566C25.0287 30.7544 24.8029 31.0115 24.5051 31.0308C24.2073 31.0502 23.9501 30.8244 23.9308 30.5266C23.9115 30.2288 24.1373 29.9717 24.4351 29.9523C24.7329 29.933 24.99 30.1588 25.0094 30.4566Z" fill="white"/>
<path d="M48.3805 14.1968C48.3998 14.4946 48.174 14.7517 47.8762 14.7711C47.5784 14.7904 47.3212 14.5646 47.3019 14.2668C47.2826 13.969 47.5084 13.7119 47.8062 13.6926C48.104 13.6733 48.3611 13.899 48.3805 14.1968Z" fill="white"/>
<path d="M23.9291 30.5299C23.9513 30.267 24.0839 30.0163 24.3603 29.9561C24.61 29.9018 24.8403 30.0361 24.9726 30.2424C25.0209 30.3178 25.1418 30.2479 25.0932 30.172C24.9272 29.9132 24.6346 29.7501 24.3231 29.8215C23.9841 29.8991 23.8169 30.2043 23.7894 30.5299C23.7818 30.6194 23.9215 30.6189 23.9291 30.5299Z" fill="#DD7C5E"/>
<path d="M24.5739 30.0007C24.5143 30.0046 24.4602 30.025 24.4133 30.0553C24.4424 30.0735 24.4628 30.1047 24.4652 30.1415C24.4692 30.2023 24.4231 30.2547 24.3623 30.2587C24.3291 30.2609 24.2987 30.2477 24.2771 30.2258C24.2623 30.2676 24.2555 30.313 24.2585 30.3601C24.2706 30.5464 24.4315 30.6876 24.6178 30.6755C24.8041 30.6634 24.9453 30.5025 24.9332 30.3163C24.9211 30.1299 24.7602 29.9886 24.5739 30.0007Z" fill="#5E2600"/>
<path d="M47.9411 13.7429C47.8815 13.7468 47.8274 13.7672 47.7805 13.7975C47.8096 13.8157 47.83 13.8469 47.8324 13.8837C47.8364 13.9445 47.7903 13.9969 47.7295 14.0009C47.6963 14.0031 47.6659 13.9899 47.6442 13.968C47.6295 14.0098 47.6227 14.0552 47.6257 14.1022C47.6378 14.2886 47.7987 14.4298 47.985 14.4177C48.1713 14.4056 48.3125 14.2447 48.3004 14.0585C48.2883 13.8721 48.1274 13.7308 47.9411 13.7429Z" fill="#5E2600"/>
<path d="M27.3844 29.9624C27.4037 30.2602 27.1779 30.5173 26.8801 30.5367C26.5823 30.5561 26.3252 30.3303 26.3058 30.0325C26.2865 29.7346 26.5123 29.4775 26.8101 29.4582C27.1079 29.4389 27.365 29.6646 27.3844 29.9624Z" fill="white"/>
<path d="M50.7555 13.7046C50.7748 14.0024 50.549 14.2595 50.2512 14.2789C49.9534 14.2982 49.6963 14.0724 49.6769 13.7746C49.6576 13.4768 49.8834 13.2197 50.1812 13.2004C50.479 13.1811 50.7361 13.4068 50.7555 13.7046Z" fill="white"/>
<path d="M26.3041 30.0377C26.3263 29.7748 26.4589 29.5242 26.7353 29.464C26.985 29.4096 27.2153 29.5439 27.3476 29.7502C27.3959 29.8256 27.5168 29.7557 27.4681 29.6798C27.3022 29.4211 27.0096 29.258 26.6981 29.3293C26.3591 29.4069 26.1919 29.7121 26.1644 30.0377C26.1569 30.1273 26.2965 30.1267 26.3041 30.0377Z" fill="#DD7C5E"/>
<path d="M26.949 29.5085C26.8894 29.5124 26.8352 29.5328 26.7884 29.5631C26.8175 29.5813 26.8379 29.6125 26.8402 29.6493C26.8442 29.7101 26.7981 29.7626 26.7373 29.7665C26.7041 29.7687 26.6737 29.7556 26.6521 29.7336C26.6373 29.7754 26.6305 29.8208 26.6335 29.8679C26.6456 30.0542 26.8064 30.1954 26.9928 30.1833C27.1791 30.1712 27.3203 30.0104 27.3082 29.8241C27.2961 29.6377 27.1353 29.4964 26.949 29.5085Z" fill="#5E2600"/>
<path d="M50.3201 13.2507C50.2605 13.2546 50.2063 13.275 50.1595 13.3053C50.1886 13.3235 50.209 13.3547 50.2113 13.3915C50.2153 13.4523 50.1692 13.5047 50.1084 13.5087C50.0752 13.5109 50.0448 13.4978 50.0232 13.4758C50.0084 13.5176 50.0016 13.563 50.0046 13.6101C50.0167 13.7964 50.1775 13.9376 50.3639 13.9255C50.5502 13.9134 50.6914 13.7525 50.6793 13.5663C50.6672 13.3799 50.5064 13.2386 50.3201 13.2507Z" fill="#5E2600"/>
<path d="M22.8438 27.1713C23.3204 26.4379 23.1004 26.2179 23.9804 25.8879C24.8604 25.5579 25.9604 24.9713 26.1071 24.5312C26.1071 24.5312 26.4371 24.7879 26.4371 25.2646C26.4371 25.7413 25.9604 25.8513 25.9604 25.8513C25.9604 25.8513 23.9437 26.2546 23.6137 26.5846C23.2837 26.9146 22.8438 27.1713 22.8438 27.1713Z" fill="#54261F"/>
<path d="M22.3672 27.8547C22.6849 27.2313 23.2105 27.1091 23.6383 26.8891C24.066 26.6691 24.6405 27.0113 25.4472 26.8157C26.2539 26.6202 26.1805 26.3391 26.4739 26.4491C26.7672 26.5591 26.9505 25.9724 26.8528 25.7768C26.755 25.5812 26.0217 25.4102 26.0217 25.4102C26.0217 25.4102 25.2394 25.6668 25.0317 25.7524C24.8239 25.838 23.7973 26.1924 23.3694 26.5468C22.9416 26.9013 22.3672 27.8547 22.3672 27.8547Z" fill="#54261F"/>
<path d="M55.3798 20.8475C54.6179 21.0814 53.6814 21.5881 53.3133 22.1829L53.2773 22.1396C53.3829 21.8617 53.4775 21.6072 53.5619 21.3762C53.8816 20.4962 53.6793 19.8164 53.6793 19.8164C54.3003 20.1398 55.096 20.6597 55.3798 20.8475Z" fill="#3C313F"/>
</svg>
