<svg width="100" height="100" viewBox="0 0 100 100" fill="none" xmlns="http://www.w3.org/2000/svg">
<g clip-path="url(#clip0_584_731)">
<path d="M86.7958 0.780273H31.1176C23.8553 0.780273 17.9133 6.72226 17.9133 13.9846V18.4775H68.2788C75.5411 18.4775 81.4831 24.4195 81.4831 31.6818V64.6012H86.7958C94.0581 64.6012 100 58.6592 100 51.3969V13.9846C100 6.72207 94.0581 0.780273 86.7958 0.780273Z" fill="#6C7ED6"/>
<path d="M77.4338 17.874H21.7557C20.4534 17.8737 19.1584 18.0676 17.9133 18.4494V18.4777H68.2788C75.5411 18.4777 81.4831 24.4197 81.4831 31.682V64.6014H86.7956C88.0978 64.6017 89.3929 64.4078 90.6379 64.026V31.0783C90.6381 23.816 84.6961 17.874 77.4338 17.874Z" fill="#4F67D2"/>
<path d="M68.8824 17.874H13.2043C5.94199 17.874 0 23.816 0 31.0783V68.4904C0 75.7527 5.94199 81.6947 13.2043 81.6947H46.6215C48.0541 81.6947 49.1236 83.0279 48.7959 84.4225C47.9098 88.1953 46.5537 92.1852 44.549 96.2752C43.6488 98.1121 45.6967 99.9795 47.4361 98.9029C52.4656 95.7902 59.6215 90.5807 65.6479 83.216C66.44 82.2479 67.6314 81.6945 68.8824 81.6945C76.1447 81.6945 82.0867 75.7525 82.0867 68.4902V31.0781C82.0867 23.816 76.1447 17.874 68.8824 17.874Z" fill="#60B8FE"/>
<path d="M57.3473 84.4225C57.6748 83.0277 56.6055 81.6947 55.1728 81.6947H46.6215C48.0541 81.6947 49.1234 83.0277 48.7959 84.4225C47.9098 88.1953 46.5537 92.1852 44.549 96.2752C43.6488 98.1121 45.6967 99.9795 47.4361 98.9029C49.6905 97.5068 51.8747 96.0006 53.9809 94.3896C55.5105 90.9594 56.5979 87.6131 57.3473 84.4225ZM8.55137 68.4904V31.0783C8.55137 23.816 14.4934 17.874 21.7557 17.874H13.2043C5.94199 17.874 0 23.816 0 31.0783V68.4904C0 75.7527 5.94199 81.6947 13.2043 81.6947H21.7557C14.4932 81.6947 8.55137 75.7529 8.55137 68.4904Z" fill="#23A8FE"/>
<path d="M18.3035 55.2398C20.7234 55.2398 22.6852 53.2781 22.6852 50.8582C22.6852 48.4383 20.7234 46.4766 18.3035 46.4766C15.8836 46.4766 13.9219 48.4383 13.9219 50.8582C13.9219 53.2781 15.8836 55.2398 18.3035 55.2398Z" fill="#DFEBFA"/>
<path d="M32.4559 55.2398C34.8758 55.2398 36.8375 53.2781 36.8375 50.8582C36.8375 48.4383 34.8758 46.4766 32.4559 46.4766C30.0359 46.4766 28.0742 48.4383 28.0742 50.8582C28.0742 53.2781 30.0359 55.2398 32.4559 55.2398Z" fill="#DFEBFA"/>
<path d="M46.608 55.2398C49.0279 55.2398 50.9896 53.2781 50.9896 50.8582C50.9896 48.4383 49.0279 46.4766 46.608 46.4766C44.188 46.4766 42.2263 48.4383 42.2263 50.8582C42.2263 53.2781 44.188 55.2398 46.608 55.2398Z" fill="#DFEBFA"/>
<path d="M60.7603 55.2398C63.1802 55.2398 65.1419 53.2781 65.1419 50.8582C65.1419 48.4383 63.1802 46.4766 60.7603 46.4766C58.3404 46.4766 56.3787 48.4383 56.3787 50.8582C56.3787 53.2781 58.3404 55.2398 60.7603 55.2398Z" fill="#DFEBFA"/>
<path d="M18.3035 50.8582C18.3035 49.2367 19.1852 47.8219 20.4943 47.0643C19.8287 46.6785 19.0728 46.4757 18.3035 46.4766C15.8836 46.4766 13.9219 48.4383 13.9219 50.8582C13.9219 53.2781 15.8836 55.2398 18.3035 55.2398C19.0729 55.2407 19.8287 55.0379 20.4943 54.6521C19.185 53.8945 18.3035 52.4797 18.3035 50.8582ZM32.4559 50.8582C32.4559 49.2367 33.3375 47.8219 34.6467 47.0643C33.981 46.6785 33.2252 46.4757 32.4559 46.4766C30.0359 46.4766 28.0742 48.4383 28.0742 50.8582C28.0742 53.2781 30.0359 55.2398 32.4559 55.2398C33.2543 55.2398 34.002 55.0252 34.6467 54.6521C33.3373 53.8945 32.4559 52.4797 32.4559 50.8582ZM46.608 50.8582C46.608 49.2367 47.4897 47.8219 48.7988 47.0643C48.1332 46.6785 47.3773 46.4758 46.608 46.4766C44.1881 46.4766 42.2264 48.4383 42.2264 50.8582C42.2264 53.2781 44.1881 55.2398 46.608 55.2398C47.3773 55.2407 48.1332 55.0379 48.7988 54.6521C47.4897 53.8945 46.608 52.4797 46.608 50.8582ZM60.7603 50.8582C60.7603 49.2367 61.6418 47.8219 62.9512 47.0643C62.2855 46.6785 61.5297 46.4758 60.7603 46.4766C58.3404 46.4766 56.3787 48.4383 56.3787 50.8582C56.3787 53.2781 58.3404 55.2398 60.7603 55.2398C61.5297 55.2407 62.2855 55.0379 62.9512 54.6521C61.6418 53.8945 60.7603 52.4797 60.7603 50.8582Z" fill="#B1DBFC"/>
</g>
<defs>
<clipPath id="clip0_584_731">
<rect width="100" height="100" fill="white"/>
</clipPath>
</defs>
</svg>
