<svg width="351" height="291" viewBox="0 0 351 291" fill="none" xmlns="http://www.w3.org/2000/svg">
<path d="M320.237 263.953C328.842 251.867 346.279 221.413 349.73 169.411C353.509 112.454 347.169 33.97 278.721 16.261C253.301 9.6844 227.115 13.7279 201.224 12.5053C179.346 11.4725 157.539 9.0374 135.994 5.21422C116.806 1.80983 98.4371 -2.79131 78.9487 2.19568C27.8695 15.2658 1.46647 74.5333 0.0901291 121.047C-1.14191 162.671 10.3927 204.538 26.3889 242.878C27.148 244.697 33.996 263.953 35.9833 263.953C36.0052 263.953 320.237 263.953 320.237 263.953Z" fill="#EAF6EA"/>
<path d="M183.434 172.219C169.59 197.313 160.975 227.619 159.827 227.941C158.272 228.377 120.599 241.31 102.299 246.877L108.24 257.874C131.8 256.209 169.256 252.33 174.744 247.686C183.242 240.496 204.029 191.519 210.007 179.647C200.444 178.475 191.797 177.31 183.434 172.219Z" fill="#FDC49F"/>
<path d="M282.334 169.209C291.714 197.687 302.963 229.129 306.423 227.543C310.68 225.592 310.263 191.365 307.438 166.332C299.316 168.113 290.873 168.908 282.334 169.209Z" fill="#E8A87E"/>
<path d="M207.13 73.791C207.13 73.791 197.155 121.7 195.865 136.21C194.575 150.72 205.759 160.715 221.88 160.071C238.001 159.426 228.006 114.982 221.88 102.544C215.755 90.1056 207.13 73.791 207.13 73.791Z" fill="#3D354A"/>
<path d="M196.817 256.168H285.977C285.762 235.398 286.145 210.46 288.622 195.476C293.458 166.216 287.897 154.368 278.465 146.63C269.035 138.892 255.009 135.99 255.009 135.99L236.148 153.159L224.706 141.068C224.706 141.068 197.216 151.466 192.379 154.852C187.543 158.238 194.555 207.568 196.49 218.449C197.398 223.559 197.241 240.08 196.817 256.168Z" fill="#3FAE2A"/>
<path d="M308.192 168.746C307.955 166.818 307.196 164.995 305.979 163.481C303.15 159.966 297.075 153.7 287.332 149.883C273.217 144.354 255.01 135.988 255.01 135.988L258.375 184.996C258.375 184.996 304.391 184.999 309.242 177.26L308.192 168.746Z" fill="#3FAE2A"/>
<path d="M224.707 130.638V141.068L236.148 153.159L255.01 135.99V109.791C255.01 109.791 254.375 124.318 224.707 130.638Z" fill="#FDC49F"/>
<path d="M224.707 130.636C224.707 130.636 239.534 134.492 255.01 114.807C255.01 114.807 255.01 139.144 224.707 141.066V130.636Z" fill="#E8A87E"/>
<path d="M257.868 101.119C258.58 82.1472 247.689 66.3375 233.542 65.8066C219.394 65.2757 207.349 80.2247 206.637 99.1961C205.925 118.168 216.816 133.977 230.963 134.508C245.111 135.039 257.156 120.09 257.868 101.119Z" fill="#FDC49F"/>
<path d="M257.413 96.2694C258.343 95.9032 258.758 95.0476 259.974 94.9064C268.607 93.9018 264.993 113.553 255.841 111.691C255.841 111.691 253.941 97.6356 257.413 96.2694Z" fill="#FDC49F"/>
<path d="M259.219 98.0101C259.753 97.8776 260.34 98.0156 260.848 98.2752C261.349 98.556 261.779 98.9567 262.11 99.428C262.457 99.8868 262.673 100.464 262.805 101.009C262.935 101.563 262.979 102.124 262.995 102.685C262.992 103.246 262.927 103.806 262.817 104.359C262.677 104.905 262.505 105.449 262.226 105.948C261.944 106.445 261.575 106.898 261.124 107.248C260.648 107.568 260.117 107.783 259.576 107.83C260.068 107.593 260.506 107.315 260.841 106.932C261.175 106.551 261.419 106.112 261.617 105.654C261.98 104.719 262.137 103.701 262.131 102.685C262.117 101.671 262.017 100.64 261.542 99.7849C261.066 98.9402 260.318 98.1199 259.219 98.0101Z" fill="#E8A87E"/>
<path d="M206.249 83.3839C206.249 83.3839 201.81 65.7832 210.274 60.9468C210.274 60.9468 218.214 46.6799 239.634 47.8892C261.055 49.0985 271.937 70.8619 270.728 87.789C269.519 104.716 283.303 125.27 280.642 142.197C277.982 159.124 261.297 164.202 251.625 161.784C241.952 159.367 255.01 109.792 255.01 109.792C255.01 109.792 264.13 110.798 266.704 103.767C269.277 96.7364 265.51 89.9441 259.474 93.5822C259.474 93.5822 229.378 92.049 228.894 68.8864C228.894 68.8864 216.37 81.2767 206.249 83.3839Z" fill="#3D354A"/>
<path d="M238.307 54.9674C230.041 52.0556 222.409 52.1818 213.918 56.0434C211.136 57.1735 210.233 58.9075 210.273 60.9457C218.477 56.7673 229.131 55.754 237.049 58.5405C258.464 66.0809 260.511 90.7351 260.528 90.9829C260.601 91.9797 261.432 92.7404 262.416 92.7404C262.462 92.7404 262.507 92.7388 262.553 92.7357C263.596 92.662 264.382 91.7554 264.308 90.7124C264.288 90.4402 262.096 63.3439 238.307 54.9674Z" fill="#BABABA"/>
<path d="M272.934 137.627L282.329 135.988C282.329 135.988 303.384 194.064 307.299 207.92C311.214 221.775 309.001 240.649 297.339 241.079C285.677 241.509 279.072 223.15 277.005 205.613C274.939 188.078 272.934 137.627 272.934 137.627Z" fill="#FDC49F"/>
<path d="M223.996 89.7227C223.854 91.8307 223.524 93.916 223.098 95.9833C222.668 98.0505 222.11 100.094 221.384 102.098C221.01 103.095 220.585 104.081 220.068 105.036L219.649 105.739C219.521 105.965 219.382 106.153 219.286 106.37C219.078 106.789 218.944 107.223 218.975 107.614C219.024 108.403 219.986 108.961 220.935 109.242C221.904 109.549 222.948 109.689 223.996 109.781C222.951 109.94 221.88 109.955 220.804 109.784C220.267 109.691 219.728 109.532 219.211 109.244C218.955 109.092 218.712 108.896 218.507 108.646C218.311 108.388 218.165 108.079 218.099 107.752C217.876 106.413 218.736 105.367 219.118 104.53C219.572 103.625 219.974 102.677 220.32 101.704C221.045 99.768 221.641 97.7698 222.241 95.7692L223.996 89.7227Z" fill="#E8A87E"/>
<path d="M236.42 96.9766C236.42 97.9467 235.634 98.7325 234.664 98.7325C233.694 98.7325 232.908 97.9459 232.908 96.9766C232.908 96.0065 233.695 95.2207 234.664 95.2207C235.633 95.2207 236.42 96.0073 236.42 96.9766Z" fill="#3D354A"/>
<path d="M214.941 96.379C215.911 96.379 216.697 95.5929 216.697 94.6231C216.697 93.6533 215.911 92.8672 214.941 92.8672C213.972 92.8672 213.186 93.6533 213.186 94.6231C213.186 95.5929 213.972 96.379 214.941 96.379Z" fill="#3D354A"/>
<path d="M229.666 90.2472C230.473 89.5358 231.509 89.1641 232.559 88.9892C233.615 88.8285 234.723 88.8755 235.765 89.1759C236.8 89.4778 237.802 89.9444 238.615 90.6393C239.049 90.9475 239.382 91.3788 239.735 91.76C240.054 92.1803 240.332 92.6328 240.554 93.1096C240.035 92.9316 239.609 92.6814 239.155 92.4869C238.699 92.2972 238.283 92.0697 237.839 91.9113C236.99 91.5216 236.123 91.262 235.267 91.004C234.404 90.7522 233.518 90.5969 232.598 90.4746C231.671 90.3468 230.723 90.2871 229.666 90.2472Z" fill="#3D354A"/>
<path d="M219.5 88.018C218.651 87.9199 217.923 87.9411 217.187 87.9364L215.005 87.9466C214.276 87.938 213.535 87.9388 212.772 87.8807C212.391 87.865 212.004 87.8282 211.607 87.7709C211.209 87.7152 210.809 87.6658 210.383 87.5341C211.062 86.9914 211.813 86.6503 212.592 86.4024C213.375 86.1781 214.187 86.0417 215.014 86.0534C215.836 86.0503 216.676 86.1836 217.472 86.4801C218.25 86.7828 219.057 87.24 219.5 88.018Z" fill="#3D354A"/>
<path d="M216.699 115.92C217.659 116.666 218.671 117.288 219.724 117.782C220.781 118.262 221.892 118.593 223.022 118.68C224.145 118.779 225.299 118.691 226.401 118.338C226.973 118.22 227.49 117.94 228.05 117.741C228.593 117.506 229.101 117.193 229.667 116.946C229.229 117.36 228.778 117.785 228.279 118.146C227.75 118.454 227.246 118.84 226.647 119.036C225.505 119.565 224.197 119.722 222.935 119.624C221.668 119.506 220.439 119.087 219.377 118.432C218.318 117.778 217.376 116.938 216.699 115.92Z" fill="#3D354A"/>
<path d="M259.321 105.121C259.321 105.121 251.605 116.089 235.457 117.173" stroke="#9A959C" stroke-width="2.4154" stroke-miterlimit="10" stroke-linecap="round" stroke-linejoin="round"/>
<path d="M237.068 116.746C237.337 118.461 235.38 120.192 232.697 120.613C230.015 121.033 227.622 119.984 227.353 118.269C227.084 116.553 229.041 114.822 231.723 114.402C234.406 113.98 236.799 115.03 237.068 116.746Z" fill="#9A959C"/>
<path d="M262.418 112.345C267.643 112.345 271.879 107.119 271.879 100.671C271.879 94.2244 267.643 88.998 262.418 88.998C257.193 88.998 252.957 94.2244 252.957 100.671C252.957 107.119 257.193 112.345 262.418 112.345Z" fill="#BABABA"/>
<path d="M262.419 110.928C267.011 110.928 270.733 106.335 270.733 100.67C270.733 95.0047 267.011 90.4121 262.419 90.4121C257.828 90.4121 254.105 95.0047 254.105 100.67C254.105 106.335 257.828 110.928 262.419 110.928Z" stroke="#9A959C" stroke-width="0.7968" stroke-miterlimit="10"/>
<path d="M266.463 100.671C266.463 103.427 264.652 105.662 262.418 105.662C260.185 105.662 258.373 103.427 258.373 100.671C258.373 97.914 260.184 95.6797 262.418 95.6797C264.652 95.6797 266.463 97.9148 266.463 100.671Z" fill="#9A959C"/>
<path d="M272.231 118.97L272.132 107.017C272.132 107.017 264.9 105.253 264.055 103.96C263.209 102.667 266.955 102.512 266.955 102.512C266.955 102.512 263.003 101.24 262.752 99.8484C262.501 98.4563 268.164 98.7332 268.164 98.7332C268.164 98.7332 264.739 97.0071 264.637 95.8346C264.535 94.663 265.15 94.3814 266.691 94.8167C268.232 95.2519 277.565 99.7378 278.469 100.969C279.373 102.2 281.598 110.095 282.365 113.674C283.132 117.252 282.456 127.165 282.328 130.936C282.201 134.706 282.572 138.319 282.572 138.319L273.075 139.145C273.075 139.145 272.994 134.937 270.958 132.494C268.923 130.051 268.029 126.313 267.974 123.071C267.92 119.828 263.329 112.311 262.708 110.371C262.087 108.432 264.508 108.107 265.639 109.319C266.77 110.531 267.817 110.781 268.913 114.217C270.01 117.654 272.231 118.97 272.231 118.97Z" fill="#FDC49F"/>
<path d="M266.955 102.512C266.955 102.512 272.757 103.403 274.109 104.538C275.461 105.674 277.211 112.698 277.375 113.937" stroke="#E8A87E" stroke-width="0.8502" stroke-miterlimit="10" stroke-linecap="round" stroke-linejoin="round"/>
<path d="M268.164 98.7324C268.164 98.7324 275.782 100.861 276.869 102.874C277.955 104.887 279.917 111.723 279.917 111.723" stroke="#E8A87E" stroke-width="0.8502" stroke-miterlimit="10" stroke-linecap="round" stroke-linejoin="round"/>
<path d="M224.705 141.066C224.705 141.066 188.868 151.602 184.999 156.921C181.129 162.242 176.064 186.977 176.064 186.977L200.385 200.337L224.705 141.066Z" fill="#3FAE2A"/>
<path d="M330.221 264.873H20.3591C18.2997 264.873 16.6309 262.924 16.6309 260.52C16.6309 258.117 18.2997 256.168 20.3591 256.168H330.22C332.279 256.168 333.948 258.117 333.948 260.52C333.949 262.924 332.279 264.873 330.221 264.873Z" fill="#9A959C"/>
<path d="M184.619 252.197H92.7285V256.167H184.619V252.197Z" fill="#BABABA"/>
<path d="M149.174 234.575H47.1301C43.7374 234.575 40.9863 231.824 40.9863 228.431V155.087C40.9863 151.694 43.7367 148.943 47.1301 148.943H149.173C152.566 148.943 155.317 151.694 155.317 155.087V228.431C155.317 231.824 152.567 234.575 149.174 234.575Z" fill="#BABABA"/>
<path d="M149.174 148.943H144.949C148.342 148.943 151.093 151.694 151.093 155.087V228.431C151.093 231.824 148.343 234.575 144.949 234.575H149.174C152.567 234.575 155.318 231.824 155.318 228.431V155.087C155.317 151.694 152.567 148.943 149.174 148.943Z" fill="#9A959C"/>
<path d="M110.377 191.971L106.473 234.575H113.971L110.377 191.971Z" fill="#9A959C"/>
<path d="M107.124 188.381H83.4232C81.8892 188.381 80.5615 189.447 80.2313 190.945L70.6887 234.166C68.1948 245.463 76.7932 256.167 88.3616 256.167H134.498V254.739C134.498 252.853 132.969 251.325 131.083 251.325H124.524C113.831 251.325 105.47 242.104 106.511 231.463L110.378 191.969C110.565 190.047 109.055 188.381 107.124 188.381Z" fill="#CFCFCF"/>
<path d="M47.2012 153.158H111.892" stroke="#CFCFCF" stroke-width="1.0664" stroke-miterlimit="10" stroke-linecap="round" stroke-linejoin="round"/>
<path d="M119.52 153.158H140.344" stroke="#CFCFCF" stroke-width="1.0664" stroke-miterlimit="10" stroke-linecap="round" stroke-linejoin="round"/>
<path d="M72.6208 140.361C98.2059 140.361 118.947 119.62 118.947 94.0349C118.947 68.4498 98.2059 47.709 72.6208 47.709C47.0357 47.709 26.2949 68.4498 26.2949 94.0349C26.2949 119.62 47.0357 140.361 72.6208 140.361Z" fill="white"/>
<mask id="mask0_1536_7313" style="mask-type:luminance" maskUnits="userSpaceOnUse" x="26" y="47" width="93" height="94">
<path d="M72.6208 140.361C98.2059 140.361 118.947 119.62 118.947 94.0349C118.947 68.4498 98.2059 47.709 72.6208 47.709C47.0357 47.709 26.2949 68.4498 26.2949 94.0349C26.2949 119.62 47.0357 140.361 72.6208 140.361Z" fill="white"/>
</mask>
<g mask="url(#mask0_1536_7313)">
<path d="M98.3363 111.617C105.056 123.796 109.236 138.505 109.794 138.662C110.04 138.731 112.147 139.444 115.182 140.466V151.228C108.975 150.38 103.87 149.358 102.554 148.244C98.4296 144.754 88.3404 120.984 85.4395 115.222C90.0806 114.653 94.2771 114.088 98.3363 111.617Z" fill="#FDC49F"/>
<path d="M24.7227 139.794C26.6589 139.142 27.9278 138.714 28.1153 138.662C28.6729 138.506 32.8537 123.796 39.573 111.617C43.6323 114.088 47.8287 114.653 52.4699 115.222C49.5682 120.984 39.4797 144.755 35.3554 148.244C34.1837 149.236 30.0061 150.156 24.7227 150.944V139.794Z" fill="#FDC49F"/>
<path d="M91.8415 152.36H48.5695C48.6738 142.28 48.4879 130.177 47.2857 122.904C44.9384 108.703 47.6378 102.953 52.2146 99.1974C56.7915 95.4417 63.5987 94.0332 63.5987 94.0332L72.7531 102.366L78.3063 96.4973C78.3063 96.4973 91.6486 101.544 93.9958 103.187C96.3431 104.83 92.9395 128.772 92.0007 134.053C91.5592 136.534 91.6361 144.552 91.8415 152.36Z" fill="#3D354A"/>
<path d="M37.7871 109.931C37.9024 108.996 38.2702 108.11 38.8615 107.376C40.2347 105.67 44.0477 100.564 48.7767 98.712C55.6278 96.0283 63.5988 94.0332 63.5988 94.0332L61.9652 117.818C61.9652 117.818 39.6324 117.82 37.2773 114.064L37.7871 109.931Z" fill="#3D354A"/>
<path d="M78.3053 91.4359V96.4981L72.7521 102.367L63.5977 94.034V81.3184C63.5977 81.3184 63.9066 88.3695 78.3053 91.4359Z" fill="#FDC49F"/>
<path d="M78.3045 91.4363C78.3045 91.4363 71.1083 93.3075 63.5977 83.7539C63.5977 83.7539 63.5977 95.5661 78.3045 96.4986V91.4363Z" fill="#E8A87E"/>
<path d="M75.2579 93.3237C82.1242 93.066 87.4103 85.3931 87.0648 76.1857C86.7193 66.9783 80.873 59.7231 74.0067 59.9807C67.1404 60.2384 61.8543 67.9113 62.1998 77.1188C62.5454 86.3262 68.3917 93.5813 75.2579 93.3237Z" fill="#FDC49F"/>
<path d="M62.4313 74.7542C61.9796 74.5762 61.7788 74.1613 61.1883 74.0923C56.9981 73.6045 58.7525 83.1417 63.1944 82.2382C63.1944 82.2382 64.1167 75.4177 62.4313 74.7542Z" fill="#FDC49F"/>
<path d="M61.5554 75.6015C61.0261 75.6587 60.6528 76.0469 60.4261 76.4618C60.1995 76.8798 60.1477 77.3778 60.1422 77.8703C60.1383 78.3636 60.2175 78.8569 60.3893 79.3125C60.5673 79.765 60.8935 80.1563 61.3821 80.3673C61.1194 80.3446 60.8622 80.2395 60.6308 80.0842C60.4144 79.9117 60.2395 79.6913 60.0983 79.4529C59.8277 78.9659 59.7274 78.413 59.7227 77.8703C59.7376 77.337 59.8097 76.7551 60.154 76.2908C60.4638 75.8446 61.0151 75.4744 61.5554 75.6015Z" fill="#E8A87E"/>
<path d="M78.6504 71.5781L79.4989 74.512C79.7962 75.4813 80.0808 76.4514 80.4338 77.3901C80.6016 77.863 80.7961 78.3226 81.0164 78.7618C81.2047 79.1664 81.6101 79.684 81.5097 80.3255C81.436 80.6486 81.2141 80.8957 80.9694 81.0463C80.7184 81.1764 80.4612 81.2721 80.1993 81.3113C79.6762 81.3905 79.1578 81.389 78.6504 81.3121C79.1586 81.2651 79.6676 81.2094 80.135 81.0486C80.3734 80.9851 80.589 80.8761 80.7788 80.7545C80.9553 80.6157 81.0635 80.4447 81.0909 80.2597C81.098 79.8526 80.8368 79.4817 80.5561 79.0072C80.3059 78.5437 80.0989 78.0654 79.9177 77.5823C79.5672 76.6098 79.2919 75.6193 79.0896 74.6147C78.8857 73.6109 78.7202 72.6008 78.6504 71.5781Z" fill="#E8A87E"/>
<path d="M72.6211 75.1005C72.6211 75.5711 73.003 75.953 73.4736 75.953C73.9441 75.953 74.326 75.5711 74.326 75.1005C74.326 74.63 73.9441 74.248 73.4736 74.248C73.0022 74.248 72.6211 74.63 72.6211 75.1005Z" fill="#3D354A"/>
<path d="M82.1914 73.956C82.1914 74.4265 82.5733 74.8085 83.0439 74.8085C83.5144 74.8085 83.8964 74.4273 83.8964 73.956C83.8964 73.4854 83.5144 73.1035 83.0439 73.1035C82.5726 73.1035 82.1914 73.4847 82.1914 73.956Z" fill="#3D354A"/>
<path d="M75.8975 71.8328C75.3846 71.8508 74.9243 71.8838 74.4749 71.9394C74.0286 72.0045 73.5965 72.0689 73.1793 72.199C72.7605 72.3159 72.3433 72.4531 71.9292 72.6374C71.5057 72.8084 71.0972 73.028 70.6133 73.2217C70.8274 72.7566 71.1489 72.3426 71.5559 72.0249C71.9481 71.6822 72.4374 71.4673 72.9378 71.3128C73.4452 71.1756 73.98 71.1411 74.4937 71.225C75.0035 71.3042 75.5054 71.4893 75.8975 71.8328Z" fill="#3D354A"/>
<path d="M80.832 70.7517C81.0469 70.3745 81.4383 70.151 81.817 70.0082C82.2029 69.8584 82.6107 69.8059 83.0099 69.7988C83.8098 69.8067 84.5956 70.0035 85.2575 70.5172C84.8473 70.6286 84.4693 70.6631 84.0976 70.6827C83.7274 70.7164 83.3683 70.7046 83.0138 70.7172C82.6585 70.7062 82.3095 70.7156 81.9543 70.7093C81.5975 70.7148 81.2445 70.7038 80.832 70.7517Z" fill="#3D354A"/>
<path d="M82.192 84.293C81.8626 84.7878 81.4038 85.1901 80.8909 85.5093C80.378 85.8324 79.7796 86.0316 79.1656 86.0905C78.5531 86.1367 77.9179 86.0638 77.365 85.8026C77.0764 85.7023 76.8309 85.5195 76.5721 85.3729C76.3337 85.1925 76.1102 84.9925 75.8984 84.791C76.4302 85.0537 76.9352 85.329 77.4834 85.4686C78.0198 85.6356 78.579 85.6819 79.1248 85.6325C80.2274 85.5446 81.2634 85.0074 82.192 84.293Z" fill="#3D354A"/>
<path d="M78.3047 96.498C78.3047 96.498 95.6976 101.611 97.5751 104.193C99.4533 106.775 101.911 118.78 101.911 118.78L90.1075 125.264L78.3047 96.498Z" fill="#3D354A"/>
<path d="M59.9307 74.3187C59.9307 74.3187 55.7131 64.7188 60.7424 58.2245C65.7717 51.7302 68.2821 56.0137 68.2821 56.0137C68.2821 56.0137 71.8378 49.9335 81.3107 53.388C90.7835 56.8426 89.8134 66.3774 83.0439 66.9303C76.2743 67.4832 67.5684 66.1014 67.5684 66.1014L62.4309 74.757L59.9307 74.3187Z" fill="#3D354A"/>
</g>
<path d="M151.639 31.7839V58.9602C151.639 61.0345 153.326 62.7206 155.399 62.7206H160.34C166.746 71.4869 177.617 71.2367 177.617 71.2367C173.147 69.1922 171.377 65.4019 170.674 62.7206H204.089C206.169 62.7206 207.85 61.0337 207.85 58.9602V31.7839C207.85 29.7096 206.169 28.0234 204.089 28.0234H155.399C153.325 28.0234 151.639 29.7096 151.639 31.7839Z" fill="white"/>
<path d="M157.556 36.2048H201.936C202.398 36.2048 202.773 35.83 202.773 35.368C202.773 34.9061 202.398 34.5312 201.936 34.5312H157.556C157.094 34.5312 156.719 34.9061 156.719 35.368C156.719 35.83 157.093 36.2048 157.556 36.2048Z" fill="#E8E9FF"/>
<path d="M157.556 40.4665H201.936C202.398 40.4665 202.773 40.0917 202.773 39.6298C202.773 39.1678 202.398 38.793 201.936 38.793H157.556C157.094 38.793 156.719 39.1678 156.719 39.6298C156.719 40.0917 157.093 40.4665 157.556 40.4665Z" fill="#E8E9FF"/>
<path d="M157.556 44.7263H201.936C202.398 44.7263 202.773 44.3514 202.773 43.8895C202.773 43.4276 202.398 43.0527 201.936 43.0527H157.556C157.094 43.0527 156.719 43.4276 156.719 43.8895C156.719 44.3522 157.093 44.7263 157.556 44.7263Z" fill="#E8E9FF"/>
<path d="M157.556 48.9861H201.936C202.398 48.9861 202.773 48.6112 202.773 48.1493C202.773 47.6874 202.398 47.3125 201.936 47.3125H157.556C157.094 47.3125 156.719 47.6874 156.719 48.1493C156.719 48.6112 157.093 48.9861 157.556 48.9861Z" fill="#E8E9FF"/>
<path d="M157.556 53.2458H201.936C202.398 53.2458 202.773 52.871 202.773 52.409C202.773 51.9471 202.398 51.5723 201.936 51.5723H157.556C157.094 51.5723 156.719 51.9471 156.719 52.409C156.719 52.871 157.093 53.2458 157.556 53.2458Z" fill="#E8E9FF"/>
<path d="M132.591 29.6004V45.8396C132.591 47.0787 131.583 48.0865 130.344 48.0865H127.392C123.564 53.3252 117.069 53.1754 117.069 53.1754C119.74 51.9536 120.797 49.6887 121.217 48.0865H101.249C100.006 48.0865 99.002 47.0787 99.002 45.8396V29.6004C99.002 28.3613 100.007 27.3535 101.249 27.3535H130.344C131.583 27.3535 132.591 28.3613 132.591 29.6004Z" stroke="white" stroke-width="0.9744" stroke-miterlimit="10" stroke-linecap="round" stroke-linejoin="round"/>
<path d="M129.057 32.2409H102.537C102.261 32.2409 102.037 32.0174 102.037 31.7406C102.037 31.4645 102.261 31.2402 102.537 31.2402H129.057C129.333 31.2402 129.558 31.4637 129.558 31.7406C129.557 32.0174 129.333 32.2409 129.057 32.2409Z" fill="white"/>
<path d="M129.057 34.7878H102.537C102.261 34.7878 102.037 34.5643 102.037 34.2875C102.037 34.0114 102.261 33.7871 102.537 33.7871H129.057C129.333 33.7871 129.558 34.0106 129.558 34.2875C129.557 34.5635 129.333 34.7878 129.057 34.7878Z" fill="white"/>
<path d="M129.057 37.3327H102.537C102.261 37.3327 102.037 37.1084 102.037 36.8324C102.037 36.5563 102.261 36.332 102.537 36.332H129.057C129.333 36.332 129.558 36.5555 129.558 36.8324C129.557 37.1084 129.333 37.3327 129.057 37.3327Z" fill="white"/>
<path d="M129.057 39.8796H102.537C102.261 39.8796 102.037 39.6561 102.037 39.3793C102.037 39.1032 102.261 38.8789 102.537 38.8789H129.057C129.333 38.8789 129.558 39.1032 129.558 39.3793C129.557 39.6561 129.333 39.8796 129.057 39.8796Z" fill="white"/>
<path d="M129.057 42.4265H102.537C102.261 42.4265 102.037 42.2022 102.037 41.9261C102.037 41.6501 102.261 41.4258 102.537 41.4258H129.057C129.333 41.4258 129.558 41.6493 129.558 41.9261C129.557 42.2022 129.333 42.4265 129.057 42.4265Z" fill="white"/>
<path d="M169.472 133.364H137.056C136.341 133.364 135.762 132.784 135.762 132.07V112.976C135.762 112.261 136.341 111.682 137.056 111.682H169.472C170.187 111.682 170.766 112.261 170.766 112.976V132.07C170.766 132.784 170.186 133.364 169.472 133.364Z" fill="white"/>
<path d="M135.76 112.973L153.262 122.52L170.764 112.973" stroke="#E8E9FF" stroke-width="1.8023" stroke-miterlimit="10" stroke-linecap="round" stroke-linejoin="round"/>
<path d="M172.355 113.788C172.355 115.872 170.666 117.56 168.583 117.56C166.499 117.56 164.811 115.871 164.811 113.788C164.811 111.704 166.5 110.016 168.583 110.016C170.666 110.016 172.355 111.704 172.355 113.788Z" fill="#3FAE2A"/>
<path d="M168.582 112.037V115.538" stroke="white" stroke-width="0.6671" stroke-miterlimit="10" stroke-linecap="round" stroke-linejoin="round"/>
<path d="M170.333 113.789H166.832" stroke="white" stroke-width="0.6671" stroke-miterlimit="10" stroke-linecap="round" stroke-linejoin="round"/>
<path d="M293.541 67.4532C300.616 67.4532 306.352 61.7177 306.352 54.6426C306.352 47.5675 300.616 41.832 293.541 41.832C286.466 41.832 280.73 47.5675 280.73 54.6426C280.73 61.7177 286.466 67.4532 293.541 67.4532Z" stroke="white" stroke-width="0.8932" stroke-miterlimit="10" stroke-linecap="round" stroke-linejoin="round"/>
<path d="M293.542 67.4532C298.154 67.4532 301.893 61.7177 301.893 54.6426C301.893 47.5675 298.154 41.832 293.542 41.832C288.93 41.832 285.191 47.5675 285.191 54.6426C285.191 61.7177 288.93 67.4532 293.542 67.4532Z" stroke="white" stroke-width="0.8932" stroke-miterlimit="10" stroke-linecap="round" stroke-linejoin="round"/>
<path d="M296.336 54.6426C296.336 61.718 295.085 67.4532 293.541 67.4532C291.998 67.4532 290.746 61.7172 290.746 54.6426C290.746 47.5672 291.998 41.832 293.541 41.832C295.085 41.832 296.336 47.568 296.336 54.6426Z" stroke="white" stroke-width="0.8932" stroke-miterlimit="10" stroke-linecap="round" stroke-linejoin="round"/>
<path d="M293.541 62.9922C300.616 62.9922 306.352 59.2535 306.352 54.6416C306.352 50.0297 300.616 46.291 293.541 46.291C286.466 46.291 280.73 50.0297 280.73 54.6416C280.73 59.2535 286.466 62.9922 293.541 62.9922Z" stroke="white" stroke-width="0.8932" stroke-miterlimit="10" stroke-linecap="round" stroke-linejoin="round"/>
<path d="M293.541 57.4377C300.616 57.4377 306.352 56.1863 306.352 54.6427C306.352 53.099 300.616 51.8477 293.541 51.8477C286.466 51.8477 280.73 53.099 280.73 54.6427C280.73 56.1863 286.466 57.4377 293.541 57.4377Z" stroke="white" stroke-width="0.8932" stroke-miterlimit="10" stroke-linecap="round" stroke-linejoin="round"/>
<path d="M301.892 49.6286C303.736 49.6286 305.23 48.1342 305.23 46.2909C305.23 44.4475 303.736 42.9531 301.892 42.9531C300.049 42.9531 298.555 44.4475 298.555 46.2909C298.555 48.1342 300.049 49.6286 301.892 49.6286Z" fill="#3FAE2A"/>
<path d="M301.891 44.7422V47.8399" stroke="white" stroke-width="0.5901" stroke-miterlimit="10" stroke-linecap="round" stroke-linejoin="round"/>
<path d="M303.441 46.291H300.344" stroke="white" stroke-width="0.5901" stroke-miterlimit="10" stroke-linecap="round" stroke-linejoin="round"/>
<path d="M332.619 115.95C335.27 115.95 337.419 113.801 337.419 111.15C337.419 108.499 335.27 106.35 332.619 106.35C332.157 106.35 331.719 106.437 331.296 106.558C331.045 105.779 330.727 105.031 330.358 104.312C330.745 104.099 331.118 103.849 331.446 103.52C333.321 101.646 333.321 98.6069 331.446 96.7318C329.572 94.8574 326.533 94.8574 324.659 96.7318C324.33 97.0604 324.081 97.4329 323.867 97.8203C323.148 97.4509 322.4 97.1333 321.621 96.8823C321.742 96.4596 321.828 96.022 321.828 95.5593C321.828 92.9086 319.68 90.7598 317.029 90.7598C314.378 90.7598 312.229 92.9086 312.229 95.5593C312.229 96.0212 312.316 96.4596 312.437 96.8823C311.658 97.1333 310.91 97.4509 310.191 97.8203C309.978 97.4329 309.728 97.0604 309.399 96.7318C307.525 94.8574 304.486 94.8574 302.611 96.7318C300.736 98.6061 300.736 101.645 302.611 103.52C302.939 103.849 303.312 104.099 303.699 104.312C303.33 105.031 303.012 105.779 302.761 106.558C302.339 106.437 301.9 106.35 301.438 106.35C298.787 106.35 296.639 108.499 296.639 111.15C296.639 113.801 298.787 115.95 301.438 115.95C301.9 115.95 302.338 115.863 302.761 115.742C303.012 116.521 303.33 117.269 303.699 117.988C303.312 118.201 302.939 118.451 302.611 118.78C300.736 120.654 300.736 123.693 302.611 125.568C304.485 127.443 307.524 127.443 309.399 125.568C309.728 125.24 309.978 124.867 310.191 124.48C310.91 124.849 311.658 125.167 312.437 125.418C312.316 125.84 312.229 126.278 312.229 126.741C312.229 129.391 314.378 131.54 317.029 131.54C319.68 131.54 321.828 129.391 321.828 126.741C321.828 126.279 321.742 125.841 321.621 125.418C322.4 125.167 323.148 124.849 323.867 124.48C324.08 124.867 324.33 125.24 324.658 125.568C326.532 127.443 329.571 127.443 331.446 125.568C333.32 123.694 333.32 120.655 331.446 118.78C331.117 118.451 330.745 118.201 330.357 117.988C330.726 117.269 331.044 116.521 331.295 115.742C331.719 115.863 332.157 115.95 332.619 115.95ZM317.029 118.645C312.89 118.645 309.534 115.289 309.534 111.15C309.534 107.011 312.89 103.655 317.029 103.655C321.168 103.655 324.524 107.011 324.524 111.15C324.525 115.289 321.169 118.645 317.029 118.645Z" fill="white"/>
<path d="M317.029 121.689C322.851 121.689 327.57 116.97 327.57 111.148C327.57 105.327 322.851 100.607 317.029 100.607C311.208 100.607 306.488 105.327 306.488 111.148C306.488 116.97 311.208 121.689 317.029 121.689Z" stroke="#E8E9FF" stroke-width="1.4957" stroke-miterlimit="10"/>
<path d="M36.8081 141.805C38.2769 141.805 39.4674 140.615 39.4674 139.146C39.4674 137.677 38.2769 136.486 36.8081 136.486C36.5524 136.486 36.3093 136.534 36.0756 136.602C35.9368 136.17 35.7603 135.756 35.5556 135.357C35.7705 135.239 35.9768 135.101 36.1587 134.919C37.197 133.88 37.197 132.197 36.1587 131.158C35.1204 130.12 33.4366 130.12 32.3983 131.158C32.2163 131.34 32.0775 131.547 31.9599 131.761C31.5623 131.557 31.1474 131.38 30.7153 131.241C30.7827 131.007 30.8306 130.765 30.8306 130.509C30.8306 129.04 29.6401 127.85 28.1712 127.85C26.7023 127.85 25.5118 129.04 25.5118 130.509C25.5118 130.765 25.5597 131.008 25.6271 131.241C25.195 131.38 24.7809 131.557 24.3825 131.761C24.2641 131.547 24.1261 131.34 23.9441 131.158C22.9058 130.12 21.222 130.12 20.1837 131.158C19.1454 132.197 19.1454 133.88 20.1837 134.919C20.3657 135.101 20.5719 135.24 20.7868 135.357C20.5821 135.755 20.4057 136.17 20.2668 136.602C20.0324 136.534 19.79 136.486 19.5344 136.486C18.0655 136.486 16.875 137.677 16.875 139.146C16.875 140.615 18.0655 141.805 19.5344 141.805C19.79 141.805 20.0331 141.757 20.2668 141.69C20.4057 142.122 20.5821 142.536 20.7868 142.934C20.5719 143.053 20.3657 143.191 20.1837 143.373C19.1454 144.411 19.1454 146.095 20.1837 147.133C21.222 148.172 22.9058 148.172 23.9441 147.133C24.1261 146.951 24.2641 146.745 24.3825 146.53C24.7801 146.735 25.195 146.911 25.6271 147.05C25.5597 147.285 25.5118 147.527 25.5118 147.783C25.5118 149.252 26.7023 150.442 28.1712 150.442C29.6401 150.442 30.8306 149.252 30.8306 147.783C30.8306 147.526 30.7827 147.284 30.7153 147.05C31.1474 146.911 31.5615 146.735 31.9599 146.53C32.0783 146.745 32.2163 146.951 32.3983 147.133C33.4366 148.172 35.1204 148.172 36.1587 147.133C37.197 146.095 37.197 144.411 36.1587 143.373C35.9768 143.191 35.7705 143.052 35.5556 142.934C35.7603 142.537 35.9368 142.122 36.0756 141.69C36.3101 141.758 36.5524 141.805 36.8081 141.805ZM28.1712 143.299C25.8781 143.299 24.0187 141.44 24.0187 139.147C24.0187 136.853 25.8781 134.994 28.1712 134.994C30.4643 134.994 32.3238 136.853 32.3238 139.147C32.3238 141.44 30.4643 143.299 28.1712 143.299Z" fill="white"/>
<path d="M28.1695 144.986C31.3946 144.986 34.009 142.371 34.009 139.146C34.009 135.921 31.3946 133.307 28.1695 133.307C24.9445 133.307 22.3301 135.921 22.3301 139.146C22.3301 142.371 24.9445 144.986 28.1695 144.986Z" stroke="#E8E9FF" stroke-width="0.8286" stroke-miterlimit="10"/>
<path d="M148.541 83.6267C149.59 83.6267 150.439 82.7765 150.439 81.7288C150.439 80.6803 149.589 79.8309 148.541 79.8309C148.359 79.8309 148.185 79.8646 148.018 79.9133C147.919 79.6051 147.793 79.3094 147.647 79.0247C147.8 78.9408 147.948 78.8412 148.078 78.7118C148.819 77.9707 148.819 76.7693 148.078 76.0274C147.337 75.2863 146.135 75.2863 145.393 76.0274C145.263 76.1576 145.164 76.3042 145.081 76.4579C144.797 76.312 144.501 76.1858 144.193 76.087C144.241 75.9199 144.275 75.7466 144.275 75.5639C144.275 74.5153 143.425 73.666 142.377 73.666C141.329 73.666 140.479 74.5161 140.479 75.5639C140.479 75.7466 140.513 75.9199 140.562 76.087C140.254 76.1858 139.958 76.312 139.673 76.4579C139.589 76.305 139.49 76.1576 139.36 76.0274C138.619 75.2863 137.418 75.2863 136.676 76.0274C135.935 76.7685 135.935 77.9699 136.676 78.7118C136.806 78.842 136.953 78.9408 137.106 79.0247C136.96 79.3086 136.834 79.6043 136.735 79.9133C136.568 79.8654 136.395 79.8309 136.212 79.8309C135.164 79.8309 134.314 80.681 134.314 81.7288C134.314 82.7773 135.165 83.6267 136.212 83.6267C136.395 83.6267 136.568 83.5929 136.735 83.5443C136.834 83.8525 136.96 84.1482 137.106 84.4321C136.953 84.5168 136.806 84.6156 136.676 84.745C135.935 85.4861 135.935 86.6883 136.676 87.4294C137.417 88.1705 138.619 88.1705 139.36 87.4294C139.49 87.2992 139.589 87.1518 139.673 86.9989C139.957 87.1448 140.253 87.271 140.562 87.3698C140.514 87.5369 140.479 87.7102 140.479 87.8929C140.479 88.9415 141.329 89.7908 142.377 89.7908C143.426 89.7908 144.275 88.9407 144.275 87.8929C144.275 87.7102 144.241 87.5369 144.193 87.3698C144.501 87.271 144.797 87.1448 145.081 86.9989C145.165 87.1518 145.264 87.2992 145.393 87.4294C146.135 88.1705 147.337 88.1705 148.078 87.4294C148.819 86.6883 148.819 85.4861 148.078 84.745C147.948 84.6148 147.8 84.516 147.647 84.4321C147.793 84.1482 147.919 83.8525 148.018 83.5443C148.185 83.5929 148.359 83.6267 148.541 83.6267ZM142.376 84.6924C140.74 84.6924 139.413 83.3655 139.413 81.7288C139.413 80.0921 140.74 78.7651 142.376 78.7651C144.013 78.7651 145.34 80.0921 145.34 81.7288C145.34 83.3655 144.013 84.6924 142.376 84.6924Z" fill="white"/>
<path d="M142.375 85.899C144.677 85.899 146.544 84.0328 146.544 81.7307C146.544 79.4287 144.677 77.5625 142.375 77.5625C140.073 77.5625 138.207 79.4287 138.207 81.7307C138.207 84.0328 140.073 85.899 142.375 85.899Z" stroke="#E8E9FF" stroke-width="0.5914" stroke-miterlimit="10"/>
<path d="M58.623 32.2423C60.1907 31.3843 61.48 30.0958 62.338 28.5273C63.1952 30.095 64.4845 31.3843 66.0529 32.2423C64.4852 33.0995 63.196 34.3888 62.338 35.9572C61.48 34.3895 60.1907 33.1003 58.623 32.2423Z" stroke="white" stroke-width="0.9744" stroke-miterlimit="10" stroke-linecap="round" stroke-linejoin="round"/>
<path d="M179.789 92.7423C181.357 91.8843 182.646 90.5958 183.504 89.0273C184.362 90.5958 185.65 91.8843 187.219 92.7423C185.651 93.5995 184.362 94.8888 183.504 96.4572C182.646 94.8888 181.357 93.5995 179.789 92.7423Z" stroke="white" stroke-width="0.9744" stroke-miterlimit="10" stroke-linecap="round" stroke-linejoin="round"/>
<path d="M243.898 28.5294C245.466 27.6714 246.755 26.3822 247.613 24.8145C248.471 26.3822 249.76 27.6714 251.328 28.5294C249.761 29.3866 248.471 30.6759 247.613 32.2444C246.756 30.6759 245.467 29.3866 243.898 28.5294Z" stroke="white" stroke-width="0.9744" stroke-miterlimit="10" stroke-linecap="round" stroke-linejoin="round"/>
<path d="M287.516 84.6915C289.083 83.8343 290.373 82.545 291.231 80.9766C292.089 82.5443 293.377 83.8336 294.946 84.6915C293.377 85.5495 292.089 86.8388 291.231 88.4065C290.373 86.838 289.083 85.5487 287.516 84.6915Z" stroke="white" stroke-width="0.9744" stroke-miterlimit="10" stroke-linecap="round" stroke-linejoin="round"/>
<path d="M13.1602 100.609C14.7286 99.7515 16.0171 98.463 16.8751 96.8945C17.7331 98.4622 19.0216 99.7515 20.5901 100.609C19.0224 101.467 17.7331 102.757 16.8751 104.324C16.0171 102.757 14.7279 101.467 13.1602 100.609Z" stroke="white" stroke-width="0.9744" stroke-miterlimit="10" stroke-linecap="round" stroke-linejoin="round"/>
<path d="M33.1651 284.873V270.328H35.8001V276.485H42.5401V270.328H45.1822V284.873H42.5401V278.694H35.8001V284.873H33.1651ZM52.7638 285.086C51.6701 285.086 50.7255 284.859 49.93 284.404C49.1393 283.945 48.5309 283.296 48.1048 282.458C47.6786 281.615 47.4656 280.624 47.4656 279.482C47.4656 278.36 47.6786 277.375 48.1048 276.528C48.5356 275.676 49.137 275.013 49.9087 274.539C50.6805 274.061 51.5872 273.822 52.6289 273.822C53.3013 273.822 53.9357 273.931 54.5323 274.149C55.1336 274.362 55.6639 274.693 56.1232 275.143C56.5872 275.593 56.9518 276.166 57.217 276.862C57.4821 277.553 57.6147 278.377 57.6147 279.333V280.122H48.6729V278.389H55.1502C55.1455 277.896 55.0389 277.458 54.8306 277.075C54.6223 276.686 54.3311 276.381 53.957 276.159C53.5877 275.936 53.1568 275.825 52.6644 275.825C52.1388 275.825 51.6772 275.953 51.2795 276.208C50.8817 276.459 50.5716 276.791 50.3491 277.203C50.1313 277.61 50.02 278.057 50.0153 278.545V280.058C50.0153 280.692 50.1313 281.237 50.3633 281.691C50.5953 282.141 50.9196 282.487 51.3363 282.728C51.753 282.965 52.2406 283.083 52.7994 283.083C53.1734 283.083 53.512 283.031 53.815 282.927C54.118 282.818 54.3808 282.66 54.6033 282.451C54.8259 282.243 54.994 281.985 55.1076 281.677L57.5082 281.947C57.3567 282.581 57.0678 283.135 56.6417 283.609C56.2203 284.078 55.6805 284.442 55.0224 284.703C54.3642 284.958 53.6114 285.086 52.7638 285.086ZM62.3608 270.328V284.873H59.7898V270.328H62.3608ZM67.5756 270.328V284.873H65.0046V270.328H67.5756ZM74.978 285.086C73.9126 285.086 72.9893 284.852 72.2081 284.383C71.4268 283.914 70.8208 283.258 70.3899 282.416C69.9638 281.573 69.7507 280.588 69.7507 279.461C69.7507 278.334 69.9638 277.347 70.3899 276.499C70.8208 275.652 71.4268 274.994 72.2081 274.525C72.9893 274.056 73.9126 273.822 74.978 273.822C76.0433 273.822 76.9666 274.056 77.7479 274.525C78.5291 274.994 79.1328 275.652 79.5589 276.499C79.9898 277.347 80.2053 278.334 80.2053 279.461C80.2053 280.588 79.9898 281.573 79.5589 282.416C79.1328 283.258 78.5291 283.914 77.7479 284.383C76.9666 284.852 76.0433 285.086 74.978 285.086ZM74.9922 283.026C75.5698 283.026 76.0528 282.868 76.4411 282.551C76.8293 282.229 77.1181 281.798 77.3075 281.258C77.5017 280.718 77.5987 280.117 77.5987 279.454C77.5987 278.786 77.5017 278.183 77.3075 277.643C77.1181 277.098 76.8293 276.665 76.4411 276.343C76.0528 276.021 75.5698 275.86 74.9922 275.86C74.4003 275.86 73.9079 276.021 73.5149 276.343C73.1267 276.665 72.8355 277.098 72.6413 277.643C72.4519 278.183 72.3572 278.786 72.3572 279.454C72.3572 280.117 72.4519 280.718 72.6413 281.258C72.8355 281.798 73.1267 282.229 73.5149 282.551C73.9079 282.868 74.4003 283.026 74.9922 283.026ZM85.4059 282.884L85.3136 283.666C85.2473 284.262 85.1289 284.868 84.9585 285.484C84.7927 286.104 84.6175 286.675 84.4329 287.195C84.2482 287.716 84.0991 288.126 83.9854 288.424H82.2525C82.3188 288.135 82.4087 287.742 82.5224 287.245C82.6407 286.748 82.7544 286.189 82.8633 285.569C82.9722 284.949 83.0456 284.319 83.0835 283.68L83.1332 282.884H85.4059ZM95.3686 278.481V284.873H92.7976V270.328H95.3118V275.818H95.4396C95.6953 275.202 96.0907 274.717 96.6257 274.362C97.1655 274.002 97.852 273.822 98.6854 273.822C99.4429 273.822 100.103 273.981 100.667 274.298C101.23 274.615 101.666 275.079 101.974 275.69C102.286 276.301 102.442 277.046 102.442 277.927V284.873H99.8714V278.325C99.8714 277.591 99.6821 277.02 99.3033 276.613C98.9292 276.201 98.4036 275.995 97.7266 275.995C97.272 275.995 96.8648 276.095 96.505 276.294C96.1499 276.488 95.8705 276.769 95.6669 277.139C95.468 277.508 95.3686 277.955 95.3686 278.481ZM109.822 285.086C108.756 285.086 107.833 284.852 107.052 284.383C106.271 283.914 105.665 283.258 105.234 282.416C104.808 281.573 104.594 280.588 104.594 279.461C104.594 278.334 104.808 277.347 105.234 276.499C105.665 275.652 106.271 274.994 107.052 274.525C107.833 274.056 108.756 273.822 109.822 273.822C110.887 273.822 111.81 274.056 112.592 274.525C113.373 274.994 113.977 275.652 114.403 276.499C114.834 277.347 115.049 278.334 115.049 279.461C115.049 280.588 114.834 281.573 114.403 282.416C113.977 283.258 113.373 283.914 112.592 284.383C111.81 284.852 110.887 285.086 109.822 285.086ZM109.836 283.026C110.414 283.026 110.897 282.868 111.285 282.551C111.673 282.229 111.962 281.798 112.151 281.258C112.345 280.718 112.442 280.117 112.442 279.454C112.442 278.786 112.345 278.183 112.151 277.643C111.962 277.098 111.673 276.665 111.285 276.343C110.897 276.021 110.414 275.86 109.836 275.86C109.244 275.86 108.752 276.021 108.359 276.343C107.97 276.665 107.679 277.098 107.485 277.643C107.296 278.183 107.201 278.786 107.201 279.454C107.201 280.117 107.296 280.718 107.485 281.258C107.679 281.798 107.97 282.229 108.359 282.551C108.752 282.868 109.244 283.026 109.836 283.026ZM119.17 284.873L116.088 273.964H118.708L120.626 281.634H120.725L122.686 273.964H125.278L127.238 281.592H127.345L129.234 273.964H131.862L128.772 284.873H126.095L124.049 277.501H123.9L121.855 284.873H119.17ZM143.376 285.086C142.287 285.086 141.352 284.847 140.571 284.369C139.795 283.891 139.196 283.23 138.774 282.387C138.357 281.54 138.149 280.564 138.149 279.461C138.149 278.353 138.362 277.375 138.788 276.528C139.214 275.676 139.816 275.013 140.592 274.539C141.374 274.061 142.297 273.822 143.362 273.822C144.248 273.822 145.031 273.985 145.713 274.312C146.4 274.634 146.946 275.091 147.354 275.683C147.761 276.27 147.993 276.956 148.05 277.742H145.592C145.493 277.217 145.256 276.779 144.882 276.428C144.513 276.073 144.018 275.896 143.398 275.896C142.872 275.896 142.411 276.038 142.013 276.322C141.615 276.601 141.305 277.004 141.082 277.529C140.865 278.055 140.756 278.685 140.756 279.419C140.756 280.162 140.865 280.801 141.082 281.336C141.3 281.866 141.606 282.276 141.999 282.565C142.396 282.849 142.863 282.991 143.398 282.991C143.777 282.991 144.115 282.92 144.413 282.778C144.716 282.631 144.97 282.42 145.173 282.146C145.377 281.871 145.517 281.537 145.592 281.144H148.05C147.988 281.916 147.761 282.6 147.368 283.197C146.975 283.789 146.44 284.253 145.763 284.589C145.086 284.92 144.29 285.086 143.376 285.086ZM153.3 285.093C152.609 285.093 151.986 284.97 151.432 284.724C150.883 284.473 150.447 284.104 150.125 283.616C149.808 283.128 149.65 282.527 149.65 281.812C149.65 281.196 149.763 280.687 149.99 280.285C150.218 279.883 150.528 279.561 150.921 279.319C151.314 279.078 151.757 278.895 152.249 278.772C152.746 278.644 153.26 278.552 153.79 278.495C154.429 278.429 154.948 278.37 155.346 278.318C155.743 278.261 156.032 278.176 156.212 278.062C156.397 277.944 156.489 277.761 156.489 277.515V277.472C156.489 276.937 156.33 276.523 156.013 276.23C155.696 275.936 155.239 275.789 154.642 275.789C154.013 275.789 153.513 275.927 153.144 276.201C152.779 276.476 152.533 276.8 152.405 277.174L150.005 276.833C150.194 276.17 150.507 275.616 150.942 275.171C151.378 274.722 151.91 274.385 152.54 274.163C153.17 273.936 153.866 273.822 154.628 273.822C155.154 273.822 155.677 273.883 156.198 274.007C156.719 274.13 157.194 274.333 157.625 274.617C158.056 274.897 158.402 275.278 158.662 275.761C158.927 276.244 159.06 276.847 159.06 277.572V284.873H156.588V283.374H156.503C156.347 283.677 156.127 283.962 155.843 284.227C155.563 284.487 155.211 284.698 154.784 284.859C154.363 285.015 153.868 285.093 153.3 285.093ZM153.968 283.204C154.484 283.204 154.931 283.102 155.31 282.899C155.689 282.69 155.98 282.416 156.184 282.075C156.392 281.734 156.496 281.362 156.496 280.96V279.674C156.416 279.74 156.278 279.802 156.084 279.859C155.895 279.916 155.682 279.965 155.445 280.008C155.208 280.051 154.974 280.088 154.742 280.122C154.51 280.155 154.309 280.183 154.138 280.207C153.755 280.259 153.411 280.344 153.108 280.463C152.805 280.581 152.566 280.747 152.391 280.96C152.216 281.168 152.128 281.438 152.128 281.769C152.128 282.243 152.301 282.6 152.647 282.842C152.992 283.083 153.433 283.204 153.968 283.204ZM164.216 278.481V284.873H161.645V273.964H164.103V275.818H164.23C164.481 275.207 164.882 274.722 165.431 274.362C165.985 274.002 166.669 273.822 167.483 273.822C168.236 273.822 168.892 273.983 169.451 274.305C170.014 274.627 170.45 275.093 170.757 275.704C171.07 276.315 171.224 277.056 171.219 277.927V284.873H168.648V278.325C168.648 277.596 168.459 277.025 168.08 276.613C167.706 276.201 167.187 275.995 166.525 275.995C166.075 275.995 165.675 276.095 165.324 276.294C164.979 276.488 164.706 276.769 164.507 277.139C164.313 277.508 164.216 277.955 164.216 278.481ZM181.045 284.873L177.963 273.964H180.583L182.501 281.634H182.6L184.561 273.964H187.153L189.113 281.592H189.22L191.109 273.964H193.737L190.647 284.873H187.97L185.924 277.501H185.775L183.73 284.873H181.045ZM200.049 285.086C198.955 285.086 198.011 284.859 197.215 284.404C196.424 283.945 195.816 283.296 195.39 282.458C194.964 281.615 194.751 280.624 194.751 279.482C194.751 278.36 194.964 277.375 195.39 276.528C195.821 275.676 196.422 275.013 197.194 274.539C197.966 274.061 198.872 273.822 199.914 273.822C200.586 273.822 201.221 273.931 201.817 274.149C202.419 274.362 202.949 274.693 203.408 275.143C203.872 275.593 204.237 276.166 204.502 276.862C204.767 277.553 204.9 278.377 204.9 279.333V280.122H195.958V278.389H202.435C202.431 277.896 202.324 277.458 202.116 277.075C201.907 276.686 201.616 276.381 201.242 276.159C200.873 275.936 200.442 275.825 199.95 275.825C199.424 275.825 198.962 275.953 198.565 276.208C198.167 276.459 197.857 276.791 197.634 277.203C197.416 277.61 197.305 278.057 197.3 278.545V280.058C197.3 280.692 197.416 281.237 197.648 281.691C197.88 282.141 198.205 282.487 198.621 282.728C199.038 282.965 199.526 283.083 200.085 283.083C200.459 283.083 200.797 283.031 201.1 282.927C201.403 282.818 201.666 282.66 201.888 282.451C202.111 282.243 202.279 281.985 202.393 281.677L204.793 281.947C204.642 282.581 204.353 283.135 203.927 283.609C203.505 284.078 202.966 284.442 202.308 284.703C201.649 284.958 200.897 285.086 200.049 285.086ZM215.175 285.093C214.484 285.093 213.861 284.97 213.307 284.724C212.758 284.473 212.322 284.104 212 283.616C211.683 283.128 211.525 282.527 211.525 281.812C211.525 281.196 211.638 280.687 211.865 280.285C212.093 279.883 212.403 279.561 212.796 279.319C213.189 279.078 213.632 278.895 214.124 278.772C214.621 278.644 215.135 278.552 215.665 278.495C216.304 278.429 216.823 278.37 217.221 278.318C217.618 278.261 217.907 278.176 218.087 278.062C218.272 277.944 218.364 277.761 218.364 277.515V277.472C218.364 276.937 218.205 276.523 217.888 276.23C217.571 275.936 217.114 275.789 216.517 275.789C215.888 275.789 215.388 275.927 215.019 276.201C214.654 276.476 214.408 276.8 214.28 277.174L211.88 276.833C212.069 276.17 212.382 275.616 212.817 275.171C213.253 274.722 213.785 274.385 214.415 274.163C215.045 273.936 215.741 273.822 216.503 273.822C217.029 273.822 217.552 273.883 218.073 274.007C218.594 274.13 219.069 274.333 219.5 274.617C219.931 274.897 220.277 275.278 220.537 275.761C220.802 276.244 220.935 276.847 220.935 277.572V284.873H218.463V283.374H218.378C218.222 283.677 218.002 283.962 217.718 284.227C217.438 284.487 217.086 284.698 216.659 284.859C216.238 285.015 215.743 285.093 215.175 285.093ZM215.843 283.204C216.359 283.204 216.806 283.102 217.185 282.899C217.564 282.69 217.855 282.416 218.059 282.075C218.267 281.734 218.371 281.362 218.371 280.96V279.674C218.291 279.74 218.153 279.802 217.959 279.859C217.77 279.916 217.557 279.965 217.32 280.008C217.083 280.051 216.849 280.088 216.617 280.122C216.385 280.155 216.184 280.183 216.013 280.207C215.63 280.259 215.286 280.344 214.983 280.463C214.68 280.581 214.441 280.747 214.266 280.96C214.091 281.168 214.003 281.438 214.003 281.769C214.003 282.243 214.176 282.6 214.522 282.842C214.867 283.083 215.308 283.204 215.843 283.204ZM232.142 276.847L229.799 277.103C229.732 276.866 229.616 276.644 229.451 276.436C229.29 276.227 229.072 276.059 228.797 275.931C228.523 275.803 228.186 275.74 227.789 275.74C227.254 275.74 226.804 275.856 226.439 276.088C226.079 276.32 225.902 276.62 225.907 276.99C225.902 277.307 226.018 277.565 226.255 277.764C226.496 277.963 226.894 278.126 227.448 278.254L229.309 278.651C230.341 278.874 231.108 279.227 231.61 279.71C232.116 280.193 232.372 280.825 232.377 281.606C232.372 282.293 232.171 282.899 231.773 283.424C231.38 283.945 230.833 284.352 230.132 284.646C229.432 284.939 228.627 285.086 227.718 285.086C226.382 285.086 225.308 284.807 224.493 284.248C223.679 283.685 223.194 282.901 223.037 281.897L225.544 281.656C225.658 282.148 225.9 282.52 226.269 282.771C226.638 283.022 227.119 283.147 227.711 283.147C228.321 283.147 228.811 283.022 229.181 282.771C229.555 282.52 229.742 282.21 229.742 281.84C229.742 281.528 229.621 281.27 229.38 281.066C229.143 280.863 228.774 280.706 228.272 280.597L226.411 280.207C225.364 279.989 224.59 279.622 224.088 279.106C223.587 278.585 223.338 277.927 223.343 277.132C223.338 276.459 223.52 275.877 223.89 275.384C224.264 274.887 224.782 274.504 225.445 274.234C226.113 273.959 226.882 273.822 227.753 273.822C229.032 273.822 230.038 274.094 230.772 274.639C231.51 275.183 231.967 275.919 232.142 276.847ZM243.119 276.847L240.775 277.103C240.709 276.866 240.593 276.644 240.427 276.436C240.266 276.227 240.048 276.059 239.774 275.931C239.499 275.803 239.163 275.74 238.765 275.74C238.23 275.74 237.78 275.856 237.416 276.088C237.056 276.32 236.878 276.62 236.883 276.99C236.878 277.307 236.994 277.565 237.231 277.764C237.473 277.963 237.87 278.126 238.424 278.254L240.285 278.651C241.317 278.874 242.084 279.227 242.586 279.71C243.093 280.193 243.349 280.825 243.353 281.606C243.349 282.293 243.147 282.899 242.75 283.424C242.357 283.945 241.81 284.352 241.109 284.646C240.408 284.939 239.603 285.086 238.694 285.086C237.359 285.086 236.284 284.807 235.47 284.248C234.655 283.685 234.17 282.901 234.014 281.897L236.521 281.656C236.635 282.148 236.876 282.52 237.245 282.771C237.615 283.022 238.095 283.147 238.687 283.147C239.298 283.147 239.788 283.022 240.157 282.771C240.531 282.52 240.718 282.21 240.718 281.84C240.718 281.528 240.598 281.27 240.356 281.066C240.119 280.863 239.75 280.706 239.248 280.597L237.387 280.207C236.341 279.989 235.567 279.622 235.065 279.106C234.563 278.585 234.315 277.927 234.319 277.132C234.315 276.459 234.497 275.877 234.866 275.384C235.24 274.887 235.759 274.504 236.422 274.234C237.089 273.959 237.859 273.822 238.73 273.822C240.008 273.822 241.014 274.094 241.748 274.639C242.487 275.183 242.944 275.919 243.119 276.847ZM245.473 284.873V273.964H248.044V284.873H245.473ZM246.766 272.416C246.359 272.416 246.008 272.281 245.715 272.011C245.421 271.736 245.275 271.407 245.275 271.024C245.275 270.635 245.421 270.306 245.715 270.036C246.008 269.762 246.359 269.624 246.766 269.624C247.178 269.624 247.528 269.762 247.817 270.036C248.111 270.306 248.257 270.635 248.257 271.024C248.257 271.407 248.111 271.736 247.817 272.011C247.528 272.281 247.178 272.416 246.766 272.416ZM259.31 276.847L256.967 277.103C256.9 276.866 256.784 276.644 256.619 276.436C256.458 276.227 256.24 276.059 255.965 275.931C255.691 275.803 255.354 275.74 254.957 275.74C254.422 275.74 253.972 275.856 253.607 276.088C253.247 276.32 253.07 276.62 253.075 276.99C253.07 277.307 253.186 277.565 253.423 277.764C253.664 277.963 254.062 278.126 254.616 278.254L256.477 278.651C257.509 278.874 258.276 279.227 258.778 279.71C259.284 280.193 259.54 280.825 259.545 281.606C259.54 282.293 259.339 282.899 258.941 283.424C258.548 283.945 258.001 284.352 257.3 284.646C256.6 284.939 255.795 285.086 254.886 285.086C253.55 285.086 252.476 284.807 251.661 284.248C250.847 283.685 250.362 282.901 250.205 281.897L252.712 281.656C252.826 282.148 253.067 282.52 253.437 282.771C253.806 283.022 254.287 283.147 254.879 283.147C255.489 283.147 255.979 283.022 256.349 282.771C256.723 282.52 256.91 282.21 256.91 281.84C256.91 281.528 256.789 281.27 256.548 281.066C256.311 280.863 255.942 280.706 255.44 280.597L253.579 280.207C252.532 279.989 251.758 279.622 251.256 279.106C250.754 278.585 250.506 277.927 250.511 277.132C250.506 276.459 250.688 275.877 251.058 275.384C251.432 274.887 251.95 274.504 252.613 274.234C253.281 273.959 254.05 273.822 254.921 273.822C256.2 273.822 257.206 274.094 257.94 274.639C258.678 275.183 259.135 275.919 259.31 276.847ZM267.112 273.964V275.953H260.841V273.964H267.112ZM262.389 271.35H264.96V281.592C264.96 281.937 265.012 282.203 265.116 282.387C265.225 282.567 265.367 282.69 265.543 282.757C265.718 282.823 265.912 282.856 266.125 282.856C266.286 282.856 266.433 282.844 266.565 282.82C266.703 282.797 266.807 282.776 266.878 282.757L267.311 284.767C267.174 284.814 266.977 284.866 266.722 284.923C266.471 284.98 266.163 285.013 265.798 285.022C265.154 285.041 264.574 284.944 264.058 284.731C263.542 284.513 263.133 284.177 262.83 283.722C262.531 283.268 262.384 282.7 262.389 282.018V271.35ZM275.821 288.964C275.471 288.964 275.147 288.936 274.848 288.879C274.555 288.827 274.32 288.765 274.145 288.694L274.742 286.691C275.116 286.8 275.45 286.852 275.743 286.847C276.037 286.843 276.295 286.75 276.517 286.57C276.745 286.395 276.936 286.102 277.093 285.69L277.313 285.1L273.357 273.964H276.084L278.598 282.203H278.712L281.233 273.964H283.968L279.6 286.194C279.396 286.772 279.126 287.267 278.79 287.678C278.454 288.095 278.042 288.412 277.554 288.63C277.071 288.853 276.494 288.964 275.821 288.964ZM290.134 285.086C289.069 285.086 288.146 284.852 287.364 284.383C286.583 283.914 285.977 283.258 285.546 282.416C285.12 281.573 284.907 280.588 284.907 279.461C284.907 278.334 285.12 277.347 285.546 276.499C285.977 275.652 286.583 274.994 287.364 274.525C288.146 274.056 289.069 273.822 290.134 273.822C291.2 273.822 292.123 274.056 292.904 274.525C293.685 274.994 294.289 275.652 294.715 276.499C295.146 277.347 295.362 278.334 295.362 279.461C295.362 280.588 295.146 281.573 294.715 282.416C294.289 283.258 293.685 283.914 292.904 284.383C292.123 284.852 291.2 285.086 290.134 285.086ZM290.148 283.026C290.726 283.026 291.209 282.868 291.597 282.551C291.986 282.229 292.274 281.798 292.464 281.258C292.658 280.718 292.755 280.117 292.755 279.454C292.755 278.786 292.658 278.183 292.464 277.643C292.274 277.098 291.986 276.665 291.597 276.343C291.209 276.021 290.726 275.86 290.148 275.86C289.557 275.86 289.064 276.021 288.671 276.343C288.283 276.665 287.992 277.098 287.798 277.643C287.608 278.183 287.513 278.786 287.513 279.454C287.513 280.117 287.608 280.718 287.798 281.258C287.992 281.798 288.283 282.229 288.671 282.551C289.064 282.868 289.557 283.026 290.148 283.026ZM304.497 280.285V273.964H307.068V284.873H304.575V282.934H304.461C304.215 283.545 303.81 284.044 303.247 284.433C302.688 284.821 301.999 285.015 301.18 285.015C300.465 285.015 299.833 284.856 299.284 284.539C298.739 284.217 298.313 283.751 298.005 283.14C297.698 282.525 297.544 281.781 297.544 280.91V273.964H300.115V280.512C300.115 281.204 300.304 281.753 300.683 282.16C301.062 282.567 301.559 282.771 302.174 282.771C302.553 282.771 302.92 282.678 303.275 282.494C303.63 282.309 303.922 282.035 304.149 281.67C304.381 281.301 304.497 280.839 304.497 280.285ZM312.169 280.597V280.413C312.174 279.556 312.254 278.874 312.411 278.367C312.571 277.861 312.799 277.454 313.092 277.146C313.386 276.833 313.743 276.547 314.165 276.286C314.454 276.106 314.712 275.91 314.939 275.697C315.171 275.479 315.353 275.238 315.486 274.972C315.618 274.703 315.685 274.402 315.685 274.07C315.685 273.696 315.597 273.372 315.422 273.097C315.247 272.823 315.01 272.61 314.712 272.458C314.418 272.307 314.089 272.231 313.724 272.231C313.388 272.231 313.069 272.304 312.766 272.451C312.467 272.593 312.219 272.811 312.02 273.105C311.826 273.393 311.717 273.76 311.693 274.205H309.165C309.188 273.306 309.406 272.553 309.818 271.947C310.235 271.341 310.784 270.886 311.466 270.583C312.152 270.28 312.91 270.129 313.739 270.129C314.643 270.129 315.438 270.287 316.125 270.605C316.816 270.922 317.354 271.374 317.737 271.961C318.125 272.544 318.32 273.235 318.32 274.035C318.32 274.575 318.232 275.058 318.057 275.484C317.886 275.91 317.643 276.289 317.325 276.62C317.008 276.952 316.632 277.248 316.196 277.508C315.813 277.745 315.498 277.991 315.251 278.247C315.01 278.502 314.83 278.803 314.712 279.149C314.598 279.49 314.539 279.911 314.534 280.413V280.597H312.169ZM313.405 285.029C312.979 285.029 312.612 284.878 312.304 284.575C311.996 284.272 311.842 283.902 311.842 283.467C311.842 283.041 311.996 282.676 312.304 282.373C312.612 282.07 312.979 281.919 313.405 281.919C313.826 281.919 314.191 282.07 314.499 282.373C314.811 282.676 314.967 283.041 314.967 283.467C314.967 283.756 314.894 284.018 314.747 284.255C314.605 284.492 314.416 284.681 314.179 284.823C313.947 284.961 313.689 285.029 313.405 285.029Z" fill="#6B7280"/>
</svg>
